<svg id="Layer_1" data-name="Layer 1" xmlns="http://www.w3.org/2000/svg" viewBox="0 0 1000 1000"><defs><style>.cls-1{fill:#fff;}</style></defs><path class="cls-1" d="M376.57,176.68h90.52c-2.8,18.24-5.37,35.56-8.12,52.85Q439.54,351.47,420,473.4c-.73,4.53-1.68,9-2.79,13.49-12.39,49.3-37.41,73.29-88.09,78.17-24,2.32-48.67-2.11-73-3.84-11.46-.82-15.24-7.76-13.49-18.69,3.09-19.25,5.92-38.54,8.86-57.79,11.55,0,22.19,0,32.83,0,32.68.14,45.49-11.26,50.43-43.79,6.67-43.91,13.81-87.75,20.76-131.62S369.43,221.62,376.57,176.68Z"/><path class="cls-1" d="M681.15,482.49c-4.45,28.33-8.75,55.73-13.15,83.76H423.09c21.14-25.21,31.86-53.45,38-83.76Z"/><path class="cls-1" d="M728.3,177l-11.92,82.37H496.63l13-82.37Z"/><path class="cls-1" d="M678.35,332.6c-3.71,24.51-6.66,46.09-10.63,67.48-.45,2.44-6.51,5.35-10.05,5.46q-60.24,1.89-120.52,2.83c-21,.35-42,.06-64.09.06,3.78-24.25,7.39-49,11.93-73.64.41-2.26,6.8-4.93,10.38-4.88,42.86.62,85.71,1.83,128.56,2.63C641.47,332.87,659,332.6,678.35,332.6Z"/><path class="cls-1" d="M626.88,110.72h44.89c.94-5.4,1.79-10.17,2.83-16.13H638.92L650.23,29h93.12c-1.07,19.78-1.07,19.78-18.88,19.78H668.74c-1.5,8.44-2.88,16.21-4.48,25.24h72.21c-.67,4.93-1.45,8.69-1.64,12.48-.33,6.48-3.72,8.28-9.79,8-9.13-.4-18.29-.11-28-.11-1.11,5.54-2,10.29-3.28,16.46H738.9c-1.21,7.7-2.19,13.87-3.19,20.21H622.84C624.21,124.11,625.46,117.84,626.88,110.72Z"/><path class="cls-1" d="M482.21,26.72c-2.3,13.64-4.37,25.94-6.46,38.34,8.16,0,8.1,0,10.87-16.42,1.26-7.5,2.78-14.94,4.23-22.64h19.68l-20,114.22H470.59c3-17.59,5.9-34.68,8.81-51.77l-3-2.16c-2,2.71-5.06,5.18-5.7,8.17-2.88,13.44-5.06,27-7.63,41.34H443.38c6.08-34.61,11.69-68.54,18.14-102.32C464,20.47,474.33,29.16,482.21,26.72Z"/><path class="cls-1" d="M388,121.66c5.4-30.58,10.7-60.58,16.06-90.95H454.8c-1.13,6.53-2.14,12.41-3.3,19.17-5.49,0-10.49.5-15.34-.1-11.91-1.48-18.48,2.35-16.53,16.86h26.14c-1.22,7.12-2.16,12.63-3.28,19.15h-27c-1.08,5.65-2,10.38-3.24,17l29.39-1.89c3.58,18.33,3.36,19.22-15.11,20.62C414.05,122.43,401.44,121.66,388,121.66Z"/><path class="cls-1" d="M532.67,102.13c1-7,1.6-11.49,2.38-17.11l-22.44-1.18c.86-5.7,1.59-10.51,2.55-16.82h32c18.48,0,18.48,0,20.14-20.16h-44c1.11-6.87,2-12.33,3-18.6h67.08c-2.43,12.12-4.78,23.81-7.12,35.51l2.75-.63c1.54,4.42,4.83,9.2,4,13.14-.59,2.92-6.24,5.61-10.13,6.84a36.08,36.08,0,0,1-13.64,1.11c-8.65-.72-13.59,1.57-14.29,11.38-.17,2.38-5.82,5.25-9.41,6.28C541.73,103,537.38,102.13,532.67,102.13Z"/><path class="cls-1" d="M607,26h21.19l-15.5,89c-8.49-2.67-15.62-5.75-23.07-7-6.62-1.12-13.59-.23-20.3-.23-.56-16.24-.56-16.24,26.14-18.4C599.23,68.74,603.05,47.8,607,26Z"/><path class="cls-1" d="M612.58,121.67c-3.24,22.41-.18,18.86-19.06,19-27.12.23-54.25.06-82.79.06,2-12.05,3.75-22.84,5.64-34.32h20.72v15.24Z"/><path class="cls-1" d="M479.44,869.69c-2.52-12.89-4.83-24.73-7.14-36.57l-2-.89q-4.59,10.41-9.18,20.8c-8.13,18.33-8.13,18.33-29.66,16.48-3.89-24-7.83-48.35-11.91-73.58h21.2c2,16.41,4.05,33.28,6.11,50.15l1.57.66c2.22-5.28,4.47-10.55,6.65-15.85,4-9.69,8.47-19.23,11.7-29.17,2.11-6.53,6.46-8,11.48-6.28,2.75.95,5.54,5.06,6.22,8.2,3.06,14.27,5.38,28.71,9.78,43.63,6.14-17.39,12.29-34.77,18.69-52.89h20c-3,9.53-5.05,18.34-8.5,26.57-5.39,12.88-12.56,25-17.39,38.11-3.57,9.65-9.28,12.52-18.59,11.12C485.73,869.76,482.89,869.86,479.44,869.69Z"/><path class="cls-1" d="M665.07,633.44c-.86,5.74-1.63,10.93-2.52,16.84h-30c-14.46,0-16.29,1.61-18.06,15.89-.24,1.88-.3,3.78-.52,6.68l36.65,2c.41,16.11.15,16.38-14.47,16.53-2.23,0-4.46,0-6.69.12-6,.27-12,.59-18,.88a15,15,0,0,0-1.31,2.74c-4.44,19-3.38,20.33,15.62,20.35h24.63c2.27,16.21.94,18.09-13.69,18.66-11.11.43-22.29,1.26-33.34.47-13.36-1-19.1-9-17.1-22.18q4.35-28.8,9.16-57.52c2.77-16.49,11.34-23.84,28.12-23.77,12.08.05,24.16.89,36.24,1.44A50.8,50.8,0,0,1,665.07,633.44Z"/><path class="cls-1" d="M748.23,870.47c-7.77-2-16.3,4.17-20.44-5.68-5.68,2-11.19,4.63-17,5.69-12.33,2.27-21.49-4-23.7-16.27-2.87-15.85-.07-31.1,7.34-45.28,5.41-10.37,15.21-13.91,26.29-14.39,5.68-.24,11.38,0,18.4,0,1.67-9.43,3.53-19.89,5.46-30.74h20.48Zm-11.85-56.76c-15-5.62-23.12-1.91-27.07,12a69,69,0,0,0-2.52,15c-.34,6.36,1,12.35,8.79,13.56,7.32,1.13,14.83-4,16.07-11C733.36,833.59,734.77,823.87,736.38,813.71Z"/><path class="cls-1" d="M416.15,796.06c-3.57,14.39-10.61,25.57-23.22,33.71L411.6,869c-1,.56-1.24.81-1.5.83-18.73,1.49-18.73,1.49-26.6-15.69-2.12-4.62-3.92-9.42-6.49-13.77-1-1.69-4.06-3.61-5.58-3.2a8.75,8.75,0,0,0-5.25,5.06c-1.35,4.52-1.56,9.38-2.33,14.08-.71,4.33-1.55,8.65-2.39,13.32H340.89c5.68-35.65,11.26-70.72,16.84-105.77h20.62c-2.92,19.09-5.74,37.48-8.69,56.7,10.1-.78,18-5.34,20.72-13.46C394.92,793.53,404,793.74,416.15,796.06Z"/><path class="cls-1" d="M346.13,734.12c-7.22-1-15.64,4.6-20-5-6.31,2-12.19,4.67-18.33,5.65-11.57,1.85-20-4.07-22.39-15.58a63.87,63.87,0,0,1,7.17-45.13c7.22-12.86,20.2-15.44,33.75-15.72a51.42,51.42,0,0,1,6.64.63c22.59,2.58,24.65,5.08,21.33,26.77-2.27,14.76-4.77,29.49-7.19,44.24C346.87,731.19,346.53,732.38,346.13,734.12Zm-11.71-56.23c-11.8-4.43-21-2.89-24.15,5.46-3,8.09-4.09,17.17-4.6,25.9-.33,5.52,3.93,10.51,9.81,8.93,5.11-1.37,12.12-4.85,13.52-9C332.3,699.41,332.75,688.68,334.42,677.89Z"/><path class="cls-1" d="M256.6,870.26c-7.22-2-15.65,4.46-20.16-5.54-5.87,1.93-11.7,4.59-17.81,5.69-12,2.16-20.82-3.77-23.18-15.68a64.12,64.12,0,0,1,7.35-45.12c7.32-12.83,20.34-15.19,33.85-15.55a27.41,27.41,0,0,1,2.82.42c27,2.27,28.83,4.75,24.27,31C261.24,839.88,259.12,854.35,256.6,870.26Zm-12-56.52c-11.92-4.67-21.35-2.77-24.61,6-2.8,7.56-3.83,16-4.31,24.13-.34,5.85,3.11,10.94,9.91,10.22,6.11-.65,13-1.41,14.23-9.81C241.28,834.26,242.92,824.23,244.57,813.74Z"/><path class="cls-1" d="M833.38,825.06c-.1,1.07-.37,4.88-.8,8.66-3.52,30.7-17,40.83-51,36.08-11.32-1.57-17.82-9.43-18.74-21a85.81,85.81,0,0,1,.55-16.17c3.25-29.83,17.12-41.13,46.51-38.13C828,796.38,833.37,802.77,833.38,825.06ZM813.8,820c-2.28-2.46-4.77-7.42-8.51-8.66-6.51-2.18-14-1.22-16.88,6.49a102.45,102.45,0,0,0-5,21.19c-.93,6.37-1.11,13.12,7.6,15,8.37,1.8,15.65-1.86,17.94-10C810.92,837,811.88,829.75,813.8,820Z"/><path class="cls-1" d="M602,825.14c-.09,1.06-.34,4.87-.78,8.65-3.54,30.23-16.47,40.85-51.07,36-11-1.55-17.39-8.95-18.48-20.08a83,83,0,0,1,.38-17.11c3.25-29.85,17.13-41.11,46.55-38.11C596.59,796.33,602.06,802.85,602,825.14ZM582.32,821c-1.94-2.44-4.2-8.05-8-9.52-6.3-2.42-14-1.63-17,6-2.64,6.7-4.07,14-5.15,21.16-1,6.74-1.2,13.81,8.14,15.48,8.57,1.53,15.19-2.16,17.56-10.65C579.59,837.08,580.46,830.43,582.32,821Z"/><path class="cls-1" d="M625.51,869.76H604.75c3.89-24.87,7.69-49.21,11.57-74,7.76-.06,15.94-4.29,20.1,4.76,8-2.27,15.48-5.38,23.19-6.32,13.69-1.68,22.76,6.83,21.23,20.2-2.08,18.28-5.43,36.42-8.31,55.14H651.94q2.49-17.06,5-34.23c.33-2.2,1-4.37,1.13-6.57.38-6.3,3.83-14.12-6.54-15.81-9.13-1.49-17.57,4.24-19,12.77C630.13,840.08,627.92,854.53,625.51,869.76Z"/><path class="cls-1" d="M268.82,734.82c-7.59-2.57-16.66,4.85-19.77-5.05-9.42,1.83-18.55,4.8-27.76,5.11-11.53.4-18-6.73-16.81-18.25,2-18.9,5.31-37.66,8.11-56.81h20.9c-2.22,14.36-4.41,28.3-6.5,42.26-.9,6-2.69,12.51,6.11,14.35,8,1.68,18.18-4.07,19.39-11.12,2.1-12.22,4.43-24.43,5.67-36.75.73-7.26,3.31-10.28,10.64-9.3,3.37.45,6.85.08,11.72.08C276.58,684.72,272.81,709,268.82,734.82Z"/><path class="cls-1" d="M290.2,842.73c-1.43,8.07,3,11.88,10.45,12.24,9.78.46,19.6.11,30.78.11-.89,5.13-1.51,8.7-2.46,14.19-12.84.34-25.77,1.5-38.6.8-12-.65-20.08-8.15-20.16-20.14s1-25,5.2-36.19c7-18.77,38.31-26.25,54.83-14.74,7.89,5.49,8.62,13.53,7.85,22.06-.82,9.1-5.18,16.37-14.22,18.15C313.14,841.33,302,841.58,290.2,842.73Zm1.59-13.14c6.06,0,11.75.63,17.25-.16,6.8-1,11.06-5.3,9.5-12.62-1.61-7.6-7.9-7.32-13.63-6.23C294.83,812.49,293.08,820.55,291.79,829.59Z"/><path class="cls-1" d="M435.73,705.6c-1.58,9.54,2.89,13.33,10.35,13.67,9.79.44,19.61.11,30.65.11l-2.66,15.13c-13,0-25.94.72-38.79-.21-11.7-.85-19.49-8-19.66-19.67-.17-12.14.81-25.06,4.92-36.33,6.89-18.93,38.09-26.62,54.85-15.16,7.94,5.44,8.79,13.46,8,22.07s-4.73,15.76-13.31,17.93c-7.9,2-16.28,2.15-24.48,2.85C442.53,706.25,439.38,705.77,435.73,705.6Zm1.54-11.29c4.77,0,8.85.08,12.92,0a22.42,22.42,0,0,0,5.59-.83c6-1.72,9.16-5.69,8.23-12-1-6.6-6.21-7.3-11.51-7C443.5,674.86,439.36,680.08,437.27,694.31Z"/><path class="cls-1" d="M812.14,707c-1.45,8,2.94,11.87,10.39,12.24,9.77.48,19.58.12,30.75.12-.83,5.09-1.42,8.66-2.31,14.14-12.87.36-25.79,1.53-38.62.86-12-.63-20.08-8.09-20.2-20.11s1-25,5.16-36.18c7-18.83,38.21-26.38,54.81-14.87,7.87,5.46,8.72,13.51,7.93,22-.84,9.06-5.11,16.4-14.18,18.19C835.13,705.55,824,705.83,812.14,707Zm1.79-12.21c7.06-.73,14.2-.32,20.35-2.59,3.05-1.13,6-7.34,5.7-11-.21-2.54-5.85-6.18-9.38-6.58C820.91,673.53,815.73,680,813.93,694.78Z"/><path class="cls-1" d="M139.71,785.88c1-7,1.83-12.3,2.72-18.32h77.34c-.93,6-1.79,11.59-2.8,18.17H188.81c-4.57,28.53-9,56.07-13.45,83.94H154.62c4.31-27.8,8.56-55.26,13-83.79Z"/><path class="cls-1" d="M524.81,676H491.75c1-6,1.83-10.87,2.7-16.08h59.22c1.2,9.87-2.65,16.78-9.27,23.18-10.72,10.36-20.73,21.44-32.79,34h34.63c-1,6.47-1.76,11.43-2.58,16.8H484.91c-.47-8.77,2.13-15.8,8.49-22,11.07-10.83,21.58-22.24,32.32-33.4C525.42,677.66,525.12,676.82,524.81,676Z"/><path class="cls-1" d="M779.81,719.65c-1.77,15.48-1.77,15.48-16.24,14.73-13.64-.71-20.22-6.13-19.4-18,.89-12.92,3.33-25.73,5.18-39.27l-10-1.86c-.15-7.3.28-13.37,9.75-15.3,2.88-.59,5.66-5.94,6.88-9.64,4.28-13.06,4-13.15,19.52-11-.7,6.09-1.4,12.22-2.24,19.55l16.94.84c-.76,5.29-1.46,10.12-2.11,14.65-.92.63-1.4,1.22-1.93,1.27-16.42,1.68-16.41,1.67-18.86,18.87-.27,1.88-.62,3.76-.95,5.63C763.49,716.28,763.49,716.28,779.81,719.65Z"/><path class="cls-1" d="M149.44,716.09h6.29c15.74.08,17.85-1.59,20.4-17.32,3.59-22.23,7-44.49,10.52-67.17h21c-4.63,28.14-8.53,55.82-13.94,83.2-3.42,17.3-25.64,27.09-40.83,18.09C149.73,731,150.58,722.4,149.44,716.09Z"/><path class="cls-1" d="M678.43,628.14h21.16c-3.16,20.12-6.2,39.53-9.26,58.94-.84,5.34-1.63,10.69-2.69,16-1.77,8.94-1,16.14,11.42,16.24-.72,5.24-1.35,9.83-2.09,15.28-6.3-.38-12.09,0-17.56-1.2-8.18-1.74-14.72-6.79-13.59-15.8C669.58,687.7,674.16,657.91,678.43,628.14Z"/><path class="cls-1" d="M370.05,658.73c7.39,3.1,17.39-5.21,19.76,8.11,4.42-2.43,8.54-5.57,13.19-7,4.21-1.3,9-.74,14.28-1-.64,4.4-1.39,7.19-1.37,10,.07,8-2.51,11.63-11.69,11.5-14.27-.21-17.16,3.36-19.38,17.55-1.86,11.9-3.89,23.77-5.91,36.08H358.14C362.07,709.08,365.93,684.71,370.05,658.73Z"/><path class="cls-1" d="M725,733.91H704.14c3.92-24.93,7.76-49.29,11.66-74.06h20.83C732.73,684.64,728.88,709.09,725,733.91Z"/><path class="cls-1" d="M265.73,961.05V924.36c-6.21,12.08-8,25.75-13.43,37.84l-4.07-1.62q8.52-28.41,17-56.81l3.3.62v40.8l2.05.5q7.33-21.08,14.66-42.14l1.46,1.09v56.71l-3.41-.08V921.64q-7.05,20.15-14.15,40.43Z"/><path class="cls-1" d="M545.53,961.23v-37.5l2.09-.24v25.25l2.84.59q4.68-13.37,9.38-26.74l3.59.93v24.73l1.89.34,11.09-25.9,3.27,1.61c-4.93,12.65-8.08,26.06-15.54,37.63l-2.89-.51c-.54-7.38-1.09-14.75-1.84-25.06-3.75,10.24-6.63,18.13-9.51,26Z"/><path class="cls-1" d="M647.94,961.52c-19.55-2.89-19.88-3.17-18.36-15.13,2.47-19.56,5.88-23.77,18.77-22.37,1.58-8,3.18-16,4.79-24.09l4.28,1Zm0-27.3-4.4-6.68c-1.94,1.79-5,3.27-5.61,5.45a100.27,100.27,0,0,0-3.26,18.54c-.15,1.83,2.24,3.88,3.46,5.82,1.87-1.43,4.81-2.52,5.42-4.37C645.41,947.3,646.36,941.33,648,934.22Z"/><path class="cls-1" d="M521.69,946.67l-4.45,15.25-3.65-.94,9.78-60.69,4.46.56q-2.31,16.53-4.63,33.07l3.18,2.21q4.23-7.59,8.44-15.18l2.77,2.71c.14.47.54,1.26.39,1.38-13.4,11.09-12.45,23,0,36.36C525.81,961.48,528,950.41,521.69,946.67Z"/><path class="cls-1" d="M377.7,924.18c-.43,20.89-6.49,49.46-12,52.82.51-5.73,1-10.88,1.47-16.76-9.18,3.17-13.16-.58-13.49-9C352.92,931.36,359.24,924.27,377.7,924.18ZM368.42,927c-6.48,4.78-11.93,21.92-8.56,27.45.8,1.32,5.16,2.12,6.48,1.18C371.44,952,372.7,933.92,368.42,927Z"/><path class="cls-1" d="M489.51,923.55c-2.1,13.05-4.08,25.4-6.12,38.05-2.05-.31-3.25-.52-4.46-.68-5.3-.66-12.4,3.3-14.2-6-1.82-9.5,3.34-28.26,9.46-30.27C478.62,923.18,483.74,923.86,489.51,923.55Zm-9,3.16c-7.59,4.68-13.58,23-9.72,28.35.82,1.14,6.73.72,7.2-.34C481.8,946.09,484.85,937.14,480.54,926.71Z"/><path class="cls-1" d="M317.33,924.09c-2,12.5-4,24.85-6,37.53-2-.34-3.25-.62-4.46-.71-15.37-1.25-15.68-1.65-13.35-17.33.28-1.88.44-3.78.82-5.63C296.89,925.62,298.83,924.41,317.33,924.09Zm-8.91,2.63c-7.52,4.7-13.5,23.15-9.65,28.36.84,1.14,6.74.68,7.2-.38C309.7,946.07,312.83,937.14,308.42,926.72Z"/><path class="cls-1" d="M603.13,935.31c-2.72,8.17-3.8,15.05-7.25,20.42-2,3.06-7.89,5.1-11.82,4.79-2.26-.18-5.73-5.95-5.74-9.21a62.77,62.77,0,0,1,3.31-19.4c1.89-5.78,6.91-10.56,13-7.81C598.53,925.83,600.55,931.68,603.13,935.31Zm-5.9,1.46-4.41-8.41c-2.52,2.35-6.3,4.27-7.3,7.15-1.72,5-2,10.49-2.24,15.81-.07,1.75,2,3.58,3.13,5.37,2-1.23,5-2,5.74-3.77C594.25,948.07,595.41,942.82,597.23,936.77Z"/><path class="cls-1" d="M427.49,942.9c-3.48,0-6.59.21-9.66,0-7.39-.61-7.63,4-6.59,9.14.32,1.64,1.92,4.24,3,4.26,1.81,0,4-1.26,5.41-2.64,1.69-1.67,2.73-4,5-5.44.88,7.4-2.15,12.77-9.4,13.1-8.2.38-9.62-6.38-9.09-12.67.5-5.87,1.33-12.27,4.14-17.23,2.06-3.62,7.56-5.29,11.53-7.84,2.23,4,4.8,7.94,6.53,12.18C429,937.45,427.89,939.92,427.49,942.9Zm-1.94-4.69c-2.48-4.41-4.06-7.24-5.65-10.07l-9.75,10.07Z"/><path class="cls-1" d="M511.76,942.89c-4,0-7.27-.61-10.18.19-2.43.68-5.85,2.75-6.22,4.69-.49,2.6,1.55,5.67,2.51,8.54,2.29-1.58,5.05-2.78,6.7-4.86,1.2-1.5.92-4.17,1.3-6.32l4.45,4.31c-1.42,6-3.78,11.91-11.39,11.84-8.16-.08-9.25-6.86-8.72-13.09.48-5.58,1.13-11.79,4-16.31,2.37-3.8,8-5.57,12.16-8.25,2.09,4.15,4.43,8.2,6.14,12.5C513.07,937.65,512.14,939.78,511.76,942.89Zm-2.3-4.74c-2.27-4.27-3.8-7.13-5.32-10l-10,10Z"/><path class="cls-1" d="M618.64,960.85c1.22-7.72,2.8-15.41,3.51-23.17.3-3.32-1.22-6.81-1.91-10.23-2.61,3-6.52,5.58-7.58,9-2,6.61-2.27,13.73-3.57,20.59-.33,1.73-1.82,3.24-2.78,4.86l-2.72-.87c1.93-12.48,3.85-25,5.88-38.05,2.41.68,3.83,1.32,5.28,1.43,14.22,1.1,14.3,1.09,12.12,15.36-1.13,7.36-2.58,14.68-3.89,22Z"/><path class="cls-1" d="M403.91,924c-1.92,10.4-2.92,21.12-6.32,31-1.09,3.16-8.47,5-13.19,5.53-1.28.14-5-6.75-4.74-10.23.58-9.09,2.71-18.09,4.22-27.12l3.72.44c-.35,4-.61,8-1.09,11.94s-1.77,8.16-1.66,12.22c.08,3,1.83,5.94,2.84,8.91,2.31-2.51,5.75-4.65,6.67-7.59,1.8-5.69,2.09-11.84,3.18-17.76.51-2.77,1.45-5.46,2.19-8.18Z"/><path class="cls-1" d="M681.52,935.25c-2.7,8.17-3.78,15-7.21,20.43-2,3.07-7.87,5.15-11.79,4.86-2.27-.17-5.8-5.91-5.82-9.17A62.15,62.15,0,0,1,660,932c1.87-5.75,6.85-10.62,13-7.9C676.86,925.78,678.91,931.62,681.52,935.25Zm-16.65,22c7.39-4.61,12.61-19.42,8.89-25.87-.78-1.35-5.74-2.06-7.11-1C661.38,934.52,660.49,950,664.87,957.2Z"/><path class="cls-1" d="M718.47,647.22c-.42-18.43.65-19.3,21.52-17.54C741.6,650.61,739.62,649.89,718.47,647.22Z"/><path class="cls-1" d="M450.67,961.1c2.57-17,5.15-34.05,7.75-51.21L450.84,907l.2-1.75h22.84c-18.24,7.69-10.1,24.86-14.94,37.27-1.69,4.33-1.38,9.41-2.39,14.06-.43,1.95-1.94,3.66-3,5.48Z"/><path class="cls-1" d="M336.71,927.79l-11,2.74c1.39,3.49,2,7.67,4.32,10.32,4.4,5,6.56,10.44,1.75,15.14-3,3-8.66,3.47-13.25,4.55-.8.19-2.21-2.27-5-5.3,4,.75,5.78,1.61,7.27,1.25,2.55-.6,6.11-1.36,7-3.18s0-5.47-1.24-7.75c-1.44-2.74-4.51-4.61-6-7.35-3.14-6-.48-10.71,4.9-13.43C329.68,922.69,334.58,921.54,336.71,927.79Z"/><path class="cls-1" d="M352.06,627.64C341.64,635.49,338.38,649.93,323,646,327.65,630.17,333.62,626,352.06,627.64Z"/></svg>