<svg id="Layer_1" data-name="Layer 1" xmlns="http://www.w3.org/2000/svg" viewBox="0 0 1000 1000"><defs><style>.cls-1{fill:#ed1c24;}.cls-2{fill:#2e3192;}</style></defs><path class="cls-1" d="M452.45,290.21C447.26,325,442.7,357.05,437.69,389,416.3,525.1,395.08,661.25,373,797.26a443.14,443.14,0,0,1-17.38,69c-24.14,72.37-79.39,103.29-151.45,110-42.24,4-84,1.17-125.33-9.59C61,962,54.18,955.25,58.89,935.65a620.46,620.46,0,0,0,13.59-82.33c1.6-15.88,8.48-18.9,22.35-18.08a424.29,424.29,0,0,0,53,.26c42.39-2.79,65.74-24.41,72.41-66.33Q255.11,550,289.6,330.68c6.34-40.41,6-40.47,48.12-40.47Z"/><path class="cls-2" d="M387.44,978c21.26-48.54,42-95.91,63.76-145.55H830.6c-7,46.05-13.23,90.74-21.38,135.07-.83,4.53-13.17,9.84-20.2,9.89-99.25.7-198.51.54-297.77.58C455.37,978,419.49,978,387.44,978Z"/><path class="cls-2" d="M508.53,432.76,531,290.69h382.4c-3.17,24.78-6.09,48.59-9.29,72.37-2.61,19.45-4.61,39.07-8.94,58.15-1.24,5.49-9.62,13.34-14.77,13.37-120.88.71-241.77.51-362.66.4C515.83,435,513.91,434.09,508.53,432.76Z"/><path class="cls-2" d="M466.43,700.89c6.93-45.47,12.68-87,20.37-128.2.83-4.48,12.87-9.85,19.67-9.78,91.64.94,183.27,2.79,274.91,4.33,14,.24,27.92,0,44.14,0-5.93,40.4-10.83,76.49-16.95,112.37-.83,4.89-7.61,12.4-11.82,12.53C687.64,695.56,578.5,698.12,466.43,700.89Z"/><path d="M931.05,108.69C928.7,122.09,927,132,924.85,144H861l-5.55,31.43h79.11c-2,12.93-3.63,23.34-5.34,34.38H734.7c-1.82-33.34-1-34.22,31.72-34.2H790.9c27.83,0,27.83,0,31.22-30.85h-62c6.62-38.84,12.74-74.66,19.05-111.66H942.56c-1.45,10.55-2.85,20.79-4.61,33.69h-90c-39.82,0-39.82,0-43.7,41.9Z"/><path d="M478.8,28.87c-3.65,22.56-7.09,43.77-10.53,65l5.54,4c3.74-4.09,9.44-7.61,10.83-12.39,3.4-11.66,4.75-23.92,7-35.91,5.55-29.35,5.57-29.35,37.77-23.52q-17.65,99.95-35.35,200H460.63c5.35-31.54,10.52-62,15.69-92.46l-4.95-4.27c-3.86,3.82-10.09,7.07-11.17,11.56-4.12,17.13-6.48,34.67-9.69,52-5.22,28.18-5.28,28.17-37.56,24.68Q423,158.9,433.07,100.42q4.33-25.07,9.06-50.06C447.18,23.57,447.24,23.58,478.8,28.87Z"/><path d="M358.57,160.76,407.85,158c6.72,29.23,6.27,30.82-20.43,33.39-23.41,2.25-47,2.53-72.84,3.8C324.4,139.13,333.64,86.46,343,32.85h88.25l-5.42,31c-8.55.4-17.12,1.09-25.7,1.15-28.85.21-28.85.12-32,31.91H415.4c-2.14,11.58-3.85,20.8-5.4,29.2C393.2,138.68,352.26,110.35,358.57,160.76Z"/><path d="M608.25,157.05H571.94c1.1-10.24,2.09-19.36,3.22-29.87l-35.86-1.65c-2.84-27.55-2.12-28.4,23.37-28.43,10.86,0,21.72,0,32.59,0,33.38,0,33.38,0,37.9-36.51H554.8c1.9-12,3.42-21.49,5.12-32.18H677.23c-4.61,21.94-8.91,42.39-13.21,62.84l4.26-1.18c3.09,7.46,9.57,15.62,8.22,22.16-1.09,5.29-11.38,9.06-18.07,12.61-2.7,1.43-6.69.8-10,.58C625.61,123.87,605.41,125.67,608.25,157.05Z"/><path d="M702.41,24.41h36.14c-8.9,50.88-17.6,100.58-27,154.29l-76.68-14.56c.82-7.28,1.75-15.63,2.66-23.71,3.2-1.09,5.05-2.21,6.94-2.3,38.88-1.77,38.68-1.77,44.81-39.58C693.19,74.45,697.77,50.45,702.41,24.41Z"/><path d="M532.52,226c3.45-20.36,6.6-38.95,10-58.75h35.6c-.65,8.26-1.27,16-2.09,26.38H710.23c-1.6,12.44-2.84,22-4.18,32.37Z"/></svg>