<svg id="Layer_1" data-name="Layer 1" xmlns="http://www.w3.org/2000/svg" viewBox="0 0 1920 1080"><defs><style>.cls-1{fill:#fff;}</style></defs><path class="cls-1" d="M314.75,351.05c-3.77,24.51-7.23,47.83-10.94,71.12q-26.26,165.06-52.74,330.09a235.54,235.54,0,0,1-7.32,30c-16.05,53.36-51.38,84.23-107,91.56-42,5.53-83.25,4.32-126.43-11.48,4.54-32.13,9.06-64.11,13.6-96.21,15.83,0,30.13-.06,44.43,0,44.09.22,61.27-15.16,68.1-58.83Q163.68,533,191.73,358.83c.4-2.47,1.14-4.87,1.84-7.78Z"/><path class="cls-1" d="M585.51,875.85H255.31c29.2-34.09,42.84-72.57,51.64-112.92H603.06C597.17,800.87,591.44,837.69,585.51,875.85Z"/><path class="cls-1" d="M372.2,351H666.61c-5.4,37.63-10.69,74.42-16.06,111.83H354.45C360.41,425.29,366.27,388.35,372.2,351Z"/><path class="cls-1" d="M599.08,563.08c-4.65,30.76-8.81,59.79-13.76,88.69-.52,3-5.68,7.46-8.78,7.54-83.49,2.2-167,3.91-250.51,5.64-.89,0-1.8-.83-3.33-1.58,5.09-32.34,10-64.91,15.67-97.33.6-3.4,6.21-8.51,9.42-8.46C430.74,559,513.67,561.08,599.08,563.08Z"/><path class="cls-1" d="M676.88,289.71H525.12c.63-4.68,1.55-8.65,1.62-12.63.18-10.94,4.81-15.3,16.3-14.54,15.35,1,30.82.26,47.36.26,1.31-7.45,2.43-13.86,3.93-22.38H546.14c5.31-30.53,10.24-58.83,15.34-88.13H686.66c-.58,26.45-.58,26.45-24.75,26.45H586.55l-6.2,33.73h97.21c-.77,6.17-1.65,10.65-1.82,15.15-.36,9.63-4.54,13.57-14.62,12.81-11.76-.89-23.63-.21-36.42-.21L620,262.06h60.69Z"/><path class="cls-1" d="M1284.76,733.57c-4.14-21-8-40.54-11.86-60.1l-3.29-1.24c-5,11.29-9.89,22.59-14.89,33.86-13.21,29.82-13.22,29.82-48,26.29-6.3-39-12.67-78.46-19.26-119.25h34.38c3.26,26.87,6.57,54.19,9.89,81.5l2.52.86c4.84-11.45,9.77-22.86,14.51-34.35,5.31-12.85,11.4-25.48,15.39-38.74,3.27-10.85,10.83-12.64,18.77-9.9,4.42,1.52,8.76,8.37,9.86,13.52,5,23.14,8.73,46.54,15.78,70.66l30.32-85.93h32.56c-4.92,15.59-8.28,29.94-13.94,43.31-9,21.33-20.59,41.6-29,63.12-5.24,13.32-12.47,18.77-26.37,16.52C1297,732.89,1291.79,733.57,1284.76,733.57Z"/><path class="cls-1" d="M1586.23,346c-2.12,13.38-3.45,21.79-4.93,31.14h-42.71c-32,0-34.39,2.42-35.5,36.67l59.17,3.17c0,26.47-.1,26.64-24,26.81-13.33.09-26.67,0-39.66,0-1.4,4.12-2.2,6-2.65,7.9-6.57,28.44-4.46,31.1,24.56,31.18q19.37,0,38.73.27a10.34,10.34,0,0,1,2.87.93c2.7,26.39,1.28,28.25-24.51,29.2-17,.62-34.09,1.94-51,.76-22.79-1.6-32.25-14.36-28.89-36.44,4.74-31.11,9.6-62.22,14.86-93.25,4.43-26.09,18.25-37.93,44.33-38.29C1539,345.74,1561.1,346,1586.23,346Z"/><path class="cls-1" d="M1705.8,610.94q4.11-24.16,8.49-49.86h33.36c-9.13,57.76-18.09,114.48-27.21,172.18-12.12-2-25.82,7.21-33.43-8.27-9.21,3.15-18.15,7.47-27.56,9.18-20,3.61-34.72-6.69-38.27-26.6-4.58-25.71-.06-50.43,12-73.39C1642,617.4,1658,611.73,1675.93,611,1685.14,610.63,1694.37,610.94,1705.8,610.94Zm-4.68,31.12c-24.38-9.06-37.52-3-43.92,19.55a111.44,111.44,0,0,0-4,24.26c-.55,10.31,1.57,20,14.28,21.94,11.92,1.8,24-6.44,26-17.86C1696.23,674.28,1698.51,658.53,1701.12,642.06Z"/><path class="cls-1" d="M1060,732.43c9.1-57.33,18.06-113.73,27.16-171h33.41c-4.63,30.47-9.21,60.62-14,91.86,16.48-1.45,29.79-8.89,33.67-22.19,7-23.75,23.06-19.77,41.94-18.34-5.89,23.77-17.36,42.17-38,55.48,10.16,21.23,20.1,42,31.28,65.34-10.69,0-19.68.74-28.42-.37-3.51-.45-7.73-4.36-9.51-7.79-6.39-12.33-11.45-25.36-18-37.61-1.91-3.58-7.32-7.81-10.59-7.41s-7.45,5.91-8.31,9.83c-3,13.56-4.71,27.4-7.09,42.23Z"/><path class="cls-1" d="M1067.42,513.19c-10.2-2.68-23.76,7.58-31.21-8.48-9.41,3.13-18.85,7.51-28.76,9.29-19.44,3.51-33.71-6.13-37.6-25.42a103.44,103.44,0,0,1,11.83-73.12c11.83-20.77,32.87-24.82,54.84-25.27a45.55,45.55,0,0,1,4.61.54c43.51,3.63,46.73,7.87,39.38,50.26-4,22.85-7.45,45.79-11.2,68.67C1069.16,510.57,1068.42,511.37,1067.42,513.19Zm-18.17-90.63c-17.31-8.07-33-6.18-38.35,7.32s-7.22,28.76-7.57,43.32c-.11,4.74,10.12,14.28,14.34,13.61,8.38-1.34,20.6-6.66,22.79-13.17C1045.92,457.34,1046.66,439.47,1049.25,422.56Z"/><path class="cls-1" d="M923.22,733.24c-12.06-1.86-25.72,7.25-33-8-10.68,3.2-20.75,7.51-31.23,9-17.15,2.51-30.79-6.94-34.51-23.82a102.47,102.47,0,0,1,12.18-76c12.16-20.5,33.38-24.11,55.33-24.09a91,91,0,0,1,10.75,1.06c35.44,4.32,38.53,8.21,33.14,43.17C931.93,680.56,927.57,706.4,923.22,733.24Zm-19.58-89.89c-18.24-10.64-35.4-5.76-41.63,12.5-3.28,9.61-4.77,20.07-5.46,30.25s1.63,20.09,14.58,21.68a22.6,22.6,0,0,0,25.15-18.87C898.81,673.65,901.22,658.38,903.64,643.35Z"/><path class="cls-1" d="M1858.33,661.65c-.16,1.69-.53,6.83-1.13,12-5.62,48.25-24.37,66.57-80.37,59.84-20.7-2.49-31.86-15.6-33.09-36.54a142.3,142.3,0,0,1,1-23.14c5.26-49.69,28.5-68.37,77.67-62.66C1850.2,614.33,1858.74,625.51,1858.33,661.65ZM1826.39,654c-3.08-4-6.67-13.11-12.89-15.55-10.2-4-22.7-2.68-27.66,9.67-4.35,10.82-6.65,22.66-8.4,34.27-1.64,10.88-2.09,22.41,13,25.19,13.88,2.55,24.73-3.45,28.54-17.1C1821.93,680.1,1823.37,669.32,1826.39,654Z"/><path class="cls-1" d="M1483.27,661.14c-.15,1.77-.51,7.43-1.16,13.06-5.76,49.29-26.39,66.49-82.43,58.9-18.5-2.5-29.29-14.89-30.52-33.72a149.27,149.27,0,0,1,2-35.38c7.16-40.58,26.23-55.35,67.59-53.7C1472.83,611.65,1483.54,622.93,1483.27,661.14Zm-32.08-6.43c-2.29-3.85-4.52-12.18-9.88-15.62-11.14-7.14-27.44-.85-32,11.79-3.61,10.07-5.57,20.89-7,31.54-1.46,10.94-2,22.4,13.12,25.17,13.85,2.54,24.7-3.45,28.54-17.14C1446.9,680.08,1448.32,669.29,1451.19,654.71Z"/><path class="cls-1" d="M1597.63,732.93h-33.74c3.57-23,7.3-45.21,10.31-67.49,1.32-9.73,5.55-21.67-10-24.62-14.4-2.72-29,6.62-31.27,20-4,23.78-7.67,47.62-11.55,71.86h-33.67l19-120.71c12.34,1.93,26.06-7.09,31.9,8.91,12.91-3.73,25-8.77,37.46-10.47,21.68-2.93,37,10,35,30.53C1607.9,671.64,1602.26,702,1597.63,732.93Z"/><path class="cls-1" d="M962.11,391.81c-6.47,41.5-12.57,80.6-18.88,121.06-12.48-1.61-26.62,8.6-32.81-7-14.82,3.14-28.6,7.94-42.58,8.59-20.27.93-31.29-10.94-29.06-31,3.35-30.15,8.61-60.08,13.16-90.77h33.78c-3.43,22.52-6.84,44.57-10.12,66.64-1.56,10.56-5.77,22.63,10.79,25.23,14.42,2.26,28.63-7.66,30.74-20.95,2.91-18.32,6.94-36.57,8.23-55,1-14.51,7.37-18.61,20.47-16.86C950.32,392.31,955,391.81,962.11,391.81Z"/><path class="cls-1" d="M977.86,689.18c-2.68,12.37,4,19,16.15,19.67,16.24.88,32.57.22,48.5.22,2.42,15.92-2,23.4-16.14,23.57-15.9.19-31.89,2.12-47.68,1-20.26-1.47-33.2-13.37-33.54-33.66-.31-18.66,1.42-38.45,7.55-55.87,11.08-31.47,61.42-44.94,89.4-26.26,13,8.66,14.49,21.62,13.35,35.51-1.19,14.68-7.82,26.84-22.49,29.87C1015.57,686.79,997.53,687.2,977.86,689.18Zm2.67-20.62c7.75,0,14.36.14,21-.06a37.52,37.52,0,0,0,9.08-1.33c9.67-2.77,14.86-9.15,13.36-19.38-1.58-10.78-10.07-11.85-18.63-11.45C990.72,637,984.12,645.37,980.53,668.56Z"/><path class="cls-1" d="M1213.31,469.12c-2.32,12.66,4.52,19.2,16.76,19.79,15.91.76,31.88.18,50,.18-1.41,8.33-2.39,14.13-3.86,22.86-20.49.66-41,2.7-61.34,1.6-21.21-1.15-33.94-13.43-34.3-34.77-.31-18.2,1.55-37.5,7.56-54.51,11.19-31.69,61.35-45.34,89.52-26.52,13,8.66,14.57,21.63,13.36,35.61-1.27,14.76-8,26.81-22.72,29.81C1250.86,466.72,1232.79,467.16,1213.31,469.12Zm2.77-19.93c11.46-.92,22.38.35,31.29-3.29,5.63-2.3,11-11.83,11.21-18.27.11-3.69-10.19-10.41-16.25-11C1227.18,415.21,1219.62,425,1216.08,449.19Z"/><path class="cls-1" d="M1824.34,467.47c-3,15,4.86,21,17.37,21.57,15.73.75,31.52.18,46.94.18,2.74,15.88-2.22,23-16.07,23.28-15.91.33-31.9,2.16-47.69,1-20.23-1.44-33.22-13.35-33.57-33.64-.31-18.65,1.43-38.44,7.57-55.85,11.14-31.57,61.31-45.08,89.38-26.36,12.92,8.62,14.58,21.61,13.43,35.51s-7.18,25.82-21.06,29.39c-13.23,3.41-27.32,3.53-41.06,4.81C1834.61,467.86,1829.55,467.47,1824.34,467.47Zm3.23-17.94c11.32-1.36,23-.89,32.94-4.76,4.77-1.86,8.67-12,8.47-18.28-.12-3.62-8.91-9.27-14.31-10C1838.26,414.44,1828.74,426,1827.57,449.53Z"/><path class="cls-1" d="M791.47,732.85H757.86c7-45.09,13.88-89.26,21.11-135.67H733.84c1.63-11.36,2.92-20.38,4.34-30.24H863.39c-1.49,10-2.9,19.35-4.46,29.77H813.42C806,642.72,798.74,687.78,791.47,732.85Z"/><path class="cls-1" d="M346.3,302H319.47c4-23.61,7.93-46.63,11.84-69.65l-4-2.94c-2.66,3.61-6.88,6.88-7.74,10.87-3.87,18.12-6.81,36.43-10.27,55.76H282.8c8.17-46.53,15.78-92.22,24.39-137.73,3.35-17.66,17.28-5.85,27.9-9.29-3.09,18.42-5.87,35-8.66,51.67,11,.24,10.89.23,14.61-21.95,1.69-10.1,3.74-20.14,5.7-30.56h26.51C364.2,199.8,355.3,250.61,346.3,302Z"/><path class="cls-1" d="M1405,392.92c1.72,16.21-4.8,27.35-15.5,37.71-17.3,16.73-33.46,34.64-52.7,54.78h55.54c-1.36,10.3-2.45,18.61-3.7,28.09h-95.23c-.73-15.27,3.56-26.71,14-36.84,18-17.41,34.89-35.94,55.15-57h-58.07c1.55-9.91,2.79-17.77,4.19-26.72Z"/><path class="cls-1" d="M1764.73,359.42c-.65,5.92-1.13,11-1.8,16.12-.6,4.53-1.41,9-2.45,15.52l27.86,1.38c-1.24,8.59-2.37,16.43-3.43,23.8-1.49,1-2.27,1.94-3.14,2-26.66,2.71-26.66,2.7-30.4,29.06q-.76,5.34-1.71,10.67c-4.58,26.11-4.59,26.11,22.16,31.67-4.6,8.35,5.68,23.5-14.27,23.94-29.34.66-43.25-6.28-43.82-24.72-.35-11.2,1.73-22.51,3.28-33.7s3.8-22.24,5.92-34.42l-17-3.14c-.28-11.89.51-21.68,15.83-24.82,4.67-1,9.17-9.65,11.14-15.65C1739.8,356,1739.37,355.85,1764.73,359.42Z"/><path class="cls-1" d="M250.3,203.43h35.34l-3.77,23.82c-13.18,1.67-25.37,2.17-36.77,5.44-2.64.76-2.56,11-4.16,18.95,14.68-1,27.3-1.87,39.92-2.75,3.65,25.48,3.69,26.12-21.38,28-16.35,1.21-32.86.23-51.21.23,7.17-40.86,14.23-81.16,21.45-122.34h68.09c-1.22,8-2.42,15.75-3.93,25.54H272.41C252.1,180.31,252.1,180.31,250.3,203.43Z"/><path class="cls-1" d="M749.35,483.91c9.58,0,14.16-.1,18.73,0,13.64.35,21-6.33,23.07-19.71,6.1-38.68,12.41-77.33,18.82-117.1h33.44c-4.66,30-9.18,59.85-13.95,89.62-2.53,15.77-4.39,31.76-8.5,47.13-7,26.24-44,41.78-66.43,27C749.53,507.55,751.1,494.29,749.35,483.91Z"/><path class="cls-1" d="M390,176.14c1.86-9.94,3.17-17,4.68-25h90.19c-3.3,16.43-6.47,32.2-9.65,48l3.87-.85c2,6,6,12.16,5.35,17.8-.42,3.51-7.51,7.32-12.31,8.93-5.19,1.74-11.22,1.65-16.84,1.34-12.63-.69-22.34,1.13-22.36,17.26,0,2.36-5.89,6.06-9.51,6.76-5.91,1.14-12.19.31-19.73.31.81-8,1.51-14.82,2.35-23.1l-30-1.5c1.18-7.79,2.17-14.27,3.45-22.67h43.23c24.92,0,24.92,0,27-27.25Z"/><path class="cls-1" d="M1640.89,490.71c-1.34,7.9-2.52,14.9-3.76,22.22-8.8,0-16.58.81-24.14-.17-18.72-2.41-28.7-12.95-26.3-31.42,5.76-44.49,13-88.79,20.28-133.07.5-3.06,5.54-7.07,8.94-7.59,7.49-1.16,15.28-.36,25.44-.36-2.9,19.38-5.49,37.44-8.33,55.47-3.44,21.91-7.08,43.8-10.65,65.7C1619,482.37,1619.93,484,1640.89,490.71Z"/><path class="cls-1" d="M1121.69,512.75h-33.86c6.43-40.43,12.71-80,19.26-121.16,11.7,4.14,27.89-10,32.36,13.37,13-9.55,25.7-18.7,44-12.2-1.17,8.43-1.58,17.12-3.91,25.26-.86,3-5.92,6-9.57,6.85-6.44,1.56-13.38.94-19.9,2.26-10.5,2.13-16.78,7.83-18.17,19.68C1129.32,468.71,1125.23,490.44,1121.69,512.75Z"/><path class="cls-1" d="M487.57,234.45l15.66-86.11h28.58c-6.78,38.88-13.38,76.76-20.55,117.94L448,255.08c4.57-7.63,7-17.27,12.73-19.84C467.93,232,477.75,234.45,487.57,234.45Z"/><path class="cls-1" d="M1667.7,392.61h33.9c-6.4,40.43-12.63,79.83-19,120h-33.7Z"/><path class="cls-1" d="M409.07,256.46v20.59H509.61C509,302.72,509,302.72,485,302.72H373.52c2.68-16.26,5.08-30.81,7.62-46.27Z"/><path class="cls-1" d="M709.91,874.27l27.66-91.9,5.55,1.19v66.49l3.28.72q11.52-34.37,23.05-68.72l6.15,1.43c.17,30.81-1,61.55-3.12,92.24l-7.45-.25c1-21.46,2-42.93,3.2-68.13L743.78,876.9l-4.85-1.31V816.66l-3.11-.7q-9.57,30.64-19.15,61.28Z"/><path class="cls-1" d="M1224.53,854.8l16.92-41.95,6.27,2.75q-11.79,30.84-23.6,61.67l-6.62-1.14c-1-12.3-2-24.6-3.21-40.07-5.85,15.52-10.72,28.46-15.59,41.4l-6.48-1.7v-61l3.14-.53V855.4l4.51.49q7.7-21.39,15.4-42.8l5,1.09v40Z"/><path class="cls-1" d="M1357.88,876.89c-10.34-2.07-19.47-2.46-27-6.13-2.92-1.42-3.36-10.33-3-15.7,2.21-32.66,9.06-41.4,31-40.46q3.61-19.07,7.26-38.25l7,1.43C1368.2,810.07,1363.21,842.36,1357.88,876.89Zm-23.23-19.75,7.2,12.1c3.57-3.72,8.85-6.86,10.34-11.28a92.75,92.75,0,0,0,4.35-25.66c.15-3.7-3.58-7.55-5.54-11.33-3.19,2.84-7.91,5.1-9.25,8.63C1338.7,837.66,1337.3,846.35,1334.65,857.14Z"/><path class="cls-1" d="M1163.13,777.73c-2.48,17.83-5,35.66-7.89,56.85l21.91-22.18,6.47,3c-27.16,17.95-24.63,37.76-5.81,58.26-6,.71-10-3.09-24.62-22-2.44,8.7-4.74,16.9-7,25.09l-6-1.5,15.72-98.35Z"/><path class="cls-1" d="M920,809.8C918.87,851,909.31,895.74,900.36,901c.8-9.22,1.53-17.58,2.4-27.51-14.24,6-21.91,0-21.45-12.66.43-12.08,1.52-26,7.83-35.43C894.24,817.78,907.55,815.66,920,809.8Zm-14.55,10.46c-11.19,7.07-20.57,36.75-14.26,45.17,1.45,1.93,8.67,2.24,10.84.43C909.59,859.54,911.44,831.6,905.44,820.26Z"/><path class="cls-1" d="M1101.13,813.8c-3.43,21.7-6.53,41.29-9.76,61.7-2.68,0-4.72.5-6.37-.09-8-2.84-20.25,5.9-23.91-9-3-12.1,4.2-44.84,13-48.7C1081.36,814.48,1090.4,815.16,1101.13,813.8Zm-16.51,6.29c-10.52,7.73-19.49,35.46-14.07,44.68,1.18,2,9.34,2.67,11.53.77C1089.75,858.93,1091.07,830.55,1084.62,820.09Z"/><path class="cls-1" d="M812.42,875.26c-33.41-2.64-34-3.43-28.09-35.59,3.9-21.24,6.64-23.11,37.59-24.72C818.72,835.28,815.56,855.32,812.42,875.26Zm-6.58-55.1c-10.5,7.38-19.61,35-14.31,44.43,1.14,2,9.25,2.91,11.46,1.07C810.63,859.32,812.16,830.83,805.84,820.16Z"/><path class="cls-1" d="M1241.54,856.74c4.68-13.5,6.9-24.86,12.56-34.13,2.8-4.59,12.48-8,18-6.93,4.33.87,9.91,9.55,9.95,14.8.08,10.51-2.27,21.35-5.46,31.48-3,9.5-11,17.17-21,12.95C1249.43,872.28,1246.07,862.93,1241.54,856.74Zm34-19.91-7.39-14.65c-4.14,4.45-10,8.25-12,13.52-2.71,6.94-3.19,15-3.18,22.62,0,3.32,3.6,6.64,5.56,10,3.14-2.14,7.81-3.59,9.12-6.54C1271,854.37,1272.7,846.32,1275.58,836.83Z"/><path class="cls-1" d="M1000.84,845.84c-6.27,0-11.58-1-16.3.29-4,1.07-10.11,4.52-10.3,7.25-.33,4.75,3.21,9.75,5.13,14.65,3.47-3.11,6.89-6.27,10.43-9.3,2-1.68,4.13-3.15,8.75-6.64-2,14.17-6.19,23.24-18.35,23.58-12.33.35-15.07-9.68-14.34-19.43.72-9.55,1.62-20.09,6.19-28,3.57-6.25,12.85-9.23,19.6-13.66,3.49,6.65,7.38,13.13,10.24,20C1002.91,837,1001.43,840.51,1000.84,845.84Zm-3.62-7.66c-3.9-7.09-6.41-11.67-8.92-16.25l-16,16.25Z"/><path class="cls-1" d="M1137.06,845.83c-5.8,0-10.14-.87-13.91.23-4.61,1.33-11.62,3.61-12.39,6.75-1.07,4.41,2.65,10,4.32,15.06,3.79-3.31,7.55-6.66,11.4-9.91,1.74-1.46,3.67-2.7,7.28-5.34.3,13.91-5.08,22-16.47,23-12.14,1-15.83-8.72-15-18.68s2.12-20.83,6.65-29.5c3.1-5.94,12.1-8.79,18.46-13,3.72,6.47,8,12.69,10.89,19.51C1139.45,836.7,1137.68,840.76,1137.06,845.83ZM1111.3,834.1c.92,1.23,1.83,2.47,2.75,3.71h19.11c-3.08-6.52-5.25-11.1-7.42-15.68Z"/><path class="cls-1" d="M1310.38,875.2c2-12.7,4.64-25.35,5.78-38.14.48-5.31-2.19-10.91-3.42-16.37-4,4.47-10.11,8.32-11.72,13.55-3.15,10.22-3.58,21.24-5.63,31.84-.72,3.72-2.91,7.16-4.43,10.72l-5-1.49c3.06-19.9,6.13-39.79,9.39-61,3.18.44,5.43.79,7.69,1.06,24.11,2.84,24.22,2.85,20.37,28.8-1.61,10.85-3.79,21.61-5.71,32.41Z"/><path class="cls-1" d="M936.9,815.18c-2,13-4.56,26-5.55,39.12-.34,4.5,3.36,9.3,5.21,14,3.47-3.79,8.76-7,10-11.48,2.85-9.8,3.5-20.22,5.44-30.31.84-4.35,2.65-8.51,4-12.76l6.32,1.44c-3.48,17.49-5.67,35.41-11.31,52.17-1.5,4.45-13.65,7-20.88,6.95-2.67,0-7.8-10.29-7.39-15.54,1.16-15.11,4.58-30,7.11-45Z"/><path class="cls-1" d="M1368.75,858c4.31-13.44,6.29-24.83,11.68-34.28,2.76-4.85,12.31-9.43,17.48-8.27,4.86,1.09,11.15,9.87,11.2,15.31.08,11-1.64,23-6.55,32.59-3.07,6-13.47,11.51-20.3,11.18C1377.49,874.25,1373.2,863.78,1368.75,858Zm33.93-21.14c-2.34-4.63-4.86-9.65-7.39-14.67-4.15,4.47-10,8.28-12,13.57-2.72,6.94-3.21,15-3.19,22.64,0,3.31,3.62,6.63,5.6,9.94,3.13-2.15,7.78-3.63,9.09-6.58C1398,854.33,1399.79,846.28,1402.68,836.81Z"/><path class="cls-1" d="M1708.35,344.1c-.45,32.71-3.9,35.25-36.53,27.83C1672.08,341.74,1673.81,340.38,1708.35,344.1Z"/><path class="cls-1" d="M1038,875.17c2.12-13.54,4.27-27.07,6.36-40.62,2.13-13.73,4.2-27.46,6.47-42.35l-12.19-4c0-1,.05-2,.07-3h34.9c-19.53,3.63-15.22,20.41-17.72,33.17-3.06,15.68-5.09,31.55-7.89,47.29-.68,3.8-2.64,7.38-4,11.06Z"/><path class="cls-1" d="M818.46,869.32l20.65-5.84c-2.64-6.58-4-14.16-8.18-19.52-7.48-9.54-8-18,1.16-25.58,7.29-6,15.13-6.1,25.08,4.28-6.27,0-8.4-.4-10.31.09-4,1-9.23,1.45-11.46,4.17-1.51,1.83.42,7.62,2.26,10.8,2.27,3.92,6.67,6.58,9,10.46,6,9.83,2.3,18.29-6.15,24.09C833,877.45,824.72,878.67,818.46,869.32Z"/><path class="cls-1" d="M1077.2,341.11c-16.11,12.44-22,35.58-46.89,29C1041.41,341.14,1048,336.71,1077.2,341.11Z"/></svg>