<svg id="Layer_1" data-name="Layer 1" xmlns="http://www.w3.org/2000/svg" viewBox="0 0 1000 1000"><defs><style>.cls-1{fill:#252526;}.cls-2{fill:#161616;}.cls-3{fill:#023e73;}.cls-4{fill:#ededed;}.cls-10,.cls-12,.cls-14,.cls-5,.cls-9{fill:none;}.cls-5{stroke:#252526;}.cls-10,.cls-12,.cls-5,.cls-9{stroke-miterlimit:10;}.cls-6{fill:#bababa;}.cls-7{fill:#404040;}.cls-8{fill:#fff;}.cls-9{stroke:#ededed;}.cls-10{stroke:#fff;}.cls-11{fill:#efefef;}.cls-12{stroke:#bababa;}.cls-13{fill:#e0b344;}</style></defs><path class="cls-1" d="M518.91,563.62a40.17,40.17,0,0,0,4.39,18.3c-7.13-.13-14.37-.34-21.66-.64C446.16,579,387.83,571.62,347.91,555h0l-1.81-.76V510.36l1.81.43c12.89,3,92.95,21.2,181.58,25.63A40,40,0,0,0,518.91,563.62Z"/><path class="cls-1" d="M660.36,571.31c-.18.47-.84.94-2,1.42-4.76,2-17.74,4.21-36.09,5.93-7.94.75-16.91,1.42-26.65,2A40.29,40.29,0,0,0,589.35,537c24.62-.84,48.89-3.22,71.6-7.72,0,0,.48,5.37.83,12.37C662.28,551.91,662.46,565.69,660.36,571.31Z"/><path class="cls-2" d="M650.3,732.88c-4.74-23.67-45-27.22-45-27.22a145.71,145.71,0,0,0,.72-32.47c-.4-5.24-1-10.49-1.78-15.66-5-34.67-16.53-65.57-16.53-65.57l1.62-55c13.91,8.78,24.66,23.76,32.94,41.65.52,1.14,1,2.28,1.55,3.44.11.25.22.51.33.75.43,1,.86,2,1.27,3,0,0,0,.07,0,.11.21.52.42,1,.62,1.57q.66,1.63,1.29,3.27c.49,1.28,1,2.57,1.44,3.87s.88,2.5,1.31,3.75l.3.88c.41,1.24.83,2.5,1.23,3.76.45,1.42.89,2.86,1.32,4.29.87,2.86,1.68,5.75,2.45,8.65.39,1.44.77,2.9,1.14,4.37q1.32,5.16,2.45,10.36c.32,1.44.63,2.87.92,4.3.12.54.23,1.06.32,1.57.24,1.14.48,2.29.68,3.43s.46,2.3.66,3.42.4,2.14.59,3.22c.1.47.18,1,.25,1.43.21,1.2.42,2.38.62,3.56.24,1.5.48,3,.72,4.44.32,2,.63,4,.91,6A550.74,550.74,0,0,1,650.3,732.88Z"/><path class="cls-2" d="M538.44,708.62s-22.72,1.18-41.54,24.26c0,0-1.21-6.38-2.56-17h0c-1.28-10-2.69-23.72-3.3-39.34-.19-4.67-.31-9.51-.32-14.46-.12-26.06,2.34-55.41,10.92-80.84,6-17.65,14.84-33.4,27.85-44.86l5.09,59.06v0s-2.9,35.73-1.93,68.72c0,1.29.09,2.57.13,3.85s.11,2.54.17,3.81q.19,3.78.46,7.44c.27,3.54.59,7,1,10.23h0A91.57,91.57,0,0,0,538.44,708.62Z"/><path class="cls-1" d="M599.4,563.62a40.26,40.26,0,0,1-64.82,31.88v0a40.24,40.24,0,1,1,64.82-31.86Z"/><path class="cls-3" d="M363.26,647.07c3.55-4.74,3-17.17,3-17.17-4.49,5.06-15.09,12.49-25,18.93-11,7.14-21.15,13-21.15,13A120.07,120.07,0,0,0,330,644.49a.11.11,0,0,1,0,0c1.93-4.1,3.64-8.27,5.18-12.48,0,0,25.67-12.12,41.06-25.14,0,0,1.19,24.86,7.1,34.33,0,0,46.51,15.3,107.34,21,0,5,.13,9.79.32,14.46C419.69,668.72,363.26,647.07,363.26,647.07Z"/><path class="cls-4" d="M501.64,581.28c-8.58,25.43-11,54.78-10.92,80.84-60.83-5.67-107.34-21-107.34-21-5.91-9.47-7.1-34.33-7.1-34.33-15.39,13-41.06,25.14-41.06,25.14,13.61-37.19,12.71-76.19,12.69-77C387.83,571.62,446.16,579,501.64,581.28Z"/><path class="cls-3" d="M606,673.19c-24,4.87-48.68,6.53-72.63,6.13q-.27-3.66-.46-7.44c-.06-1.27-.12-2.54-.17-3.81s-.09-2.56-.13-3.85c23.44.08,47.8-1.76,71.61-6.69C605,662.7,605.64,668,606,673.19Z"/><path class="cls-4" d="M604.26,657.53c-23.81,4.93-48.17,6.77-71.61,6.69-1-33,1.93-68.72,1.93-68.72A40.28,40.28,0,0,0,587.73,592S599.22,622.86,604.26,657.53Z"/><path class="cls-3" d="M703,628.13c-1.44,1.23-2.91,2.45-4.39,3.62a197.37,197.37,0,0,1-53.87,30.39c-.28-2-.59-4-.91-6-.24-1.47-.48-2.94-.72-4.44-.2-1.18-.41-2.36-.62-3.56-.07-.47-.15-1-.25-1.43A204,204,0,0,0,681.66,627s-20.31-16.52-20.81-40.21C670.23,613.57,703,628.13,703,628.13Z"/><path class="cls-4" d="M681.66,627a204,204,0,0,1-39.45,19.74c-.19-1.07-.38-2.14-.59-3.22s-.43-2.27-.66-3.42-.44-2.29-.68-3.43c-.09-.51-.2-1-.32-1.57-.29-1.43-.6-2.86-.92-4.3q-1.14-5.19-2.45-10.36c-.37-1.47-.75-2.93-1.14-4.37-.77-2.9-1.58-5.79-2.45-8.65-.42-1.45-.86-2.87-1.32-4.29-.4-1.26-.82-2.52-1.23-3.76l-.3-.88c-.43-1.25-.86-2.51-1.31-3.75s-1-2.58-1.44-3.87q-.63-1.64-1.29-3.27c-.2-.53-.41-1-.62-1.57,0,0,0-.07,0-.11-.41-1-.84-2-1.27-3-.11-.24-.22-.5-.33-.75-.51-1.16-1-2.3-1.55-3.44,18.35-1.72,31.33-3.89,36.09-5.93a43.88,43.88,0,0,0,2.47,14C661.35,610.43,681.66,627,681.66,627Z"/><path class="cls-5" d="M347.91,555h0"/><path class="cls-4" d="M494.34,715.92h0L406.16,870.4c-74.29-6.3-155.24-69-155.24-69L293.77,729l47.44-80.17c9.92-6.44,20.52-13.87,25-18.93,0,0,.59,12.43-3,17.17,0,0,56.43,21.65,127.78,29.51C491.65,692.2,493.06,705.93,494.34,715.92Z"/><path class="cls-4" d="M720.78,842.29c-113.57,4.65-160.36-38.91-160.36-38.91,11.74-23.34,27.31-49.48,27.31-49.48-12.74-8.48-52.57-63.31-53.32-64.34h0c-.41-3.26-.73-6.69-1-10.23,24,.4,48.6-1.26,72.63-6.13a145.71,145.71,0,0,1-.72,32.47s40.24,3.55,45,27.22a550.74,550.74,0,0,0-5.59-70.74,197.37,197.37,0,0,0,53.87-30.39s53.51,49,65.35,85.75C772.07,742.75,741,805.57,720.78,842.29Z"/><path class="cls-6" d="M587.73,753.9c19.6-11.84,47-16.17,69.08-9.77-7.43,0-14.64-.13-21.95.57a230.07,230.07,0,0,0-47.13,9.2Z"/><path class="cls-7" d="M217.67,705.79c-2.22-1.17-4.4-2.4-6.51-3.68C178,682,121.2,580.19,191,573.09c67.76-6.89,39.69,54.2,73.65,78.38C212.88,651.74,217.67,705.79,217.67,705.79Z"/><path class="cls-7" d="M289.09,728.27c-5.31-.92-14.72-2.69-25.81-5.59,0,0-20-32.72,14.24-64.52a49.78,49.78,0,0,0,16.83,3.48C263.89,691,289.09,728.27,289.09,728.27Z"/><path class="cls-8" d="M268,653.58a67.94,67.94,0,0,0,9.54,4.58c-34.26,31.8-14.24,64.52-14.24,64.52-14.09-3.67-30.92-9.14-45.61-16.89,0,0-4.79-54,47-54.32h0A36.86,36.86,0,0,0,268,653.58Z"/><path class="cls-8" d="M341.21,648.83,293.77,729s-1.69-.24-4.68-.73c0,0-25.2-37.27,5.26-66.63,22.12.47,34.88-16.12,35.65-17.15a120.07,120.07,0,0,1-9.94,17.37S330.21,656,341.21,648.83Z"/><path class="cls-9" d="M330,644.49a.11.11,0,0,1,0,0"/><line class="cls-9" x1="264.7" y1="651.47" x2="264.69" y2="651.47"/><path class="cls-8" d="M565.06,842.63s-48.52,87.92-10.64,109.23,226.08,14.2,226.08,14.2,39.06-106.53-81.67-85.22a17.6,17.6,0,0,1-3.59-10.46c0-6.11-93.47-36.89-93.47-36.89Z"/><path class="cls-3" d="M720.78,842.29c-9.13,16.63-16,27.9-16,27.9C592.3,873.74,548.5,831.13,548.5,831.13c1.87-6.74,6.49-16.94,11.92-27.75C560.42,803.38,607.21,846.94,720.78,842.29Z"/><path class="cls-6" d="M695.87,907.47c19.5,3.92,31,22.69,29.17,42a55.85,55.85,0,0,1-4.26,17.73,118.18,118.18,0,0,0,1.14-17.8c-.15-18.45-9.25-33.76-26-41.91Z"/><path class="cls-6" d="M729,894.45a40.11,40.11,0,0,1,29.77,16.3c7,9.61,9,22.13,7.88,33.62a82.09,82.09,0,0,1-5.37,22.24,163.14,163.14,0,0,0,2.25-22.4c.56-24.31-10.38-42.86-34.53-49.76Z"/><path class="cls-8" d="M239.46,847.48s-18.83,33.36-22.38,40.46c0,0-42.61,27.22-28.41,92.33L353.2,985s13-28.41,2.37-52.08L371,906.2,317,855.33Z"/><path class="cls-3" d="M406.16,870.4,384,909.25c-65.11-13-156.25-68.66-156.25-68.66l23.19-39.19S331.87,864.1,406.16,870.4Z"/><path class="cls-6" d="M217.08,887.94c30.92-9.88,65.91-7.72,95.12,6.62a114.43,114.43,0,0,1,43.37,38.36c-16.79-19.37-38.14-34.49-62.75-41.77-24.43-7.31-50.74-8-75.74-3.21Z"/><path class="cls-6" d="M227.73,981.39c-3-21.55-.67-55.38,15.23-71.66a24.08,24.08,0,0,1,9-5.81c-20.18,13-22,55.25-24.27,77.47Z"/><path class="cls-6" d="M299.93,983.47c.57-11.72,1.69-23.3,2.25-35,.35-11.53,1.35-23.24-2.25-34.42,11,16.06,5.88,51.6,0,69.39Z"/><path class="cls-1" d="M613.6,285.46S608.28,406.79,542,482.54l-38.47-24.26s2.92-4.11,7.58-11.55c5.88-9.37,14.57-24,23.74-42.46a482.5,482.5,0,0,0,23.5-55.48,391.06,391.06,0,0,0,11.39-38.7c2.23-9.46,4.11-19.14,5.54-29a276.66,276.66,0,0,0,2.82-33.54A130.37,130.37,0,0,1,613.6,285.46Z"/><path class="cls-3" d="M797.55,475.33c-100.11-10.18-114.11-91.62-114.11-91.62,0-1.19,12.43-6.51,12.43-6.51a16.35,16.35,0,0,1,8.28-2.37,84.82,84.82,0,0,0,2.73,8.86v0c7,19.67,29.09,65.48,83.42,68.23a106,106,0,0,0,13.28-.17S804.5,461.79,797.55,475.33Z"/><path class="cls-4" d="M797.55,475.33c-11.35,22.18-43.77,53.8-135.77,66.33-.35-7-.83-12.37-.83-12.37-22.71,4.5-47,6.88-71.6,7.72a40.26,40.26,0,0,0-59.86-.59c-88.63-4.43-168.69-22.6-181.58-25.63V500.28S273.3,522.78,255.55,453,302.9,297.89,323,277.77a80.83,80.83,0,0,1,45-22.49c81.67,59.18,143.1,191.45,143.1,191.45-4.66,7.44-7.58,11.55-7.58,11.55L542,482.54c66.29-75.75,71.61-197.08,71.61-197.08s52.68,18.35,82.27,91.74c0,0-12.43,5.32-12.43,6.51C683.44,383.71,697.44,465.15,797.55,475.33Z"/><path class="cls-6" d="M332.41,269.78c4.79-.81,9.74.69,14.12,2.59,13.14,6.1,23.19,17.56,29.75,30.26-3.46-3.25-6.66-6.65-10-10-2.89-2.77-7.11-6.9-10.18-9.39-7-5.83-14.63-11.52-23.71-13.48Z"/><path class="cls-3" d="M468.61,449.4c-8.29,4.73-20.13,10.65-20.13,10.65-29.59-35.51-24-144.4-24-144.4a80.31,80.31,0,0,1,26.35,0c-2.86,31.54,4.25,74,10.31,102.49C465.11,436.71,468.61,449.4,468.61,449.4Z"/><path class="cls-6" d="M255.88,398.47c10.7-28.62,47-49.35,74.06-60.31,30.18-12.12,62.31-19.07,94.56-22.51-35.52,7.39-71,16-104.14,30.93-23.4,10.84-52.76,28-64.48,51.89Z"/><path class="cls-6" d="M347.91,500.28c29.71-10.67,58.68-23.42,87.93-35.26,4.19-1.7,8.37-3.42,12.64-5a373.37,373.37,0,0,1-48.67,24.14c-16.8,6.75-34,13.07-51.9,16.09Z"/><path class="cls-6" d="M662.1,338.06c2.47,31.83,3.38,63.74,3.73,95.66,0,27.93.08,55.95-2.83,83.76a81.25,81.25,0,0,1-2,11.81c.13-1,.29-2,.4-3,.25-2.93.46-6,.54-8.94,1.05-58.53-1.27-120.88.21-179.33Z"/><path class="cls-6" d="M683.44,383.71c-5.3,6.86-12.9,10.84-20,15.43,1.88-7.28,12.94-14.05,20-15.43Z"/><path class="cls-5" d="M461.16,418.14c-.54.32-.84.48-.84.48"/><path class="cls-8" d="M858.62,371.87c-9.47,22.49-28.41,48.53-46.16,55.63-17.14,6.86-16.63,3.79-16.58,3.56l-5.58,20.88c-54.33-2.75-76.42-48.56-83.42-68.23v0L719,369.5s-3.55-10.65-2.37-17.75-9.47-20.13-5.92-32,22.49-50.9,54.45-21.31c0,0,8.29-11.83,14.2-11.83s23.68-8.29,45,4.73S868.09,349.38,858.62,371.87Z"/><path class="cls-6" d="M769.25,359.44c-12-3.57-15.61-14-18.61-24.89-.73-4.33,1-8.8,2.29-12.71a85.87,85.87,0,0,1,3.46-8.13,107.81,107.81,0,0,1,8.72-15.23c-3.46,10.95-8.48,21.38-10.57,32.65a6.94,6.94,0,0,0,.21,3.45c2.7,10.58,4.61,18.64,14.5,24.86Z"/><path class="cls-6" d="M817.78,305c-7.64,1.05-15.31,3.73-20.54,9.45-4.28,4.94-7.5,10.74-10.89,16.35-2.45,4.15-4.83,8.35-7.05,12.62S774.86,352,773,356.33a25.43,25.43,0,0,0-2.09,6.73,3.41,3.41,0,0,0,0,.55,30.61,30.61,0,0,0,1.67,5.29c3.44,7.85,9.41,18.67,19.08,19-10.13,1.46-18-9.7-21.93-17.68-1-2.24-2.17-4.62-2.35-7.13a26.78,26.78,0,0,1,2-8.12,140.73,140.73,0,0,1,6.26-13.38c5.84-10.38,11.69-21.17,20.2-29.71,6-5.06,14.08-7.19,21.81-6.84Z"/><path class="cls-6" d="M841.46,352.34c-8.71-1.28-19.77-1.17-25.37,6.51a206.49,206.49,0,0,0-13.23,17.65c-3,4.51-6.14,9-8.09,14a7.85,7.85,0,0,0-.3,1.28.2.2,0,0,0-.05-.09s-.06-.06,0,0l.21.33c5.42,8.32,12.74,16.65,23.15,18.09-8.85.62-16.87-5.26-22.46-11.66a41.42,41.42,0,0,1-4-5.15c-.78-1.81-.21-3.19.25-4.73,3.68-9.15,9.7-16.95,15.65-24.65,3.19-3.77,6.19-7.67,10.21-10.69,7.14-4.53,16.39-3.54,24-.88Z"/><path class="cls-6" d="M720.72,371.28c10.74,5.48,19.66,14.52,25.78,24.87,1.08,1.81,2.35,4.38,3.25,6.25a47.8,47.8,0,0,0,13.81,17.3,76.87,76.87,0,0,0,18.71,10.76,52,52,0,0,1-20.56-8.25,43.63,43.63,0,0,1-15-16.91c-.7-1.36-1.69-3.51-2.35-4.9a94.21,94.21,0,0,0-23.69-29.12Z"/><path class="cls-6" d="M737.29,337a7.43,7.43,0,0,1,10,1.11,7.16,7.16,0,0,1-10-1.11Z"/><path class="cls-6" d="M529,342.51c-3.51,5.55-7.57,10.53-11.39,15.76-2.72,3.82-5.61,7.54-7.12,12a7.85,7.85,0,0,0-.22,4.6c-2.52-2.59-1.84-6.93-.77-10,3.57-9.29,11.09-17.2,19.5-22.29Z"/><path class="cls-7" d="M589.18,85l0-.12a.39.39,0,0,1-.06-.13c-.13-.27-.38-.79-.78-1.51A59.76,59.76,0,0,0,578.85,71l-.47-.49c-.31-.32-.64-.64-1-1-.85-.84-1.77-1.71-2.74-2.6-.35-.33-.72-.66-1.1-1s-.81-.72-1.23-1.07l-.48-.43c-.69-.58-1.4-1.18-2.15-1.79-.51-.42-1-.82-1.54-1.23s-.92-.72-1.38-1.06-1-.74-1.43-1.08q-2.48-1.82-4.8-3.34l-.77-.49c-.86-.56-1.71-1.09-2.54-1.6l-.08,0-1.27-.76c-.63-.36-1.24-.72-1.85-1h0l-1.75-1c-.38-.2-.76-.39-1.12-.59l-.3-.16L549,49.37l-1-.47c-.64-.31-1.25-.58-1.83-.85s-1.14-.5-1.65-.7l-.5-.2s0,0,0,0l-.79-.31a.35.35,0,0,0-.13,0l-.42-.17c-.36-.14-.69-.27-1-.36a3.73,3.73,0,0,0-.48-.18l-.48-.17-.28-.09-.35-.11s19.63-8.15,25.19-19S589,23.14,593.91,45.67,589.18,85,589.18,85Z"/><path class="cls-7" d="M426.8,23.57C452.61,10.64,450.37,59.09,458,55.82s12-15.38,12-15.38S462.73,37.55,458.5,25C454.69,13.57,440.61,5.64,426.8,23.57Z"/><path class="cls-8" d="M633.73,159.82s-2.29,18.4-20.92,19.81c0,0-.47,1-1.42,2.63-3.28,5.65-12.19,18.82-25.77,22.93l-.23.07s-.88,15.36-10.08,25.55c-.44.49-.89.95-1.36,1.4h0a26.22,26.22,0,0,1-16.48,7.28,146.06,146.06,0,0,1-19.62.34l-.78,0a116.09,116.09,0,0,1-25.6-4.13c-11.79-3.42-22-9.09-28.16-17.72-5.86-8.25-14.9-16-25.71-22.61l-.25-.14-.13-.07a147.92,147.92,0,0,0-49.42-18.59s1.52-4.85,7.74-5.74l-.43-.16-.32-.13-1-.38A144.27,144.27,0,0,1,393.66,160l-.29-.17c-1.72-1.08-3.42-2.23-5-3.41-4.82-3.58-8.68-7.55-9.89-11.63a33.54,33.54,0,0,0,11.93-10l-8.83,3.2a23.82,23.82,0,0,1,16-20.1s-7.32-1.65-7.11-5.35c0,0,11.3-3,14.12-9.08,0,0-2.46-.14-6-2.82,0,0,18.09-13.8,21.12-23.5s-12.42-20.49,2.68-46.83a59.34,59.34,0,0,1,4.45-6.72C452.6,10.64,450.37,59.09,458,55.82s12-15.38,12-15.38,44.34-8,70.15,5.25l.35.11.28.09.48.17a3.73,3.73,0,0,1,.48.18c.3.09.63.22,1,.36l.42.17a.35.35,0,0,1,.13,0l.79.31s0,0,0,0l.5.2c.51.2,1.05.44,1.65.7s1.19.54,1.83.85l1,.47,1.83.91.3.16c.36.2.74.39,1.12.59L554,52h0c.61.33,1.22.69,1.85,1l1.27.76.08,0c.83.51,1.68,1,2.54,1.6l.77.49q2.33,1.53,4.8,3.34c.47.34,1,.71,1.43,1.08s.92.7,1.38,1.06,1,.81,1.54,1.23c.75.61,1.46,1.21,2.15,1.79l.48.43c.42.35.83.72,1.23,1.07s.75.67,1.1,1c1,.89,1.89,1.76,2.74,2.6.33.33.66.65,1,1l.47.49.37.38a71.76,71.76,0,0,1,6.34,7.55,42.42,42.42,0,0,1,2.74,4.25c.4.72.65,1.24.78,1.51a.39.39,0,0,0,.06.13l0,.12s1,1.65,2.15,4.23l.72,1.68s2.71,3,3.27,15c0,.39,0,.78,0,1.19,0-.32,0-.55,0-.64v0a62.48,62.48,0,0,0,6.54,10.75,16.66,16.66,0,0,0,4.5,4.17,4.52,4.52,0,0,0,2.9.7s-.26,4.51-4,5.74l-.13,0c1.55.36,8,2.4,7.53,11.09-.56,9.66,11.4,8.17,11.88,8.11-.09.37-1.72,6.12-6.57,7C618,154,624.9,163,633.73,159.82Z"/><path class="cls-10" d="M548,48.9c-.64-.31-1.25-.58-1.83-.85C546.79,48.31,547.4,48.58,548,48.9Z"/><path class="cls-10" d="M552.29,51c-.38-.2-.76-.39-1.12-.59l1,.53S552.25,51,552.29,51Z"/><path class="cls-6" d="M597.08,147.15c5,14.54,5,50.75-10,59.32a6.91,6.91,0,0,1-1.45.55,30.18,30.18,0,0,1-8.27-1.21,31.91,31.91,0,0,1-18.76-14.58l2.94.54c-22,16.46-56,19.11-67.5-10.72a40,40,0,0,1-1-25.57,41.71,41.71,0,0,0,2.85,24.8c12,27,42.69,23.35,63.15,8.39l1.7-1.26c1.08,1.5,2.15,3.33,3.24,4.79a28.52,28.52,0,0,0,14.4,10.06,27.44,27.44,0,0,0,7,1.23l-.36,0,.06,0a4.73,4.73,0,0,0,.47-.2c13.16-7.58,14.72-42.61,11.55-56.17Z"/><path class="cls-6" d="M563.59,169.7c2.94,6,2.51,16.41-3.3,20.52.85-7.06.62-13.81,3.3-20.52Z"/><path class="cls-7" d="M532.59,145.13c-.75,13.16,8.82,13.7,8.82,13.7l2.8-7c5.43,9.92,19.38,17.91,19.38,17.91s14.77-6.35,21.29-15.58l2,7.31s9.57.55,10.32-12.61-32.3-1.85-32.3-1.85S533.34,132,532.59,145.13Z"/><polygon class="cls-7" points="480.16 154.12 466.01 142.19 460.1 115.89 456.96 149.08 480.16 154.12"/><polygon class="cls-7" points="477.45 179.92 445.45 155.84 435.09 127.67 441.51 95.05 426.13 126.31 437.78 160.35 477.45 179.92"/><path class="cls-6" d="M533.65,115.77c-1.07,7.88-4,14.66-4.81,22.59-5-6.74-1.2-17.67,4.81-22.59Z"/><path class="cls-6" d="M596,144.89a232.24,232.24,0,0,0-23.43-18.54c-5-3.39-10.12-6.22-15.46-9.24,15.77,1.94,31.65,13.74,38.89,27.78Z"/><path class="cls-7" d="M535.8,56.56l2,7.54-15.74-.31-3.16,6.64,5.49-2.6,15.09.86,1,6.68-9.63-.55L545,90.46l9.47-14.29-9.86-.56-.81-7.47,14.86-.38L566,69.41l-5.86-5.6-16-.59.43-7.4,16.06.13c-3-2-5.84-3.63-8.37-5h0l-8.62-.14-4.72-4-3.76,4.73-17.47-1-8.16,13.13,10.32-7.57Z"/><path class="cls-2" d="M534.84,404.27c-9.17,18.42-17.86,33.09-23.74,42.46,0,0-.65-1.4-1.92-4-.12-.23-.23-.48-.37-.74q-.87-1.78-2.05-4.15c-.13-.28-.29-.58-.44-.87l-.94-1.85c-.32-.63-.65-1.28-1-1.95-1.81-3.52-3.95-7.64-6.42-12.23-.66-1.23-1.34-2.5-2.06-3.8-2.29-4.25-4.85-8.85-7.63-13.73-6.19-10.86-13.51-23.12-21.8-36-.82-1.28-1.66-2.56-2.5-3.85-4.25-6.48-8.72-13.09-13.41-19.73a.23.23,0,0,0-.05-.05v0l-2.8-3.92c-.78-1.1-1.58-2.19-2.38-3.28s-1.75-2.4-2.65-3.61l-.81-1.08c-.63-.83-1.25-1.67-1.88-2.51q-3.69-4.89-7.52-9.75c-.43-.55-.87-1.1-1.31-1.64l-2.33-2.91c-1.34-1.65-2.68-3.28-4-4.91-.95-1.14-1.89-2.27-2.85-3.39q-5.32-6.28-10.89-12.36l-3-3.19c-.27-.3-.56-.59-.84-.89-.87-.92-1.74-1.84-2.62-2.75l-1.75-1.8q-1.53-1.56-3.07-3.09c-4.27-4.26-8.64-8.38-13.07-12.31l-1.52-1.33q-8.43-7.4-17.23-13.78s0-21.31,21.3-43.8l1.13.84c3.16,2.41,12.76,9.94,26,22.39a501,501,0,0,1,42.08,44.92,513.62,513.62,0,0,1,55.1,80.88q4.35,7.92,8.51,16.24Q528.76,390,534.84,404.27Z"/><path class="cls-11" d="M558.34,348.79a482.5,482.5,0,0,1-23.5,55.48q-6-14.28-12.72-27.52c11.28,1.16,17.4-2.27,32.89-23.23C556.21,351.9,557.32,350.33,558.34,348.79Z"/><path class="cls-8" d="M575.13,287.24c-2.36,17.75-4.73,23.67-4.73,23.67s4.19,13.61-12.06,37.88c-1,1.54-2.13,3.11-3.33,4.73-15.49,21-21.61,24.39-32.89,23.23-3.37-.35-7.21-1.11-11.88-1.92,0,0,1.25,17.85-13.1,24.31-2.73,1.23-5.75,2.7-8.85,4.26-11.35,5.74-23.84,12.86-27.13,14.74-.27-1.29-.56-2.61-.83-4-.14-.67-.27-1.34-.41-2-.24-1.14-.46-2.3-.7-3.47-.46-2.35-.92-4.77-1.38-7.24-.11-.57-.22-1.13-.32-1.71h0c-.71-3.91-1.41-7.94-2.09-12.06-.28-1.82-.57-3.66-.85-5.51-.14-.93-.28-1.87-.41-2.81l-.39-2.72c-.41-2.87-.77-5.76-1.13-8.65-.15-1.34-.31-2.68-.46-4-.17-1.52-.32-3-.47-4.57-.09-.81-.16-1.61-.23-2.4-.11-1.2-.21-2.39-.32-3.58-.16-2.12-.32-4.22-.45-6.32-.07-1.09-.13-2.18-.19-3.27v0c0-.71-.07-1.41-.09-2.11s-.06-1.45-.09-2.17c0-.94-.05-1.86-.08-2.79s0-1.61,0-2.4c0-1,0-2.06,0-3.08,0-5.4.2-10.62.65-15.58a72.67,72.67,0,0,1,26-59.19c15.37-12.9,26.68-18.53,34.58-20.78,7.31-2.09,11.67-1.27,13.56-.64a88.8,88.8,0,0,1,12.82,4.8,68.56,68.56,0,0,1,24.25,19h0s11.9,8.24,13.16,22.3A27.43,27.43,0,0,1,575.13,287.24Z"/><path class="cls-6" d="M518.12,255.28c3.89-3.81,9.08-7.52,14.83-7.72,6.62.5,12.73,3.1,18.72,5.63a73,73,0,0,1,10.43,5.63c-3.94-.66-7.73-1.65-11.49-2.67-6-1.53-11.82-3.84-17.8-4.93-5.12-.17-9.74,2.24-14.69,4.06Z"/><path class="cls-6" d="M570.4,310.91c-6.86-5.56-13.09-11.83-20.23-16.86a30.28,30.28,0,0,0-3.74-2.14,19.92,19.92,0,0,0-5.49-1.37A27.08,27.08,0,0,0,529,292c4.86-4.37,12.6-5.73,18.87-3.58,9.42,4,17.59,13.84,22.56,22.52Z"/><line class="cls-10" x1="390.43" y1="212.34" x2="390.43" y2="212.32"/><path class="cls-11" d="M578.09,247.59a276.66,276.66,0,0,1-2.82,33.54c-1.26-14.06-13.16-22.3-13.16-22.3h0a68.56,68.56,0,0,0-24.25-19,146.06,146.06,0,0,0,19.62-.34A26.22,26.22,0,0,0,574,232.22C572.78,236.39,578.09,247.59,578.09,247.59Z"/><line class="cls-12" x1="573.95" y1="232.22" x2="573.95" y2="232.21"/><path class="cls-7" d="M468.56,229.9s-26.18,9.09-52.13,4.81c-13.24-12.45-22.84-20-26-22.39l3.23-14.08S437.74,228.2,468.56,229.9Z"/><path class="cls-11" d="M511.47,235.68c-7.9,2.25-19.21,7.88-34.58,20.78a72.28,72.28,0,0,0-18.38,23.17,501,501,0,0,0-42.08-44.92c25.95,4.28,52.13-4.81,52.13-4.81-30.82-1.7-74.9-31.66-74.9-31.66-3.93,1-13.83,8.51-13.83,8.51,2.37-11.84,13-22.49,13-22.49-5.92-1.18-8.28-7.1-8.28-7.1,7.1-1.19,8.8-17.35,8.8-17.35l.29.17c3.58,3.45,15.68,8.4,20.18,10.16l1,.38.32.13.43.16c-7.38-.41-7.74,5.74-7.74,5.74a212,212,0,0,1,49.27,18.51l.28.15.25.14c10.81,6.61,19.85,14.36,25.71,22.61C489.44,226.59,499.68,232.26,511.47,235.68Z"/><path class="cls-6" d="M585.39,205.26a38.26,38.26,0,0,1-7.16,24c-7.92,10.91-22.35,14.09-35.11,12.73-12.51-1.23-25.12-1.81-37.31-5.38-11.42-3.14-18.92-12.31-25-21.86,5.53,6.08,10.9,12.52,18.32,16.16s15.55,4.35,23.68,5.24c5.47.57,11,1,16.51,1.51,5.29.55,10.89,1,16.16.35,17.72-1.76,27.93-15.76,29.9-32.71Z"/><path class="cls-6" d="M522.12,376.75c12.93.77,19.86-11.07,27.73-19.22,2.74-2.95,5.52-5.88,8.49-8.74-3.28,7.55-8.22,14.15-13.52,20.36s-14.61,11.52-22.7,7.6Z"/><path class="cls-13" d="M482.81,88.38S519.5,86,521.87,106.14s-27.22,17.75-27.22,17.75S462.69,112.06,482.81,88.38Z"/><ellipse class="cls-7" cx="506.48" cy="107.32" rx="9.47" ry="14.2"/><path class="cls-7" d="M486.3,74.47s21.29,3.62,27.14,15.67,17.34-10.28,2.07-16.82S486.3,74.47,486.3,74.47Z"/><path class="cls-13" d="M592.81,123.2c-1.73.86-2.88,1.29-2.88,1.29s-29.59,2.36-27.22-17.76c1.51-12.92,17.21-16.57,28.23-17.52,1.35,4.79,2.62,14.34.8,32.46C591.74,121.67,592.17,122.21,592.81,123.2Z"/><ellipse class="cls-7" cx="578.09" cy="107.92" rx="9.47" ry="14.2"/><path class="cls-7" d="M585.56,78.94c-5.69,2.43-11.72,6.2-14.43,11.79-5.84,12-17.34-10.28-2.07-16.82a32.37,32.37,0,0,1,10.16-2.52A71.76,71.76,0,0,1,585.56,78.94Z"/><path class="cls-6" d="M596.75,148.57c2.41-9.08-.3-18.89-5.78-26.3l-.23-.32,0-.38c.85-10.73,1.9-21.69-.14-32.34a14.55,14.55,0,0,0-1.56-4.34,12.82,12.82,0,0,1,2.13,4.18c3.28,10.54,2.51,21.86,1.51,32.7l-.2-.7c5.65,7.79,8.07,18.44,4.24,27.5Z"/><line class="cls-14" x1="595.38" y1="106.33" x2="595.32" y2="105.83"/></svg>