<svg id="Layer_1" data-name="Layer 1" xmlns="http://www.w3.org/2000/svg" viewBox="0 0 1000 1000"><defs><style>.cls-1{fill:#ededed;}.cls-10,.cls-13,.cls-14,.cls-16,.cls-2,.cls-6{fill:none;stroke-miterlimit:10;}.cls-2{stroke:#042f4f;}.cls-3{fill:#252526;}.cls-4{fill:#161616;}.cls-5{fill:#023e73;}.cls-6{stroke:#252526;}.cls-7{fill:#bababa;}.cls-8{fill:#404040;}.cls-9{fill:#fff;}.cls-10{stroke:#ededed;}.cls-11{fill:#042f4f;}.cls-12{fill:#e0b344;}.cls-13{stroke:#fff;}.cls-14{stroke:#bababa;}.cls-15{fill:#efefef;}.cls-16{stroke:#023e73;}</style></defs><path class="cls-1" d="M690.6,728.3c-2.06,22-12.58,67.27-20.38,98.88-87.5,18.31-153.67-30.68-153.67-30.68,18.09-69.33,7.87-124.34-5.61-161.73-.88-2.46-1.79-4.86-2.69-7.16l-.17-.43c-.29-.73-.57-1.44-.87-2.16-1.25-3.11-2.52-6.06-3.77-8.87-.41-.89-.81-1.79-1.21-2.65-.3-.65-.59-1.3-.9-1.93-1.28-2.76-2.55-5.34-3.78-7.76L497,602.7c-.93-1.82-1.83-3.53-2.69-5.16-3.89-7.27-11.56-18.07-21.93-31C433.47,518.08,356.63,439.89,300,407.24c-38.39-22.11-67.49-40.9-86.26-53.59,1.29-.31,98.3-23.3,86.82-140.55l3.19,2.39,25.2,18.77L397,285l0,0,53.08,39.55c-6.43,28.47-18.61,108.37,26.23,177.31a247.8,247.8,0,0,0-21.77,25.07c25.73,0,41.4,13.28,41.4,13.28,1.34-2.78,2.88-5.55,4.56-8.32,2.07,2.09,4.2,4.18,6.41,6.22a291.23,291.23,0,0,0,93.68,58.82c-3.3,12.45-7.53,23.73-12.92,31.81,0,0,25,25.31,24.78,40.06,0,0,14.51-24.21,24-60.68a275.9,275.9,0,0,0,54.24,7.62C691.14,627.53,693.66,695.66,690.6,728.3Z"/><path class="cls-2" d="M690.67,615.73c0-1.16-.07-1.77-.07-1.77"/><path class="cls-3" d="M633.54,473.21c0,.53,0,1,0,1.56,0,.27,0,.55,0,.81,0,.63-.08,1.26-.16,1.87,0,.28-.06.55-.1.82s-.05.36-.08.54c-.09.61-.19,1.2-.33,1.8h0c-.06.36-.14.72-.23,1.07s-.17.71-.27,1.07c-.18.7-.38,1.39-.62,2.08s-.48,1.36-.73,2c-.14.34-.27.66-.42,1-.29.65-.59,1.3-.9,1.93-.16.33-.33.64-.5.95-.34.63-.69,1.25-1.07,1.85q-.27.45-.57.9a34.87,34.87,0,0,1-2.56,3.44c-.22.26-.43.52-.66.76s-.33.38-.51.56-.52.56-.8.84-.65.66-1,1l-.87.8-.67.57c-.23.2-.46.39-.7.57s-.59.47-.89.7l-.86.62c-.59.44-1.2.84-1.83,1.22a7.68,7.68,0,0,1-.78.47l-.13.09-.81.45c-.64.36-1.3.69-2,1a36.95,36.95,0,0,1-52.75-33.37c0-.89,0-1.79.1-2.67A36.93,36.93,0,0,1,578.58,441h0a36.46,36.46,0,0,1,12.53-4.3,38.14,38.14,0,0,1,5.49-.4,36.86,36.86,0,0,1,36.92,36.92Z"/><path class="cls-3" d="M591.13,436.69A36.46,36.46,0,0,0,578.6,441h0a149.84,149.84,0,0,0-36.32,12.16c-22-24.49-39.42-55.55-45.75-94.73-.2-1.25-.39-2.5-.57-3.77C496.43,355.76,508.73,382.15,591.13,436.69Z"/><path class="cls-3" d="M716.55,510.13S704,518,698.43,538.1c0,0-.79-.14-2.29-.47-2-.42-5.25-1.16-9.51-2.27a345.46,345.46,0,0,1-44-14.69,188.55,188.55,0,0,0-9.84-40h0c.14-.6.24-1.19.33-1.8,0-.18,0-.36.08-.54s.07-.54.1-.82c.08-.61.13-1.24.16-1.87,0-.26,0-.54,0-.81,0-.52,0-1,0-1.56A37.16,37.16,0,0,0,632,462.44c23.42,14.13,50.83,29.71,82.86,46.76Z"/><path class="cls-4" d="M644.42,547.87c0,1.38,0,2.74,0,4.11,0,1.17,0,2.35-.1,3.51,0,.31,0,.61,0,.93,0,1.16-.1,2.32-.17,3.49a2.64,2.64,0,0,1,0,.28c-.07,1.31-.15,2.6-.25,3.9-.11,1.54-.24,3.07-.38,4.57-.09,1-.18,1.89-.29,2.83-.27,2.59-.58,5.17-.94,7.7-.09.66-.18,1.32-.28,2s-.14,1-.22,1.49c-.1.67-.21,1.35-.33,2-.14.91-.29,1.83-.45,2.72-.19,1.13-.4,2.26-.61,3.37s-.38,2-.57,3-.38,1.86-.58,2.77-.37,1.72-.56,2.57c-.28,1.26-.56,2.51-.86,3.74-.19.83-.39,1.65-.59,2.47s-.47,1.89-.72,2.83c-9.47,36.47-24,60.68-24,60.68.17-14.75-24.78-40.06-24.78-40.06,5.39-8.08,9.62-19.36,12.92-31.81,1.15-4.3,2.19-8.73,3.13-13.21,7.64-36.62,8.73-77.13,8.73-77.13.66-.32,1.32-.65,2-1l.81-.45.13-.09a7.68,7.68,0,0,0,.78-.47c.63-.38,1.24-.78,1.83-1.22.29-.19.58-.4.86-.62s.6-.45.89-.7.47-.37.7-.57l.67-.57.87-.8c.35-.33.68-.65,1-1s.55-.56.8-.84.35-.37.51-.56.44-.5.66-.76a34.87,34.87,0,0,0,2.56-3.44q.3-.45.57-.9c.39-.6.74-1.22,1.07-1.85.17-.31.34-.62.5-.95.32-.63.62-1.28.9-1.93.15-.34.28-.66.42-1,.26-.67.51-1.34.73-2s.44-1.38.62-2.08c.1-.36.19-.71.27-1.07s.17-.71.23-1.07a188.55,188.55,0,0,1,9.84,40A204.71,204.71,0,0,1,644.42,547.87Z"/><line class="cls-2" x1="632.79" y1="480.62" x2="632.79" y2="480.61"/><path class="cls-4" d="M578.58,441a36.93,36.93,0,0,0-18.78,29.55s-5.17,3.82-12.71,10.22l-1.69,1.44c-.62.54-1.27,1.1-1.93,1.69-.49.42-1,.86-1.51,1.32-.14.11-.27.23-.42.37l-1.81,1.61q-2.09,1.88-4.28,3.92l-1.56,1.46-2.73,2.6c-.7.69-1.41,1.38-2.12,2.09q-1.85,1.83-3.71,3.72l-1.23,1.28c-1.23,1.27-2.47,2.58-3.69,3.91l-1.23,1.34L518,508.86c-.63.7-1.25,1.41-1.87,2.12q-2.67,3.07-5.21,6.25c-1,1.22-1.94,2.46-2.88,3.7-.08.09-.14.19-.21.28-2.64,3.5-5.09,7.07-7.29,10.67-1.68,2.77-3.22,5.54-4.56,8.32,0,0-15.67-13.28-41.4-13.28a247.8,247.8,0,0,1,21.77-25.07c2.76-2.82,5.76-5.76,9-8.78,14.8-13.83,34.27-29.1,57-39.92A149.84,149.84,0,0,1,578.58,441Z"/><path class="cls-2" d="M578.6,441h0"/><path class="cls-5" d="M485.3,493.07c-3.23,3-6.23,6-9,8.78C431.47,432.91,443.65,353,450.08,324.54c1.56-6.89,2.78-10.76,2.78-10.76,1,2.61,4,6.44,7.85,10.76C460.71,324.54,436,416.53,485.3,493.07Z"/><path class="cls-1" d="M542.26,453.15c-22.69,10.82-42.16,26.09-57,39.92C436,416.53,460.71,324.54,460.71,324.54c4.21,4.68,9.54,10,14.8,14.95,10.66,10.11,21,18.93,21,18.93C502.84,397.6,520.21,428.66,542.26,453.15Z"/><path class="cls-1" d="M612.45,506.58s-1.09,40.51-8.73,77.13c-20.84-9.16-44.54-22.32-70.87-41.13a187.47,187.47,0,0,1-25.06-21.37c.07-.09.13-.19.21-.28.94-1.24,1.9-2.48,2.88-3.7q2.54-3.18,5.21-6.25c.62-.71,1.24-1.42,1.87-2.12l1.22-1.35,1.23-1.34c1.22-1.33,2.46-2.64,3.69-3.91l1.23-1.28q1.86-1.89,3.71-3.72c.71-.71,1.42-1.4,2.12-2.09l2.73-2.6,1.56-1.46q2.19-2,4.28-3.92l1.81-1.61c.15-.14.28-.26.42-.37.51-.46,1-.9,1.51-1.32.66-.59,1.31-1.15,1.93-1.69l1.69-1.44c7.54-6.4,12.71-10.22,12.71-10.22-.06.88-.1,1.78-.1,2.67a36.95,36.95,0,0,0,52.75,33.37Z"/><path class="cls-5" d="M713,615.3a168,168,0,0,1-22.31.43,275.9,275.9,0,0,1-54.24-7.62c.25-.94.48-1.88.72-2.83s.4-1.64.59-2.47c.3-1.23.58-2.48.86-3.74.2-.84.38-1.7.56-2.57,26.57,7.42,45.83,7.62,56.81,6.65-13.65-21.11-9.34-67.79-9.34-67.79,4.26,1.11,7.51,1.85,9.51,2.27-4.41,21.56,4.07,48,10.52,63.79C710.1,609.87,713,615.3,713,615.3Z"/><path class="cls-1" d="M696,603.15c-11,1-30.24.77-56.81-6.65.2-.91.39-1.84.58-2.77s.38-2,.57-3,.42-2.24.61-3.37c.16-.89.31-1.81.45-2.72.12-.66.23-1.34.33-2,.08-.49.14-1,.22-1.49s.19-1.3.28-2c.36-2.53.67-5.11.94-7.7.11-.94.2-1.88.29-2.83.14-1.5.27-3,.38-4.57.1-1.3.18-2.59.25-3.9a2.64,2.64,0,0,0,0-.28c.07-1.17.13-2.33.17-3.49,0-.32,0-.62,0-.93.06-1.16.08-2.34.1-3.51,0-1.37,0-2.73,0-4.11a204.71,204.71,0,0,0-1.79-27.2,345.46,345.46,0,0,0,44,14.69S682.32,582,696,603.15Z"/><path class="cls-5" d="M603.72,583.71c-.94,4.48-2,8.91-3.13,13.21a291.23,291.23,0,0,1-93.68-58.82c-2.21-2-4.34-4.13-6.41-6.22,2.2-3.6,4.65-7.17,7.29-10.67a187.47,187.47,0,0,0,25.06,21.37C559.18,561.39,582.88,574.55,603.72,583.71Z"/><path class="cls-6" d="M485.3,493.07a174.76,174.76,0,0,0,22.49,28.14"/><path class="cls-6" d="M603.72,583.71a263.13,263.13,0,0,0,35.44,12.79"/><path class="cls-7" d="M434.4,341.19c-1,33.62-2.09,67.25.18,100.81,1,13.33,2.37,26.72,5.72,39.68a68.44,68.44,0,0,0,7.41,18.59c-4.27-5.28-7.06-11.63-9.3-18-12.69-38.63-10-100.64-4-141Z"/><path class="cls-7" d="M495.94,564.16a603.33,603.33,0,0,0,53.69,80.31c18.72,23.15,39.61,44.93,64.36,61.67a173.72,173.72,0,0,0,30.43,16.14C578.29,702,523.85,624.62,495.94,564.16Z"/><path class="cls-8" d="M337.59,683.11c-45.62-19.46-89-92-55.12-116.57,34.92-25.26,66.9,7.36,68.43,30.38.64,9.59,7.17,19.72,17.11,27.14C368,624.06,329.16,634.58,337.59,683.11Z"/><path class="cls-8" d="M407.91,695.46a163.67,163.67,0,0,1-19-.5c-19.73-27.74-1-61.41-1-61.41a53.27,53.27,0,0,0,15.64,1.54C403.17,635.87,387.31,668.56,407.91,695.46Z"/><path class="cls-9" d="M388.93,695a190.28,190.28,0,0,1-47.39-10.29c-1.32-.47-2.64-1-4-1.56C329.16,634.58,368,624.06,368,624.06a56.37,56.37,0,0,0,19.9,9.49S369.2,667.22,388.93,695Z"/><path class="cls-8" d="M487.9,664.25a112,112,0,0,1-12.69,10.28h0c-34.14-10.16-38.85-52.62-38.85-52.62A87.44,87.44,0,0,0,450,608.08S449.66,648.32,487.9,664.25Z"/><path class="cls-9" d="M475.2,674.53c-20.74,14.39-44.37,20.22-67.27,20.93h0c-20.6-26.9-4.74-59.59-4.36-60.37a52.72,52.72,0,0,0,19.1-4.69,63.69,63.69,0,0,0,13.7-8.49S441.06,664.37,475.2,674.53Z"/><path class="cls-8" d="M503.44,616.15c-26.06-7-36.81-35.32-36.81-35.32a129,129,0,0,0,5.74-14.29c10.37,12.93,18,23.73,21.93,31C497.06,602.72,500.22,609,503.44,616.15Z"/><path class="cls-9" d="M510.94,634.77a126.27,126.27,0,0,1-23,29.48c-38.24-15.93-37.9-56.17-37.9-56.17a135.47,135.47,0,0,0,16.63-27.25s10.75,28.34,36.81,35.32C505.94,621.77,508.49,628,510.94,634.77Z"/><polyline class="cls-10" points="407.93 695.47 407.93 695.46 407.92 695.46"/><path class="cls-10" d="M403.56,635.08h0"/><path class="cls-9" d="M535.76,843.26,523.34,953.74s40.28,21.25,86.15,20.14S738.15,979.47,737,957.09s5.6-90.62-82.79-66c0,0-3.38-18.05-.29-28.88s-105.07-32.35-105.07-32.35Z"/><path class="cls-5" d="M670.22,827.18c-4.89,19.81-8.71,34.26-8.71,34.26-97.33,11.18-154.39-34.69-154.39-34.69,3.76-10.36,6.88-20.45,9.43-30.25C516.55,796.5,582.72,845.49,670.22,827.18Z"/><path class="cls-7" d="M653.12,915.7c7.61-1.21,16,1.47,21,7.52.59.84,1.21,1.68,1.78,2.54a29,29,0,0,1,2.72,6.82c3.17,13.57,2.56,27.84-.68,41.29-.27-12.11-.32-24.11-2.31-36a36.39,36.39,0,0,0-2.93-10.3C669,920.32,661,916.62,653.12,915.7Z"/><path class="cls-7" d="M679,904.39c11.55-2.46,24.57,1.94,31.57,11.68s8,22.12,8.49,33.68c.09,5.62,0,19-5.87,21.63,4.68-3.48,3.15-16.08,2.76-21.44-.92-7.3-1.7-15-3.86-22-4.37-15.14-17.49-23.43-33.09-23.59Z"/><path class="cls-9" d="M287.83,258.4S261,327.77,240.72,306.51c-14-14.64-23.49-14.95-38.89-20.37a127.82,127.82,0,0,1-25.38-12.28c-33.08-20.35-18.4-73.63-18.4-73.63s-26.85,4.47-32.44-29.09,43.07-54.27,43.07-54.27c23.5-38,63.77-15.66,63.77-15.66,14.45.26,24.53,5.16,31.48,12.59,23.76,25.38,11,80.27,11,80.27Z"/><path class="cls-5" d="M213.69,353.65h0c-16.35-11.06-24.86-17.49-24.86-17.49,22.66-6.11,39.46-16.78,51.9-29.65C283,262.84,275,194.07,275,194.07l25.54,19C312,330.35,215,353.34,213.69,353.65Z"/><path class="cls-11" d="M240.72,306.51c-12.44,12.87-29.24,23.54-51.9,29.65,0,0-.26-38,13-50C217.23,291.56,226.76,291.87,240.72,306.51Z"/><ellipse class="cls-8" cx="203.92" cy="202.46" rx="21.82" ry="22.94"/><path class="cls-7" d="M232.45,101.21c-19.58,9.45-33.87,25.36-23.27,47.55,4.57,10.45,12.55,16.78,23.91,11.26A40.64,40.64,0,0,0,249.24,146c-3.57,8.5-12.89,17.36-22.28,19.11-11.63,2.16-19.43-8.6-22.86-18.18-8.66-22.49,7.6-39.71,28.35-45.68Z"/><path class="cls-7" d="M168.68,116.87c-3.46,13.83-10.2,41.84,5.85,49.71,14,6.07,28.34,2.52,36.1-11.18-5.48,16.33-22.79,21.19-37.78,14.71-18.94-9.13-11.51-38.36-4.17-53.24Z"/><path class="cls-7" d="M158.05,200.23c8.48-9.23,16.27-18.49,21.53-30a32,32,0,0,1-.11,3.66c-1.69,11.68-10.48,22.08-21.42,26.3Z"/><path class="cls-8" d="M615.64,62.61S602.85,65.67,588,76.45s-18.78,19.17-18.78,19.17A53.84,53.84,0,0,1,567,59.82c5.6-20.14,22.38-25.74,26.86-15.67S615.64,62.61,615.64,62.61Z"/><path class="cls-8" d="M719.37,48.46c-22.69-13-23.17,30.93-29.89,27.58s-10.07-14.55-10.07-14.55,6.72-2.23,11.19-13.42C694.64,38,707.8,31.52,719.37,48.46Z"/><path class="cls-9" d="M756.82,160.68c-1.29,3.61-5,7-9.54,10-10.46,6.91-25.35,11.64-25.35,11.64a8.35,8.35,0,0,1,6.71,5.6c-28,3.35-57.06,16.78-70.48,33.56-10.12,12.64-30.38,17-49.8,17a134.58,134.58,0,0,1-18.45-1.33,23.79,23.79,0,0,1-15.7-8.8c-7.79-9.7-7.79-23.65-7.79-23.65-12.2-4.35-19.65-16.85-22.35-22.16-.77-1.52-1.15-2.45-1.15-2.45-16.78-2.24-17.9-19-17.9-19,7.83,3.35,14.54-4.48,14.54-4.48-4.47-1.12-5.59-6.71-5.59-6.71s11.19,2.24,11.19-6.71c0-7.89,6-9.41,7.38-9.66l-.11,0c-3.36-1.31-3.36-5.41-3.36-5.41a4.14,4.14,0,0,0,2.67-.48c5.12-2.48,10.76-12.94,10.76-12.94s-.5,13.7-.08,20.81a20.76,20.76,0,0,0,6.34,1,52.15,52.15,0,0,0,6.56-.37c7.81-1,12.31-3.82,15.78-8l.28-.33c4.36-5.46,3.26-27.28-18.55-27.28a57.9,57.9,0,0,0-6.52.36,48.08,48.08,0,0,1,2.9-5.19,20,20,0,0,1,1.66-2.7c5.56.47,11.68,2,15.59,5.9,8.73,8.72,12-14.19-3.27-15.27a27,27,0,0,0-3.91,0,101.26,101.26,0,0,1,17.34-12.67c2.83-1.65,5.47-3,7.83-4.08a67.8,67.8,0,0,1,11.19-4.16c24.06-10.63,63.77-1.12,63.77-1.12S682.77,72.68,689.48,76s7.2-40.61,29.89-27.58a54,54,0,0,1,3.68,6.32c12.3,24.61-2.24,33.57,0,42.52S741,119.67,741,119.67c-3.36,2.24-5.6,2.24-5.6,2.24,2.24,5.59,12.31,9,12.31,9,0,3.36-6.71,4.47-6.71,4.47a21.62,21.62,0,0,1,13.42,19L746.54,151A30.73,30.73,0,0,0,756.82,160.68Z"/><path class="cls-8" d="M666.76,93.36s-19.64-3.27-28.37,5.45-12-14.18,3.27-15.27S666.76,93.36,666.76,93.36Z"/><path class="cls-12" d="M676,111.36s-2.18-10.91-24-10.91-22.91,21.82-18.55,27.28,10.31,8.72,22.61,8.72S679.3,125.24,676,111.76"/><ellipse class="cls-8" cx="645.94" cy="117.82" rx="9.82" ry="14.73"/><path class="cls-8" d="M586.46,98.82c-3.91-3.92-10-5.43-15.59-5.9a58.27,58.27,0,0,1,8.4-9.4h0a27,27,0,0,1,3.91,0C598.46,84.63,595.19,107.54,586.46,98.82Z"/><path class="cls-12" d="M591.38,127.73l-.28.33c-3.47,4.2-8,7.05-15.78,8a52.15,52.15,0,0,1-6.56.37,20.76,20.76,0,0,1-6.34-1c-.42-7.11.08-20.81.08-20.81,0-4.88,2-10.11,3.81-13.83a57.9,57.9,0,0,1,6.52-.36C594.64,100.45,595.74,122.27,591.38,127.73Z"/><path class="cls-7" d="M558.84,151.51c-3.47,12.08-3.85,43.7,7.63,51.29.16.09.45.21.43.21l-.35-.07a24.63,24.63,0,0,0,6.3-.76,25.87,25.87,0,0,0,15.41-10.88l1.34-1.74,1.63,1.36c17.63,14.55,45.09,19.39,57.38-4.23a38.45,38.45,0,0,0,3.95-22.27,36.71,36.71,0,0,1-2.11,23.14C638.58,214,607.62,210,588.59,193.87l3-.38a29.14,29.14,0,0,1-21.49,12.87,23.88,23.88,0,0,1-4,.09c-2.76-1-4.65-3.29-6.15-5.63-7.36-12.87-6.25-35.79-1.09-49.31Z"/><path class="cls-7" d="M588,173.65c2.33,6.18,1.78,12.27,1.92,18.74-5.28-3.92-5.15-13.53-1.92-18.74Z"/><path class="cls-8" d="M617.32,153c0,12-8.69,12-8.69,12l-2.17-6.52C601,167.13,588,173.65,588,173.65s-13-6.52-18.47-15.21L567.35,165s-8.69,0-8.69-12S588,153,588,153,617.32,141.06,617.32,153Z"/><polygon class="cls-8" points="664.31 163.86 677.74 153.79 684.45 130.3 685.57 160.51 664.31 163.86"/><polygon class="cls-8" points="665.43 187.36 695.64 167.22 706.47 142.26 702.35 112.4 714.66 141.49 702.35 171.7 665.43 187.36"/><path class="cls-7" d="M617.88,126.38c5.43,4.65,8.29,14.91,3.19,20.7-.56-7.23-2.88-13.45-3.19-20.7Z"/><ellipse class="cls-8" cx="573.31" cy="117.82" rx="9.82" ry="14.73"/><path class="cls-7" d="M560,149.52c7.07-12.51,22.18-22.46,36.63-23.14A205.41,205.41,0,0,0,560,149.52Z"/><path class="cls-7" d="M566.31,100.81c-2.78,5.15-2.78,11.32-3.18,17-.21,5.85,0,11.69.26,17.54l0,.38-.25.31a31.49,31.49,0,0,0-7,18,27.94,27.94,0,0,0,.54,6.62,22.81,22.81,0,0,1-1.41-6.61,28.91,28.91,0,0,1,6.39-19.25l-.23.7-.24-4.43c-.15-8.83-.33-23.05,5.1-30.27Z"/><path class="cls-8" d="M619,72.68l-2.24,6.71,14.27.54,2.51,6.18-4.83-2.64H615l-1.21,6h8.73l-13.59,13.43L601.1,89.46h8.95l1.12-6.71-13.43-1.12L591,82.75,596.62,78l14.55.29V71.56l-14.55-.71c2.83-1.65,5.47-3,7.83-4.08h0l7.81.32,4.47-3.36,3.16,4.48h15.86l6.71,12.3-9-7.38Z"/><path class="cls-5" d="M328.9,234.26l-25.2-18.77s29.77-23.9,21.29-77.58h0a145.94,145.94,0,0,0-3-14.31s9.22,2.76,23.59,7.16C366.34,200,328.9,234.26,328.9,234.26Z"/><path class="cls-1" d="M836.89,485.82c-49.5,10.37-68.42-23.38-68.42-23.38-15,8.24-53.66,46.76-53.66,46.76-32-17.05-59.44-32.63-82.86-46.76a36.93,36.93,0,0,0-35.33-26.15,38.14,38.14,0,0,0-5.49.4c-82.4-54.54-94.7-80.93-95.19-82,.18,1.27.37,2.52.57,3.77,0,0-10.34-8.82-21-18.93,5.32-3.93,3.74-28.35,3.74-28.35C463.81,309.08,398,285.35,397,285l0,0L328.9,234.26S366.34,200,345.55,130.75c46,14.07,144.79,45,162.69,56.05,0,0,23.57-6.29,35.83-4.26,2.7,5.31,10.15,17.81,22.35,22.16,0,0,0,14,7.79,23.65,5.31,23,20.2,79.58,45.71,116.26-12.13,10.71-23.2,20.1-32.25,27.21l24.78,19.41s88-70.45,164.51-152.91c2.8.81,33.07,9.89,50.14,30.15,17.9,21.26,48.1,71.61,54.82,110.76S886.39,475.45,836.89,485.82Z"/><path class="cls-13" d="M777,238.32l-.21-.06"/><path class="cls-3" d="M780.11,234.91c-1.06,1.14-2.11,2.27-3.15,3.41-76.49,82.46-164.51,152.91-164.51,152.91l-24.78-19.41c9.05-7.11,20.12-16.5,32.25-27.21,7.13-6.3,14.64-13.06,22.33-20.07,50.41-46,108.59-103.1,120.93-115.25l2.38-2.35C774.51,217,780.11,234.91,780.11,234.91Z"/><path class="cls-4" d="M642.25,324.54c-7.69,7-15.2,13.77-22.33,20.07-25.51-36.68-40.4-93.28-45.71-116.26a23.79,23.79,0,0,0,15.7,8.8,134.58,134.58,0,0,0,18.45,1.33C615.52,272.19,642.25,324.54,642.25,324.54Z"/><path class="cls-7" d="M566.42,204.7c1,15.37,9.52,28.53,25.4,31,4.71.9,9.8.74,14.6.51,5-.12,10-.27,15-.5,7.4-.37,14.82-.66,21.66-3.45s12.11-8.4,17.48-13.57c-5.88,8.35-13.28,16.41-23.72,18.64-11.23,2.63-22.68,2.51-34.08,3-22.48,1-38.1-12.5-36.36-35.59Z"/><path class="cls-7" d="M479.25,311.14c21.92-16.72,36.71-42.68,38.17-70.33a138.81,138.81,0,0,0-1.29-27.71,86.47,86.47,0,0,1,1.61,49c-5.64,20.5-19.61,39.06-38.49,49.05Z"/><line class="cls-14" x1="345.55" y1="130.75" x2="345.55" y2="130.74"/><path class="cls-15" d="M303.7,215.49l-3.19-2.39-25.54-19s12.72-54.89-11-80.27c.77,0,31.44-1.23,53.26,16.42h0A56.33,56.33,0,0,1,325,137.9h0C333.47,191.59,303.7,215.49,303.7,215.49Z"/><path class="cls-16" d="M263.93,113.8h0"/><path class="cls-11" d="M325,137.9a56.33,56.33,0,0,0-7.79-7.67h0c-.84-5.1,4.77-6.63,4.77-6.63A145.94,145.94,0,0,1,325,137.9Z"/><path class="cls-5" d="M738.06,403.9l-8.86-25.23a98,98,0,0,0,25.29-.51h0c24.81-3.8,56.52-19.71,38.71-79.08l22.69,17.5S848.16,407.32,738.06,403.9Z"/><path class="cls-7" d="M738.06,403.9c5.44,9.66,10.11,19.61,15,29.53s9.27,19.84,15.46,29c-14.15-11.52-26.25-40.83-30.41-58.54Z"/><path class="cls-7" d="M815.91,316.58c11.77,2.57,22.1,10,30.33,18.56a75.93,75.93,0,0,1,11.67,16.16c1.23,2.35,2.32,4.79,3.31,7.24-2.49-2.93-4.94-6.27-7.43-9.17-10.7-13-23.17-24.47-37.88-32.79Z"/><path class="cls-7" d="M827.1,268.47c-6.09,9.7-14.36,18.6-14.64,30.61-5.92-11.18,4.7-25.59,14.64-30.61Z"/><path class="cls-9" d="M754.51,378.16h0a50.35,50.35,0,0,1-18.82-6.39c-12-7.14-15.73-17.12-15.73-17.12-18.21-.52-22.07-14-22.07-14-35.8-6.71-20.13-36.92-20.13-36.92s-9-10.06,13.42-32.44,68.25-5.59,73.84,3.36,28.22,24.45,28.22,24.45C811,358.45,779.32,374.36,754.51,378.16Z"/><path class="cls-11" d="M754.49,378.16a98,98,0,0,1-25.29.51s.07-5.41,6.47-6.9A50.35,50.35,0,0,0,754.49,378.16Z"/><path class="cls-7" d="M677.74,303.71c4.14-13.08,15.58-25.66,29.77-27.19a22.06,22.06,0,0,1,6,.34,54.92,54.92,0,0,0-5.62,1.58c-12.76,4.59-21.65,15.15-30.18,25.27Z"/><path class="cls-7" d="M697.87,340.63c-3.71-16.8-.23-37.31,14-48.39a32,32,0,0,1,16.18-6.43,46,46,0,0,0-14.16,8.82c-12.3,11.8-15.08,29.62-16,46Z"/><path class="cls-7" d="M719.94,354.65c3.91-1,9.7-2.38,13.41-3.7a46.84,46.84,0,0,0,12.07-6.34c-3.35,9.85-16.34,13.68-25.48,10Z"/><path class="cls-8" d="M763.18,209.29c-3.66,3.6-11.37,11.17-21.71,21.23-23,.09-51.43-17.42-51.43-17.42,36.36,2.81,66.37-16.44,66.37-16.44C758.77,200.74,761.81,206.17,763.18,209.29Z"/><path class="cls-9" d="M753.25,191.27s1.39,2.31,3.16,5.39c0,0-30,19.25-66.37,16.44,0,0,28.45,17.51,51.43,17.42-2.71,2.65-5.62,5.47-8.69,8.44,0,0-33.22,4.9-52.24,27.26.6-.19,20.43-6.59,30.28-6.08-21.1,20.25-45.64,43.46-68.57,64.4,0,0-26.73-52.35-33.89-86.06,19.42,0,39.68-4.36,49.8-17,13.42-16.78,42.51-30.21,70.48-33.56a8.35,8.35,0,0,0-6.71-5.6s14.89-4.73,25.35-11.64c0,0,2.06,14.44,15.48,22.27C762.76,193,758.85,194.63,753.25,191.27Z"/><path class="cls-8" d="M732.78,239c-6.67,6.46-14.07,13.61-22,21.18-9.85-.51-29.68,5.89-30.28,6.08C699.56,243.86,732.78,239,732.78,239Z"/><line class="cls-13" x1="710.83" y1="260.14" x2="710.82" y2="260.14"/><path class="cls-13" d="M680.54,266.22h0"/><path class="cls-8" d="M631.21,266.34s8.14-3.24,13.57,4.29a11.73,11.73,0,0,1,12-6.9s-11.57,12.1-10.53,24.06C646.27,287.79,646.76,277.34,631.21,266.34Z"/><path class="cls-7" d="M682.6,202.36c13.89-8.49,29.7-13.65,45.71-16.34l-1.6,1.9c-.09-2.66-2.34-3.88-4.78-3.94l-8.5-1.11,8-2.13c7-2.11,14.35-3.68,20.87-7.09-4.11,3.86-9.55,6-14.64,8.23-1.73.7-3.46,1.38-5.24,2l-.49-3.25c5.41-.21,9,3.38,8.69,8.82a382.57,382.57,0,0,0-48,12.88Z"/></svg>