<svg id="Layer_1" data-name="Layer 1" xmlns="http://www.w3.org/2000/svg" viewBox="0 0 1000 1000"><defs><style>.cls-1{fill:#252526;}.cls-2{fill:#161616;}.cls-3{fill:#023e73;}.cls-4{fill:#ededed;}.cls-11,.cls-12,.cls-14,.cls-5,.cls-9{fill:none;stroke-miterlimit:10;}.cls-5{stroke:#252526;}.cls-6{fill:#bababa;}.cls-7{fill:#fff;}.cls-8{fill:#042f4f;}.cls-9{stroke:#ededed;}.cls-10{fill:#404040;}.cls-11{stroke:#404040;}.cls-12{stroke:#bababa;stroke-width:4px;}.cls-13{fill:#e0b344;}.cls-14{stroke:#fff;}</style></defs><path class="cls-1" d="M613.36,264.54s-56.15,75.63-95.26,199.14q-5.75,18.13-10.93,37.62c-.19.72-.37,1.44-.57,2.16H474.18L462,466.75s.48-1,1.36-2.84c3.51-7.33,13.56-28.19,26.82-54.7.21-.41.41-.83.63-1.26,22.74-45.41,54.61-106.78,79.12-145.1,11.6-18.12,21.54-31.09,28.1-34.79a9.8,9.8,0,0,1,1.79-.8s12,16.39,13.49,36.27C613.31,263.86,613.33,264.2,613.36,264.54Z"/><path class="cls-2" d="M490.79,408c-.22.43-.42.85-.63,1.26-13.26,26.51-23.31,47.37-26.82,54.7-39.12-124.32-95.68-200.5-95.68-200.5,0-.19,0-.37,0-.56,1.31-20.09,13.51-36.72,13.51-36.72a10.59,10.59,0,0,1,2.15,1c6.7,4,16.76,17.32,28.45,35.7C436.44,301.56,468.24,362.88,490.79,408Z"/><path class="cls-2" d="M565.35,762.15c-4.55-7.43-12.05-12.07-19.72-15a83.24,83.24,0,0,0-27.17-4.8c1.9-8.65,3.12-20.25,3.89-32.9.22-3.46.4-7,.53-10.58,1.57-37.58-.16-79.48-.2-80.36h0l-9-8.61-22.84-21.73,28.83-22.63,0,0,.07,0c16.12,6,27,21.53,34.27,41.39.4,1.07.78,2.16,1.14,3.25.26.76.51,1.53.76,2.3s.57,1.8.86,2.73c0,.09,0,.18.08.28.27.89.54,1.81.79,2.71s.54,2,.8,2.94.5,1.91.74,2.87c.51,2.06,1,4.13,1.45,6.24.22,1,.42,2,.62,3,.39,1.85.74,3.73,1.07,5.61.13.67.24,1.34.36,2,.71,4.11,1.32,8.28,1.85,12.46.21,1.69.42,3.37.61,5a1.24,1.24,0,0,1,0,.18c.31,2.8.59,5.61.84,8.41.18,1.91.32,3.82.46,5.71.08,1,.15,1.9.2,2.85q.39,5.7.62,11.27c0,.94.08,1.87.12,2.78s.06,1.84.09,2.76,0,1.83.08,2.73,0,1.77.05,2.65,0,1.75.06,2.61c0,1.74,0,3.44.06,5.14C567.93,737.46,565.35,762.15,565.35,762.15Z"/><path class="cls-2" d="M456.75,618.69c-.08,2-.94,23.89-.83,49.67,0,1.31,0,2.64,0,4,0,.16,0,.33,0,.49,0,1.33,0,2.67,0,4,0,1.17,0,2.35,0,3.52,0,1.71.06,3.42.1,5.12,0,1,.05,2,.07,3,.09,3.33.19,6.65.33,10,.14,3.72.33,7.39.55,11,.77,12.66,2,24.29,3.9,33,0,0-14.67-.23-28.31,5.24-7.27,2.92-14.26,7.46-18.57,14.53a564.91,564.91,0,0,1-2.37-56.77c0-3.62.1-7.34.2-11.12.8-28.79,4.14-61.54,13.49-87.14,7.22-19.87,18.08-35.43,34.17-41.49l.22-.09,28.84,22.65L465.77,610l-9,8.56S456.76,618.58,456.75,618.69Z"/><path class="cls-1" d="M530.89,593.83a41.12,41.12,0,0,1-8.21,24.7h0a41.23,41.23,0,1,1-63.09-52.91.16.16,0,0,1,.08-.08,41.2,41.2,0,0,1,60,0l0,0A41.05,41.05,0,0,1,530.89,593.83Z"/><path class="cls-3" d="M348.45,545.26c-1.13,11.3-2.26,18.07-2.26,18.07-3.92-1.43-7.84-2.65-11.75-3.69-41-10.94-80.57-1.4-105.12,7.65h0a175,175,0,0,0-25.1,11.28q-.21-11.33-.07-22l.48-.24.59-.31c1.09-.55,3-1.48,5.62-2.64l1.75-.76c1.85-.79,4-1.66,6.38-2.56l1.22-.47,1.26-.46c.47-.18.95-.35,1.44-.52,2.41-.87,5-1.75,7.83-2.62.75-.24,1.52-.46,2.3-.7l1-.28,1.7-.49,2.22-.62.5-.14c.84-.22,1.67-.45,2.53-.66l1.3-.33c1-.26,2-.5,3-.73l2.35-.54c1.37-.31,2.77-.61,4.21-.89s2.88-.56,4.36-.82c.48-.1,1-.18,1.46-.26l1.46-.25c1-.16,2-.32,3-.46.78-.14,1.57-.25,2.37-.35l2.13-.29c4.37-.56,8.89-1,13.57-1.26,1.11-.07,2.22-.13,3.33-.17s2-.08,3-.1c.44,0,.89,0,1.33,0l1.35,0,2.66,0c.93,0,1.86,0,2.8,0l1.3,0c2.93.06,5.89.18,8.89.4.71,0,1.44.1,2.16.16l3.47.3c4.11.4,8.3.95,12.54,1.66,1,.17,2.08.36,3.13.56s2.09.39,3.14.61l2.58.54c1.14.25,2.3.51,3.45.79l.21,0c1.1.26,2.19.53,3.29.83.51.12,1,.26,1.55.41s1.14.3,1.7.46c1.07.29,2.13.6,3.19.92l1.62.49Z"/><path class="cls-3" d="M774.86,578.58l-.12-.06a1.87,1.87,0,0,0-.3-.17l-.63-.35-.68-.38-.66-.35-.85-.44-1.24-.63c-1.73-.88-4-2-6.58-3.15l-1.32-.59c-.35-.16-.72-.33-1.1-.48-.7-.31-1.42-.63-2.16-.94l-.14-.06-1.22-.51-2.55-1c-1.75-.71-3.61-1.42-5.55-2.13h0c-2.09-.77-4.28-1.55-6.59-2.31-1-.35-2.09-.69-3.16-1-3.54-1.11-7.27-2.19-11.21-3.19l-1.94-.49c-.64-.17-1.3-.33-2-.47l-1.12-.26c-.56-.14-1.11-.26-1.66-.38-.7-.15-1.4-.31-2.12-.45-1.07-.23-2.15-.45-3.25-.65l-1.56-.3-1.66-.29c-.73-.14-1.47-.26-2.21-.37s-1.48-.25-2.24-.35-1.51-.24-2.27-.33l-2.28-.31c-.76-.1-1.54-.19-2.31-.27s-1.54-.18-2.32-.24c-1.56-.16-3.14-.3-4.74-.41-.91-.07-1.83-.13-2.74-.18-1.48-.09-3-.15-4.49-.19-2.38-.07-4.8-.09-7.23-.06-1.56,0-3.11.06-4.68.13-3,.13-6.09.35-9.17.68l-.88.1c-.62.05-1.24.13-1.86.22-1.51.17-3,.38-4.55.62l-.39.07c-.77.1-1.54.24-2.31.38s-1.63.27-2.44.44-1.63.31-2.44.49c-1.57.33-3.13.68-4.7,1.07l-.45.11c-.73.17-1.46.37-2.2.57-1,.25-2,.52-2.93.81-1.88.54-3.75,1.13-5.63,1.76-.73.25-1.47.5-2.2.77l-1,.35h0s-1.13-6.77-2.25-18.07l.11,0,.16-.06.14-.06c.61-.25,1.89-.73,3.76-1.38l1-.35c1.51-.5,3.33-1.06,5.44-1.65.26-.08.53-.16.8-.22,1.29-.37,2.68-.73,4.17-1.09.29-.07.57-.15.88-.21.59-.15,1.2-.29,1.82-.42l.94-.22,1.94-.41,1.9-.39c.38-.08.78-.16,1.17-.22l2.15-.4c3.21-.56,6.66-1.08,10.36-1.5.32,0,.65-.08,1-.11,1.44-.17,2.92-.31,4.42-.43.35,0,.7-.07,1.06-.09,1.65-.14,3.33-.25,5.06-.33.45,0,.92-.06,1.38-.07s1.12-.06,1.69-.07l1.56,0a2.17,2.17,0,0,1,.44,0l1.4,0a186,186,0,0,1,89.55,21.5Q775.06,567.46,774.86,578.58Z"/><path class="cls-4" d="M774.94,556.94a186,186,0,0,0-89.55-21.5l-1.4,0a2.17,2.17,0,0,0-.44,0l-1.56,0c-.57,0-1.14,0-1.69.07s-.93,0-1.38.07c-1.73.08-3.41.19-5.06.33-.36,0-.71,0-1.06.09-1.5.12-3,.26-4.42.43-.34,0-.67.06-1,.11-3.7.42-7.15.94-10.36,1.5l-2.15.4c-.39.06-.79.14-1.17.22l-1.9.39-1.94.41-.94.22c-.62.13-1.23.27-1.82.42-.31.06-.59.14-.88.21-1.49.36-2.88.72-4.17,1.09l-.8.22c-2.11.59-3.93,1.15-5.44,1.65l-1,.35c-1.87.65-3.15,1.13-3.76,1.38l-.14.06-.16.06-.11,0s-77.42,22.28-110.9,20.3l-.07,0a41.2,41.2,0,0,0-60,0c-33.33,2.12-111.22-20.29-111.22-20.29l-1.62-.51-1.62-.49c-1.06-.32-2.12-.63-3.19-.92-.56-.16-1.14-.32-1.7-.46s-1-.29-1.55-.41c-1.1-.3-2.19-.57-3.29-.83l-.21,0c-1.15-.28-2.31-.54-3.45-.79l-2.58-.54c-1.05-.22-2.1-.42-3.14-.61s-2.09-.39-3.13-.56c-4.24-.71-8.43-1.26-12.54-1.66l-3.47-.3c-.72-.06-1.45-.12-2.16-.16-3-.22-6-.34-8.89-.4l-1.3,0c-.94,0-1.87,0-2.8,0l-2.66,0-1.35,0c-.45,0-.89,0-1.33,0-1,0-2,0-3,.1s-2.22.1-3.33.17c-4.68.27-9.2.7-13.57,1.26-.72.09-1.43.18-2.13.29s-1.59.21-2.37.35c-1,.13-2,.29-3,.46l-1.46.25c-.49.08-1,.16-1.46.26-1.48.26-2.94.53-4.36.82s-2.84.58-4.21.89c-.8.17-1.58.35-2.35.54-1,.23-2,.47-3,.73-.44.1-.87.21-1.3.33-.86.21-1.69.44-2.53.66l-.5.14-2.22.62L234,545l-1,.28c-.78.24-1.55.46-2.3.7-2.8.87-5.42,1.75-7.83,2.62l-1.44.52-1.26.46c-.42.15-.82.31-1.22.47-2.4.9-4.53,1.77-6.38,2.56l-1.75.76c-2.64,1.16-4.53,2.09-5.62,2.64-.24.11-.43.22-.59.31l-.48.24c1.86-149.37,52.14-210.56,85.57-244,35-35,78-49.7,78-49.7h0c0,.19,0,.37,0,.56,0,0,56.56,76.18,95.68,200.5-.88,1.86-1.36,2.84-1.36,2.84l12.2,36.71H506.6c.2-.72.38-1.44.57-2.16q5.15-19.47,10.93-37.62c39.11-123.51,95.26-199.14,95.26-199.14,0-.34-.05-.68-.07-1,8.65,3.28,45.39,18.35,76.06,49C722.8,346,773.14,407.28,774.94,556.94Z"/><path class="cls-5" d="M519.26,565.54l.36,0h.09"/><path class="cls-5" d="M459.81,565.54h-.14"/><path class="cls-6" d="M348.45,545.26c-.74-13.65-2-44.33-3-57.46-.47-6.35-1-12.71-1.85-19-.68-4.55-1.18-9.15-3.09-13.29-2.37-3.85-6-6.73-9.49-9.63a133.07,133.07,0,0,0-24.3-14.69c-5.74-2.67-11.71-5-18.1-5.71,6.46-.22,12.83,1.71,18.86,3.9a114,114,0,0,1,17.47,8.39c6.58,3.92,13.33,8.45,18.21,14.68,3,4.66,3.52,10.53,4.4,15.81,3,25.63,2.61,51.3.93,77Z"/><path class="cls-6" d="M340.21,451.9c8-15,6.64-39.82,6-56.68-.61-17.07-1.65-41.22-1.81-58.1,1.77,9.57,2.92,19.22,3.85,28.89,1.16,12,1.86,24.28,2.16,36.33.35,14.68-.72,37.82-10.21,49.56Z"/><path class="cls-6" d="M292.2,310.12c23.39,14,41.92,40.36,48,66.85-1.68-3.07-3-6.28-4.69-9.33a211.51,211.51,0,0,0-43.32-57.52Z"/><path class="cls-6" d="M310,445.85c9.5,2.13,20.29,11.1,20.34,21.46-5.64-8.44-13.43-14.14-20.34-21.46Z"/><path class="cls-6" d="M631,545.26c-1.67-25.66-2-51.33.93-77,.88-5.28,1.45-11.15,4.41-15.81,4.87-6.23,11.62-10.76,18.2-14.68A114.07,114.07,0,0,1,672,429.42c6-2.19,12.39-4.12,18.85-3.9-6.38.68-12.35,3-18.09,5.71a133.07,133.07,0,0,0-24.3,14.69c-3.52,2.9-7.12,5.78-9.5,9.63-1.9,4.14-2.41,8.74-3.09,13.29-.88,6.25-1.37,12.61-1.84,19-1,13-2.33,44.05-3.05,57.46Z"/><path class="cls-6" d="M639.27,451.9c-9.5-11.75-10.56-34.86-10.22-49.56.31-12,1-24.34,2.16-36.33.93-9.67,2.09-19.32,3.86-28.89-.16,16.78-1.21,41.09-1.81,58.1-.64,16.84-2,41.73,6,56.68Z"/><path class="cls-6" d="M687.28,310.12A211.54,211.54,0,0,0,644,367.64c-1.69,3.05-3,6.26-4.68,9.33,6.08-26.49,24.62-52.84,48-66.85Z"/><path class="cls-6" d="M669.43,445.85c-6.9,7.32-14.69,13-20.33,21.46,0-10.36,10.83-19.33,20.33-21.46Z"/><path class="cls-7" d="M327.55,636.2s-3,15.66-31.4,20.32c-1.66.27-3.41.51-5.25.7a126.52,126.52,0,0,1-18.7.44,42,42,0,0,1-4.48-.44c-31.35-4.86-37.79-45.05-38.73-70a173.48,173.48,0,0,1,.32-19.89h0c24.55-9,64.13-18.59,105.12-7.65a97,97,0,0,1,5.31,9.49A192.35,192.35,0,0,1,350,593.83c.43,1.29.87,2.6,1.3,4C359.18,622.64,327.55,636.2,327.55,636.2Z"/><path class="cls-6" d="M267.71,657.22c-5.84-3.22-9.58-9.59-10.38-16.12a14.53,14.53,0,0,1,.75-6.6c.9,2.09,1.51,4,2.31,5.86,2.2,5.58,5.19,11.2,7.32,16.86Z"/><path class="cls-6" d="M296.14,656.52c-9.91-7.34-19.64-21.71-18.86-34.44,1.34,3.14,2.74,6,4.24,8.9,4.41,8.4,10.26,17.08,14.62,25.54Z"/><path class="cls-6" d="M327.55,636.2c-8.61-3.57-19.1-13.41-19.77-23.16,6.34,8.13,14,14.56,19.77,23.16Z"/><path class="cls-8" d="M229,587.19c-18.91,2.39-24.78-8.61-24.78-8.61a175,175,0,0,1,25.1-11.28A173.48,173.48,0,0,0,229,587.19Z"/><path class="cls-8" d="M346.19,563.33s-2.7,5.95-6.44,5.8a97,97,0,0,0-5.31-9.49C338.35,560.68,342.27,561.9,346.19,563.33Z"/><path class="cls-7" d="M750.08,587.19c-.94,25-7.38,65.17-38.73,70a42,42,0,0,1-4.48.44,132.86,132.86,0,0,1-14.65-.11c-3.37-.21-6.47-.57-9.3-1-28.42-4.66-31.4-20.32-31.4-20.32s-31.64-13.56-23.73-38.41c.43-1.36.87-2.67,1.3-4a194,194,0,0,1,10.22-24.7,102.4,102.4,0,0,1,5.31-9.49l2.2-.57.45-.11c1.57-.38,3.14-.74,4.7-1.07l2.44-.49c.81-.16,1.62-.3,2.44-.44s1.54-.27,2.31-.38l.39-.07c1.52-.23,3-.44,4.55-.62l1.86-.22.88-.1c3.09-.31,6.14-.54,9.17-.68,1.57-.06,3.14-.11,4.68-.13,2.43,0,4.85,0,7.23.06,1.51,0,3,.11,4.49.19.91,0,1.83.11,2.74.18,1.6.11,3.17.25,4.74.41.78.07,1.54.15,2.32.24s1.54.18,2.31.27l2.28.31c.77.1,1.51.21,2.27.33s1.49.22,2.24.35,1.48.23,2.21.37l1.66.29,1.56.3c1.1.2,2.18.42,3.25.65l2.12.45,1.66.38,1.12.26c.66.14,1.32.3,2,.47l1.94.49c3.94,1,7.67,2.08,11.21,3.19,1.07.34,2.12.68,3.16,1,2.31.76,4.5,1.54,6.59,2.31h0A173.48,173.48,0,0,1,750.08,587.19Z"/><path class="cls-6" d="M711.35,657.22c2.13-5.66,5.12-11.28,7.32-16.86.8-1.86,1.41-3.77,2.31-5.86a14.53,14.53,0,0,1,.75,6.6c-.8,6.53-4.54,12.9-10.38,16.12Z"/><path class="cls-6" d="M682.92,656.52c4.36-8.46,10.21-17.14,14.63-25.54,1.49-2.87,2.89-5.76,4.23-8.9.79,12.73-8.94,27.09-18.86,34.44Z"/><path class="cls-6" d="M651.51,636.2c5.77-8.6,13.43-15,19.77-23.16-.66,9.74-11.15,19.59-19.77,23.16Z"/><path class="cls-8" d="M750.07,587.19c18.91,2.39,24.79-8.61,24.79-8.61a175.63,175.63,0,0,0-25.1-11.28A175.12,175.12,0,0,1,750.07,587.19Z"/><path class="cls-8" d="M644.62,559.64a102.4,102.4,0,0,0-5.31,9.49c-3.73.15-6.43-5.8-6.43-5.8l1-.35c.73-.27,1.47-.52,2.2-.77,1.88-.63,3.75-1.22,5.63-1.76Z"/><path class="cls-1" d="M459.67,565.55a.16.16,0,0,0-.08.08c-16.09,6.06-26.95,21.62-34.17,41.49C378.79,602.3,350,593.83,350,593.83a192.35,192.35,0,0,0-10.23-24.7c3.74.15,6.44-5.8,6.44-5.8s1.13-6.77,2.26-18.07C348.45,545.26,426.34,567.67,459.67,565.55Z"/><path class="cls-1" d="M639.31,569.13a194,194,0,0,0-10.22,24.7A571.16,571.16,0,0,1,554,607c-7.26-19.86-18.15-35.38-34.27-41.39,33.48,2,110.9-20.3,110.9-20.3,1.12,11.3,2.25,18.07,2.25,18.07h0S635.58,569.28,639.31,569.13Z"/><path class="cls-3" d="M411.93,694.26c-.1,3.78-.17,7.5-.2,11.12-60-7.56-97.17-21.17-97.17-21.17,4.52-10.17,8.7-26.4,8.7-26.4-3.35,3.61-24.09,18.77-36.54,27.76-5.54,4-9.44,6.78-9.44,6.78.49-1.35,3.08-8,5.87-15.23l63-45.35c-.27.42-9.17,13.91-18.63,45.35C327.55,677.12,360.35,687.62,411.93,694.26Z"/><path class="cls-4" d="M425.42,607.12c-9.35,25.6-12.69,58.35-13.49,87.14-51.58-6.64-84.38-17.14-84.38-17.14,9.46-31.44,18.36-44.93,18.63-45.35l-63,45.35c3.69-9.51,7.75-19.9,7.75-19.9,1.84-.19,3.59-.43,5.25-.7,28.42-4.66,31.4-20.32,31.4-20.32s31.63-13.56,23.73-38.41c-.43-1.36-.87-2.67-1.3-4C350,593.83,378.79,602.3,425.42,607.12Z"/><path class="cls-3" d="M522.88,698.9c-.13,3.58-.31,7.12-.53,10.58a621.94,621.94,0,0,1-65.27-.05c-.22-3.59-.41-7.26-.55-11A619,619,0,0,0,522.88,698.9Z"/><path class="cls-4" d="M522.88,698.9a619,619,0,0,1-66.35-.45c-.14-3.3-.24-6.62-.33-10,0-1-.05-2-.07-3,0-1.7-.08-3.41-.1-5.12,0-1.17,0-2.35,0-3.52,0-1.34,0-2.68,0-4,0-.16,0-.33,0-.49,0-1.33,0-2.66,0-4-.11-25.78.75-47.62.83-49.67a41.25,41.25,0,0,0,65.93-.15C522.72,619.42,524.45,661.32,522.88,698.9Z"/><path class="cls-3" d="M694.85,687.36C677.63,677,657.3,657.22,657.3,657.22c.46,5.77,9.71,27,9.71,27a595.68,595.68,0,0,1-99.3,21.26c0-1.7,0-3.4-.06-5.14,0-.86,0-1.74-.06-2.61s0-1.77-.05-2.65a519.11,519.11,0,0,0,85.48-18s-6.39-33.58-13.71-40.92l59.89,44.7h0c2.6,6.38,4.91,10.94,5.06,11.19A59,59,0,0,1,694.85,687.36Z"/><path class="cls-4" d="M639.31,636.2c7.32,7.34,13.71,40.92,13.71,40.92a519.11,519.11,0,0,1-85.48,18c0-.9,0-1.82-.08-2.73s-.06-1.83-.09-2.76-.07-1.84-.12-2.78q-.22-5.56-.62-11.27c0-.95-.12-1.9-.2-2.85-.14-1.89-.28-3.8-.46-5.71-.24-2.8-.52-5.61-.84-8.41a1.24,1.24,0,0,0,0-.18c-.19-1.68-.4-3.36-.61-5-.53-4.18-1.14-8.35-1.85-12.46-.12-.66-.23-1.33-.36-2-.33-1.88-.68-3.76-1.07-5.61-.2-1-.4-2-.62-3-.45-2.11-.94-4.18-1.45-6.24-.24-1-.48-1.92-.74-2.87s-.52-2-.8-2.94-.52-1.82-.79-2.71c0-.1-.06-.19-.08-.28-.29-.93-.57-1.83-.86-2.73s-.5-1.54-.76-2.3c-.36-1.09-.74-2.18-1.14-3.25a571.16,571.16,0,0,0,75.11-13.12c-.43,1.29-.87,2.6-1.3,4-7.91,24.85,23.73,38.41,23.73,38.41s3,15.66,31.4,20.32c2.83.46,5.93.82,9.3,1a96.21,96.21,0,0,0,4.89,17.94c.69,1.9,1.4,3.72,2.09,5.41Z"/><line class="cls-5" x1="704.29" y1="692.11" x2="704.28" y2="692.1"/><path class="cls-5" d="M346.19,631.76h0"/><path class="cls-9" d="M580.83,856.22h0"/><path class="cls-10" d="M804.27,741.25c-35.21,17.22-64.78,12.88-79.61,8.59h0c11.33-46.19-10.89-74.05-10.89-74.05a138.57,138.57,0,0,0,61.09-18C814.43,635.07,855.1,716.4,804.27,741.25Z"/><path class="cls-7" d="M724.66,749.83A61.48,61.48,0,0,1,714.39,746l-19.54-58.68a59,59,0,0,0,9.43,4.74c-.15-.25-2.46-4.81-5.06-11.19h0c-.69-1.69-1.4-3.51-2.09-5.41a100.14,100.14,0,0,0,16.66.29S736,703.64,724.66,749.83Z"/><path class="cls-7" d="M364.08,890.62s-17.32,38.16-17.32,52.84L238.88,967.75S165.45,970,158.67,961,137.21,879.64,220.8,883c0,0,11.68-.52,20-15.51l70.41-39.85Z"/><path class="cls-6" d="M177.19,966.23c-3-15.67-3.67-32.1,1.18-47.6,3.73-11.8,14.76-20.42,26.25-24.19a35.77,35.77,0,0,1,11.83-1.81,50.33,50.33,0,0,0-21,9.61c-10.52,8.09-13.93,16-16.07,28.84-1.94,11.6-2.17,23.32-2.23,35.15Z"/><path class="cls-6" d="M221.11,968a116,116,0,0,1-4.05-38.46c.66-6.11,1.62-13.31,6.53-17.68a39.66,39.66,0,0,1,9.18-6.26,20.36,20.36,0,0,1,9.49-2.24c-3.88.84-7.28,3-10.42,5.31a49.16,49.16,0,0,0-6.72,6.34c-3.12,4.2-3.49,9.74-4.07,14.88-1,10.91-.16,27,.06,38.11Z"/><path class="cls-7" d="M618.6,890.62s17.32,38.16,17.32,52.84l107.89,24.29S817.23,970,824,961s21.46-81.33-62.13-77.94c0,0-11.68-.52-20-15.51l-70.41-39.85Z"/><path class="cls-6" d="M805.49,966.23c-.06-11.83-.29-23.55-2.23-35.15-2.14-12.89-5.55-20.75-16.07-28.84a50.33,50.33,0,0,0-21-9.61,35.77,35.77,0,0,1,11.83,1.81c11.49,3.77,22.52,12.39,26.25,24.19,4.85,15.5,4.19,31.93,1.18,47.6Z"/><path class="cls-6" d="M761.57,968c.21-11.22,1-27.15.07-38.11-.59-5.14-1-10.68-4.08-14.88a49.16,49.16,0,0,0-6.72-6.34,27.72,27.72,0,0,0-10.42-5.31,20.36,20.36,0,0,1,9.49,2.24,39.66,39.66,0,0,1,9.18,6.26c4.91,4.37,5.87,11.57,6.53,17.68a116,116,0,0,1-4,38.46Z"/><path class="cls-3" d="M399.7,856l-11.15,36.64c-56.48-2.26-159.69-28-159.69-28,2.45-9.62,6.73-24,11.9-40.49C240.76,824.17,289.4,848.15,399.7,856Z"/><path class="cls-4" d="M432.67,747.62,399.7,856c-110.3-7.84-158.94-31.82-158.94-31.82,17.76-56.72,46-138.6,46-138.6,12.45-9,33.19-24.15,36.54-27.76,0,0-4.18,16.23-8.7,26.4,0,0,37.18,13.61,97.17,21.17a564.91,564.91,0,0,0,2.37,56.77C418.41,755.08,425.4,750.54,432.67,747.62Z"/><path class="cls-3" d="M754.56,866.65s-102.1,24.85-160.41,28.24l-13.32-38.67c1.28-.05,86.88-3.49,159.69-31.72Z"/><path class="cls-4" d="M740.52,824.5c-72.81,28.23-158.41,31.67-159.69,31.72h0l-35.19-109c7.67,2.9,15.17,7.54,19.72,15,0,0,2.58-24.69,2.36-56.68A595.68,595.68,0,0,0,667,684.21s-9.25-21.22-9.71-27c0,0,20.33,19.77,37.55,30.14L714.39,746Z"/><path class="cls-10" d="M589.81,53.91c-7.16-20.3-21.08-18.12-21.08-18.12C567.6,40.3,555.18,59.51,548.4,62.9S538.23,51,538.23,51s13-13,17.51-23.16,21.47-5.65,27.11,2.26C585.87,34.36,589.85,43.08,589.81,53.91Z"/><path class="cls-7" d="M607.71,175.86s5.65,5.65,9,4.52c0,0-3.38,3.39-10.16,3.39a35.8,35.8,0,0,1-11.3,21.46s0-9-1.13-11.29c0,0-5.65,4.52-6.78,9,0,0,5.65,11.3,12.43,12.43a14.32,14.32,0,0,1-6.78,2.26s4.33,7,5,10.4c-4.3,2.43-10.06,8.85-16.79,18.09,0,0-39,29.69-60.5,29.69,0,0,18.9,11,38,5.24-2.48,4.16-5,8.48-7.55,12.92,0,0-23.32,2.74-40.71,24.19.72-.35,25.07-12.63,33.15-10.85C525.19,340.26,506,377.65,490.79,408c-14.85-29.69-33.71-66.41-51.89-99.08,19.27-.3,30.42,9.33,30.42,9.33-11.29-21.46-38.63-23.87-38.63-23.87q-3.3-5.77-6.54-11.27c18.09,4.4,35-6.66,35-6.66-22.25-1.11-57.63-29.62-58.73-30.51l0,0c-6.8-9.45-12.65-16.08-17-18.72-.11-2.94,4.63-9.49,4.63-9.49a14.32,14.32,0,0,1-6.78-2.26C388,214.27,393.64,203,393.64,203c-1.13-4.51-6.78-9-6.78-9-1.13,2.26-1.13,11.29-1.13,11.29a35.8,35.8,0,0,1-11.3-21.46c-6.77,0-10.16-3.39-10.16-3.39,3.39,1.13,9-4.52,9-4.52-12.42-1.13-21.46-11.29-21.46-11.29,7.91,1.13,18.08-13.56,18.08-13.56-9,0-10.17-4.52-10.17-4.52,7.78,0,19.95-18.6,20.32-19.19l-6.77,3.38c0-9,11.3-18.08,11.3-18.08-4.52,0-5.65-2.26-5.65-2.26,13.56,1.13,24.85-24.85,24.85-24.85C383.47,61.77,392.51,38,398.16,30.14s22.59-12.43,27.11-2.26S442.78,51,442.78,51s44.62-14.12,95.45,0c0,0,3.39,15.25,10.17,11.86s19.2-22.6,20.33-27.11c0,0,13.92-2.18,21.08,18.12,0,9.45-3.11,20.52-12.6,31.58,0,0,11.29,26,24.85,24.85,0,0-1.13,2.26-5.65,2.26,0,0,11.3,9,11.3,18.08l-6.77-3.38c.37.59,12.54,19.19,20.32,19.19,0,0-1.13,4.52-10.16,4.52,0,0,10.16,14.69,18.07,13.56C629.17,164.57,620.13,174.73,607.71,175.86Z"/><path class="cls-11" d="M380.08,127.29h0"/><path class="cls-10" d="M521.29,149.88c0,12.43-9,12.43-9,12.43L510,155.53c-5.65,9-19.2,15.81-19.2,15.81s-13.56-6.77-19.21-15.81l-2.26,6.78s-9,0-9-12.43,30.5,0,30.5,0S521.29,137.45,521.29,149.88Z"/><line class="cls-11" x1="600.94" y1="127.3" x2="600.93" y2="127.29"/><path class="cls-6" d="M446.73,155.53c-3,9.44-6.87,21.92-2.7,31.38,3,6.42,10.76,8,17.12,8.88a38.3,38.3,0,0,0,29.64-10.23c-6.2,9.62-18.71,14.6-29.94,14-7.77-.69-17-3.18-20.25-11.09-4.3-10.69.62-23.68,6.13-32.95Z"/><path class="cls-6" d="M534.37,155.53c5.51,9.26,10.43,22.27,6.14,32.95-3.27,7.91-12.49,10.39-20.26,11.09-11.23.59-23.74-4.39-29.94-14A38.3,38.3,0,0,0,520,195.79c6.36-.88,14.16-2.46,17.12-8.88,4.17-9.43.29-22-2.7-31.38Z"/><path class="cls-6" d="M490.55,185.88a14,14,0,0,1,0-14.54,14,14,0,0,1,0,14.54Z"/><path class="cls-12" d="M530.91,194.93c-.38.71-12.59,23.23-17.59,28.23s-31.63,3.39-41.42,2.83-21.84-31.07-21.84-31.07c18.87,7.77,35.57-2.82,40.43-9.18C495.34,192.1,512,202.69,530.91,194.93Z"/><polygon class="cls-10" points="427.14 144.36 419.62 126.16 423.38 150.85 440.61 150.85 427.14 144.36"/><polygon class="cls-10" points="428.66 174.73 414.64 157.85 410.58 139.71 417.36 111.47 402.68 139.71 408.32 160.05 428.66 174.73"/><path class="cls-6" d="M459.72,140.28c-.05-5.06,4.09-9.34,8.67-10.87a10.19,10.19,0,0,1,4.89-.43,35,35,0,0,1-3.39,3.19c-3.34,2.77-6.6,5.53-10.17,8.11Z"/><path class="cls-10" d="M434.31,84.36S454.64,81,463.68,90s12.42-14.69-3.39-15.82S434.31,84.36,434.31,84.36Z"/><path class="cls-13" d="M424.7,103S427,91.7,449.56,91.7s23.72,22.6,19.2,28.24-10.67,9-23.41,9-24-11.61-20.65-25.57"/><ellipse class="cls-10" cx="452.38" cy="113.17" rx="10.17" ry="15.25"/><polygon class="cls-10" points="553.87 144.36 561.39 126.16 557.63 150.85 540.4 150.85 553.87 144.36"/><polygon class="cls-10" points="552.35 174.73 566.37 157.85 570.43 139.71 563.65 111.47 578.34 139.71 572.69 160.05 552.35 174.73"/><path class="cls-6" d="M521.29,140.28c-3.57-2.58-6.83-5.34-10.17-8.11a35,35,0,0,1-3.39-3.19,10.24,10.24,0,0,1,4.9.43c4.58,1.53,8.71,5.81,8.66,10.87Z"/><path class="cls-10" d="M546.71,84.36S526.37,81,517.33,90s-12.42-14.69,3.39-15.82S546.71,84.36,546.71,84.36Z"/><path class="cls-13" d="M556.31,103s-2.26-11.3-24.85-11.3-23.73,22.6-19.21,28.24,10.67,9,23.41,9,24-11.61,20.65-25.57"/><ellipse class="cls-10" cx="528.63" cy="113.17" rx="10.17" ry="15.25"/><path class="cls-10" d="M391.38,53.91c7.16-20.3,21.08-18.12,21.08-18.12C413.59,40.3,426,59.51,432.79,62.9S443,51,443,51s-13-13-17.51-23.16S404,22.23,398.34,30.14C395.32,34.36,391.34,43.08,391.38,53.91Z"/><path class="cls-10" d="M459.16,276.4s-16.92,11.06-35,6.66c-4.26-7.21-8.38-14-12.34-20.21s-7.82-12-11.38-17C401.53,246.78,436.91,275.29,459.16,276.4Z"/><path class="cls-14" d="M400.43,245.89l0,0"/><path class="cls-10" d="M469.32,318.2s-11.15-9.63-30.42-9.33c-2.75-5-5.5-9.82-8.21-14.54C430.69,294.33,458,296.74,469.32,318.2Z"/><path class="cls-10" d="M581.22,246.15c-3.53,4.85-7.32,10.47-11.31,16.7-3.59,5.62-7.36,11.73-11.21,18.23-19.08,5.8-38-5.24-38-5.24C542.19,275.84,581.22,246.15,581.22,246.15Z"/><path class="cls-10" d="M551.15,294c-2.5,4.34-5,8.8-7.56,13.34-8.08-1.78-32.43,10.5-33.15,10.85C527.83,296.74,551.15,294,551.15,294Z"/><path class="cls-11" d="M510.44,318.19h0"/><polygon class="cls-10" points="510.84 61.77 521.01 70.81 510.84 66.29 493.61 66.29 493.61 73.06 498.41 73.06 490.09 86.29 481.75 73.06 486.55 73.06 486.55 66.29 469.32 66.29 459.16 70.81 469.32 61.77 485.14 61.77 488.53 58.38 488.53 56.12 461.36 56.12 448.99 65.16 462.55 51.6 517.62 51.6 531.17 65.16 518.8 56.12 491.63 56.12 491.63 58.38 495.02 61.77 510.84 61.77"/><path class="cls-10" d="M441.08,241.38s28.42,5.16,49.23,37.6c0,0,24.2-34.21,50.18-37.6,0,0-24.28-6.78-50,21.47C490.51,262.85,471.58,241.38,441.08,241.38Z"/><path class="cls-10" d="M477.23,292.22s8.47-2.55,13.28,5.5a11.86,11.86,0,0,1,12.7-5.89s-12.7,11.17-12.7,23.29C490.51,315.12,491.92,304.64,477.23,292.22Z"/><path class="cls-10" d="M469.93,332.11s13.27-4,20.8,8.62a18.58,18.58,0,0,1,19.9-9.22S490.73,349,490.73,368C490.73,368,492.94,351.58,469.93,332.11Z"/></svg>