<?xml version="1.0" encoding="utf-8"?>
<!-- Generator: Adobe Illustrator 26.0.1, SVG Export Plug-In . SVG Version: 6.00 Build 0)  -->
<svg version="1.1" id="Layer_1" xmlns="http://www.w3.org/2000/svg" xmlns:xlink="http://www.w3.org/1999/xlink" x="0px" y="0px"
	 viewBox="0 0 1118.8 1080" style="enable-background:new 0 0 1118.8 1080;" xml:space="preserve">
<style type="text/css">
	.st0{fill:#9BCFF4;}
	.st1{fill:#9ECFF1;}
	.st2{fill:#9CCFF3;}
	.st3{fill:#032539;}
	.st4{fill:#FA8E97;}
	.st5{fill:#F98D98;}
	.st6{fill:#F88D97;}
	.st7{fill:#97CBF1;}
	.st8{fill:#06263A;}
	.st9{fill:#FAFCFB;}
	.st10{fill:#07263A;}
	.st11{fill:#042539;}
	.st12{fill:#F9FBFA;}
	.st13{fill:#F88D96;}
	.st14{fill:#086ED0;}
	.st15{fill:#F8FBFC;}
	.st16{fill:#9BCBEF;}
	.st17{fill:#9ACCEE;}
	.st18{fill:#C22F37;}
	.st19{fill:#0A71D1;}
	.st20{fill:#0D73D2;}
	.st21{fill:#9F2835;}
	.st22{fill:#98CAEF;}
	.st23{fill:#96C8EB;}
	.st24{fill:#092539;}
	.st25{fill:#E34A53;}
	.st26{fill:#E75C67;}
	.st27{fill:#DF4D58;}
	.st28{fill:#E77A85;}
	.st29{fill:#E98B9A;}
	.st30{fill:#FB8893;}
	.st31{fill:#E58B9E;}
	.st32{fill:#2C334F;}
	.st33{fill:#F0848F;}
	.st34{fill:#DF4C59;}
	.st35{fill:#27304A;}
	.st36{fill:#0D2538;}
	.st37{fill:#A9D1EC;}
	.st38{fill:#BCD9EB;}
	.st39{fill:#B4D1E5;}
	.st40{fill:#AED2EB;}
	.st41{fill:#E44B52;}
	.st42{fill:#E14B52;}
	.st43{fill:#3D334C;}
	.st44{fill:#E34E57;}
	.st45{fill:#DF4E58;}
	.st46{fill:#E55058;}
	.st47{fill:#B7D9EA;}
	.st48{fill:#F78A97;}
	.st49{fill:#B8D6EC;}
	.st50{fill:#9FCEEC;}
	.st51{fill:#532E40;}
	.st52{fill:#B8D7E8;}
	.st53{fill:#4D3142;}
	.st54{fill:#3D2036;}
	.st55{fill:#562935;}
	.st56{fill:#703047;}
	.st57{fill:#A6D3F0;}
	.st58{fill:#4A5561;}
	.st59{fill:#4D3342;}
	.st60{fill:#36333F;}
	.st61{fill:#BCD7EA;}
	.st62{fill:#02253C;}
	.st63{fill:#056BD2;}
	.st64{fill:#056BD1;}
	.st65{fill:#FAFAF9;}
	.st66{fill:#9D1E2A;}
	.st67{fill:#F6FAFB;}
	.st68{fill:#052A43;}
	.st69{fill:#FBFBFB;}
	.st70{fill:#F4F8FA;}
	.st71{fill:#B62E38;}
	.st72{fill:#B52D36;}
	.st73{fill:#0A71D3;}
	.st74{fill:#0B6FD3;}
	.st75{fill:#0B70CF;}
	.st76{fill:#0B70D1;}
	.st77{fill:#DE4A54;}
	.st78{fill:#E14952;}
	.st79{fill:#F9FCFC;}
	.st80{fill:#B52C36;}
	.st81{fill:#6DA3D1;}
	.st82{fill:#032941;}
	.st83{fill:#6DA5D2;}
	.st84{fill:#74A8D6;}
	.st85{fill:#6DA5D1;}
	.st86{fill:#F48390;}
	.st87{fill:#062B47;}
	.st88{fill:#E04D5A;}
	.st89{fill:#AACDE7;}
	.st90{fill:#EC8490;}
	.st91{fill:#F7F8F8;}
	.st92{fill:#F18596;}
	.st93{fill:#EBF7FA;}
	.st94{fill:#AEC4E1;}
	.st95{fill:#EEF8FA;}
	.st96{fill:#D8F3FC;}
	.st97{fill:#D7F0F8;}
	.st98{fill:#65A1D4;}
	.st99{fill:#D85A65;}
	.st100{fill:#DB5863;}
	.st101{fill:#66A0D0;}
	.st102{fill:#CF6776;}
	.st103{fill:#D55461;}
	.st104{fill:#FBF9FA;}
	.st105{fill:#FCFDFC;}
	.st106{fill:#FAFCFC;}
	.st107{fill:#F9FCFB;}
	.st108{fill:#FAFBFB;}
	.st109{fill:#F7FBFA;}
	.st110{fill:#F8FBFB;}
	.st111{fill:#A0CFF0;}
	.st112{fill:#69A1D1;}
	.st113{fill:#0963C0;}
	.st114{fill:#72A9D8;}
	.st115{fill:#327FC7;}
	.st116{fill:#4788C4;}
	.st117{fill:#C9313B;}
	.st118{fill:#598CC6;}
	.st119{fill:#085DB4;}
	.st120{fill:#5593CB;}
	.st121{fill:#0C62BB;}
	.st122{fill:#70A7D6;}
	.st123{fill:#72A7D7;}
	.st124{fill:#5385C2;}
	.st125{fill:#73ACDA;}
	.st126{fill:#77AEDB;}
	.st127{fill:#75ABD7;}
	.st128{fill:#B32C36;}
	.st129{fill:#B0C4E1;}
	.st130{fill:#F7F6F6;}
	.st131{fill:#393646;}
	.st132{fill:#2C2C40;}
	.st133{fill:#362F46;}
	.st134{fill:#202234;}
	.st135{fill:#3A2E41;}
	.st136{fill:#2B2332;}
	.st137{fill:#292536;}
	.st138{fill:#3E384C;}
	.st139{fill:#382C3C;}
	.st140{fill:#453440;}
	.st141{fill:#2E2536;}
	.st142{fill:#DF5F63;}
	.st143{fill:#E87179;}
	.st144{fill:#C0D7E4;}
	.st145{fill:#DE555B;}
	.st146{fill:#B9D4E8;}
	.st147{fill:#D74C55;}
	.st148{fill:#382F41;}
	.st149{fill:#2F2839;}
	.st150{fill:#BE474E;}
	.st151{fill:#F78B97;}
	.st152{fill:#C0DCE8;}
	.st153{fill:#DA616C;}
	.st154{fill:#392E42;}
	.st155{fill:#383146;}
	.st156{fill:#EEE9ED;}
	.st157{fill:#C7323A;}
	.st158{fill:#713C50;}
	.st159{fill:#F08594;}
	.st160{fill:#F2808B;}
	.st161{fill:#3A2D41;}
	.st162{fill:#3E2238;}
	.st163{fill:#C12E37;}
	.st164{fill:#FB8A96;}
	.st165{fill:#A1CFEE;}
	.st166{fill:#F0EEF0;}
	.st167{fill:#E2575B;}
	.st168{fill:#E97C7F;}
	.st169{fill:#BCD3E5;}
	.st170{fill:#DE5A64;}
	.st171{fill:#E37074;}
	.st172{fill:#BEDBEA;}
	.st173{fill:#E57279;}
	.st174{fill:#BEDAEA;}
	.st175{fill:#D56473;}
	.st176{fill:#BDDAE8;}
	.st177{fill:#D96E7C;}
	.st178{fill:#D67078;}
	.st179{fill:#C6DFEA;}
</style>
<path class="st0" d="M109.8,914c-6.8-7.3-5.5-16.4-5.4-25.2c0.6-57.6,0.6-115.2,3.9-172.8c1-17.2,8.9-37.8-11.4-52.2
	c-4.4-3.1-1.5-13.9,0.7-21.2c4.4-14.7,3.9-30.7,11.5-44.5c1.7-1.4,4.1-1.3,5.7,0.2c6.6,10.2,0.6,20.2-0.6,30.2
	c-1.2,10.3-4.4,20.5,2.7,29.9c2.7,5.1,0.8,11.8,7.1,17.7c9-18,7-37.4,11.1-55.3c2.8-12.3,0.8-27.8,18.6-31.3c3.5-0.1,6.9,1,9.7,3.1
	c3.8,5.1,4.1,10.7,2.4,16.5c-1.4,4.3-4.8,7.4-7.1,11.1c-8.6,13.8-8.8,24.8,9.5,30c3.8,3.6,5.5,8.3,7.1,13.2c5.9,18,5.9,18,19.4,3.2
	c13.9-4,20.8-12.8,19.6-27.8c-0.4-5.9,0.2-11.9,1.8-17.7c4.8-17.5,0.2-27.3-19.8-26.6c-6.3,0.2-13.6-0.4-16.3-8.6
	c19.3-13.9,40.2-8.2,60.8-5c21.3,24.6,26.7,55.2,21.1,84.6c-3.8,19.5-4.1,37.7-2.6,56.7c3,37.8,10.5,75.3,7.6,109.6
	c0.4,6.8,4.3,2.2,1.8,3.9c-0.9,0.6-1.4,0-1.3-1.8c1.1-29.4-1.5-58.8,3.1-88.3c2.8-18-1-35.9-5.2-54.3c-6.1-26.7,3.5-53.8,14.8-79
	c3.7-3.1,6.5-1.4,9,1.7c6.5,12.1-0.4,24-0.7,36c-0.3,9.3-3,18.7,1.2,27.8c4.4,8.8-2.5,19,4.4,29.6c9-8.4,7.5-18.9,9-28.3
	c3.2-19.5,1.9-40.1,15.5-56.8c5.8-2.8,11.5-2.7,17,0.7c4.6,4.8,5,10.4,3.5,16.5c-1.5,5-5.5,8.4-8.1,12.6
	c-12.1,19.4-11.5,21.1,10.3,29.3c8.4,6.6,5.4,19.2,12.5,26.3c8.6-1.8,8.1-10.9,13.9-14.1c7.1-4.1,18.8-3.2,19-15.2
	c0.3-16,5.3-33-3.5-47.4c-5.1-8.4-18.1-3.1-26.7-7.5c-2.2-1.1-3.8-3.2-4.3-5.6c0.6-2.5,2.4-4.6,4.8-5.6c19.5-4.2,39-5.3,58.3,1
	c16.8,28.6,28.9,57.3,15.4,91.8c-6.2,15.9,0.6,33.7,2.1,50.6c2.2,23.8,6.2,47.4,4.6,67.4c-0.8-42.4,7.9-88,11.8-134.1
	c0.8-9.3-1.2-19.8,9.1-25.8c13.7,0.3,27.7-2,40.9,3.7c5.8,3.5,7.9,14.2,17.3,10.8c8.2-3,7.9-11.7,9.2-18.8c4.8-25.3,8-51,13.3-76.2
	c5.8-27.5,7.3-28.7,36-31.8c2.3,0.1,4.6,0.9,6.5,2.2c13.2,19.2,12.7,42.2,16.9,63.8c2.9,15.3,4.3,30.9,6.9,46.3
	c1.6,10,4.9,19.8,18.8,13.9c14.5-16.1,31.5-17.9,50.3-8.6c10.1,17.4,7.9,37.3,11.6,56c3.4,17.5,1.1,35.6,5.1,53s-3.7,34.7,0.9,46.9
	c-1-40.5,4.8-85.7,9.3-131c0.6-5.2-0.2-10.4-2.4-15.2c-16.1-33-0.3-62.9,8.9-93.4c0.6-2,3.3-2.8,5.2-4c22.7-3.2,45.4-8,67.1,4.1
	c1.8,3.9,1.3,7.3-2.4,9.8c-36.9,2.5-35.9,2.5-36.7,40.1c-0.4,18.6,6,28.9,24.1,31.8c6.2,3,4.6,12.3,12.9,15.2
	c8.9-9.2,2.1-26.7,15.9-33.3c7.6-3,16.1-3.2,23.9-0.5c3.2,1.3,5.9,3.4,8,6.2c8.7,9.4,2,28.4,19.9,32.1c4.7,1,9.1,2.5,12.3,6.3
	c5.3,7.6,7.4,16.3,7.6,25.3c0.8,44.3,4.9,88.5,4.2,132.8c0,0.4-1.2,0.7-1.8,1.1l1.8-0.4c-3.7-44.7,6-88.9,7.8-133.6
	c0.4-6.6-0.4-13.2-2.1-19.6c-9.1-32.1-0.4-60.4,19.7-86c18.6-3.9,37.1-5,55.5,1c2.3,1.1,3.7,3.4,3.6,5.9c-1.4,2.6-3.8,4.5-6.6,5.4
	c-10.9,4.2-27.7-2.6-28.8,19.1c-1.7,32.7-0.8,36.5,24.2,49.1c5.9,7.1,10.1,16.1,20.5,18.2c2.1,1.1,3.7,2.9,4.5,5
	c-0.6,18.1-5.2,35.8-6.7,53.8c-6.1,41-10.4,82.3-15.1,123.5c-1.8,16.1-7.7,27-25.4,27.4c-12.5,0.8-24.3-6.3-37-2.8
	c-7.8,5.3-7.2,18.5-18.8,20.3c-15.3,4.2-31.1,6.3-46.6,9.7c-11.9-1.3-21.7-6.2-23.3-19.1c-4.6-35.4-11-70.7-8.6-106.7
	c5.2-8.2,14.9-3.6,21.3-7.5c-16.3,1.3-15.5-11.2-15.9-21.4c-1-33.8-1.7-67.7,4.2-91.1c-2.4,12.5-6,35.2-8,58
	C776,810.2,775.7,862,768,912.8c-2.9,19-8.3,34.4-29.6,38.2c-2.2,0.7-4.4,0.9-6.7,0.6c-7.7-4.1-15.5-18.7-22.8,0.5
	c-5.5,15.9-21,11.3-32,15.9c-13.2,2.1-26.6,2.6-40,3.3c-28.4-3.8-32.7-6.8-36-30.2c-11.8-83.5-25.2-166.8-35.5-249.9
	c-11.7,84.7-25.4,169.7-36.4,255.1c-3,23.1-20.1,24.6-34.7,31.6c-16.2-10.3-34.8-8.8-52.7-10.5c-3.3,0.1-6.5-0.7-9.5-2.1
	c-5.8-3.9-7.5-10.2-9.7-16.3c-10.3-12.8-22.3-2.7-33.5-2.5c-17.5,1.6-22.7-8.3-24.5-23.9c-5.1-43.3-11.1-86.5-16.6-129.8
	c-0.8-6-1.6-11.7-5.1-16.7c-0.3-20-2.9-39.9-7.6-59.4c4.3,25.5,6.4,51.4,6.2,77.2c-0.1,13.3-3.1,24.3-16.9,19.2
	c-6.6-0.3-2.5,3.4-3.6,0.6c-0.3-0.9,0.3-1.5,1.7-1c6.6,2.4,15-1.5,20.4,5.4c5.8,12.2,1.5,24.6,0.6,36.9c-1.5,22-5.7,43.8-6.2,65.9
	c-0.4,15.2-7.2,25.3-24,25.4c-15.4-2.3-30.8-4.6-46.3-6.3c-8.2-1.2-11-7.3-12.6-14.4c-0.9-10.6-8.5-9.8-15.6-8.7
	c-7.7,1.2-15.2,3.4-23.1,3.1c-16.6-0.8-22.1-11.3-24.5-26.1c-7.2-44.5-8.8-89.7-15.2-134.2c-1.2-25.5-10.1-50-10.4-66.2
	c1.6,20.4,10,49.7,7.6,79.8c-0.6,7.4,0.3,14.9-1.1,22.2c-2.3,12.5-3.9,13.1-21.8,9.4c9.7,7,22.9,2,28.6,12.9
	c8.4,29.7-1.7,58.9-3.1,88.3c-0.6,11.8-11.9,13.7-21.9,14.4C138.9,920.2,123.9,920.5,109.8,914z"/>
<path class="st1" d="M1059.2,522.4c13.5,32.4,5.4,49.2-29.1,57.4c-8.6,2.1-10.7,6.2-11,13.5c-4.2,4.3-10,6.6-16,6.5
	c-33.8-0.8-67.6,3.2-101.3-1c-11.9-2.8-14.8-12.7-18.1-22.8c-8.6-26.4-12.3-27.5-34.2-10.7c-10.2,4.3-20.6,3.2-31.1,2
	c-7.1-1.3-14.1-0.3-21.1,0.8c-26.3,1-52.6,2.5-78.8-0.8c-12.4-3.7-15.3-14.7-18.3-25.2c-4.6-16.1-10.8-31.5-17.4-46.6
	c-15.2,3.2-13.6,22.1-27.3,24.9c-27.8-0.3-55.5-0.5-83.3-0.5c-2.6,0.3-5.2,0.3-7.8,0c-28.9-0.5-57.9,1.7-86.7-0.8
	c-2.3-0.4-4.6-1.1-6.8-2.2c-8.4-4.7-9.6-16.5-23-21.2c-3.7,27.8-14.7,52.9-22.1,79.4c-2.5,9.1-4.5,18.8-14.9,22.9
	c-27.1,4.8-54.3,1.5-81.5,2c-3.8,0.4-7.6,0.5-11.4,0.1c-10.8-0.8-21.9,1-32.4-2.7c-13.2-12.4-28.6-19.5-47-19.1
	c-6.6-8.7-15.9-9.7-25.8-9.7c-17.7,0-35.4,0.2-53.1-0.1c-4.7,0.3-9.4,0.1-14.1,0c-9.4-0.8-19.1,0.6-28.3-2.4
	c-2.2-0.9-4.1-2.6-5.2-4.8c0.4-5.7-2.9-6.9-7.9-8.1c-36.4-8.4-41.2-15-39.2-53c10.8,0,8.1,10.6,12.5,15.7
	c14.6,21.1,33.8,14.7,52.9,9c4.7-0.7,8.3,2.3,12,4.3c4.2,2.3,11.3,2.9,11,8.7c-0.4,6.1-8,6-14.5,10.2c7.6-3.4,13.2-5.1,17.5-9.5
	c-6.1-9.3-18-8.6-22.8-17.5c-1-3.1-0.3-6.5,1.9-9c13.4-5.2,24,3.7,35.5,7.6c29.1,10.1,39.4,7.3,54.8-19c11.1-19,23.8-37.3,30.6-58.6
	c1.8-3,3.8-5.5,7.9-4.4c9.1,12.1,2.2,26.8,6.2,40.4c8-3.7,10.7-14.8,21-14c1,14.8-12.1,22.7-16.9,34.8c-1.6,4-4.7,7.5-6.6,11.5
	c-5.9,12.4-16.6,25.3-6.8,39c10.6,15,26.4,8.3,40.5,4.9c5.9-2,7.7-8.9,13.2-11.5c12.5-1.3,22.4,6.2,33.5,9.7
	c24.2,7.7,32.2,5.1,46.4-15.8c2.5-3.7,4.5-7.7,7.4-11c18-20.9,25.2-43.8,13.7-70.4l17.2,6.3c-0.4-36.7,3.6-71.5,18.2-104.4
	c4.5-0.9,6,2.1,7,5.6c0.8,20-5.9,39.2-5.7,59.2c0.2,17.7-2,36.4,17.6,46.3c20.6,10.4,40.8,10.6,59.6-4.8c12.9,1.3,27.8,6,28.3,18.7
	c0.4,12.5-16.4,12.1-26.5,14.7c-12,3.1-23.7,8.2-32.3,9c16.4-5.2,37.9-7.1,56.8-16.8c12.9-6.6,23.2-5.2,35.3,1.3
	c14.9,8,30.3,15.6,42.8,16c-30.2-10-64.9-21.5-95.2-43.2c-2.5-1.8-2.8-5.1-3.2-8.1c-0.1-3.5,1-6.9,3.2-9.6
	c12.7-5.9,22.8,2.7,33.4,6.7c15.8,6.1,30.7,14.6,47.1,19.4c35.5,10.4,60.3-7.4,61.3-44.2c0.2-5.9-0.2-11.9,0.3-17.8
	c1.6-5.5,0.9-12.8,9.8-12.4c2.2,10-0.2,22.5,13.6,26.6c-8.7,38.4,18.4,62.1,36.9,89c9.2,13.3,22.5,14.5,37.2,8.2
	c13.3-5.7,25.7-14.4,41.1-13.7c4.4,3.1,5.6,8.5,9,12.3c17.4,7.9,34.4,10.9,50-4c5.1-6.5,10.4-11.7,18.6-4.2c4.1,4.3,6.9,9.4,10,14.4
	c21.3,34.5,33.7,38.1,69.8,20.1c5.2-2.6,9.9-6.3,15.7-7.7c9.3,0.4,8.4,10.5,13.7,14.6c33.8,12.6,43.8,6.8,45.7-26.4
	C1053.5,523.7,1055.2,521.2,1059.2,522.4z"/>
<path class="st2" d="M965.8,713.9l-5-0.4c-7.1-13.1-1.8-24.7,4.3-36.3c6.6-4.9,13.9-5,21.5-3.4c10.9,3.3,10.9,13.4,13.5,21.8
	c1.9,6.8,5.5,11.8,13,13c3.9,0.8,7.5,2.1,10,5.4c2.4,58.7,7.1,117.3,5.3,176.1c-0.3,8.3,3.1,18.5-9.7,21.1
	c-11.5,9.4-25.4,9.8-39.1,10.8c-17.5-0.9-24.5-11.1-24.3-27.6c0.3-22.8-2-45.7,1.7-68.4c2.3-11.1,13.3-11.6,20.4-16.1
	c-18,7-17.4-7.6-16.2-16.8c3.1-24,2.8-48.3,6.3-72.3C968,718.2,970.2,715.2,965.8,713.9z"/>
<path class="st3" d="M522.2,148c16.9-33.7,32.6-38.6,65.6-17.9c62.1,39.2,55.3,19.4,44.3,94c-2.2,10.5-0.6,24.6-18.8,20.3
	c-1.1-1.9-2.7-4-2.4-6.1c2.5-23.6-6.2-35.6-31.4-33.3c-6.4,0.6-12.1-4.6-17.7-8.4c-22.8-15.4-27.1-14-39.4,10.7
	c-2.8,5.6-2.3,11.4-3.2,17.2c-1.5,6.5,0.1,16.2-9.7,16.2c-7.5-0.1-9.4-7.4-9.1-14.4c-1.3-7.9-2.5-15.8-4-23.7
	c-6.6-33.8-5.3-36.6,26.1-55.2L522.2,148z"/>
<path class="st4" d="M514.9,225c-6.9-18.6,10-29.6,15.9-43.6c2.6-6.2,18.2-7.3,26.3,3.4c9.2,12,22,18.7,36.8,16.8
	c20.4-2.7,23.9,7.3,21.7,24.1c-0.8,5.8,0,11.9,0,17.8c4.8,5.8,7.9,12.8,8.9,20.3c-13.7,4.4-19.1,17.3-27.7,27
	c-9.5,16.6-25.4,14.6-40.1,12.6c-9.2-1.2-16.8-1.4-23.4,5.5l-2.8-1.2c3.2-20-5.7-33.7-22.4-43.3C507.5,250.8,518.5,239.2,514.9,225z
	"/>
<path class="st5" d="M166.3,388.4c-23-4.5-27.1-29-42.7-41.5c-4.1-3.3-3.8-12.5,2.8-17.6c9.2-4.3,4.1-12.1,4.1-18.4
	c-0.3-20,4-25.1,23.9-26.5c8.9-0.6,17.8-0.4,26.6-0.2c31.8,0.6,42.2,13.6,38,48c6-3.3,11.1-12.3,18.4-3.1
	c8.8,15.4,6.4,26.7-11.6,32.4c-6.6,2.7-10.5,8.4-14.5,13.8l0.1-0.2C199.4,390.3,184.8,396,166.3,388.4z"/>
<path class="st6" d="M744.5,374.9c-7.3-5.6-14.3-11.7-21.8-16.9c-12-8.2-13.9-17.4-4.3-28.7c12.5-2.7,17.5-10.3,20-23.3
	c4.2-22,13.5-26.2,35-19c10.4,3.5,21.5,4.8,32.4,3.8c14.2-1,21,5.3,16.4,20.3c-2.4,1.6,1.2,0.1-1.3,1.7c-1.8,1.1-3.8,1.9-5.9,2.4
	c1.6,1.9,4-0.3,5.7,1.2c1.3,1.5,2.2,3.2,2.8,5c0.3,6.3,2,12.8-5.1,21.8c6.8-5.6,5.5-12.9,11.6-13.7c7.8,5.4,8.5,14,2.6,18.8
	c-15.5,12.4-21,35.8-43.8,40C769.7,398.4,756.6,388.4,744.5,374.9z"/>
<path class="st5" d="M410.6,361.7c7.6,13.2,10.5,26.4-7.7,32c-22.1,6.9-21.1,21-14.8,38c-1.7,3.5-4.5,3.6-7.7,2.7
	c-1.6-1.2-3-2.8-3.9-4.6c-2.9-8-8.4-6.1-14.3-4.1c-7.7,2.5-15.5,5-22.6-1.6c-24.4-4.2-29.8-29.6-46.5-42.6
	c-6.7-5.2-1.9-14.9,5.6-20.2c5.1,3.5,4.5,7.5,3.5,9c0.2-7.2,0.1-14.3-0.4-21.5c-1.3-19.1,10-28,27.1-19.6c8.6,4.2,14.5,4.2,22.3,0
	c19.6-10.5,31.5-4.9,37.6,17.1c1.8,6.3,0.5,13.1,3.2,19.7C397.6,361.6,402.6,354.6,410.6,361.7z"/>
<path class="st7" d="M756.9,1003.4c5.4,1.3,11.9-2,20.4,8.3c-127.3,14.5-251.1,13.5-375.1,4.8c-1.2-2.7-0.6-4.8,1.8-6.3
	c18.2-4.5,36.9-8,55.5-7.5c15.8,0.4,28.1-4,38.5-15.5c43.7-6.6,87.4-4.5,131.2-1.4c3.8,1.2,7.2,3.2,10.1,5.9
	c4.4,4.8,8.4,10.7,15.9,10.1c28.9-2.4,57.5,11,86.5,1.2C746.6,1001.4,751.9,1001.9,756.9,1003.4z"/>
<path class="st8" d="M410.6,361.7c-13.3-3.1-14.2,9.8-21.1,17.4c-8.6-15.3,1.3-34.9-14.5-47.9c-7.2-5.9-9-8.5-16.6-1.5
	c-13.7,12.6-13.6,10.6-30.5,2.2c-6.5-3.2-20.6-4.6-21.7,10.5c-0.8,10.9-0.2,21.8-0.2,34.6c-8.3-5.1-5.2-11.3-7.2-15.7
	c-1.8-13.6-0.7-27.8-9.8-39.8c-2-2.6-2.5-7.1-2-10.5c2.1-12.5,38.8-34,51.7-31.6c21.7,3.9,40,16.4,60.4,23.6
	c15.3,5.4,16.6,19.1,15.7,32.7C414.3,344.4,412.1,353,410.6,361.7z"/>
<path class="st9" d="M819,508.1c-16,7.4-31.6,16.2-48.3,21.8c-21.5,7.2-32.3-9.7-42.8-23.8c-7.9-10.6-13.2-23.4-21.7-33.5
	c-13.8-16.3-13.3-31.9-1.9-48.5c10.2,0.3,14-10,21.9-13.4c26.6,8.4,48.1,37.2,46.4,62.2c-1.4,1.7-3.3,3.1-5.5,3.8
	c-4.2,1.3-8.8,1-12.8-0.9c-5.2-3.7-6.8-10.8-13.5-13.4c3.8,4.1,8.7,7.4,9.9,13.3c0.2,6-0.1,12.1,5.9,15.9c11.3,6,17-4.4,24.9-8.5
	c8.3-3.8,16.8-6.9,26.2-4.2C817.5,486.2,828,493.3,819,508.1z"/>
<path class="st10" d="M237.4,329.2c-11.1-3.2-15.1,5.2-21.5,15.6c-3.7-20.1,3.6-44.5-13.6-52.5c-15.2-7.1-37.3-6.4-54.1-1.6
	c-29.4,8.4-1.5,37.1-15.7,52.2c-1.7-3.6-3.9-8.6-6.2-13.6c1.3-7.5,1-14.5-2.9-21.4c-9-15.9-0.5-32.1,1.1-47.7
	c1.6-15,17.4-17.9,29.3-17.8c30,0.3,57.9,8.8,81.2,29.2c6.1,5.4,7.8,12.2,6.9,20C240.4,304.2,238.9,316.7,237.4,329.2z"/>
<path class="st11" d="M819.8,312.7c0.7-11.8,1.7-23.3-16.6-15.8c-11.8,4.8-23.3-0.6-33.7-5.3c-17.8-8.1-24.2,1.4-27,16.1
	c-2.1,11.2-2.1,22.9-3.1,35.4c-10.8-1.1-7.8-20.4-21.1-13.7c-1.3-8-3.2-16-3.9-24.1c-1.5-17.8-1.7-29.6,21.2-40.7
	c19.8-9.5,38.3-18,59.8-21.4c24.6-3.9,34.9,8.2,35.8,32.8c0.6,15.7,1.4,30.5-3.4,45.5c-2.5,2.5-5,2.4-7.4-0.2
	c-0.2-1.5-0.4-3-0.6-4.4c-1.6-1-2.1-1.9-1.6-2.8S819.2,312.7,819.8,312.7z"/>
<path class="st12" d="M415.7,455.4c18.6,18.5,16,37.7,1.8,57.3c-4.7,6.6-9.1,13.4-13.6,20.2c-23.5,35.8-28.2,37.2-68.1,20.7
	c-7.5-3.1-14.9-6.2-22.4-9.4c-9.1-15.8-3.4-25.5,12.6-31.1c13.8,2.7,21.2-4,27.5-16c11.2-21.3,22.6-43.3,47.8-51.9
	C404.5,451,410.6,452.5,415.7,455.4z"/>
<path class="st13" d="M891.3,389.3v-24.1c8.2-10.3,14.2-6.5,19.2,3.1c1.5,3.3-3.9,6.2-1.2,8.4c1,0.8,3.2-4,3.5-6.9
	c-0.8-11.7,1.6-21.4,15.4-23.4c8.8,1.2,11.4,8,13.7,15.4c4.2-9-5.9-15.8-3.2-24.4c6.8-9.1,10.4-26,22.7-24.1
	c15.9,2.4,26.7,17.5,36.8,30c5,6.2,0.1,15.9,2,23.9c5.7,11.3-6,19.6-5.1,30c-1.9,17.2-12.5,25.3-28.6,27.8
	c-17.2,1.7-33.1-0.9-45.5-14.6C915.3,397.3,898.1,400.7,891.3,389.3z"/>
<path class="st11" d="M997.4,365.9c2.7-27.9-23.2-35.6-36.5-53.5c-8.8,8.7-7.8,23.3-20.2,27.5c-4.1,2.4-2.6,11.7-10.9,9
	c-15.8,3.1-10.4,16.6-12.7,26.3c-4.5,1.7-6.7-0.9-8.5-4.4c-2.6-11.8-9.8-9.5-17.4-5.7c-0.5-13.3-3.2-26.9,1-39.8
	c11.2-34.1,35.2-39.9,78.6-33.3c27.3,4.2,37.9,27.7,31.2,59.4c-0.9,4.3-0.3,8.9-0.4,13.3C1000.8,367.1,999.4,367.4,997.4,365.9z"/>
<path class="st14" d="M599,308.3l21.5,12.8c1.2,2,2,4.2,2.1,6.5c-5.8,25.3-17.8,48.4-25,73.2c-3.2,11.1-11.6,14.6-22.6,11.6
	c-8.6-2.3-17.2-4.2-26.1-2.7c-3.4,0.3-6.8-0.4-9.8-2c-14.8-25-22.9-52.8-32.5-80c-0.2-2.3,0.5-4.5,2-6.2l21.9-13.7
	c0.5,0.9,1.6,1.2,2.5,0.7c0,0,0.1,0,0.1-0.1c5.3,3.5,7.8,9,10.8,14.2c7.5,15.2,10.2,32.5,20.5,49.2c11.9-16.6,16.2-35.1,24.2-51.7
	C591.1,315.1,593,309.8,599,308.3z"/>
<path class="st15" d="M305.5,557.1c-8.6,8.6-20.4,7.9-30.5,7.4c-20.5-1-29.5-17.9-20.7-38.4c9.4-22.3,21.9-43.1,37-62
	c9.5-8.8,18.2-18.6,31.4-22.1c5.4,23.1,3.7,46.3,2.1,69.6c-4.6,4.2-10.1,7-15.5,10c-5.9,1.5-11.7,1.3-17.2-1.6
	c-8.5-7.3-0.1-16.8-3.1-23.4c1.3,6.5-2.3,14.1-2.1,22.1c0.3,9.7-2.7,17.1-12.4,18.3c6,1.5,11.6-4.9,18.6-5.4
	c4.9-0.5,9.5,0.2,13.2,3.8C309.8,542.8,309.7,550,305.5,557.1z"/>
<path class="st16" d="M909.8,963.4l45.4,6.5c-23.2,12.8-47.7,8.1-70.2,9.9c-45.6,3.8-91.6,1.5-137.5,1.3c-4.1,0-8.3-2.7-12.4-4.2
	c-1.6-2-2.8-4.3-3.5-6.7c-0.8-5.4,0.2-10.2,4.5-13.9c25.1-12.9,51.7-7.7,77.9-6.4c2.3,0.6,4.4,1.6,6.3,2.9
	c15.1,16.6,36.7,6.4,54.2,13c4.2-0.4,8.3-1.9,12.5-2.5C894.6,962.2,902.3,962.1,909.8,963.4z"/>
<path class="st17" d="M394,976.7c-2.4,1.5-4.8,4.3-7.2,4.3c-52.7-0.7-105.6,4.4-158.2-3.1c-16.3-2.3-33.4,2.8-52.1-5.6
	c16.6-9,34.1,1,47.2-9.5c11-1,21.6,3.6,32.6,2.4c17.2-3.7,37,3.6,51.6-12c1.9-1.4,4-2.4,6.3-3.1c26.2-1.6,52.6-6.4,77.8,5.8
	c4.5,3.5,5.7,8.3,5.2,13.8C396.8,972.3,395.6,974.7,394,976.7z"/>
<path class="st18" d="M770.7,473.2c-2.2-29.9-26.2-44.2-44.5-62.5c4.7-6.2,10.9-11.1,18-14.2c20.6,9.9,31,29.2,43,47.5
	c2.4-13.4-2.1-26.3-0.6-39.3c2.6-4.5,5.9-6.4,10.7-2.9l13.7,8.6c1.6,2.1,3,4.4,4.2,6.8c2.9,19.9,4.8,39.8-1.8,59.4
	c-1.6,2.2-4.1,3.6-6.8,3.8l-26.8,6.3C773.4,484.3,768.4,481.2,770.7,473.2z"/>
<path class="st19" d="M144.7,410.7l16.9-9.8c11,15.4,6.5,31.5,3.9,46.5c15.7-15.2,21.6-42.4,47.1-51.1l12.3,9.7
	c2.1,2.9,2.7,6.6,1.6,10c-16.1,19.3-31.3,39.1-44.2,60.8c-8.2,13.8-19.9,19.7-35.2,9.6c-4.6-7.4-4.1-16.3-7.1-24.2
	c-2.1-15.1-3.1-30.1,0.4-45.1C141.6,414.8,143,412.7,144.7,410.7z"/>
<path class="st20" d="M322.3,513.2c-2.4-23.7-5.8-47.5,0.4-71.1l12.4-5.6c10.7,10.9,3.5,25.1,7.2,38.6
	c15.3-11.6,19.3-33.8,38.5-40.8l7.4-2.5l13.4,13.5c-21.4,16.7-36.2,38.6-48.2,62.4c-5.3,10.5-11.1,14.5-22,9.5
	C328.7,514.8,324.5,516.4,322.3,513.2z"/>
<path class="st21" d="M895.2,593.4l124-0.2c-0.2,7.2-0.3,14.4-0.5,21.6c-0.6,1.7-1.8,3.1-3.4,4c-3.2,1.6-6.6,2.8-10.1,3.6
	c-5.3,0.7-10.2,3.3-15.4,4.3c-5.6,0.3-11.3,1.7-17,0.4c-8.1-1.4-15.7-3.9-20.6-11.3h-57.5C888.7,608.3,888.9,600.8,895.2,593.4z"/>
<path class="st22" d="M223.3,959.1c-60.7,0.4-121.5,2-183.2-9.2c7.3-9.2,15.5-8.6,23.5-8.3c30.3,4,61.2,1.1,90.3-8.3
	c20.3-3.1,40.7-5.2,61.2-1.7c2.4,2.2,3.8,5.3,3.7,8.5c-5.3,8.3,4.6,9.7,6.8,14.6C226,956.5,225,958.4,223.3,959.1z"/>
<path class="st23" d="M1069.1,941.2c6.4,0.5,13.1,0.6,19.3,8.2c-60.7,10.9-119.9,10.5-179.2,9.6l-2.2-1.9c-1.1-2.6-0.7-5.7,1.1-7.9
	c3.2-2.8,8.1-3.2,10.7-7c1.2-3.6,2.4-7.1,5.9-9.1c19.2-7.9,38-3.8,56.8,1.4c14.1,9.4,30.7,3.2,45.6,7.2
	C1041.2,946.4,1055.2,944.2,1069.1,941.2z"/>
<path class="st24" d="M891.3,389.3c9.5,8.5,29.6-2.9,32.5,17.7c1.6,6.2,4,12.4,2.7,19c-0.3,2.1-0.9,4.2-1.7,6.1
	c-3.4,6.6-8.7,11.4-14.4,15.9c-4.9,3.2-9.8,6.5-14.7,9.7c-4.4,1.9-8.7,5.1-13.7,1.4C887.3,436.2,892,413.1,891.3,389.3z"/>
<path class="st25" d="M599,308.3l-6.5,12.8c-21,14.7-33.2,14.7-54,0l-5.5-12.9c3-7.7,1.3-18.7,17.2-11.3c14.9,6.9,31.9,3.1,46.5-6.2
	C597.6,296.6,598.4,302.5,599,308.3z"/>
<path class="st26" d="M109.8,914c13.3-6.3,26.1,1.7,39.2,1.4c5.3,5.8,5.5,12.3,2,19c-20.6,12.1-61.9,13.1-74.8,1.8
	C81.6,920,104.9,931,109.8,914z"/>
<path class="st27" d="M223.3,959.1c0.3-1.3,0.6-2.6,0.7-3.9c1.5-4.8,5-6.8,9.8-6.8c5.1,0.6,9.6,3.2,14.5,4.1
	c13.1,2.5,22.6,0.5,20.3-16.3c13.4-0.4,26.9-1.3,39.3,5.3c4.7,3.9,4.7,8.3,1.6,13.2c-0.5,0.7-1,1.4-1.4,2.1
	c-2.4,7.5-7.6,9.9-15.1,9.1c-12.4-1.4-24.6,1.6-36.9,2.4c-11.8,4-22.5,1.7-32.4-5.5C224.1,961.6,224,960.2,223.3,959.1z"/>
<path class="st28" d="M433.7,963.4l8.4-0.2c2.8,2.3,6,4.2,9.4,5.4c5.9,2,10.5,5.9,10.3,12.6c-0.2,8-6.9,10.6-13,13
	c-15.2,6.1-31.5,4.9-47.2,7.2c-4.5-0.7-8.3,0.5-12.4,2.7c-4.8,2.5-10.2,3.6-9.7-5.2c1.1-6.3,0.3-13.6,10.6-13.1
	c8.1,0.4,15.9-1.6,21.7-8.1c1.9-4.4,6.5-6,9.7-9C424.9,965.5,428.9,963.5,433.7,963.4z"/>
<path class="st29" d="M212.5,396.4c-8.1,9.6-16.5,18.9-24,28.9s-14.2,20.5-22.8,33.1c-7.1-20.4,0-39.4-4-57.5c1.4-1.5,2.8-3,4.2-4.5
	c15.9,9,29.9-4.4,45-3.8C211.8,393.7,212.3,395,212.5,396.4z"/>
<path class="st30" d="M788.4,406.5c8.3,16,3.7,32.8,2.1,50.3c-13-22.4-31-40.3-46.4-60.3c-0.6-1.2-0.4-2.6,0.5-3.6
	C760.8,392,775,398,788.4,406.5z"/>
<path class="st31" d="M380.7,434.3c-13.1,18.3-26.2,36.6-40.4,56.5c-9-18.6,0-37.2-5.3-54.3l4.2-4.3c13.5,7.5,27.1-6.1,40.6,0.2
	L380.7,434.3z"/>
<path class="st32" d="M379.4,998.9c7,8,8.9,0.2,12.3-3.8c5.7-6.7,6-1.3,6.7,3.1c32.3,4,63.3-6.9,95-9l3.1,1.9
	c-0.2,14.8-11,15.6-21.6,16.4c-24.3,1.8-48.6,3.5-72.9,5.2c-20.6,3.2-23.1,2-26.7-12.9C376.7,999.4,378,999.1,379.4,998.9z"/>
<path class="st33" d="M717.4,978.2c9.9,7.8,24.8,5.5,33.1,16.4c-5.3,15.8-17.5,8.7-27.7,8.5c-12.1-5.7-26-3.6-38.3-8.7
	c-6.4-2.7-16.3-3-15.7-12.4c0.5-8.1,8.8-11,15.9-13.4c4.2-1.4,8.5-2.3,12.9-2.7c3.2-0.2,6.3,0.6,9,2.3
	C710.4,971.3,715.7,972.8,717.4,978.2z"/>
<path class="st34" d="M982.1,918.3c11.5-6.1,24.2-5.7,36.7-7c0.7,2.5,1.4,5,2,7.5c-2.4,5.1-0.9,7.4,4.8,9
	c11.4,3.2,23.1,1.5,34.4,3.6l4.5,3.2c-6.4,18.2-21.4,8.6-32.9,10.2c-16.5-5-36.5,5.3-50.3-11.4C979,928.2,978.9,923.2,982.1,918.3z"
	/>
<path class="st35" d="M726.5,1000.3c6.1-9.9,17.8,3.9,24-5.7c3.5,1.7,5.9,5,6.4,8.8c-9.5,9-21.8,8.2-33.1,8.1
	c-24.1-0.3-48.3-2.5-72.4-4c-9.1-0.6-15.5-4.3-15.8-14.6C666.5,988.6,696.1,999.4,726.5,1000.3z"/>
<path class="st36" d="M967,420.5c13.7-2.2,21.4-11.3,26.7-23.3c1-2,2.1-2,3.2-0.1l0.2,53.5c-5.2,4.6-10.3,2-15.4-0.1
	c-6.7-4-13.8-7.4-18.1-14.5C961.6,430.2,961.6,424.7,967,420.5z"/>
<path class="st37" d="M1015,615.8c1-0.9,2.4-1.3,3.7-0.9c12,20.5,13.5,44,17.4,66.5c1.9,11-18.9,17.3-13,32.7l-12.7-0.3
	c0.3-12.3,4.4-24.1,5.1-36.4c3.6-14.7-3-28.6-3.1-43C1012.4,627.9,1010.1,621.5,1015,615.8z"/>
<path class="st38" d="M984.5,447.1l12.5,3.6c30.2,15.6,47.3,42.7,62.2,71.8l-4.1,4.2c-15.2-2.1-16.7-16.9-23.2-26.5
	c-9.2-13.5-18.7-25.8-33.5-33.1c-6.6,7.5-3.2,15.8-6.4,22.4s-6.8,10.5-11.9,1.4C977.5,475.8,973.7,460.7,984.5,447.1z"/>
<path class="st39" d="M882.2,459.2l12.6-5.4c-8.5,19.8,4.6,39.7-0.2,59.5c-6.6-5.7-8.4,1.7-11.8,4.5c-9.4-30.9-25.6-58.5-41.8-86.2
	c0.3-1,0.6-2.1,1-3.1c17,2.1,19.5,18.3,27.3,29C873.6,463.6,876.4,469.9,882.2,459.2z"/>
<path class="st40" d="M620.5,326.3l0.1-5.2c16.7,5.8,32.6,13.9,47.1,24.1c17.7,12.6,24.9,30.5,23.1,52.2c-5.1,3.2-3.9,8.5-4.3,13.3
	c-11.3-0.5-9.8-9.9-9.6-16.2c0.7-23.9-11.5-38-31.8-47.7C635.4,342.1,624.9,337.7,620.5,326.3z"/>
<path class="st41" d="M210.8,392.6c-7.7,6.9-17.1,10.8-27,12.9c-7.9,1.7-16.3,2.3-18.1-9.2c0.2-2.7,0.3-5.3,0.5-8
	c16-1.1,30.8-6.2,45.1-13.3C211.2,381,211,386.8,210.8,392.6z"/>
<path class="st42" d="M788.4,406.5c-16.2,0.7-29.9-6.7-43.8-13.7c0-5.9,0-11.9-0.1-17.8c14.6,5.1,27.6,15.2,44.3,13.4
	c-0.5,6.5,5.5,9,8.5,13.3C793.7,402.1,790.2,402.9,788.4,406.5z"/>
<path class="st43" d="M76.3,936.3c25.1,11,49.1,3.9,73.1-4.2c3.5-0.7,5,0.9,4.7,4.4c-17.8,14.5-75.5,17.8-90.4,5
	C66,935.4,71.5,936.6,76.3,936.3z"/>
<path class="st44" d="M514.9,225c2.7,14,5.1,27.9-6.7,39.3c-23.6-10.5-25.8-21.2-7.7-37.9l11.3,14.7
	C513.1,234.3,514,229.6,514.9,225z"/>
<path class="st45" d="M379.8,432.3c-8.2,2.8-16.4,5.8-24.7,8.3c-7.9,2.4-14.7,2-15.8-8.5c0.1-2.7,0.3-5.4,0.4-8.1
	c6.5-1,13.2-1.3,19.5-3s12.2-4.8,18.6-7.4C382.8,419.3,379.4,426.1,379.8,432.3z"/>
<path class="st46" d="M624.5,263.8c-13.3-2.2-8.1-12.6-8.9-20.3c10.1-2.5,8.7-14.8,16.4-19.4C647.5,244.7,645.8,253.8,624.5,263.8z"
	/>
<path class="st47" d="M73,517.9c-6.6-4.1-1.2-13.6-7.9-17.6c8.5-21.8,21.8-40.9,33.8-60.8c3.5-5.8,6.8-11.4,14.7-11
	c0.4,1,0.8,2,1.1,3.1c-1.4,9.8-7,17.9-12.4,25.6C89.2,475.9,81.1,496.9,73,517.9z"/>
<path class="st48" d="M1060,931.4c-13.1,4.6-26.2,4.4-39.6,1.2c-4.2-1-10.5-1.1-10.6-5.4c-0.1-5.4,6.6-6.3,11-8.4L1060,931.4z"/>
<path class="st49" d="M508.6,321.4c0,1.5,0.1,3,0.1,4.5c-12.8,19.4-33.8,26.4-53.3,35.7l-4.4-4.4
	C465.1,336.9,487.6,330.4,508.6,321.4z"/>
<path class="st50" d="M375.4,999.7c2.6,17.5,18,8.2,26.7,12.9c0,1.3,0.1,2.7,0.1,4c-19,1.1-36.9-4-55.2-8.5
	C356.3,1003.2,365.2,999,375.4,999.7z"/>
<path class="st51" d="M1032.6,942.1c10.9-1.6,23,2.2,32-7.5c1.5,2.2,3.1,4.4,4.6,6.6c-12.2,14.2-27.1,8.8-41.6,5.5
	C1027.9,943.7,1030.7,943.5,1032.6,942.1z"/>
<path class="st52" d="M223.9,414.7c0.3-2.9,0.6-5.8,0.9-8.7c14.3,9,30.8,15.3,39.3,31.6L260,442C244.4,437.6,234.2,426,223.9,414.7z
	"/>
<path class="st53" d="M717.4,978.2c-4.3-1.6-9.8-0.2-12.9-5c9-16.6,19-17.2,30.6-1.7c0,1.8,0,3.7,0,5.5L717.4,978.2z"/>
<path class="st54" d="M424.4,972.7c-2.7,5.7-8.5,3.4-12.7,5.1l-17.7-1c0.3-1.8,0.5-3.7,0.8-5.5C405.2,959.2,415.3,956.5,424.4,972.7
	z"/>
<path class="st55" d="M996.8,397.2l-1.6,0.1h-1.6l3.8-31.3l4.4-1.1C1011.2,377.3,998.2,386.3,996.8,397.2z"/>
<path class="st56" d="M909.8,963.4c-6.6,9.5-15.8,3-23.8,3.8c-1-1.9-1.1-4.1-0.4-6.2c6.8-10.3,14.2-12.7,22.6-1.6l1.1-0.4
	L909.8,963.4z"/>
<path class="st57" d="M113.4,598c-1.4,0-2.8,0-4.2,0c1.4-12.2-4.6-25,2.9-36.7l1.4,0.9c6,6.6,6.5,15,8.2,23.1
	C121.3,591.2,122.6,598,113.4,598z"/>
<path class="st58" d="M522.5,147.6c-1.4-0.1-2.8-0.2-4.2-0.3c-5.8-0.5-13,3.5-16.6-4.4c-0.4-0.8,1.7-3.9,3.1-4.3
	c8.8-2.7,15.4-0.7,17.4,9.5L522.5,147.6z"/>
<path class="st59" d="M820.3,321.4l7.4,0.2l2.2,8.1c-2.1,5.2-4.3,10.5-7.4,17.9C818.3,337,819.5,329.1,820.3,321.4z"/>
<path class="st60" d="M211.3,375.4c-1-10.8-3-22.6,14.5-13.8C224.6,369.9,218.9,373.7,211.3,375.4z"/>
<path class="st39" d="M811.5,415.5l-0.6-5.3c11.5,4,23.8,6.9,31,18.3l0.1-0.1C827.4,434.6,819,426.1,811.5,415.5z"/>
<path class="st61" d="M144.7,410.7c-0.2,1.6-0.4,3.1-0.6,4.7c-7.5,10.6-16,19-30.5,13.1l-0.1-0.1C121,417.4,132.7,413.8,144.7,410.7
	z"/>
<path class="st62" d="M659.6,517.3c-0.1,8.9-0.1,17.9-0.2,26.8c-15.3,12.6-34.5,2-50.8,8.8c-9.5,2.1-18.9,7.2-28.8,1.8l-6.1,0.3
	c-16.6-1.1-33.6,6.5-50-1.7c-7.6-3.4-15.7-2.5-23.6-2.7c-30.6-0.8-34.3-6.1-25.5-36.9l91.5,0.3c1.2,5.5-3.6,7.5-6.3,10.6
	c-3.7,4.2-5.8,8.8-2.2,13.9c3,4.1,7.4,4.5,11.8,2.5c6.5-3,7.7-8.2,5.3-14.7c-1.5-4-5-7.4-3.7-12.3
	C600.5,515.5,630.3,509.5,659.6,517.3z"/>
<path class="st63" d="M526.2,549c15.4,5.4,31.7,3.5,47.5,6c-21.4-1.6-26.9,12-29.4,29.7c-4.1,28.9-9.1,57.7-13.7,86.6
	c-1.5,9.4-4.1,16-16.2,16.2c-14.4,0.3-15.3-7.6-14.9-18c-2.2-2.6-3.4-6-3.4-9.4c0.5-5.7,2.1-11.2,2.2-16.9
	c5.2-30,9.6-60.3,19.4-89.3C519.7,550.8,521.9,548,526.2,549z"/>
<path class="st64" d="M579.8,554.8l26.2-6.3c4.7,2.2,7.2,6.4,9,11c8.1,31.4,14.2,63.2,19.4,95.2c0.1,2.5,0,5-0.3,7.4
	c-4.7,7.6-0.8,17.3-6,24.7c-25.7,7.1-28.3-10.4-30.3-28.6C593.9,623.3,588.5,588.7,579.8,554.8z"/>
<path class="st65" d="M766.2,669.7c-30.9-1-30.9-1-30.9-32.8c0-5.2,0-10.4,0-15.5c-0.1-36,5-39.6,41.2-28.8
	C782.7,619.5,782.5,645.7,766.2,669.7z"/>
<path class="st66" d="M850.3,562.1c0,7,0,14.1,0,21.1c-0.9,3.4-3.5,5-6.5,6.1c-2,0.7-4,1.3-6.1,1.8c-8.3,2.3-16.5,5.6-25.5,4.7
	c-10.9-2.3-23.4,2.6-32.6-7.3c-21.7-7.7-44.2-1-66.2-3.8c0-7.6,0-15.2-0.1-22.9h89.1c3.5,3.6,0.2,10.5,6.2,13c6-2.4,3-9.3,6.5-12.9
	L850.3,562.1z"/>
<path class="st67" d="M180.5,589.3c42.4-0.2,41.8-0.2,40.3,43.8c-0.7,19.7,3,40.7-27.7,36.5c-4.3,0.2-7.4-2.5-7.8-6.1
	c-2.4-23.8-10.3-47-7.4-71.3C178.8,591.2,179.7,590.2,180.5,589.3z"/>
<path class="st68" d="M243.2,579.8c-0.4,1.6-0.8,3.2-1.1,4.8c-20.3,4.1-41.7-5.5-61.5,4.7l-0.8-0.7c-4.8,6-11.3,6.2-18.1,5.5
	l-9.8-1.6c-7.9-2.5-15.9,4-23.8,0c-4.2-1.2-6.8-4.5-10-7.1c-9.8-6-5-15-4.5-23l31.2,0.2c3.2,3.6,0.4,12,6.6,12s3.4-8.5,6.7-12
	c22.1-0.2,44.3,0.5,66.3-0.9C238.7,560.6,244.4,565.8,243.2,579.8z"/>
<path class="st69" d="M943,696.7c-8.6-6.7-26.3,0.2-28.3-11.4c-3.5-19.2-1.5-39.4-0.8-59.2c0.2-6.7,7.2-6.1,12.2-6.2
	c8.8-0.3,17.5-0.3,26.3-0.5C965,647.2,956.8,672.3,943,696.7z"/>
<path class="st70" d="M354.8,620.3c38.8,0.9,38.8,0.9,38.7,40.8c-0.2,2.2-0.1,4.4,0,6.7c3.5,21.7-4,32.7-27.2,28.6
	c-0.7-0.1-1.9,0-2.1-0.4C352.3,671.9,345.8,647.1,354.8,620.3z"/>
<path class="st71" d="M779.5,588.4c12,2.6,24.9-2.9,36.4,4c-0.5,0.9-0.9,1.7-1.3,2.6c-8.5,4.3-12.6,11.3-12.4,20.9
	c-3.5,11.9-0.5,25.4-9.2,35.9c-4.2,5.7-3,12.5-4.2,18.8c-1.5,8.5,2.1,21.1-12.7,20.6c-16.3-0.5-7.1-14.1-9.9-21.6
	c6.5-25.3,6.8-51.4,10.2-77.1L779.5,588.4z"/>
<path class="st72" d="M815.9,592.5l21.1-8c12.8,20,10.6,43.6,15.7,65.4c-1.3,14.6,10.7,33.2-12.3,41.2c-6.9,0.1-12.2-0.8-12.6-10
	c-0.4-8.5-2.7-16.8-4.1-25.2c-7.3-20.2-16.4-40.1-8.5-62.3L815.9,592.5z"/>
<path class="st73" d="M127.4,588c8,2.2,16.9-0.4,24.4,4.4c-16.8,17.7-8.8,41.7-15.9,62c-0.9,2.7,0.4,6-0.4,8.8
	c-2.5,9,1.1,24-13.3,23.4c-17-0.7-6.4-15.9-8.9-24.3c-0.6-2.1-0.4-4.4-0.6-6.6C112.5,632,112.1,608.3,127.4,588z"/>
<path class="st74" d="M161.6,594c4.9-5.6,11.6-5.1,18.1-5.5l13.4,81c-0.4,7.5,2.6,16.7-10.4,17.1c-12.6,0.4-10.9-8.4-12-16.2
	c-0.9-6.4-2.7-12.7-4.2-19.1c-7.5-12.4-12.1-25.2-5.2-39.6L161.6,594z"/>
<path class="st75" d="M317.6,624.6c-4.2,26.7-8.6,53.4-12.4,80.2c-1.1,7.5-1.7,12.2-11.6,10.1c-8-1.7-11.6-4.4-10.2-12.9
	c1.3-7.9,1.8-16,2.7-23.9c-1.2-21.1-0.2-41.8,11.8-60.3C306.3,615.1,313.4,615.6,317.6,624.6z"/>
<path class="st76" d="M354.8,620.3c2.1,25.6,5.2,51.1,11.5,76c0.1,9.6,1,20.2-12.7,20.6c-13.6,0.3-7.6-11.2-9.6-17.8
	c-1.6-5.6-3.3-11.2-4.9-16.8c-6.6-12.7-12-25.5-4-39.6l-0.8-17.4c4.1-8.1,9.7-10.9,17.7-4.8L354.8,620.3z"/>
<path class="st77" d="M635.6,989.8c4.2-7,1.9-14.7,2.3-22c12.4-6.6,26.1-2.8,39-5c8.4-2.3,16.2-2.1,21.9,5.7
	c-7.7,6.8-20.7,2.8-27.7,15c14.4,6.2,28.6,12.2,44.5,9.6c7-1.2,9.4,1.4,10.8,7.2c-30.8,4.8-61,0.4-90.8-7.4
	C635.3,991.9,635.3,990.8,635.6,989.8z"/>
<path class="st78" d="M493.2,976.7c0.5,4.3,0.9,8.6,1.4,12.9c-31.1,13.2-63.1,17.5-96.2,8.5c13.8-7.8,30-1.4,44.3-7.4
	c5.9-2.5,14.4-2.2,15.3-9.7c0.8-7.1-7.9-7-12.4-10.3c-2-1.4-2.4-5-3.5-7.6c13,0.4,26,1,39,1C489.7,964.2,492.4,969.3,493.2,976.7z"
	/>
<path class="st79" d="M569.8,645.2c-22.6,4.9-24.3-2.4-21.8-16.7c2.2-13,5.1-25.9,8.8-38.6c1.2-4.2,1.7-9.2,7.5-9.4
	c5-0.2,8.8,2.7,9.8,7.3c3.6,15.7,7.9,31.4,9.7,47.4C585.7,651.9,571.2,644.5,569.8,645.2z"/>
<path class="st80" d="M943,696.7c3-25.8,12-50.8,9.4-77.2c0.7-1.1,0.7-2.5-0.1-3.6l22.6,7.7c4.6,6.5,1.6,13.7,1.8,20.7
	c-0.2,12.3-1.2,24.3-9.5,34.3l-6.4,34.9C947.3,716,941.2,710.6,943,696.7z"/>
<path class="st81" d="M789.4,820.7c-1.8-20.7-3.7-41.3-5.6-62c-1.1-28,5.1-54.6,15.6-80.6c4,35.1-4.2,69.6-2.3,104.5
	c1.6,30.9,0.3,30.9,31.5,21.9C815.5,815.6,804.1,822,789.4,820.7z"/>
<path class="st82" d="M415,594l0.1,21.7l-60.8,0.6c-9.7,2.5-14.1-5.5-20.3-10.1c-3-3.6-8.8-5.7-6.9-12.1L415,594z"/>
<path class="st83" d="M180.7,759c-1.8,19.1-3.7,38.2-5.5,57.3l-31.2-8.4c27.9,4.1,21.9-15.2,23-30.5c2.4-33.2-8.3-65.8-3.4-103.6
	C172.7,704.5,181.1,730.8,180.7,759z"/>
<path class="st84" d="M961.5,821.4c-8.6-17.1-1.7-35.6-5-53.2c0.4-18.6,2.5-36.8,9.3-54.3c1-3.9-0.8-10.7,4.7-10.6
	c6.1,0,4.8,6.8,3.6,10.4c-7.6,22.8-1,46.7-6.8,70c-5.8,23.4-2.1,25.5,26.9,22.1L961.5,821.4z"/>
<path class="st85" d="M345,776.8c-1.5,13.3,1.6,27.2-5.1,39.8c-9.5,0.1-19.1,0.9-32-9.7c32.9,9.9,26.6-10,27.5-25.3
	c1.6-25.7-8.7-50.9-2.3-81.6C344.5,727.4,352.2,750.8,345,776.8z"/>
<path class="st86" d="M216.6,936.8c4.5-3,7.3-7,7.2-12.6c11.7-8.8,23.6-9.5,35.8-0.9c1.2,5.6,0.4,12.6,9,12.9
	c-1.3,8.3,8.6,9.1,10.8,16.3c-15.7,7.5-30.9,11.5-46.1-0.7c0.4-2.4,3.3-2.8,4-4c2.8-4.9-2.5-1.8-2.8-1.8c-6-0.4-13,8.7-18.1-1.9
	L216.6,936.8z"/>
<path class="st87" d="M336,602.4l18.3,13.9l-2.2,4.2c-6.6-1.1-12.3,1.4-17.7,4.8l-16.8-0.7l-17.5-5.1c-4.3-1.7-9.9,1.2-13.4-3.7
	l-4.1-3.9c0.1-6.1,0.2-12.2,0.2-18.4l35.5,0.3C319.3,606.8,324.4,611.2,336,602.4z"/>
<path class="st88" d="M819.2,954.5c0.5-3.1,1.1-6.1,1.6-9.2c11.1-14.7,28.6-5.8,42.2-11.4c3.7,1.5,3.6,4.5,3,7.6
	c-0.8,3.8-9,8.1,1.2,11c7.3,2.1,16.3,1.9,19.3,11.5c0,1.1-0.2,2.2-0.5,3.2l-8.2,4.8c-11.9-8-25.4-5.9-38.5-6.2
	c-7.9-0.2-16.9,2-18.8-9.8L819.2,954.5z"/>
<path class="st89" d="M840.4,691.1c20.6-9.7,5.2-26,7.2-39.2c4.1-14.8-2.2-28.7-3.9-43c-0.9-8-2.8-15.8-1.5-23.9
	c2.7-0.6,5.4-1.2,8.1-1.9c4.3,17.8,9.9,35.4,12.4,53.5c1.7,12.5,13.1,27.7-6.3,38c-2.7,1.4-1,11.2-1.4,17L840.4,691.1z"/>
<path class="st90" d="M393.7,959.9c4.1-2.2,4-6.3,4.7-10.1c8.1-12.4,18.3-9.8,29-4.2c2.1,5.9,4.2,11.9,6.3,17.8l-9.3,9.3
	c-9.5-9-19.5-6.6-29.6-1.5C394.4,967.4,394.1,963.7,393.7,959.9z"/>
<path class="st91" d="M793,651.9c-0.1-13.5-0.5-27,4.7-39.8c6.7-6,11.8-1,13.8,4.1c4.3,11,12,21.7,7.9,34.8L793,651.9z"/>
<path class="st92" d="M698.8,968.6l-21.9-5.7c7.6-8,28.1,4.5,27.2-17.2c9.9-6.3,19-5.9,26.9,3.5l1.7,0.7c-2.1,4-1.6,7.2,2.6,9.4
	l-0.2,12.3c-10.7-8.2-21-10-30.6,1.7L698.8,968.6z"/>
<path class="st93" d="M335.1,642.7c0.2,13.3,7.1,26,4,39.6c-7.9-1.4-21.7,4.2-22.1-6.5C316.6,663.6,319.8,648.5,335.1,642.7z"/>
<path class="st94" d="M819.3,650.9c-5.9-13.7-2.7-32.5-21.6-38.8c-2.3-13.9,1.1-22.5,17.5-18.6c2.5,20.8,8.9,41.1,8.5,62.3
	C822.2,654.2,820.8,652.5,819.3,650.9z"/>
<path class="st95" d="M161.4,611.8c2.5,13.1,6.1,26,5.2,39.6c-7.3-1-19.6,4.6-20.4-5.3C145.1,633.7,145.2,618.2,161.4,611.8z"/>
<path class="st96" d="M127.4,588c-9.5,21.6-7.7,45.6-14.7,67.7c-9.3-4.4-6.8-11.7-5.4-19.3c2.5-12.7,4.1-25.6,6-38.3
	c5-3,4.3-8,4.6-12.7C121.7,584.3,125.1,584.2,127.4,588z"/>
<path class="st97" d="M286.7,615.8c4.9-0.4,10-1.5,13.4,3.7c-8.3,18.6-8.8,39.2-13.9,58.5c-14-11.2-2-24.5-2.1-36.6
	C283.9,633.3,286.7,624.5,286.7,615.8z"/>
<path class="st98" d="M628,686.7l1.3-26.6c14.4-8.2,28.6-9.1,42.7,0.6c0.1,2.7,0.2,5.5,0.3,8.2c-4.4,0.1-9,1-13.2,0.2
	C643.9,666.4,633.1,671.2,628,686.7z"/>
<path class="st99" d="M259.6,923.2l-35.8,0.9c-1.1-3-2.2-6.1-3.3-9.1c9.4-1.7,18.8-3.6,28.2-5C259.2,908.5,261.9,914,259.6,923.2z"
	/>
<path class="st100" d="M917.3,915.1l-1,8.2c-13.4,9.2-26.4,9.2-38.8-2c-2.3-3.6-2.8-7.2-0.1-10.8C891,909,904.1,912.5,917.3,915.1z"
	/>
<path class="st101" d="M500.1,660.6c-0.2,3-0.4,5.9-0.5,8.9c-13.3-2.4-27.8,4.5-40.2-4.9c0.1-1.4,0.4-2.8,0.9-4.1
	C473.6,651.4,486.8,651.7,500.1,660.6z"/>
<path class="st102" d="M427.4,945.6c-9.7,0.9-19.9-1.4-29,4.2c-1.4-2.9-2.8-5.8-4.2-8.7C405.7,939.1,418.5,927.4,427.4,945.6z"/>
<path class="st103" d="M731,949.1l-26.9-3.5c-0.3-14.6,10.5-8.1,17-8.5C728.8,936.6,733.4,940.4,731,949.1z"/>
<path class="st104" d="M877.3,910.5l0.5,8.6c3.9,7.3,6.2,14.7,1,22.4c-4.8,3.7-9.6,3.9-14.3-0.2c-0.5-2.5-1.1-4.9-1.6-7.4
	C878,932.5,868.6,915.8,877.3,910.5z"/>
<path class="st105" d="M620.5,326.3c9.6,5.5,18.8,11.7,28.8,16.2c22.5,10.1,35.1,25.9,33,51.7c-0.5,5.7-1,12,4.2,16.5
	c0,7.4,0.2,14.8,0,22.2c-0.6,33.7-29.9,56.8-61.8,46.3c-28.6-9.4-56.1-22.2-84-33.5c-10.6-15.9-2.1-27.9,7.9-39.6
	c8.5-10.9,17.7-3.2,25.7,0.1c12,5,16,1.5,19.6-10.6C600.9,372,608.8,348.4,620.5,326.3z"/>
<path class="st106" d="M455.5,361.6c14.3-17.1,36.3-22.7,53.3-35.7c14.3,25.2,22.5,52.8,31.4,80.1c1.2,3.8-1,5.9-3.8,7.7
	c-6.8,4.1-16.5-0.2-22.3,8c3.2,9.3,15.3,4.4,19.4,12.2c3.1,7.9,1.9,16,1.3,24c-0.7,2.3-1.9,4.4-3.6,6.1c-0.6,3.6,0,9.5-1.9,10.4
	c-19.3,9.3-39.2,10.4-59.2,1.7c-15.8-6.9-23.5-19.1-23.8-36.3C445.6,413.3,448.3,387.2,455.5,361.6z"/>
<path class="st107" d="M223.9,414.7c15.5,4.5,25.7,16,36.1,27.3c-7,31.9-26,57.4-45.1,82.4c-8.9,11.6-22.8,8.4-34.9,4.3
	c-14.6-4.9-29-10.7-43.5-16.2c-7.9-14.9-3-23.5,12.9-26.9c17.2,5.1,26.8-3,33.7-18.1C192.5,446.9,205.9,429,223.9,414.7z"/>
<path class="st108" d="M894.6,513.4c-1.4-5.6-1.4-12.1-4.3-16.8c-10.3-15.9-7.7-29.6,4.5-42.8c3.8-3.8,7.7-7.5,13.5-8.1
	c21.6,11.5,35.3,30.3,46.4,51.1c6,11.4,13.8,16.4,26.4,14.1c2.1,0.2,4.2,1,6,2.2c6.8,7.6,13.3,15.4,6.5,26.4
	C954.9,578.8,921.2,569.8,894.6,513.4z"/>
<path class="st109" d="M811.5,415.5c10.3,4,19,11.7,30.5,13c19.3,27.2,41.1,53.2,40.8,89.4c-11,16.9-41.7,19.8-58,5.5
	c-0.4-7.4-1.7-14.9,1.2-22.2c10.3-7.4,11.2-12.9-3.2-15c-5-1.5-9.4-4.6-12.4-8.8C810.7,456.7,811.1,436.1,811.5,415.5z"/>
<path class="st107" d="M113.5,428.5c11.5-1.2,20.3-8.9,30.5-13.1c0.4,16.2,0.9,32.5,1.3,48.7c3.1,9.4,1,16.8-8,21.6
	c-7.8,2.4-15.4,5.6-23.8,2.3c-8.4-7.8-0.3-16.4-2.3-23c-7.4,11,7.3,33-15,40c4.8,0.8,8.4-3.7,13.2-4.8c5.4-1.4,11.2-0.8,16.2,1.8
	c6.6,4.6,4.5,12.2,6.4,18.5c0.9,2,0.7,4.4-0.7,6.2c-20.1,16.4-45.7,12.6-58.5-8.7C71.1,481.1,99.1,457.9,113.5,428.5z"/>
<path class="st110" d="M985.3,495c5-6.5,2.2-14.2,3.2-21.3c0.7-5.5-3-12.9,3.6-15.9c6.2-2.7,10.3,4.2,15.1,7
	c23.9,14.3,31.6,41.5,47.9,61.8c3,11.6,5.5,24.7-5.2,32.2c-15.5,11-32.5,7.6-48.4-1.5c-3-6.8-2-14-1.4-21c3-4.2,7.4-5,12-5.2
	c9.2,1.1,17.6,6.4,27.3,5.4c3,0.2,0.7-4.4,1.1-1.5c0.1,1-0.4,1.4-1.8,1.3c-7.3-0.7-14.6-0.9-19.9-7.2c-1.2-1.7-2.1-3.6-2.5-5.7
	c0.4-10.6,3.7-21.5-3.9-35c0.3,0.6-2.2,5.6,0.2,3.8c1-0.8,1.5-0.6,2,0.3c4,8.4,3.3,17,1.1,25.7c-7.7,4.8-15.2,1.1-22.8-0.5
	c-3.2-1.3-6.3-2.6-9.1-4.7l0.2,0.2C979.1,506.9,978.5,500.7,985.3,495z"/>
<path class="st111" d="M500.1,660.6l-39.9-0.1c-17-6.3-18.6-16.5-13.3-33.8c11.2-36.9,24.2-73.9,22.9-113.5l4.8,0.5
	c-4.9,30.7-4.9,30.4,24.4,31.6c9.1,0.4,19-3.3,27.2,3.7l-4.2,4.3c-39.2,5.6-39.2,5.6-47.4,47.8c-0.1,0.7-0.3,1.5-0.4,2.2
	c-7.6,39.1-7.6,39.1,29.4,43.5C505.5,652.2,502.7,656.4,500.1,660.6z"/>
<path class="st112" d="M531.1,464c-0.6-1.3-0.7-2.8-0.3-4.1c2.4-2.4,3.6-7,8.6-4.8c7,16.4,24,18.3,37.3,24.6
	c22.3,10.6,43.9,23.5,75.2,26.1c-23.7,6.6-39.8,0.2-54.1-8.5c-15.5-9.4-29.3-7.9-45.6-2.7c-21.3,6.7-42.5,15.7-71.5,13.4
	c28.8-8.4,53.1-12.4,76.7-23.9C550.6,473.2,540.2,469.5,531.1,464z"/>
<path class="st113" d="M571.1,514c8.4,7.3,18,14.5,9,27.3c-5.2,7.4-13.1,9.1-21.5,6.7c-7.3-2.1-9.3-8-10-15.2
	c-1.2-13.3,9.4-14.7,17.5-18.7L571.1,514z"/>
<path class="st114" d="M902.6,555.9c2.1,1.6,4.7,2.8,6.3,4.9c14.5,18.5,31.5,21.1,52.3,10.4c8.1-4.2,19-16.2,26.8,3.1
	c1.8,4.4,12.6,5.1,20.9,8.2c-11.6,4.6-19.3-1.6-27.5-4s-15.5-3.4-23.6-0.7C928.5,587.6,920.9,584.9,902.6,555.9z"/>
<path class="st115" d="M539.4,455.1l-8.6,4.8c-0.4-9-0.9-17.9-1.3-26.9c-4-9.9-0.2-17.1,7.7-23c1-1.3,2-2.7,3-4l8.3,0.2
	c-0.6,13.6-11.9,25.1-7.9,39.6C540.2,448.9,539.8,452,539.4,455.1z"/>
<path class="st116" d="M134.3,482.9c10.4-2.3,10.9-10.5,11.1-18.8c5.9,6.4,3.5,14.3,4,21.6c-10,6.2-13.7,15.4-12.9,26.9l-1,9.5
	c-1.5,2-3.3,2.3-5.3,0.8c-5.7-5.2-1.7-12.4-3.7-18.4C123.4,495.2,126.8,488.3,134.3,482.9z"/>
<path class="st117" d="M815.1,561.8c2.9,6.5,7.6,13.1,0.2,19.6c-4.4,3.9-9.3,3.8-13.6-0.1c-7.3-6.7-2.4-13.1,0.7-19.6
	C806.7,559.8,810.9,558.3,815.1,561.8z"/>
<path class="st118" d="M829,501.4c-1.8,7.2,1.8,15.5-4.3,21.8c-6.2-3.4-4.5-9.8-5.8-15.1c1.9-12-6.7-19.4-12.5-27.9l3.8-3l12.2,5.2
	C831,486.6,829.3,494.3,829,501.4z"/>
<path class="st119" d="M336,602.4c-1.4,10.7-7.4,17.3-17.5,12.1s-3-13.7-0.1-20.7l8.7,0.3L336,602.4z"/>
<path class="st120" d="M322.3,513.2c3.5-0.5,7,1,9,3.9c-18.9,0.5-17.1,14.6-17.7,27.1c-1.2,5.2,1.4,12.9-8.1,12.9
	c-0.5-7-1-13.9-1.5-20.9c-3.1-7.8-0.1-13.7,5.7-18.8L322.3,513.2z"/>
<path class="st121" d="M158,562.4c3.4,6.4,7.5,13,0.4,19.5c-4.3,3.9-9.3,3.6-13.7-0.1c-7.5-6.3-3.3-12.9,0.1-19.3L158,562.4z"/>
<path class="st81" d="M362.2,580.2c-21.1-8.6-41.4-1-61.9,3.8c20.3-9.2,40.1-27.5,62-4L362.2,580.2z"/>
<path class="st122" d="M130.2,522.9l5.3-0.8l30.5,15.6c-9.7,8.6-19.4,11-34.1,11.1l20.4-11.1l-20.8-11.2
	C130.9,525.4,130.4,524.2,130.2,522.9z"/>
<path class="st123" d="M829,546.6c-15.5,4.7-27.8-4.8-43.3-8C805.6,522.2,814.3,547.7,829,546.6z"/>
<path class="st124" d="M1002.7,535.4c-0.4,7.3-0.8,14.6-1.2,21.9c-7.9-3.5-2.1-13.2-8-17.7c0.5-10.1-5.9-17.8-9.6-26.4l9.4,1.1
	C1002.1,518.8,1007,525,1002.7,535.4z"/>
<path class="st125" d="M726,526.5c-13.5-4.8-19.3-15.7-22-28.9L726,526.5z"/>
<path class="st126" d="M772.8,545.7c-9.4,8.9-16.9,8.8-26.3,0H772.8z"/>
<path class="st127" d="M362.3,580.1l26.8-7.5c-7.7,7.3-14.7,17.6-26.9,7.7L362.3,580.1z"/>
<path class="st128" d="M1019.3,678.2c-3,11.9,7.6,27.1-8.8,35.6c-9.3,0.4-13-4.9-13.6-13.4c-0.4-19.7-11.5-37.2-11-57.2
	c0.2-6.4-2.4-13.1,3.1-18.5c5.3-2.8,9.4-10,16.9-4.6C1020.8,637.1,1016.3,658.5,1019.3,678.2z"/>
<path class="st129" d="M989,624.7c3.6,25.1,8.8,50.1,7.9,75.7c-7.8-5.5-0.2-16.8-8.3-22.2c-8.7-10.6-9.5-25-17.1-36.1
	c1.1-6.1,2.3-12.3,3.4-18.4L989,624.7z"/>
<path class="st130" d="M971.5,642.1c14.7,7.8,17.2,21.3,17.1,36.1l-21.4,0.4C968.6,666.4,970,654.2,971.5,642.1z"/>
<path class="st131" d="M538.1,222.7c-2.9-5.6-15.2-0.5-13.1-11.1c0.8-3.9,5.5-5.7,9.1-4.1c6.8,3.2,18.1-1.1,20,9.8
	c1,5.4-5.7,5.5-10,6C541.9,224.9,539.9,224.7,538.1,222.7z"/>
<path class="st132" d="M586.8,227.1c-1.2-5.7-17-3.4-8.7-12.7c6.7-7.1,17.4-8.9,26-4.3c4.5,2.5,2.9,7.9-3,9c-5,0.9-8.3,2.5-7.2,8.4
	C591.7,229.2,588.7,229,586.8,227.1z"/>
<path class="st133" d="M538.1,222.7l5.9,0.6c1.3,2.6,3.2,5,3.9,7.7c1.4,5.8,2.1,11.6-3.8,15.8c-3,2.2-5.8,1.5-7.7-0.7
	c-4.1-4.7-5.8-10.2-2.7-16.2C535.2,227.5,536.7,225.2,538.1,222.7z"/>
<path class="st134" d="M586.8,227.1l7.1,0.5c6.1,6.4,5.7,12.7-0.5,18.6c-1.1,1-4.7,1.2-5.6,0.3C581.7,240.5,582.5,233.8,586.8,227.1
	z"/>
<path class="st135" d="M172.6,316.4c13.2-3.1,19.7-11.3,29.2-6c2.4,1.3,3.8,4.6,0.2,6.9C193.9,322.2,185.8,324.4,172.6,316.4z"/>
<path class="st136" d="M137.8,315.1c11.1-3.6,18.7-5.7,24.9,4.1C154.4,324.1,147.5,323.1,137.8,315.1z"/>
<path class="st137" d="M776.3,316.7c-10.2,9-18.1,3.1-28-1.9C760.8,302.1,767.7,315.1,776.3,316.7z"/>
<path class="st138" d="M819.8,312.7c0.5,1.4,0.5,2.9,0,4.2c-8.3,3.9-16.4,10.1-26.7,2.4C799.9,307.2,810.4,312,819.8,312.7z"/>
<path class="st139" d="M347.7,354.5c9.5-7.2,17.2-10.5,29-7.9C369.1,358.8,361,360.9,347.7,354.5z"/>
<path class="st140" d="M327.2,357.6c1.4,3.3,3.4,6.6,4,10.1c0.6,4.1,1.4,10.1-4.4,10.6c-6.5,0.6-8.3-4.7-7.4-10.5
	c0.5-3.5,1.7-7,2.6-10.5C323.5,356.1,325.8,356.2,327.2,357.6z"/>
<path class="st141" d="M327.2,357.6l-5.3-0.2c-4.4-0.2-11-0.5-9.8-5.6c1.9-7.6,9.5-4,14.3-2.8C332,350.4,336.2,353.9,327.2,357.6z"
	/>
<path class="st142" d="M770.7,473.2l9,13.4c-5.5,13.9-13.8,19.1-27.1,9c4.3-7.4,3.1-18.4,13.8-21.7L770.7,473.2z"/>
<path class="st143" d="M766.3,473.9c-8.7,4.6,0.7,20.8-13.8,21.7c-8.8-4.6-10.6-10.8-4.4-18.9c1.9-1,2.5-3.9,5.2-3.6L766.3,473.9z"
	/>
<path class="st144" d="M753.3,473l-5.2,3.6L728.5,459C746.6,454.2,746.6,454.2,753.3,473z"/>
<path class="st145" d="M380.1,512.2c7.4,9.2,1.8,14.6-5.8,19.2c-5.8,3.5-11.2,1.2-16.4-1.9c-3.3-2-6.5-5.1-4.2-8.8
	c4.9-7.8,11.9-12.7,21.7-12C377.3,509.3,379,510.5,380.1,512.2z"/>
<path class="st146" d="M380.1,512.2l-4.6-3.4c1.4-4.1,2.5-8.3,4.1-12.3c2.4-6.2,6.3-10.9,12.9-5.4c7.2,6-1.8,7.9-3.9,11.2
	C386.2,505.9,382.9,508.9,380.1,512.2z"/>
<path class="st147" d="M967,420.5v15.6c1.5,1.8,1.5,4.4,0,6.2c-16.6,2.4-31.5-0.8-43.3-13.6l0.2-21.7
	C935.8,419.1,951.1,420.7,967,420.5z"/>
<path class="st148" d="M982.8,345.5c4.1-0.3,8.6,4.6,7.5,4.9c-12.8,4.5,1.6,23.7-12.1,24.4c-13.2,0.7-3.5-12.5-7.3-19.1
	C965.7,346.4,978.8,349.4,982.8,345.5z"/>
<path class="st149" d="M929.9,349l10.9-9c0,8,12.4,9.2,11.3,10.5c-6.2,7.5,0.9,22.4-7.8,23.9c-14.3,2.5-6.9-8.8-6.7-15.9
	C937.8,355.3,932.7,352.1,929.9,349z"/>
<path class="st150" d="M908.8,370.9l8.5,4.4c-2.3,2.5-4.2,6-7.1,7.3c-6,2.8-12.5,0.9-13.5-5.8C895.1,365.6,906.1,376,908.8,370.9z"
	/>
<path class="st151" d="M538.6,321.1c18,6.9,36,5.4,54,0L566.6,388C552.4,364.1,546.4,342.2,538.6,321.1z"/>
<path class="st152" d="M291.1,536.3c-7,6.4-14.9,2.6-22.6,2.6c22.9-9.7,11-33.9,22-50.2c0.5,10.9,0.9,20.2,1.3,29.5
	C296.3,524.4,292.2,530.3,291.1,536.3z"/>
<path class="st153" d="M291.1,536.3c-6.6-6.3-0.5-12.1,0.7-18.1l17.9-0.8l-5.7,18.8L291.1,536.3z"/>
<path class="st154" d="M820.6,956.1c9,11.3,21.8,5.4,32.8,7.6c8.4,1.7,20.1-5.5,24.4,8.4c-15.3-1.1-30.6-2.6-46-3.3
	C823.2,968.4,817,967,820.6,956.1z"/>
<path class="st155" d="M256.2,968.3c9.1-6.6,19.8-4.6,29.8-4.7c8.2-0.1,16-0.3,22.2-6.8c1.2,4.5,1.6,10.7-3.7,10.6
	C288.4,967,272.4,973.9,256.2,968.3z"/>
<path class="st156" d="M1019.3,678.2c-8.2-18.5-3.8-39.9-13.3-58c1.5-4.6,4.9-5.1,9-4.3C1015.7,636.6,1027.6,656.7,1019.3,678.2z"/>
<path class="st157" d="M992.4,606.2c0.2,6.7-3.5,9.6-9.6,9.2c-5.5-0.3-10.6-2.4-10.3-9.1c0.2-5.2,4.4-7.4,9.2-7.9
	C987.5,597.8,991.9,599.4,992.4,606.2z"/>
<path class="st158" d="M216.5,944c4.1,1,7.9,2.4,11.9-1.3c6.6-6.2,14.5-0.6,21.7-1.2c-1.9,9.5-11,7.2-16.8,10.2l-9.3,3.5
	C219.8,952.7,211,953.2,216.5,944z"/>
<path class="st159" d="M877.1,941.2c0.3-7.4,0.5-14.8,0.8-22.2c12.1,7.7,25.6,3.2,38.4,4.2c0.9,4.9,0.2,10.5,5.7,13.3l2.8,7.8
	c-10.7,7.1-23.3,0.6-34.4,5C884.8,948.4,880,946.4,877.1,941.2z"/>
<path class="st160" d="M877.1,941.2l13.7,4.6c4.5,5.9,14.6-3.7,17.5,6.5c0,2.4-0.1,4.7-0.2,7.1c-8.5-4.8-15.5-2.2-21.7,4.6
	l-36.8-11.3c2.1-7.8,10-7.7,14.9-11.4L877.1,941.2z"/>
<path class="st161" d="M978.8,936.3l4.2-4.9c14.5,12.9,33,7,49.5,10.7l-5,4.6C1011.4,942.9,992,954,978.8,936.3z"/>
<path class="st162" d="M908.3,952.3c-5.1-4.2-13.8,1.5-17.5-6.5c10.9-10.3,22.8,3.7,34-1.4C922.9,954.7,914,950.1,908.3,952.3z"/>
<path class="st163" d="M966.3,441.8c0.2-1.9,0.5-3.8,0.7-5.8l17.6,11c0.3,16,0.5,32,0.7,47.9l-1.1,18.4
	c-15.2,7.3-26.3,7.4-33.5-12.1c-8.2-22.4-27.6-37.4-42.4-55.4c3-5.8,7.7-9.8,13.3-12.9c24,13.2,36.3,29.3,41.2,57.5
	c0.7-11.7-2.5-18.5-2.3-25.6C960.9,456.8,959.7,448.3,966.3,441.8z"/>
<path class="st164" d="M966.3,441.8v51.7c-13.5-26.5-29.2-43.5-44.7-60.6c0.7-1.4,1.3-2.8,2-4.2L966.3,441.8z"/>
<path class="st165" d="M672.1,660.8l-42.7-0.6c0.1-1.6,0.1-3.1,0.2-4.7c2.9-3.4,6-7.3,10.5-7.5c22.5-1.1,23.9-13.9,18.9-31.7
	c-2.6-9.2-4-18.8-5.8-28.2c-7-35.6-7.1-35.6-43.2-29.4c-3.9-2.4-3.1-6.7-4-10.3c17.4-7.1,35.8-1.6,53.5-4.2
	c8.9,29.3,17,58.8,26.9,87.7C691.7,647.7,682.2,653.9,672.1,660.8z"/>
<path class="st107" d="M503.7,646.8c-8.9,7.8-19.6,4.5-29.6,4.4c-11.6-0.1-14.8-6-12.1-17.6c4.6-20,8.6-40.1,11.4-60.4
	c2.7-19.5,11.5-28.7,31.7-23.8c5.6,1.4,11.3,2.6,17,3.9C515.9,584.5,509.8,615.7,503.7,646.8z"/>
<path class="st9" d="M609.9,558.7c22.9-19.2,40.1-13.7,45.9,14.5c3.5,17.4,6.5,34.9,11,52c4.8,18.3,2.1,28.9-20,26.9
	c-5.6-0.5-11.5,2.2-17.3,3.5C623,623.2,616.4,591,609.9,558.7z"/>
<path class="st166" d="M842.2,585c7.2,19.9,6.8,41.2,11.2,61.7c0.3,1.3-3.8,3.5-5.8,5.2c-2.5-22.6-10.5-44.4-10.5-67.4L842.2,585z"
	/>
<path class="st167" d="M646.2,424.1c-14.9,10.7-29.3,1.7-39.6-5.9c-9.8-7.2,3.5-11.9,8.8-16.5c9.5-4.4,15.9,3.2,23.5,6.1
	c2,0.9,3.3,2.9,3.2,5.1C642.1,417.2,644.1,422.9,646.2,424.1z"/>
<path class="st168" d="M646.2,424.1l-17.4-5.2c-4.3-6.2,13.4-0.4,3.2-8.4c-4.8-3.8-11-5.9-16.6-8.8c2.8-4.7,7.8-4.6,12.3-5.6
	c6.4-3.4,10.6-0.2,14.2,4.7C648.7,407.6,653.6,414.8,646.2,424.1z"/>
<path class="st169" d="M642,400.8l-14.2-4.7c1.6-6-1.4-14.2,5.6-17.4c4.8-2.2,5.8,5.9,11.9,7.5C653,388.2,638.5,394.5,642,400.8z"/>
<path class="st170" d="M537.2,410c-2.6,7.7-5.1,15.3-7.7,23c-4.4,0.2-8.8,0.5-13.2,0.5c-5.9,0-12.3,0.6-12.3-8.3
	c0-6.7,2.9-11.9,9.3-13.1C521.2,410.6,529.3,410.6,537.2,410z"/>
<path class="st171" d="M206.9,476.8c7.6,10.1,4.6,17.7-5.9,22.8c-7.4,3.5-14.2,0.2-20.5-3.7c-2.8-1.7-4.3-4.2-2.7-7.2
	c5.2-9.6,12.5-16.1,24.3-14.8C204.1,474,205.9,475.1,206.9,476.8z"/>
<path class="st172" d="M206.9,476.8l-4.8-2.9c0.7-2.8,0.8-6,2.1-8.4c2.5-4.6,3.9-13.1,12-6.5c6,4.9,1.5,9-2.5,12.5
	C211.6,473.4,209.2,475,206.9,476.8z"/>
<path class="st173" d="M931.2,507.9c1.4,0.2,2.9,0.3,4.3,0.4c11.1-0.3,19.5,5.5,19.7,16c0.1,7.2-8.2,12.1-16.5,9
	c-10.9-4.1-20.8-9.4-11.8-23.8C927.8,507.5,929.2,506.9,931.2,507.9z"/>
<path class="st174" d="M931.2,507.9l-4.3,1.5c-7.6-4.3-13.1-10.5-18.3-17.8C927.4,483.2,927,498.5,931.2,507.9z"/>
<path class="st175" d="M829,501.4c-5.4-5.2-4.7-12.5-6.5-19c2.9-0.2,5.9-0.9,8.7-0.5c6.7,1.1,14.2,2.9,14.4,11
	C845.8,505.6,834.6,498.5,829,501.4z"/>
<path class="st176" d="M110.7,503.8c-7.4,3.2-14.6,7.1-25.8,3.1c29.5-7.9,17.2-34.4,29.1-57.1v36.9
	C118.6,493.5,114.7,498.6,110.7,503.8z"/>
<path class="st177" d="M110.7,503.8c-1.9-6.3,2.2-11.4,3.3-17.1c6.7-1.4,12.8-6.1,20.2-3.8c-2.6,7.2-5.2,14.4-7.8,21.5L110.7,503.8z
	"/>
<path class="st178" d="M1002.7,535.4c-3.1-7-6.2-14.1-9.3-21.1c7.7-2.9,14.1,2.8,21.3,3.1c3.8,2,1.8,7,4.9,9.3l-0.1-0.2
	c2.4,5.1-1.3,6.8-4.8,8.7L1002.7,535.4z"/>
<path class="st179" d="M1019.6,526.7c-1.6-3.1-3.3-6.2-4.9-9.3c2-10.7-2.3-21.2-1.9-31.9C1024.1,498,1018.3,512.9,1019.6,526.7z"/>
<path class="st179" d="M1014.7,535.3c1.6-2.9,3.2-5.8,4.8-8.7l25.3,10.7C1032.5,542,1023.5,539.9,1014.7,535.3z"/>
</svg>
