<svg id="Layer_1" data-name="Layer 1" xmlns="http://www.w3.org/2000/svg" viewBox="0 0 1045.62 1080"><defs><style>.cls-1{fill:#e52f3c;}.cls-2{fill:#e4323f;}.cls-3{fill:#e4313d;}.cls-4{fill:#e33340;}.cls-5{fill:#e3333f;}.cls-6{fill:#e33542;}.cls-7{fill:#fefefe;}.cls-8{fill:#cd313d;}.cls-9{fill:#07469e;}.cls-10{fill:#4a4849;}.cls-11{fill:#494849;}.cls-12{fill:#e8313e;}.cls-13{fill:#464545;}.cls-14{fill:#0846a1;}.cls-15{fill:#4b4a4b;}.cls-16{fill:#545454;}.cls-17{fill:#4f4e4f;}.cls-18{fill:#4b4a4a;}.cls-19{fill:#504e4f;}.cls-20{fill:#494949;}.cls-21{fill:#4f4f4f;}.cls-22{fill:#494848;}.cls-23{fill:#4c4c4c;}.cls-24{fill:#4a494a;}.cls-25{fill:#515051;}.cls-26{fill:#484748;}.cls-27{fill:#535252;}.cls-28{fill:#4c4a4b;}.cls-29{fill:#4b4b4b;}.cls-30{fill:#4e4e4e;}.cls-31{fill:#4d4c4c;}.cls-32{fill:#504f4f;}.cls-33{fill:#4a4949;}.cls-34{fill:#484848;}.cls-35{fill:#535253;}.cls-36{fill:#535353;}.cls-37{fill:#3a3a3a;}.cls-38{fill:#4d4d4d;}.cls-39{fill:#525252;}.cls-40{fill:#575657;}.cls-41{fill:#073f87;}.cls-42{fill:#0a3f86;}.cls-43{fill:#0e4690;}.cls-44{fill:#0b489d;}.cls-45{fill:#515050;}.cls-46{fill:#393839;}.cls-47{fill:#9f9e9f;}.cls-48{fill:#0a489c;}.cls-49{fill:#cfcfcf;}.cls-50{fill:#0d478f;}.cls-51{fill:#d8d8d8;}.cls-52{fill:#d9d8d9;}.cls-53{fill:#505050;}.cls-54{fill:#0c499c;}.cls-55{fill:#16509e;}.cls-56{fill:#0d499e;}.cls-57{fill:#084294;}.cls-58{fill:#eae9ea;}.cls-59{fill:#efefef;}.cls-60{fill:#ededed;}.cls-61{fill:#d9d9d9;}.cls-62{fill:#e6e6e6;}.cls-63{fill:#d4d4d4;}.cls-64{fill:#e4e4e4;}.cls-65{fill:#dedede;}.cls-66{fill:#0244a4;}.cls-67{fill:#ed2a38;}.cls-68{fill:#0546a3;}.cls-69{fill:#eb2c3a;}.cls-70{fill:#e8323e;}.cls-71{fill:#0948a2;}.cls-72{fill:#e13845;}.cls-73{fill:#094095;}.cls-74{fill:#104c9f;}</style></defs><path class="cls-1" d="M825.26,932.35c-100.18,77.62-213,113-339.84,102.43-109-9.12-205.1-48.42-286.75-121.81-2.45-7.62-15.49-8.79-12.15-19.94a12.28,12.28,0,0,1,6-2.27c11.42.57,19.3,7.94,27.34,14.67Q321.94,990.89,453.48,1011c7.7,1.18,15.31,2.29,22.4,5.74,28,5.56,56.25,1.45,84.34,2.37,41.85-8.83,83.75-17.43,125.06-28.53,8-.38,15.9-1.34,22.78-6.09a49.31,49.31,0,0,1,10.38-5.11c8.18-1.81,16-4.49,22.7-9.79A28.9,28.9,0,0,1,746,967c8.83-2.61,17-6.47,23.35-13.38,18.27-13.21,35.63-27.79,56.41-37.19C844.71,922.36,829.26,927.17,825.26,932.35Z"/><path class="cls-1" d="M191.76,893.64l-5.28.48C169.25,891,163.91,873.36,151,865c-9.07-6.24-14.24-15.63-20-24.58-2.51-7.4-7.8-12.72-13.34-17.85A147.2,147.2,0,0,1,92.8,781.84c-4.6-11-8.92-22.19-17-31.33Q-25.62,521.49,93,300.86c2.27-4.22,5.5-7.93,8.28-11.88a156.8,156.8,0,0,0,11.6-14.68c9.53-13.25,12.55-6.1,14,4.85C113.71,311.7,93.61,340.8,81.41,374,61.8,427.48,49.85,482.54,49.26,539c-.55,53.55,9.24,106.4,26.67,157.44,2.27,6.66,4.94,13.2,5.71,20.26A48.61,48.61,0,0,0,88,740.26C105.48,778,129.2,811.72,154,844.78c4,6.43,8.39,12.53,14.06,17.63C175.81,872.93,190.08,878.53,191.76,893.64Z"/><path class="cls-1" d="M325.45,93.14c72.89-38.37,151.61-49,232.14-43.71,109.74,7.17,207.31,47,291,119.17,5.27,4.54,9.91,9.82,14.84,14.75,4.24,8.52-1.06,10.59-7.86,11.66-11.85-1.79-20-10.07-28.5-17.18C755.91,118.44,673.94,82.61,582.35,72.75,515,65.51,447.44,68.53,382.09,91c-15.8,5.44-31.73,11.75-49,11.79C328.47,101.23,323.39,100,325.45,93.14Z"/><path class="cls-2" d="M825.26,932.35c-1.49-4.33,14.59-10-1-13.26-.9-6.34,2.75-10.86,7.18-14,18.13-12.74,31.61-30.64,49.27-43.85,8.06-4.89,14.39-11.27,17.46-20.45,9.42-16.76,21.27-31.77,33.33-46.64,6.87-5.24,10.58-12.31,11.93-20.75,3.55-12,8.68-23.21,16.51-33.06,5.63-5.1,8.11-11.91,10.08-19a48.44,48.44,0,0,1,2.13-5.35c6.21-15.7,13.34-31.13,12.8-48.61a42.15,42.15,0,0,1,5.26-19.29c12.36-43.58,17.38-87.77,12.67-133-2.11-20.24-2.33-40.67-6-60.75-7.56-34.19-16.51-68-30.48-100.21-2.5-5.76-5.38-12-3.25-18.24,2.69-7.9,6.74-4.74,10.27-.16,13.51,33.39,25.6,67.24,33.83,102.38,5.11,6-1.33,14.58,4.6,20.39l.78,1.21-.71,1.25c4.48,10-2,21.44,4.26,31.16l-.2-.28a570.1,570.1,0,0,1,.14,98.21l.35-.35c-7.38,10.18.93,22.73-5,33.14-5.07,6.52-2.32,14.35-3.62,21.49-4.48,10.94-4.36,23.11-9.09,34-29,95.07-78.72,177-154.6,242.09C838.54,925.22,834.14,932.52,825.26,932.35Z"/><path class="cls-3" d="M325.45,93.14c1.77,4.31,5.41,5.57,9.62,5.91-.66,10.91-10.53,12.2-17.45,15.84C246.44,152.34,184.86,201,138.05,267.16c-3.57,5-6.88,10.93-14.62,10.21-1-3.65-1.43-10.07-6.68-3.93-4.82,5.63-7.61,13-15.51,15.54C154.71,199.36,227.32,131.64,325.45,93.14Z"/><path class="cls-4" d="M973.38,335.74c-12.71-4.33-6.56,3.86-4.82,7.79C983.74,377.81,992.09,414.29,1003,450a6.36,6.36,0,0,1-5.8,1.77c-9-4.51-9-13.82-10.92-21.68C965.43,346.25,924.61,273.66,865,211.42c-5.15-5.37-12.22-10.1-10.41-19.38,5.57-.23,8.66-3,8.89-8.69C911.34,226,948.86,276.19,973.38,335.74Z"/><path class="cls-4" d="M1016.08,590.06q-.08-49.09-.14-98.21C1022.65,524.58,1023.34,557.32,1016.08,590.06Z"/><path class="cls-5" d="M151,865c15.48,5.25,21.61,21.92,35.52,29.1,2.6,7.23,11.59,10.33,12.19,18.85A213.64,213.64,0,0,1,151,865Z"/><path class="cls-5" d="M75.81,750.51c11.89,7.07,15.5,18.62,17,31.33C84.89,772.62,80.49,761.49,75.81,750.51Z"/><path class="cls-6" d="M998.73,678.33c.08-12.12,1.56-23.86,9.09-34C1008.16,656.57,1007.1,668.43,998.73,678.33Z"/><path class="cls-6" d="M1011.44,622.85c2.12-11-5-23.34,5-33.14C1016.79,601.06,1018.73,612.65,1011.44,622.85Z"/><path class="cls-4" d="M1016.14,492.13c-8.95-9.35-3.25-20.7-4.26-31.15C1017.14,470.84,1017.17,481.41,1016.14,492.13Z"/><path class="cls-5" d="M117.65,822.59c8.51,2.91,13.9,8.16,13.34,17.85Z"/><path class="cls-4" d="M1011.81,458.51c-7.46-5.46-3.63-13.47-4.6-20.4C1012.86,444,1012.4,451.23,1011.81,458.51Z"/><path class="cls-7" d="M854.54,192C903.48,242.48,945,297.88,971.06,363.91c11.13,28.17,18.55,57.39,26.88,86.37,14.08,67.83,14.06,135.31-5.07,202.3-4.46,4.58-2.52,10.4-3.08,15.73-3.91,18-9.18,35.48-16.89,52.21l.14-.22c-4.06,6.72-2.73,16.1-10.36,21.06l-15.29,32.37c-3.74,8.12-6,17.16-14.1,22.58L901.1,842.5C897,851.28,889.64,857.38,883,864l-58.73,55.06-53.93,38.47c-7.58,5.91-16.81,8.54-25.24,12.74l-.16.08C737,975.94,728,979.47,719,982.74l-7.88,4.34a130.86,130.86,0,0,1-22.82,8C647.56,1008.48,605,1014,563.64,1025c-23.62-4.28-47.46-.57-71.16-2-7.5-.44-15.43,2.42-22.48-2.38-31.87-7.42-64.41-11.78-95.58-22.45-59.76-20.46-113.92-50.53-162.11-91.45-6.1-5.18-10.57-13.72-20.55-13.06l-26.17-29.08a196,196,0,0,0-13-16.18A437.44,437.44,0,0,1,85.57,742c-4.51-6.78-5.65-14.87-8.71-22.22-14.53-46.69-27.36-93.4-30.94-142.83C39,481.74,59.77,393.5,104.85,310.24c6-11.07,12.38-21.92,18.58-32.87,54-79,127.31-135.23,211.64-178.32,70.6-23.32,142.07-39.42,217.44-34.74C658.37,70.87,751.55,108,833.23,175,840.25,180.81,847.43,186.38,854.54,192Z"/><path class="cls-8" d="M470,1020.6c26.94.15,53.88.24,80.82.53,4.51,0,9.9-2,12.82,3.82-25.53.09-51,.27-76.58.21C481.08,1025.14,474.4,1026.89,470,1020.6Z"/><path class="cls-2" d="M745.07,970.3c7.64-5.78,15.25-11.62,25.24-12.74C764.68,967.31,755.52,970.1,745.07,970.3Z"/><path class="cls-2" d="M719,982.74a78.21,78.21,0,0,1,25.93-12.36C739,980.16,729.76,983.11,719,982.74Z"/><path class="cls-2" d="M688.28,995.08c6.93-4.61,14.21-8.18,22.82-8C705.11,994.35,697.25,996.29,688.28,995.08Z"/><path class="cls-5" d="M152.61,848.38c7,3.28,11.5,8.51,13,16.18C158.88,861.08,153.38,856.63,152.61,848.38Z"/><path class="cls-5" d="M76.86,719.75c4.89,6.63,8.67,13.69,8.71,22.22C77.89,736.44,76.05,728.62,76.86,719.75Z"/><path class="cls-6" d="M992.87,652.58c16.37-67.06,14.91-134.58,5.07-202.3l5-.33c2.44,23.49,6.58,47,7,70.49C1010.68,565.17,1011.73,610.26,992.87,652.58Z"/><path class="cls-6" d="M972.9,720.52l16.89-52.2C989.7,687.51,985.18,705.27,972.9,720.52Z"/><path class="cls-6" d="M883,864,901.1,842.5C900.47,854.24,892.91,860.14,883,864Z"/><path class="cls-6" d="M933.29,796.31l14.1-22.58C946.91,783.88,945,793.14,933.29,796.31Z"/><path class="cls-6" d="M962.68,741.36,973,720.3C973.29,729.14,972.69,737.56,962.68,741.36Z"/><path class="cls-9" d="M787.19,774.9l-35,34.57q-15.1,7.18-11.5-9.14c9.13-17,25.66-26.9,38.39-40.46,7.84-4.94,14.46-10.94,17.23-20.24a77.49,77.49,0,0,1,16.85-25.89c5.7-4.11,7.3-10.39,8.79-16.74,3.36-9.82,8.5-18.72,13.74-27.59,34.77-83.27,33.57-166.74,1.57-250.36-.86-1.86-1.61-3.81-2.33-5.73-3.5-12.07-7.31-24-17.54-32.47-13.55-20.32-28.86-39.42-42.14-59.94C770.36,308.54,761,300.86,749,296c-47.93-38.63-100.77-67-162-78-100-17.91-191.82,3.82-270.36,66.45-67,53.45-108.16,125.31-120.11,211.86-1,7.46.77,15.82-6.43,21.41a81.31,81.31,0,0,0,1.27,47.5c7.4,24.13,8.19,49.58,15.95,73.82C228,703.7,265.27,756,315.91,801.1c30.86,27.46,65.84,44.58,103.13,59.21a81.55,81.55,0,0,0,28.79,8.05,46.39,46.39,0,0,1,6,1.25c6.84,2.33,14.11,2.55,21.11,4.15A87.52,87.52,0,0,0,491,875.58c24.46-.86,49,2.06,73.33-1.94,41.91-7.45,82.85-18,121-37.66,8.51-2.59,16.78-5.68,23.24-12.23,7.75-6,13-15.61,24.15-16.62,5.2,1.65,9.52,4,8,10.66-53.4,41.11-112.25,68.64-180.6,72.54-21.38,4.44-43.22-1-64.62,2.93-44.54-4.71-87.71-14.2-127.31-36.26-5.89-6.63-14.05-9.4-21.81-12.84l.37.33c-5.18-7.37-14.15-8.81-21.07-13.45l.25.18c-5.51-4.76-10.64-10.05-17.56-12.9C237.75,766.11,196.39,695.2,179,610.49,144.14,440.43,243.26,268.31,407.37,211.4c27.23-9.44,55.06-16.27,83.89-18.49a401,401,0,0,0,67.37.05c38.81,8.67,79,12.73,114.39,33.08,4.77,4.31,11.19,5.28,16.65,8.19,60.63,33.36,109.5,79.58,143,139.85,23.52,42.37,41.08,87.85,39.65,138.05a243.46,243.46,0,0,1,0,61.68c3.11,36.53-12.23,68.9-23.74,102-10.66,30.64-28.52,57.47-48.4,82.94C796,764.28,791.48,769.49,787.19,774.9Z"/><path class="cls-10" d="M781.07,207.79c6.43,2.69,11.84-8.22,17.23-1.19,4,5.26-3,10-2.95,16.8,6.53-.66,12.61-13,18.75-4,6,8.73-5.24,11.26-9.43,15.41C790,249.33,789.73,249,777.79,232.6a6.49,6.49,0,0,0-2.79-1.91c-19.66-7.84-19.88-8-7.4-27.85,3-4.7,4.25-14.09,12.82-10.61S780.68,202.59,781.07,207.79Z"/><path class="cls-11" d="M795.74,889.94c-10.06,3.78-36.52-10.25-37-19.83a6.82,6.82,0,0,1,2.81-5.07c7.74-5,10.32,3.67,15.23,6.19,6.05-5.72-8.08-20.49,2.7-18,14.92,3.5,8.34-26.27,21.13-11.68,7.55,8.61,22.45,18.86,11.6,35.22C806.13,880.44,795,877.72,795.74,889.94Z"/><path class="cls-12" d="M933.65,565c-14.23-.9-22.5-7.61-22.74-20.94-.27-14.23,7.91-22.42,22.18-22.43,14.62,0,22.15,9.14,21.7,22.93C954.37,557.64,945.8,564.37,933.65,565Z"/><path class="cls-13" d="M110.59,686.31c-2.93-5.85,12.66-16.81-5.51-19-3.11-.37-2.11-6.82,1.71-8,10-3.18,20.21-5.74,30.46-8,3.75-.83,5.6,1.75,7.4,5.52,5.68,11.91-8.15,12.42-10.88,19.11,5,6.67,16.66-4.2,18.8,7.45.78,4.24,2.55,11.55-4.57,11.77-11.49.36-19.95,15.81-32.36,6.87-3.85-2.78,2.26-7.14,3.55-10.87C118.46,685.75,111.79,690.88,110.59,686.31Z"/><path class="cls-14" d="M135.33,551.4c-7.48,17.41-21,17.64-33.86,8.88-11.45-7.78-12.31-20.95-3-31.22,10.5-11.65,22.64-12.29,33,1.63C136.43,536.89,130.85,545.1,135.33,551.4Z"/><path class="cls-15" d="M863.32,330.07c-4.5.72-8.67-1-8.05-3,4.49-14-16.21-19.44-13.29-24.26,5.56-9.18,17.65-14.89,27.89-20.49,3.83-2.09,7.48,3.1,7.22,7.7-.38,6.66-3,13.4,8.7,12.07,4.51-.51,7.37,5.21,3.19,8.8C880.58,318.15,871.23,324.26,863.32,330.07Z"/><path class="cls-16" d="M525.7,983.4c-15,1-20.45-7.54-20.39-20.47.07-13.39,5-22.87,20.8-22.55,15,.3,18.76,9.79,18.55,22.16S540.82,984.85,525.7,983.4Z"/><path class="cls-17" d="M918.84,736.42c-5.62,7.44-4.11,24.22-17.48,21.13-10.41-2.41-28.14-4.83-28.39-19.24-.18-9.87,6.42-24.08,22.46-22.43C907.28,717.11,916.67,722.32,918.84,736.42Z"/><path class="cls-18" d="M225.77,867.71c-7.23-7-15.93-15.17-17.41-25.8-1.79-12.85,8.53-21.06,19.68-23.57,12.06-2.72,19.47,5.78,22.35,17.09C252.25,842.72,234.53,866.52,225.77,867.71Z"/><path class="cls-17" d="M614.78,159.37c5.41-9.3,10.78-18.32,15.93-27.46,3.15-5.58,6.74-8.16,13.67-5.62,6.46,2.38,11.62,4.35,10.37,12.84-.92,6.23-.92,12.62-1,18.94-.23,13.5-3.52,19.21-14.15,5.57C632.53,154.58,623.41,167.7,614.78,159.37Z"/><path class="cls-19" d="M915.64,386.51c19.09-1.55,23.22,8.88,23.59,19.54.54,15.95-12.89,18.38-24.76,19.68-14,1.54-19-9.83-19.15-20.06C895.09,390.62,908,387.72,915.64,386.51Z"/><path class="cls-11" d="M174.23,732.05c-8,10.67-18.12,23.73-29.38,24.43-7.77.48-4.27-22.77-17.59-28.54,7.94-11.5,21.39-8,32.22-11.15C170.14,713.7,170.2,724.92,174.23,732.05Z"/><path class="cls-20" d="M173.56,782.45c-5.81-11.59-7.72-23.05,7.25-27,11.59-3.09,14.91,7.83,19.43,15.43,3.5,5.88,1.47,10.94-5.19,8.22-10.16-4.15-7.31,1.72-8,7.14-1.22,9.94-8.89,12.82-17,10.34-10.26-3.14-13.88-13.15-16.22-22.47-.63-2.49,4.95-3.85,8.39-1.26C165.88,775.54,166.34,781.53,173.56,782.45Z"/><path class="cls-21" d="M856.59,826.65c-2.41,11.63-8.1,21.27-20.12,21.42-13.29.16-23.26-8.94-24.52-21.81-1.1-11.34,6.67-20.46,19.08-20.87C845.08,804.92,851.7,815.12,856.59,826.65Z"/><path class="cls-22" d="M202.92,316.13c-4.36,4.64-6.4,7.41-9,9.42s-6.16,2.85-8.7,4.93c-5.21,4.28,6.59,19.79-6.88,15.78-9.88-2.94-16.83-16-24.78-24.81-1-1.08-.83-4.5.16-5.76,3.79-4.82,3.82-14.69,14.47-10.87C179,308.69,190,312,202.92,316.13Z"/><path class="cls-23" d="M636.08,939.41c.29-3.15-3.86-12.53,8.5-15.89,11.35-3.08,14.86,4.53,19.17,11.83,2.14,3.63,4.52,7.12,6.55,10.81,1.85,3.36,6.8,9.65,2.46,10.27-11.23,1.6-21.57,3.2-31.47,9.73-3.28,2.16-4.89-5.35-5.15-9.43S636.08,948.3,636.08,939.41Z"/><path class="cls-24" d="M383.48,930.32c8.83,5.25,15.88,12.41,8.19,22.74-7.9,10.62-17.64,3.45-26.51.09-3.44-1.3-7.34-6.19-4.93-7.38,13.3-6.56-1.43-27.14,16-30.68,8-1.64,18.69.18,20.92,6.09C403.15,937.16,386,923.2,383.48,930.32Z"/><path class="cls-25" d="M756.55,179.74c-6.62,7-17.7,12.88-16.45,27,.54,6.11-6.42,6.06-8.45,2.32-4-7.47-6.41-15-17.41-9.58-1.33.64-4.08-3.95-2.49-6.69,5.85-10.1,9.36-22,19.09-29.17,2.23-1.65,7.28.54,7.91,6.35C740.05,182.06,754.65,166.15,756.55,179.74Z"/><path class="cls-16" d="M894.32,374.27c-19.17,1.31-24.06-14.8-22.81-21.59,2.47-13.49,19-18.23,30.56-19.68,10.32-1.3,13.1,12.62,13.43,22.19C916.08,371.79,901.78,371,894.32,374.27Z"/><path class="cls-26" d="M203.49,259.5c15.89-1.76,13.82,20.17,27.91,20.06-2.87,11-24.41,6.14-19.85,23.43-12-3.27-18.23-14.46-28.15-20.61-3.79-2.34-3.58-5.8-.58-8.48C189.23,268.18,192.15,257.13,203.49,259.5Z"/><path class="cls-18" d="M872,788.47c-1.14,6.06,13.26,6.56,5.55,14.63-6.58,6.9-11.23-.5-16.1-3.4-5.37-3.2-10.36-7.07-15.43-10.76-4.47-3.25-3.87-7-.4-10.48,4.63-4.7,23.78.71,11.22-16.15-.09-.13,2.62-3.2,4.37-3.71,7.86-2.28,28.64,16.59,28.8,25.91-8.81,3.88-17.39.48-24.46-1.33C868.4,782.39,870.23,785.41,872,788.47Z"/><path class="cls-27" d="M752.13,914l-5.79-1c.82,6.77-.07,17.29-8.07,11.81-8.9-6.09-13.73-18.76-19-29.24-2.58-5.16,3.4-6.32,7.34-7.45l28.82,13.32c2.84,3.35,10.61,3.14,8.87,9.37C762.68,916.74,757,916.1,752.13,914Z"/><path class="cls-10" d="M140.68,348c12,0,30.72,15.51,28.93,24.69-1.6,8.19-4,17.51-14.51,17.92-12.26.48-22.43-6-31-14.1-2.6-2.47-1-7.25,3.88-6.76,3.94.39,7.68,2.59,11.56,3.84,5.51,1.79,12.8,8.84,16.38,1.59,4-8.07-6.69-8.32-11.3-11.7-4.16-3.05-12.09-2.37-11.55-10A6.34,6.34,0,0,1,140.68,348Z"/><path class="cls-28" d="M277,855.41c-5.26,6.94-9.65,12.34-13.56,18.07-1.63,2.38-6,4.9-1.23,8.51,3.88,3,6.33.46,8.79-2.06,1.46-1.51,2.5-3.61,4.22-4.64,5.32-3.21,6.46-16.8,14.64-10.27,10.62,8.49-2.84,14.1-6.89,19.81-4.86,6.85-10.26,16.65-21.76,9.58-6.48-4-15.67-8.3-13.77-16.64,2.63-11.56,10.48-21.51,20.53-28.15C272.26,846.75,273.7,853.17,277,855.41Z"/><path class="cls-28" d="M369.63,181.61c-5.74,6.55-19.18,14.35-23.27,10.83-8.24-7.09-14.59-19.89-15.56-30.88-.95-10.77,12.58-11.74,21.44-14.27.64-.19,1.87,1.71,2.82,2.63-11.82,9.69,5.25,15.25,4.1,17.65C351.94,182.73,374.58,169.65,369.63,181.61Z"/><path class="cls-29" d="M901,672.86c13.19-15.5,26-6.76,35.79,2.9,9,8.88,2,20.68-6.14,24.9-12.06,6.27-26.4,8.25-33.6-9.19C895.53,684.67,900.24,679.19,901,672.86Z"/><path class="cls-29" d="M278.15,237.31c-5.5-9.27-3.31-16.34-3.61-23.18-.15-3.58,2-9.72-5.16-8.15-5.14,1.13-13.91,4.91-10.58-3.34,3.08-7.61,14-13.34,22.72-16.86,4.9-2,4.42,6.64,6.54,10.4,2.87,5.1-10.71,24.69,11.44,14.36.94-.44,3.82,1.69,4.76,3.25,1.86,3.08-.64,5.33-2.8,6.94C294.27,226.05,286.89,231.12,278.15,237.31Z"/><path class="cls-30" d="M852.49,261.59c-4.53,12-12.29,22.6-24.8,22.68-11.66.07-21.87-9.09-20-22.12,1.61-11.22,9.85-20.59,22.91-19.3C841.18,243.9,850,249.45,852.49,261.59Z"/><path class="cls-31" d="M694.53,178.37c-3.19,8.95-4,10.19-9.13,6.82-5.72-3.76-19.1.19-16.21-12.8,1.94-8.7,6.62-16.8,10.25-25.09,3.7-8.48,9.6-6.21,15.5-2.79,4.45,2.58,13,2.15,11.93,9.14-1.46,9.71-11.11-.74-15.61,4.38.81,5.24,11.13,5.18,7.14,12.79C696.92,173.24,689.19,172.45,694.53,178.37Z"/><path class="cls-32" d="M693.47,917c7.23,1.09,8.93,2.88,7.71,11.78-.46,3.38,1,3,2.62,3.33,4.5,1,13.68-6.6,12.71,3-.89,8.66-14.43,12.79-20.18,11.29-12.32-3.22-12.72-18.05-17.77-28.16-3.64-7.3,2.63-9.63,8-11.67,4.94-1.88,10.93-8.13,15-2.73C707.87,912.07,693.23,910.54,693.47,917Z"/><path class="cls-30" d="M524,136.36c-2.08.19-5.09-.42-6.07.71-5.29,6.2,1.7,3.65,3.42,4.06,3.14.76,7.63-.71,8,4.22.49,6.11-4.89,6.19-8.68,6.3-6.59.19-17,4.61-18.93-2.3-3-10.94-2.72-23.59-.47-34.85,1.35-6.74,11-3,16.86-3.46,3.75-.32,9.65-1.22,9.17,4.89-.42,5.3-6.42,4-10.18,5.13-2.44,5.75,2.87,4.51,5.3,5.9C526.71,129.44,528.65,132.37,524,136.36Z"/><path class="cls-33" d="M236.47,237.28c5.78,1.38,9-7.79,13.83-2.24,3.7,4.23-2.7,6.85-3.38,10.88,5.74,5.46,12.12-11,16.31-.3,2.18,5.57-5.62,8.75-9.18,12.8-4.68,5.34-9.32,8.39-15.27,1.18-4.42-5.37-9.84-9.91-14.24-15.29-2.6-3.17-9.56-6-3.52-11.57,5-4.63,9.67-13.91,16-11.87C249.7,225,233.9,230.73,236.47,237.28Z"/><path class="cls-34" d="M331.48,892c-3.57,10.69-15.3,2.1-15.43,9.29-.23,12.78-10.91,1.36-13.26,7.2l11.43,16c-12.11,0-25.24-5.11-24.44-11.07,1.46-10.85,8.42-23.3,17-30.16C314.55,877.13,322.26,890.1,331.48,892Z"/><path class="cls-35" d="M584.52,136.74c.19-1.36,1.2-4.18.87-6.83-1.66-13.82,4.17-18.36,17.59-13.22,7.73,3,12.27,6.83,1.19,11.54-5.74,2.43-5.59,7.16-6.49,11.89-1.2,6.27,2.36,15.1-7.32,17.19C584.94,158.49,583.78,154.42,584.52,136.74Z"/><path class="cls-16" d="M584.51,938.07c4.54-1.32,9-3.25,13.65-3.82,7.93-1,24.36-10.31,11.7,11.42-2.56,4.38.59,12.22,1.47,18.42.58,4.12,2.43,8.58-3.49,10.07-6.8,1.7-8.41-3.54-9.53-8.3C596.07,956.33,598.79,944.26,584.51,938.07Z"/><path class="cls-36" d="M411,163.26c-1.88,5.42-6.35,7.56-11.39,7.73-4.63.16-10.62,7.87-13.91-1.69-3.18-9.26-6.23-18.58-8.84-28-1-3.55.26-7.51,4.64-7.83,2.26-.16,6,1.43,6.81,3.23,4.46,10.09,3.94,24.3,20.95,23.12C409.74,159.77,410.39,162,411,163.26Z"/><path class="cls-37" d="M419.27,932.94c27.45-2.29,35.14,5.94,25.59,28.33-7,16.41-18.71,11.25-30.1,5.13C411.58,954.61,410.57,943.12,419.27,932.94Z"/><path class="cls-38" d="M445.9,121.44c10.13-8.72,19.15-5.87,26.79-8.5,4.53-1.57,10.31,3.23,7.13,5.85-9.84,8.13-4.11,17.64-4.92,26.49-.37,4,.73,8.66-5.47,9.16-5.31.42-7.51-2.15-7.58-7.27C461.7,136.05,461.52,124.88,445.9,121.44Z"/><path class="cls-38" d="M145,430.5c-7.59-11.79-13.78-20.92-27-16-4.33,1.63-7.06.26-7.6-3.79-.66-4.9,0-11.69,5.28-12.19,11.26-1.07,22,3.65,31,9.73C155.22,414,149.26,421.49,145,430.5Z"/><path class="cls-39" d="M492.07,975.9c-11,4.64-24.41,5.74-25.78.82-2.93-10.53.1-22.81,1.34-34.3.19-1.72,4-4.3,6.08-4.31,5.88,0,5.61,4.84,5.55,9C479.11,958.19,475.2,970.62,492.07,975.9Z"/><path class="cls-40" d="M436.86,149.62c3.41,9,1.48,13.9-3.44,12.42-15.08-4.53-8.17-20.16-13.36-30-2.37-4.49.1-12.79,5.15-10.66C439,127.18,433.6,142.86,436.86,149.62Z"/><path class="cls-41" d="M558.63,193a150.67,150.67,0,0,1-67.37-.05A391.66,391.66,0,0,1,558.63,193Z"/><path class="cls-42" d="M495.42,893.26c21.25-7.23,43.08-1.84,64.62-2.93C538.82,898.36,517,892.86,495.42,893.26Z"/><path class="cls-43" d="M872.25,573.81q0-30.84,0-61.68Q884.42,543,872.25,573.81Z"/><path class="cls-44" d="M740.64,817.79a14.89,14.89,0,0,0-8.76-8.41c-.45-8.88,4.38-11.41,12.3-10.21-2,7-.73,11.57,8,10.3C749.73,814.18,746.7,818.09,740.64,817.79Z"/><path class="cls-45" d="M419.27,932.94c-4,10.81-4.79,22.07-4.51,33.46C405.91,953.85,406.66,942.59,419.27,932.94Z"/><path class="cls-46" d="M872,788.47c-3-2.27-7.9-2.18-9.27-7.71L890,784.51C885.3,791.55,878.08,787.35,872,788.47Z"/><path class="cls-47" d="M795.74,889.94c-.52-5.17-1-10.33-1.57-15.56l18.05,2.44Z"/><path class="cls-48" d="M325.6,831c9.19,1.09,17.8,3.08,21.07,13.45C338.47,841.86,331.24,837.68,325.6,831Z"/><path class="cls-49" d="M524,136.36c2.43-6.44-1-7.64-6.57-8.74-5.1-1-6.69-4.06-.29-6.56C520.36,125.72,537.31,124.25,524,136.36Z"/><path class="cls-48" d="M346.3,844.16c9.74.09,17.85,2.94,21.81,12.84C360.38,853.5,352.25,850.68,346.3,844.16Z"/><path class="cls-48" d="M308.29,818.32c9.27-.35,14.24,5.15,17.56,12.9C318.47,829,312.88,824.33,308.29,818.32Z"/><path class="cls-44" d="M787.19,774.9c.72-8.26,6.25-12.68,12.92-16.19C798.91,766.58,794.09,771.57,787.19,774.9Z"/><path class="cls-50" d="M135.33,551.4c-6.42-5.93-2.85-13.76-3.93-20.71C139.72,536.26,137.51,543.84,135.33,551.4Z"/><path class="cls-51" d="M694.53,178.37l-10.47-4.56.21-3H698.4Z"/><path class="cls-52" d="M110.59,686.31l17.87,1.19c-2.4,5.45-6.3,3-9.27,3.65C115.51,691,111.9,690.69,110.59,686.31Z"/><path class="cls-53" d="M901,672.86c1.38,6.77-.75,12.8-4,18.61C892.22,684,897.71,678.65,901,672.86Z"/><path class="cls-54" d="M689.67,234.23c-7.09.39-13.37-.85-16.65-8.19C680.34,225.16,685.93,227.83,689.67,234.23Z"/><path class="cls-55" d="M837.57,674.22C854.4,623.51,864.38,572,861,518c-2.33-36.81-13.36-71.13-23.6-105.89,17.85,22.41,19.78,50.37,25.07,76.65,11.93,59.24,2.23,117-16.8,173.53C844.09,666.86,842.38,671.69,837.57,674.22Z"/><path class="cls-56" d="M486.39,881.25c26.65-7.45,53.88-1.5,80.76-3.49C540.53,885.74,513.29,879.59,486.39,881.25Z"/><path class="cls-57" d="M187,518.45q0,24.9,0,49.81c-9.64-16.19-3.64-33.5-3.56-50.37,0-.19,1.17-.59,1.72-.49A5.92,5.92,0,0,1,187,518.45Z"/><path class="cls-56" d="M837.61,412.33q-8.82-17-17.66-33.94C833.29,385.83,836.93,398.31,837.61,412.33Z"/><path class="cls-56" d="M778.5,319.46l-25.65-25.82C766.92,296.77,775.59,305.26,778.5,319.46Z"/><path class="cls-48" d="M419.12,864.33c11.33-.42,21.46,3.84,31.59,8.09C439.18,873.64,428.36,872.07,419.12,864.33Z"/><path class="cls-44" d="M781.1,762.46l18.23-22.35C799.41,752.57,791.62,758.62,781.1,762.46Z"/><path class="cls-44" d="M688.45,838.6c6.73-5.63,13.28-11.61,22.66-12.41C706.24,835.23,698.17,838.42,688.45,838.6Z"/><path class="cls-44" d="M814.69,715.92q5.13-8.64,10.27-17.26C825.6,706.83,825,714.27,814.69,715.92Z"/><path class="cls-48" d="M453,872.9c7,.79,14.71-2,20.53,4.31C466.57,876.25,458.64,880,453,872.9Z"/><path class="cls-7" d="M520,962.59c.64-3.91-.64-9.66,5.67-9.22,6,.42,4.51,6.08,4.46,9.85s.53,9.68-5.43,9.31S520.32,966.56,520,962.59Z"/><path class="cls-58" d="M898.61,742.79c-4.64-1.93-11-2.72-11.85-9.12-.6-4.4,3.87-5.29,7.23-4.76,5.37.84,11.19,2.26,11.83,9C906.23,742.31,902.72,743.27,898.61,742.79Z"/><path class="cls-59" d="M231.69,830.79c5.31-.34,9,4.17,8.09,5.85-2.84,5.49-7.09,10.79-13.89,11.71-2.43.33-6.16-1.52-5.58-4.93C221.47,836.67,226.78,833.29,231.69,830.79Z"/><path class="cls-60" d="M927.47,405c-2.49,6-7.87,7-13.36,7.32-3.63.22-7.84-1.53-6.61-5.45,1.8-5.69,7.58-7.26,13.19-7.64C924.59,399,927.11,400.82,927.47,405Z"/><path class="cls-61" d="M843.74,828.89c-.22,4.63-2.73,7.86-6.26,7.24A16.53,16.53,0,0,1,823.75,823c-.64-3,3.38-6.47,7.16-5.43A19.14,19.14,0,0,1,843.74,828.89Z"/><path class="cls-62" d="M904.93,351.16c-1.27,9.21-8.62,9.24-13.62,12.06-3.13,1.77-5.17.2-5.75-3.05-1.59-9,6.38-9.08,11.33-11.65C900.69,346.54,902.86,349.56,904.93,351.16Z"/><path class="cls-63" d="M199.59,269.14c2.41,1.46,6.67,2,5.76,6.54-.33,1.62-2.82,4.11-4.08,4-3.79-.42-5.88-3.35-5.82-7.19C195.48,270.45,196.13,268.17,199.59,269.14Z"/><path class="cls-64" d="M906.72,685.15c1.21-6.2,5.12-7.54,9.54-6.48,5.31,1.28,11.53,2.56,10.24,10.43-.71,4.33-3.62,6-7.42,3.53C915,689.92,907,692.82,906.72,685.15Z"/><path class="cls-65" d="M827.35,271.6c-5.19,0-9.29-2.88-8.94-7.07.55-6.53,5.31-11.26,12.06-12.16,4.19-.56,9.58,1.48,9.06,6.17C838.8,265.16,832.42,268.32,827.35,271.6Z"/><path class="cls-60" d="M431.74,961.74c-4.91-1-13.31,1.89-12.07-6.92,1.16-8.22,5.25-16.14,16.46-14.19C439.29,948.63,440.29,956.18,431.74,961.74Z"/><path class="cls-45" d="M431.74,961.74c2.58-6.8,6.15-13.4,4.39-21.11C442,949.19,445,957.17,431.74,961.74Z"/><path class="cls-66" d="M532.42,585.61c-25.81-17-32.56-38.45-16.37-64.52,35.77-57.6,83.84-98.54,154.83-104,21.91-1.67,43.37,2.75,64,10.52,6.15,2.32,12.87,5,10.81,13-2.23,8.7-10.23,6.18-16,5.05-29.27-5.82-58.4-3.37-84.6,9.37-33.4,16.26-63,38.29-73.36,77.42,17.4,10.56,33.47-2.77,50.28-2.79,13.57-2.66,27.07-5.69,40.73-7.78,5-.76,11.75-3,14.57,4.13s-1.76,11.86-6.75,16.05c-18.72,15.71-39.48,28.26-62.52,36.17C590,584.5,574,593.35,560.58,607a37.14,37.14,0,0,0-14,17.76,2.15,2.15,0,0,1-1.43,2.82c-7.16,5.53-8.92,13.83-11.24,21.83l.21-.31c-2.14,1.17-3,3.4-4.26,5.23-1.78,2.9.75,3.7,2.5,4.94,4.7,4.17,11.94,4.94,14.85,11.38-14.7,7.13-24.62,23.52-43.55,22.53-4.77-2.87-7.1-7-6.7-12.63,6-8.27,4-15.08-3.87-20.8C492.84,646.8,500,637,506.77,627c4.57-2,6.51,2.27,9.54,4-1.92-3.39-3.76-6.81-3.7-10.89.85-9,7.41-14.19,12.62-20.54C528.44,595.63,537,593.72,532.42,585.61Z"/><path class="cls-67" d="M461.78,577.66c-5.62,38.78-13,77.17-33.55,111.29-12.86,21.41-30,38.68-55,46.1-11,3.27-22,3.8-32.84-.75-8.38-3.52-18.5-6.58-18.55-17.44-.06-11.67,11.42-7,17.62-10,6.81-3.31,13-7.9,19.46-11.94,19.87-21.59,27.52-50.29,43-74.44,1.61-2.52,3-6.83.36-10-3.68-4.28-7.51-.75-11.43.22-8.72,2.15-17.2,7.7-26.42,4.75-6.8-2.17-14.57-6.14-3.87-13.91,12-8.71,21.58-20.12,32.84-29.64l-.16.12c37.08-21.57,50.61-57.78,59.6-96.61,1.43-6.15,2.67-12.37,5-18.16,2-5-.34-14.81,9.77-12.68,7.46,1.57,9,9.19,8.11,15.25-4.3,28.93-4.14,58.41-9.76,87C463.89,557.22,466.19,567.9,461.78,577.66Z"/><path class="cls-66" d="M503.79,691.07c4.79-.13,9.58.16,12.75-4.77,6.87-10.69,17.88-14.19,29.54-16.38.23-2.51,2.52-3.45,3.88-5.09q79.62-23.88,159.23-47.77c7.42-2.23,16.7-6.3,21.54.78,6.44,9.39-3.67,15.55-9.58,20.59-52,44.34-108.88,77.35-180.52,73.83-6.83-.33-14.27,1.49-20-4.23C516,701.42,502.6,703.46,503.79,691.07Z"/><path class="cls-68" d="M630.58,390.43c-5.13,15.65-8.73,32.82-30.38,33.22-21.08.38-41.26-3-54.46-21.47-12.67-17.73-8.67-36.1,1.91-53.38,14.44-23.59,36.34-36.92,62.88-42.23,21.56-4.31,34.5,4.51,46.09,27.09,9.9,19.27.74,32.36-12.46,44.75-5.91,2.16-6.61-2.1-7.53-6.08a17.85,17.85,0,0,1,1.31-5.72c8-23.68,2.44-32.81-18.83-30.7-8.53,4.95-17.6,9.06-24.64,16.2-10.58,10.71-12.22,25.2-3.51,33.94,10.6,10.65,19.95,6.92,28.62-3.05,1.35-1.55,3.7-1.9,5.86-2C629.71,382.75,632.09,385.53,630.58,390.43Z"/><path class="cls-69" d="M522,331.09c11.49,24.74-.83,43.48-16.35,60.58-16.48,18.17-37,28.67-62.21,23.17C423,410.4,412.19,389.09,415,362.31c2.26-21.84,13.09-32.65,33.91-33.82,9.71,5.52,3.22,10.4-1.1,14.37-7.57,6.95-8,14.21-2.67,22.4,22.74,15.27,30.49,13.13,53.77-14.93,4.72-6.67,5.07-12.84-2.07-18.16-1.58-.87-3.13-1.76-4.74-2.53-6.28-2.47-12.59-1.88-18.93-.37a23.3,23.3,0,0,1-5.64.7c-8.85-2.3-8.88-6-1.72-10.86l7-5a68.66,68.66,0,0,1,31.46,0l-.14-.17C510.54,319.15,515.94,325.45,522,331.09Z"/><path class="cls-70" d="M461.78,577.66c-.29-35.73,8.06-70.67,9.8-106.2.41-8.19,5.49-18.21-8.52-25-3.42,24.17-11.81,46-18.86,68.33-8.33,26.34-25.29,45.91-51,57.27,44.26-30.42,51.15-79.86,64.15-126.17,2.2-7.81,1.71-19.2,13.34-17.78,12.49,1.53,8.23,13.35,7.63,20.69C474.83,492,474.27,535.63,461.78,577.66Z"/><path class="cls-70" d="M393.4,572c-8.26,15.06-22.6,24.41-34.82,37.07,11.7,9,22.78,2,32.84-1.89,15.21-5.93,18.79,5.29,14.22,12.61-15.63,25-22.17,55.83-46.75,75.18,14.3-27,28.59-54,43.59-82.35-14.21-.05-25.53,8.48-38.09,5.1-4.46-1.2-10-1.74-11.8-7.32-2-5.91,2.12-9.4,6.13-12C371,590.44,379.62,577.84,393.4,572Z"/><path class="cls-71" d="M503.79,691.07c2.62,8.61,14.3,8.25,16.81,17-27.49-8.68-37.5-27.12-30.75-54,6.91-27.53,26.36-46.87,42.57-68.39,8.82,5.09,1.58,8.71-1.31,12.44-5.26,6.78-14.34,10.88-14.65,21.1-2.47,3.16-4.32,6.93-8.4,8.49-4.54,11.16-13.45,20.67-12.73,33.81,5.1,4.73,5,10.74,4.21,16.93Z"/><path class="cls-72" d="M465.76,319.11c-3.07,5.32-1.71,8.33,4.59,8.76.59,5.84-3.44,9.42-7.47,11.68-11.82,6.65-17.47,17.31-21.19,29.55-8.33-11.79-11.67-22.8,4.94-30.52,5.24-2.44,4.29-6.11,2.23-10.09C455.29,326.79,458,318.38,465.76,319.11Z"/><path class="cls-73" d="M622.08,529.7c-16.58,4.09-32.71,16.39-50.28,2.8C588.87,537.25,605.14,527.43,622.08,529.7Z"/><path class="cls-74" d="M638.4,369c.8,3.81,1.72,7.54,5.76,9.37-4.1,4.49-5.52,12-13.58,12q-2.16-4.35-4.33-8.69C625.55,373,630,369.15,638.4,369Z"/><path class="cls-71" d="M550,664.83l-3.88,5.09-16.92-8.47c-2.5-2.81-2.52-5.63,0-8.46l5-3.9C535.32,658.44,541,663.29,550,664.83Z"/><path class="cls-71" d="M533.92,649.4c-.51-9.46,0-18.4,11.24-21.83Z"/><path class="cls-72" d="M522,331.09c-8.68-2.88-14.23-9-17.86-17.15C513.5,316.08,519.43,321.81,522,331.09Z"/><path class="cls-72" d="M504.25,314.11l-31.46,0C483.28,307.81,493.77,307,504.25,314.11Z"/><path class="cls-71" d="M546.59,624.75c-.46-10,4.85-15.36,14-17.76Z"/><path class="cls-66" d="M508.06,627.64a14.29,14.29,0,0,1,8.4-8.49c.41,9,8.87,17.83.48,28C508.6,642.74,515.75,631.55,508.06,627.64Z"/><path class="cls-66" d="M499.54,678.38c-6.18-4.46-3.64-11.08-4.21-16.93,5.37.22,12.53-1.08,14,5.41C510.64,672.82,504.28,675.7,499.54,678.38Z"/><path class="cls-66" d="M529.14,653q0,4.23,0,8.46c-3.9-1-10.91,2.08-10.2-5.17C519.37,652,525.39,653.35,529.14,653Z"/><path class="cls-74" d="M638.36,369.23c8.25-26.18,3.95-34.2-20.36-38.05,13.57-10,21.7.45,26.67,9.64C649.77,350.26,652.42,362.47,638.36,369.23Z"/><path class="cls-72" d="M503.37,352.55c2.4-10.06-1.51-18.07-8.19-25.18C511.37,331.38,511.74,340.55,503.37,352.55Z"/><path class="cls-72" d="M495.26,327.42l-25.15.44C478.36,320.29,486.75,320.67,495.26,327.42Z"/></svg>