<svg width="299" height="419" viewBox="0 0 599 838" fill="none" xmlns="http://www.w3.org/2000/svg">
<path d="M407.35 214.7C407.35 214.7 357.65 281.65 323.03 390.98C319.64 401.69 316.39 412.8 313.35 424.29C313.18 424.92 313.02 425.56 312.85 426.2H284.15L273.35 393.7C273.35 393.7 273.77 392.83 274.55 391.19C277.66 384.7 286.56 366.23 298.29 342.77C298.48 342.4 298.66 342.03 298.85 341.65C318.98 301.45 347.19 247.13 368.89 213.2C379.16 197.16 387.96 185.68 393.77 182.41C394.32 182.1 394.85 181.86 395.35 181.7C395.35 181.7 405.99 196.21 407.29 213.81C407.31 214.1 407.33 214.4 407.35 214.7Z" fill="#252526"/>
<path d="M298.85 341.65C298.66 342.03 298.48 342.4 298.29 342.77C286.56 366.23 277.66 384.7 274.55 391.19C239.92 281.14 189.85 213.7 189.85 213.7C189.86 213.53 189.87 213.37 189.89 213.2C191.05 195.42 201.85 180.7 201.85 180.7C202.44 180.89 203.08 181.19 203.75 181.6C209.68 185.17 218.59 196.93 228.94 213.2C250.74 247.47 278.89 301.75 298.85 341.65Z" fill="#161616"/>
<path d="M364.85 655.2C360.83 648.62 354.19 644.51 347.4 641.95C335.62 637.5 323.35 637.7 323.35 637.7C325.03 630.04 326.11 619.77 326.79 608.57C326.98 605.51 327.14 602.38 327.26 599.21C328.65 565.94 327.12 528.85 327.08 528.07C327.08 528.06 327.08 528.06 327.08 528.06L298.85 501.2L324.37 481.17L324.39 481.15C324.41 481.16 324.43 481.17 324.45 481.17C338.72 486.49 348.36 500.23 354.79 517.81C355.14 518.76 355.48 519.72 355.8 520.69C356.03 521.36 356.25 522.04 356.47 522.72C356.73 523.52 356.98 524.32 357.23 525.14C357.25 525.22 357.28 525.3 357.3 525.39C357.54 526.18 357.78 526.99 358 527.79C358.25 528.65 358.48 529.52 358.71 530.39C358.94 531.23 359.15 532.08 359.37 532.93C359.82 534.75 360.25 536.59 360.65 538.45C360.84 539.32 361.02 540.21 361.2 541.1C361.54 542.74 361.85 544.4 362.15 546.07C362.26 546.66 362.36 547.25 362.46 547.84C363.09 551.48 363.63 555.17 364.1 558.87C364.29 560.36 364.47 561.85 364.64 563.34C364.65 563.39 364.66 563.45 364.66 563.5C364.93 565.98 365.18 568.46 365.4 570.94C365.56 572.63 365.69 574.32 365.81 576C365.88 576.84 365.94 577.68 365.99 578.52C366.22 581.88 366.4 585.21 366.54 588.5C366.58 589.33 366.61 590.15 366.64 590.96C366.67 591.78 366.7 592.59 366.72 593.4C366.75 594.21 366.77 595.02 366.79 595.82C366.81 596.6 366.83 597.38 366.84 598.16C366.86 598.93 366.88 599.71 366.89 600.47C366.91 602.01 366.93 603.52 366.94 605.02C367.14 633.34 364.85 655.2 364.85 655.2Z" fill="#161616"/>
<path d="M268.72 528.2C268.65 530.02 267.89 549.35 267.98 572.17C267.98 573.33 267.99 574.51 268 575.69C267.99 575.83 268 575.98 268 576.12C268.01 577.3 268.02 578.48 268.04 579.67C268.05 580.71 268.06 581.75 268.08 582.79C268.1 584.3 268.13 585.81 268.17 587.32C268.19 588.21 268.21 589.11 268.23 590C268.31 592.95 268.4 595.89 268.52 598.81C268.65 602.1 268.82 605.35 269.01 608.53C269.69 619.74 270.78 630.03 272.46 637.7C272.46 637.7 259.48 637.49 247.4 642.34C240.97 644.92 234.78 648.94 230.96 655.2C230.96 655.2 228.66 633.31 228.87 604.94C228.89 601.74 228.95 598.45 229.04 595.1C229.75 569.61 232.71 540.62 240.98 517.96C247.38 500.37 256.99 486.6 271.23 481.23C271.3 481.2 271.36 481.18 271.43 481.15L296.96 501.2L268.73 528.06C268.73 528.06 268.73 528.11 268.72 528.2Z" fill="#161616"/>
<path d="M334.35 506.2C334.35 511 333.42 515.58 331.74 519.78C330.55 522.75 328.98 525.53 327.08 528.06C327.08 528.06 327.08 528.06 327.08 528.07C320.42 536.95 309.81 542.7 297.85 542.7C285.95 542.7 275.39 537.01 268.72 528.2C266.8 525.66 265.2 522.85 263.99 519.85C262.29 515.64 261.35 511.03 261.35 506.2C261.35 496.54 265.1 487.76 271.23 481.23C271.25 481.2 271.27 481.18 271.3 481.16C277.95 474.1 287.39 469.7 297.85 469.7C308.31 469.7 317.74 474.1 324.39 481.15C324.4 481.15 324.41 481.16 324.41 481.17C330.58 487.71 334.35 496.51 334.35 506.2Z" fill="#252526"/>
<path d="M172.85 463.2C171.85 473.2 170.85 479.2 170.85 479.2C167.38 477.93 163.91 476.85 160.45 475.93C124.16 466.25 89.12 474.69 67.39 482.7L67.38 482.71C53.59 487.79 45.16 492.7 45.16 492.7C45.04 486.01 45.02 479.51 45.1 473.19C45.1 473.19 45.25 473.11 45.53 472.97C45.67 472.9 45.84 472.81 46.05 472.7C47.01 472.21 48.69 471.39 51.02 470.36C51.51 470.15 52.03 469.92 52.57 469.69C54.21 468.99 56.1 468.22 58.22 467.42C58.58 467.28 58.94 467.15 59.3 467.01C59.67 466.87 60.04 466.73 60.42 466.6C60.83 466.44 61.26 466.29 61.69 466.14C63.82 465.37 66.14 464.59 68.62 463.82C69.29 463.61 69.97 463.41 70.66 463.2C70.94 463.12 71.22 463.03 71.51 462.95C72.01 462.8 72.51 462.66 73.01 462.52C73.65 462.33 74.31 462.15 74.98 461.97C75.13 461.93 75.27 461.89 75.42 461.85C76.16 461.65 76.9 461.45 77.66 461.26C78.04 461.17 78.42 461.07 78.81 460.97C79.69 460.74 80.58 460.53 81.48 460.32C82.17 460.17 82.86 460.01 83.56 459.85C84.78 459.57 86.02 459.31 87.29 459.06C88.55 458.81 89.84 458.56 91.15 458.33C91.58 458.24 92.01 458.17 92.44 458.1C92.87 458.02 93.31 457.95 93.74 457.88C94.61 457.74 95.49 457.6 96.38 457.47C97.07 457.35 97.77 457.25 98.48 457.16C99.1 457.08 99.73 456.99 100.37 456.91C104.23 456.41 108.24 456.03 112.38 455.79C113.36 455.73 114.34 455.68 115.33 455.64C116.21 455.6 117.09 455.57 117.98 455.55C118.37 455.54 118.77 455.52 119.16 455.52C119.55 455.51 119.95 455.5 120.35 455.5C121.13 455.49 121.92 455.48 122.71 455.48C123.53 455.48 124.36 455.48 125.19 455.5L126.34 455.52C128.93 455.57 131.55 455.68 134.21 455.87C134.84 455.91 135.48 455.96 136.12 456.01C137.14 456.09 138.16 456.18 139.19 456.28C142.83 456.63 146.54 457.12 150.29 457.75C151.21 457.9 152.13 458.07 153.06 458.24C153.98 458.41 154.91 458.59 155.84 458.78C156.6 458.93 157.36 459.09 158.13 459.26C159.14 459.48 160.16 459.71 161.18 459.96C161.24 459.97 161.31 459.98 161.37 460C162.34 460.23 163.31 460.47 164.28 460.73C164.73 460.84 165.19 460.96 165.65 461.09C166.15 461.22 166.66 461.36 167.16 461.5C168.1 461.76 169.04 462.03 169.98 462.32C170.45 462.46 170.93 462.6 171.41 462.75C171.89 462.9 172.37 463.05 172.85 463.2Z" fill="#023E73"/>
<path d="M550.32 492.7C550.32 492.7 550.28 492.68 550.21 492.64C550.15 492.6 550.06 492.55 549.95 492.49C549.81 492.41 549.62 492.31 549.39 492.18C549.21 492.08 549.01 491.97 548.79 491.85C548.61 491.76 548.41 491.65 548.2 491.54C547.97 491.42 547.72 491.29 547.45 491.15C547.11 490.97 546.75 490.79 546.35 490.59C544.82 489.81 542.86 488.86 540.53 487.8C540.15 487.63 539.76 487.46 539.36 487.28C539.05 487.14 538.72 486.99 538.39 486.85C537.77 486.58 537.13 486.3 536.47 486.02C536.43 486 536.39 485.99 536.35 485.97C536 485.82 535.64 485.67 535.27 485.52C534.54 485.22 533.79 484.91 533.01 484.6C531.46 483.97 529.82 483.34 528.1 482.71L528.09 482.7C526.24 482.02 524.3 481.33 522.26 480.66C521.34 480.35 520.41 480.05 519.46 479.75C516.33 478.76 513.02 477.81 509.54 476.92C508.97 476.77 508.4 476.63 507.82 476.49C507.25 476.34 506.67 476.2 506.08 476.07C505.75 475.99 505.42 475.91 505.09 475.84C504.6 475.72 504.11 475.61 503.62 475.51C503 475.37 502.38 475.23 501.75 475.11C500.8 474.9 499.84 474.71 498.87 474.53C498.41 474.44 497.95 474.35 497.49 474.27C497 474.18 496.51 474.09 496.02 474.01C495.37 473.89 494.72 473.78 494.06 473.68C493.4 473.56 492.75 473.46 492.08 473.37C491.42 473.26 490.74 473.16 490.07 473.08C489.4 472.98 488.73 472.89 488.05 472.81C487.38 472.72 486.69 472.64 486.01 472.57C485.33 472.48 484.64 472.41 483.95 472.35C482.57 472.21 481.17 472.09 479.76 471.99C478.95 471.93 478.14 471.88 477.33 471.83C476.02 471.75 474.69 471.7 473.36 471.66C471.25 471.6 469.11 471.58 466.96 471.61C465.58 471.62 464.2 471.66 462.81 471.73C460.13 471.84 457.42 472.04 454.7 472.33C454.43 472.36 454.17 472.38 453.92 472.42C453.37 472.46 452.82 472.53 452.27 472.61C450.93 472.76 449.59 472.95 448.24 473.16C448.13 473.18 448.01 473.2 447.9 473.22C447.22 473.31 446.53 473.43 445.85 473.56C445.13 473.67 444.41 473.8 443.69 473.95C442.97 474.08 442.25 474.22 441.53 474.38C440.14 474.67 438.76 474.98 437.37 475.33C437.24 475.36 437.1 475.4 436.97 475.43C436.33 475.58 435.68 475.75 435.03 475.93C434.17 476.15 433.3 476.39 432.43 476.65C430.77 477.13 429.11 477.65 427.45 478.21C426.8 478.43 426.15 478.65 425.5 478.89C425.21 478.99 424.92 479.09 424.63 479.2H424.62C424.62 479.2 423.62 473.2 422.62 463.2C422.62 463.2 422.65 463.19 422.72 463.16C422.76 463.14 422.8 463.13 422.86 463.1C422.9 463.09 422.94 463.07 422.99 463.05C423.53 462.83 424.66 462.4 426.32 461.83C426.61 461.73 426.92 461.63 427.24 461.52C428.57 461.08 430.18 460.58 432.05 460.06C432.28 459.99 432.52 459.92 432.76 459.86C433.9 459.54 435.13 459.22 436.45 458.9C436.71 458.84 436.96 458.77 437.23 458.71C437.75 458.58 438.29 458.46 438.84 458.34C439.11 458.27 439.39 458.21 439.67 458.15C440.23 458.02 440.81 457.9 441.39 457.78C441.94 457.67 442.5 457.55 443.07 457.44C443.41 457.37 443.76 457.3 444.11 457.24C444.73 457.12 445.36 457.01 446.01 456.89C448.85 456.39 451.91 455.93 455.18 455.56C455.47 455.52 455.76 455.49 456.06 455.46C457.33 455.31 458.64 455.19 459.97 455.08C460.28 455.05 460.59 455.02 460.91 455C462.37 454.88 463.86 454.78 465.39 454.71C465.79 454.68 466.2 454.66 466.61 454.65C467.1 454.62 467.6 454.6 468.11 454.59C468.57 454.57 469.03 454.56 469.49 454.55C469.62 454.54 469.75 454.53 469.88 454.54C470.29 454.53 470.7 454.52 471.12 454.51C493.19 454.15 520.94 458.2 550.39 473.54C550.46 479.75 550.44 486.14 550.32 492.7Z" fill="#023E73"/>
<path d="M550.39 473.54C520.94 458.2 493.19 454.15 471.12 454.51C470.7 454.52 470.29 454.53 469.88 454.54C469.75 454.53 469.62 454.54 469.49 454.55C469.02 454.56 468.56 454.57 468.11 454.59C467.6 454.6 467.1 454.62 466.61 454.65C466.2 454.67 465.79 454.68 465.39 454.71C463.86 454.78 462.37 454.88 460.91 455C460.59 455.02 460.28 455.05 459.97 455.08C458.64 455.19 457.33 455.31 456.06 455.46C455.76 455.49 455.47 455.52 455.18 455.56C451.91 455.93 448.85 456.39 446.01 456.89C445.37 457.01 444.73 457.12 444.11 457.24C443.76 457.3 443.41 457.37 443.07 457.44C442.5 457.55 441.94 457.67 441.39 457.78C440.81 457.9 440.23 458.02 439.67 458.15C439.39 458.21 439.11 458.27 438.84 458.34C438.29 458.46 437.75 458.58 437.23 458.71C436.96 458.77 436.71 458.84 436.45 458.9C435.13 459.22 433.9 459.54 432.76 459.86C432.51 459.93 432.28 459.99 432.05 460.06C430.18 460.58 428.57 461.08 427.24 461.52C426.92 461.63 426.61 461.73 426.32 461.83C424.66 462.4 423.53 462.83 422.99 463.05C422.94 463.07 422.9 463.09 422.86 463.1C422.8 463.13 422.76 463.14 422.72 463.16C422.65 463.19 422.62 463.2 422.62 463.2C422.62 463.2 354.09 482.92 324.45 481.17C324.43 481.17 324.41 481.16 324.39 481.15C317.74 474.1 308.31 469.7 297.85 469.7C287.39 469.7 277.95 474.1 271.3 481.16C241.8 483.04 172.85 463.2 172.85 463.2C172.37 463.05 171.89 462.9 171.41 462.75C170.93 462.6 170.45 462.46 169.98 462.32C169.04 462.03 168.1 461.76 167.16 461.5C166.66 461.36 166.15 461.22 165.65 461.09C165.2 460.96 164.74 460.84 164.28 460.73C163.31 460.47 162.34 460.23 161.37 460C161.31 459.98 161.24 459.97 161.18 459.96C160.16 459.71 159.14 459.48 158.13 459.26C157.36 459.09 156.6 458.93 155.84 458.78C154.91 458.59 153.98 458.41 153.06 458.24C152.13 458.07 151.21 457.9 150.29 457.75C146.54 457.12 142.83 456.63 139.19 456.28C138.16 456.18 137.14 456.09 136.12 456.01C135.48 455.96 134.84 455.91 134.21 455.87C131.55 455.68 128.93 455.57 126.34 455.52C125.96 455.51 125.57 455.5 125.19 455.5C124.36 455.48 123.53 455.48 122.71 455.48C121.92 455.48 121.13 455.49 120.35 455.5C119.95 455.5 119.55 455.51 119.16 455.52C118.76 455.52 118.37 455.53 117.98 455.55C117.09 455.57 116.2 455.6 115.33 455.64C114.34 455.68 113.36 455.73 112.38 455.79C108.24 456.03 104.23 456.41 100.37 456.91C99.73 456.99 99.1 457.07 98.48 457.16C97.77 457.25 97.07 457.35 96.38 457.47C95.49 457.59 94.61 457.73 93.74 457.88C93.3 457.95 92.87 458.02 92.44 458.1C92.01 458.17 91.58 458.24 91.15 458.33C89.84 458.56 88.55 458.8 87.29 459.06C86.02 459.31 84.78 459.57 83.56 459.85C82.86 460 82.17 460.16 81.48 460.32C80.58 460.53 79.69 460.74 78.81 460.97C78.42 461.06 78.04 461.16 77.66 461.26C76.9 461.45 76.16 461.65 75.42 461.85C75.27 461.89 75.13 461.93 74.98 461.97C74.31 462.15 73.65 462.33 73.01 462.52C72.5 462.66 72 462.8 71.51 462.95C71.22 463.03 70.94 463.12 70.66 463.2C69.97 463.41 69.29 463.61 68.62 463.82C66.14 464.59 63.82 465.37 61.69 466.14C61.26 466.29 60.84 466.44 60.42 466.6C60.04 466.73 59.67 466.87 59.3 467.01C58.93 467.14 58.57 467.28 58.22 467.42C56.1 468.22 54.21 468.99 52.57 469.69C52.03 469.92 51.51 470.15 51.02 470.36C48.69 471.39 47.01 472.21 46.05 472.7C45.84 472.8 45.67 472.89 45.53 472.97C45.25 473.11 45.1 473.19 45.1 473.19C46.75 340.96 91.26 286.79 120.85 257.2C151.85 226.2 189.85 213.2 189.85 213.2H189.89C189.87 213.37 189.86 213.53 189.85 213.7C189.85 213.7 239.92 281.14 274.55 391.19C273.77 392.83 273.35 393.7 273.35 393.7L284.15 426.2H312.85C313.02 425.56 313.18 424.92 313.35 424.29C316.39 412.8 319.64 401.69 323.03 390.98C357.65 281.65 407.35 214.7 407.35 214.7C407.33 214.4 407.31 214.1 407.29 213.81C414.95 216.71 447.47 230.05 474.62 257.2C504.23 286.81 548.8 341.06 550.39 473.54Z" fill="#EDEDED"/>
<path d="M172.85 463.2C172.14 451.86 171.62 440.55 171 429.26C170.65 423.62 170.38 417.97 169.94 412.35C169.52 406.73 169.08 401.11 168.29 395.58C167.93 392.82 167.49 390.06 166.83 387.46C166.68 386.79 166.46 386.2 166.28 385.56C166.18 385.25 166.05 384.98 165.95 384.69C165.84 384.4 165.73 384.1 165.59 383.89C165.44 383.66 165.37 383.43 165.17 383.18L164.57 382.42C164.18 381.91 163.79 381.4 163.3 380.92C161.54 378.92 159.38 377.16 157.25 375.42C155.04 373.75 152.79 372.11 150.45 370.58C145.77 367.54 140.89 364.74 135.81 362.36C130.74 359.97 125.48 357.86 119.83 357.2C122.68 357.04 125.54 357.48 128.34 358.06C131.13 358.72 133.88 359.56 136.56 360.55C141.93 362.56 147.12 365.03 152.08 367.93C157.06 370.82 161.82 374.09 166.04 378.34C166.3 378.61 166.58 378.85 166.82 379.15L167.55 380.05L168.27 380.95C168.51 381.25 168.73 381.69 168.95 382.06C169.19 382.45 169.33 382.82 169.48 383.19C169.63 383.56 169.8 383.93 169.92 384.3C170.14 385.02 170.41 385.76 170.58 386.47C171.34 389.35 171.82 392.2 172.22 395.05C173.66 406.45 174.04 417.81 174.08 429.18C174.14 440.53 173.8 451.88 172.85 463.2Z" fill="#BABABA"/>
<path d="M165.56 380.56C166.14 379.65 166.59 378.68 166.97 377.68C167.36 376.69 167.72 375.69 168.01 374.67C168.33 373.66 168.57 372.62 168.84 371.6C169.07 370.56 169.28 369.53 169.48 368.49C170.26 364.33 170.66 360.11 170.9 355.88C171.41 347.41 171.06 338.97 170.67 330.39L170.19 317.55C170.09 313.27 169.86 308.99 169.78 304.71C169.51 296.14 169.31 287.57 169.3 278.95C170.96 287.41 172.03 295.95 172.89 304.51C173.35 308.79 173.64 313.07 173.97 317.36C174.25 321.65 174.46 325.94 174.66 330.24C174.8 334.53 174.92 338.83 174.9 343.18C174.76 347.52 174.61 351.86 174 356.18C173.75 358.34 173.38 360.49 172.98 362.63L172.25 365.82C171.99 366.88 171.68 367.93 171.39 368.97C170.71 371.05 170.01 373.11 169.06 375.08C168.1 377.03 167.03 378.97 165.56 380.56Z" fill="#BABABA"/>
<path d="M123.05 255.05C128.52 258.04 133.42 261.98 137.93 266.27C142.46 270.56 146.59 275.3 150.21 280.39C153.84 285.48 157.09 290.85 159.63 296.56C162.33 302.19 164.23 308.18 165.56 314.23C162.66 308.72 160.01 303.23 156.86 298L155.71 296.03C155.34 295.36 154.95 294.72 154.53 294.08L152.1 290.23C151.3 288.94 150.4 287.71 149.56 286.45L148.3 284.56C147.87 283.94 147.4 283.34 146.96 282.72C143.46 277.76 139.65 273.03 135.68 268.41C131.69 263.82 127.52 259.36 123.05 255.05Z" fill="#BABABA"/>
<path d="M138.85 375.2C141.21 375.56 143.36 376.47 145.39 377.57C147.41 378.7 149.3 380.06 150.98 381.69C152.65 383.33 154.14 385.19 155.25 387.31C156.31 389.44 157.02 391.82 156.85 394.2C155.41 392.29 154.08 390.66 152.66 389.09C151.23 387.53 149.72 386.06 148.21 384.57L143.54 380.1C141.97 378.57 140.4 377 138.85 375.2Z" fill="#BABABA"/>
<path d="M422.99 463.2C422.05 451.88 421.7 440.52 421.73 429.17C421.77 417.81 422.15 406.45 423.59 395.04C423.98 392.19 424.47 389.34 425.23 386.46C425.4 385.74 425.67 385.01 425.89 384.29C426.01 383.93 426.18 383.55 426.33 383.18C426.48 382.81 426.62 382.45 426.86 382.05C427.08 381.68 427.3 381.24 427.54 380.94L428.26 380.04L428.99 379.14C429.24 378.84 429.51 378.6 429.77 378.33C433.99 374.09 438.76 370.81 443.73 367.92C448.69 365.02 453.88 362.55 459.25 360.54C461.94 359.55 464.69 358.71 467.47 358.05C470.27 357.46 473.13 357.03 475.98 357.19C470.33 357.85 465.07 359.96 460 362.35C454.92 364.74 450.04 367.53 445.36 370.57C443.02 372.1 440.77 373.74 438.56 375.41C436.43 377.15 434.27 378.91 432.51 380.91C432.03 381.39 431.64 381.9 431.24 382.41L430.64 383.17C430.44 383.42 430.37 383.65 430.22 383.88C430.08 384.09 429.97 384.39 429.86 384.68C429.75 384.97 429.62 385.24 429.53 385.55C429.35 386.19 429.13 386.78 428.98 387.45C428.32 390.06 427.88 392.81 427.52 395.57C426.73 401.09 426.3 406.72 425.87 412.34C425.42 417.96 425.16 423.61 424.81 429.25C424.23 440.55 423.7 451.87 422.99 463.2Z" fill="#BABABA"/>
<path d="M430.29 380.56C428.81 378.97 427.75 377.03 426.82 375.07C425.87 373.1 425.17 371.04 424.49 368.96C424.2 367.91 423.89 366.86 423.63 365.81L422.9 362.62C422.5 360.48 422.13 358.33 421.88 356.17C421.27 351.86 421.12 347.51 420.98 343.17C420.95 338.82 421.08 334.52 421.22 330.23C421.42 325.94 421.63 321.64 421.91 317.35C422.24 313.06 422.53 308.78 422.99 304.5C423.85 295.95 424.92 287.41 426.58 278.94C426.58 287.56 426.37 296.13 426.1 304.7C426.02 308.99 425.79 313.26 425.69 317.54L425.21 330.38C424.82 338.96 424.47 347.4 424.98 355.87C425.22 360.1 425.62 364.32 426.4 368.48C426.59 369.52 426.81 370.55 427.04 371.59C427.31 372.61 427.55 373.65 427.87 374.66C428.16 375.68 428.51 376.68 428.91 377.67C429.26 378.68 429.71 379.65 430.29 380.56Z" fill="#BABABA"/>
<path d="M472.79 255.05C468.33 259.36 464.16 263.82 460.16 268.42C456.19 273.04 452.38 277.77 448.88 282.73C448.44 283.34 447.97 283.94 447.54 284.57L446.28 286.46C445.44 287.72 444.54 288.95 443.74 290.24L441.31 294.09C440.89 294.73 440.49 295.37 440.13 296.04L438.98 298.01C435.83 303.24 433.19 308.73 430.28 314.24C431.61 308.19 433.51 302.2 436.21 296.57C438.75 290.86 442 285.48 445.63 280.4C449.25 275.3 453.37 270.57 457.91 266.28C462.43 261.98 467.33 258.04 472.79 255.05Z" fill="#BABABA"/>
<path d="M456.99 375.2C455.45 377 453.87 378.57 452.3 380.1L447.63 384.57C446.12 386.06 444.61 387.53 443.18 389.09C441.76 390.67 440.42 392.29 438.99 394.2C438.82 391.82 439.53 389.43 440.59 387.31C441.69 385.19 443.19 383.33 444.86 381.69C446.54 380.06 448.43 378.7 450.45 377.57C452.48 376.47 454.63 375.57 456.99 375.2Z" fill="#BABABA"/>
<path d="M154.35 543.7C154.35 543.7 151.71 557.57 126.55 561.69C125.08 561.93 123.53 562.14 121.9 562.31C117.11 562.81 111.63 562.98 105.35 562.7C103.98 562.64 102.65 562.51 101.38 562.31C73.63 558.01 67.93 522.43 67.1 500.32C66.72 490.07 67.38 482.71 67.38 482.71L67.39 482.7C89.12 474.69 124.16 466.25 160.45 475.93C160.59 476.14 162.47 479 165.15 484.33C167.71 489.42 171 496.75 174.2 506.2C174.58 507.34 174.97 508.5 175.35 509.7C182.35 531.7 154.35 543.7 154.35 543.7Z" fill="white"/>
<path d="M101.38 562.31C99.52 561.47 98.02 560.16 96.71 558.71C95.42 557.25 94.35 555.58 93.54 553.79C92.71 552.01 92.21 550.05 92.01 548.08C91.82 546.11 92.07 544.05 92.84 542.19C93.73 544.04 94.33 545.71 95.06 547.34C95.78 548.96 96.44 550.56 97.18 552.15L99.34 557.01C100.06 558.69 100.77 560.38 101.38 562.31Z" fill="#BABABA"/>
<path d="M126.55 561.7C124 560.03 121.84 557.94 119.84 555.72C117.87 553.48 116.08 551.07 114.56 548.47C113.05 545.87 111.74 543.14 110.86 540.23C110 537.32 109.48 534.24 109.85 531.21C111.13 533.98 112.41 536.51 113.76 539.02C115.11 541.53 116.58 543.97 118 546.44L122.37 553.88C123.83 556.4 125.26 558.95 126.55 561.7Z" fill="#BABABA"/>
<path d="M154.35 543.7C152.06 542.92 150.05 541.71 148.15 540.37C146.26 539.02 144.52 537.48 142.94 535.76C141.36 534.05 139.93 532.17 138.81 530.06C137.71 527.97 136.8 525.64 136.84 523.19C138.37 525.05 139.87 526.62 141.37 528.23L145.88 533.04C147.37 534.67 148.85 536.33 150.28 538.06C151.72 539.83 153.11 541.64 154.35 543.7Z" fill="#BABABA"/>
<path d="M67.1 500.32C50.36 502.43 45.16 492.7 45.16 492.7C45.16 492.7 53.59 487.79 67.38 482.71C67.38 482.71 66.72 490.07 67.1 500.32Z" fill="#042F4F"/>
<path d="M170.85 479.2C170.85 479.2 168.46 484.46 165.15 484.33C162.47 479 160.59 476.14 160.45 475.93C163.91 476.85 167.38 477.93 170.85 479.2Z" fill="#042F4F"/>
<path d="M528.38 500.32C527.55 522.43 521.85 558.01 494.1 562.31C492.83 562.51 491.5 562.64 490.13 562.7C485.36 562.91 481.05 562.86 477.16 562.6C474.18 562.42 471.44 562.1 468.93 561.69C443.77 557.57 441.13 543.7 441.13 543.7C441.13 543.7 413.13 531.7 420.13 509.7C420.51 508.5 420.9 507.34 421.28 506.2C424.48 496.75 427.77 489.42 430.33 484.33C433.01 479 434.89 476.14 435.03 475.93C435.68 475.76 436.32 475.59 436.97 475.43C437.1 475.4 437.24 475.36 437.37 475.33C438.76 474.99 440.15 474.67 441.53 474.38C442.25 474.23 442.97 474.09 443.69 473.95C444.41 473.81 445.13 473.68 445.85 473.56C446.53 473.44 447.22 473.32 447.9 473.22C448.01 473.2 448.13 473.18 448.24 473.16C449.59 472.96 450.93 472.77 452.27 472.61C452.82 472.54 453.37 472.48 453.92 472.42C454.17 472.38 454.43 472.36 454.7 472.33C457.43 472.05 460.13 471.85 462.81 471.73C464.2 471.67 465.59 471.63 466.96 471.61C469.11 471.58 471.25 471.6 473.36 471.66C474.69 471.7 476.02 471.76 477.33 471.83C478.14 471.88 478.95 471.93 479.76 471.99C481.17 472.09 482.56 472.21 483.95 472.35C484.64 472.42 485.32 472.49 486.01 472.57C486.69 472.64 487.37 472.73 488.05 472.81C488.73 472.9 489.4 472.98 490.07 473.08C490.75 473.17 491.41 473.27 492.08 473.37C492.74 473.47 493.4 473.57 494.06 473.68C494.72 473.78 495.37 473.89 496.02 474.01C496.51 474.09 497 474.18 497.49 474.27C497.95 474.35 498.41 474.44 498.87 474.53C499.84 474.71 500.8 474.9 501.75 475.11C502.38 475.24 503 475.37 503.62 475.51C504.11 475.62 504.6 475.73 505.09 475.84C505.42 475.91 505.75 475.99 506.08 476.07C506.67 476.2 507.25 476.34 507.82 476.49C508.4 476.63 508.97 476.77 509.54 476.92C513.02 477.81 516.33 478.76 519.46 479.75C520.41 480.05 521.34 480.35 522.26 480.66C524.3 481.33 526.24 482.02 528.09 482.7L528.1 482.71C528.1 482.71 528.76 490.07 528.38 500.32Z" fill="white"/>
<path d="M494.1 562.31C494.71 560.38 495.42 558.68 496.13 557.01L498.29 552.15C499.03 550.56 499.69 548.97 500.41 547.34C501.15 545.71 501.74 544.04 502.63 542.19C503.41 544.05 503.66 546.1 503.46 548.08C503.26 550.05 502.77 552.01 501.93 553.79C501.12 555.58 500.05 557.24 498.76 558.71C497.46 560.16 495.96 561.47 494.1 562.31Z" fill="#BABABA"/>
<path d="M468.93 561.7C470.22 558.95 471.65 556.4 473.1 553.88L477.47 546.44C478.9 543.97 480.36 541.53 481.71 539.02C483.06 536.5 484.34 533.98 485.62 531.21C485.99 534.24 485.47 537.32 484.61 540.23C483.72 543.14 482.42 545.88 480.91 548.47C479.39 551.06 477.6 553.47 475.63 555.72C473.65 557.94 471.48 560.03 468.93 561.7Z" fill="#BABABA"/>
<path d="M441.13 543.7C442.37 541.63 443.76 539.83 445.19 538.08C446.63 536.34 448.1 534.68 449.59 533.06L454.1 528.25C455.6 526.64 457.1 525.07 458.63 523.21C458.67 525.65 457.76 527.99 456.66 530.08C455.54 532.19 454.11 534.07 452.53 535.78C450.95 537.5 449.21 539.04 447.32 540.39C445.43 541.72 443.42 542.92 441.13 543.7Z" fill="#BABABA"/>
<path d="M528.38 500.32C545.12 502.43 550.32 492.7 550.32 492.7C550.32 492.7 541.89 487.79 528.1 482.71C528.1 482.71 528.76 490.07 528.38 500.32Z" fill="#042F4F"/>
<path d="M435.03 475.93C434.89 476.14 433.01 479 430.33 484.33C427.02 484.46 424.63 479.2 424.63 479.2C424.92 479.09 425.21 478.99 425.5 478.89C426.15 478.65 426.8 478.43 427.45 478.21C429.11 477.65 430.77 477.13 432.43 476.65C433.3 476.4 434.17 476.16 435.03 475.93Z" fill="#042F4F"/>
<path d="M271.3 481.16C271.27 481.18 271.25 481.2 271.23 481.23C256.99 486.6 247.38 500.37 240.98 517.96C199.71 513.69 174.2 506.2 174.2 506.2C171 496.75 167.71 489.42 165.15 484.33C168.46 484.46 170.85 479.2 170.85 479.2C170.85 479.2 171.85 473.2 172.85 463.2C172.85 463.2 241.8 483.04 271.3 481.16Z" fill="#252526"/>
<path d="M430.33 484.33C427.77 489.42 424.48 496.75 421.28 506.2C398.32 511.83 376.01 515.54 354.79 517.81C348.36 500.23 338.72 486.49 324.45 481.17C354.09 482.92 422.62 463.2 422.62 463.2C423.62 473.2 424.62 479.2 424.62 479.2H424.63C424.63 479.2 427.02 484.46 430.33 484.33Z" fill="#252526"/>
<path d="M229.04 595.1C228.95 598.45 228.89 601.74 228.87 604.94C175.76 598.25 142.85 586.2 142.85 586.2C146.85 577.2 150.55 562.83 150.55 562.83C147.58 566.03 129.22 579.45 118.2 587.41C113.3 590.95 109.85 593.41 109.85 593.41C110.28 592.21 112.57 586.29 115.04 579.93L170.84 539.78C170.6 540.15 162.72 552.1 154.35 579.93C154.35 579.93 183.38 589.22 229.04 595.1Z" fill="#023E73"/>
<path d="M240.98 517.96C232.71 540.62 229.75 569.61 229.04 595.1C183.38 589.22 154.35 579.93 154.35 579.93C162.72 552.1 170.6 540.15 170.84 539.78L115.04 579.93C118.31 571.51 121.9 562.31 121.9 562.31C123.53 562.14 125.08 561.93 126.55 561.69C151.71 557.57 154.35 543.7 154.35 543.7C154.35 543.7 182.35 531.7 175.35 509.7C174.97 508.5 174.58 507.34 174.2 506.2C174.2 506.2 199.71 513.69 240.98 517.96Z" fill="#EDEDED"/>
<path d="M327.26 599.21C327.14 602.38 326.98 605.51 326.79 608.57C306.28 609.64 286.92 609.48 269.01 608.53C268.82 605.35 268.65 602.1 268.52 598.81C286.72 599.9 306.47 600.2 327.26 599.21Z" fill="#023E73"/>
<path d="M327.26 599.21C306.47 600.2 286.72 599.9 268.52 598.81C268.4 595.89 268.31 592.95 268.23 590C268.21 589.11 268.19 588.21 268.17 587.32C268.13 585.81 268.1 584.3 268.08 582.79C268.06 581.75 268.05 580.71 268.04 579.67C268.02 578.48 268.01 577.3 268 576.12C268 575.98 267.99 575.83 268 575.69C267.99 574.51 267.98 573.33 267.98 572.17C267.89 549.35 268.65 530.02 268.72 528.2C275.39 537.01 285.95 542.7 297.85 542.7C309.81 542.7 320.42 536.95 327.08 528.07C327.12 528.85 328.65 565.94 327.26 599.21Z" fill="#EDEDED"/>
<path d="M479.49 588.99C464.25 579.81 446.25 562.31 446.25 562.31C446.66 567.42 454.85 586.2 454.85 586.2C424.43 595.5 394.91 601.48 366.94 605.02C366.93 603.52 366.91 602.01 366.89 600.47C366.88 599.71 366.86 598.93 366.84 598.16C366.83 597.38 366.81 596.6 366.79 595.82C391.3 592.75 416.75 587.68 442.46 579.93C442.46 579.93 436.81 550.2 430.33 543.7L483.34 583.27H483.35L483.36 583.28C485.66 588.93 487.71 592.97 487.84 593.19C485.26 592.22 482.43 590.76 479.49 588.99Z" fill="#023E73"/>
<path d="M430.33 543.7C436.81 550.2 442.46 579.93 442.46 579.93C416.75 587.68 391.3 592.75 366.79 595.82C366.77 595.02 366.75 594.21 366.72 593.4C366.7 592.59 366.67 591.78 366.64 590.96C366.61 590.15 366.58 589.33 366.54 588.5C366.4 585.21 366.22 581.88 365.99 578.52C365.94 577.68 365.88 576.84 365.81 576C365.69 574.32 365.56 572.63 365.4 570.94C365.19 568.46 364.94 565.98 364.66 563.5C364.66 563.45 364.65 563.39 364.64 563.34C364.47 561.85 364.29 560.36 364.1 558.87C363.63 555.17 363.09 551.48 362.46 547.84C362.36 547.25 362.26 546.66 362.15 546.07C361.85 544.4 361.54 542.74 361.2 541.1C361.02 540.21 360.84 539.32 360.65 538.45C360.25 536.59 359.82 534.75 359.37 532.93C359.15 532.08 358.94 531.23 358.71 530.39C358.48 529.52 358.25 528.65 358 527.79C357.78 526.99 357.54 526.18 357.3 525.39C357.28 525.3 357.25 525.22 357.23 525.14C356.98 524.32 356.73 523.52 356.47 522.72C356.25 522.04 356.03 521.36 355.8 520.69C355.48 519.72 355.14 518.76 354.79 517.81C376.01 515.54 398.32 511.83 421.28 506.2C420.9 507.34 420.51 508.5 420.13 509.7C413.13 531.7 441.13 543.7 441.13 543.7C441.13 543.7 443.77 557.57 468.93 561.69C471.44 562.1 474.18 562.42 477.16 562.6C477.96 567.86 479.67 573.5 481.49 578.48C482.1 580.17 482.73 581.78 483.34 583.27L430.33 543.7Z" fill="#EDEDED"/>
<path d="M576.35 636.7C545.18 651.94 519.01 648.1 505.88 644.3V644.29C515.91 603.4 496.24 578.74 496.24 578.74C509.35 578.03 529.62 574.72 550.32 562.83C585.35 542.7 621.35 614.7 576.35 636.7Z" fill="#404040"/>
<path d="M505.88 644.29C500.05 642.62 496.79 640.94 496.79 640.94L479.49 588.99C482.43 590.76 485.26 592.22 487.84 593.19C487.71 592.97 485.66 588.93 483.36 583.28L483.35 583.27H483.34C482.73 581.78 482.1 580.17 481.49 578.48C481.49 578.48 487.15 579.23 496.24 578.74C496.24 578.74 515.91 603.4 505.88 644.29Z" fill="white"/>
<path d="M186.68 768.92C186.68 768.92 171.35 802.7 171.35 815.7L75.85 837.2C75.85 837.2 10.85 839.2 4.85 831.2C-1.15 823.2 -14.15 759.2 59.85 762.2C59.85 762.2 70.19 761.75 77.52 748.47L139.85 713.2L186.68 768.92Z" fill="white"/>
<path d="M21.25 835.86C19.7 828.99 19.03 821.93 19.04 814.86C19.01 811.32 19.27 807.77 19.7 804.21C20.16 800.66 20.88 797.12 22.08 793.65C22.66 791.92 23.41 790.22 24.27 788.56C25.16 786.92 26.23 785.33 27.49 783.9C29.97 781.23 32.69 778.78 35.75 776.82C38.77 774.82 42.08 773.28 45.5 772.21C48.93 771.19 52.48 770.51 56.01 770.71C52.57 771.4 49.29 772.57 46.2 774.04C43.1 775.49 40.21 777.29 37.55 779.36C34.92 781.47 32.48 783.77 30.35 786.37C28.36 788.83 26.92 791.8 25.85 794.95C24.75 798.09 24.02 801.42 23.43 804.77C22.81 808.13 22.48 811.55 22.14 814.99C21.56 821.87 21.35 828.83 21.25 835.86Z" fill="#BABABA"/>
<path d="M60.13 837.42C58.47 831.93 57.44 826.3 56.77 820.62C56.1 814.93 55.84 809.17 56.32 803.36C56.59 800.46 57.01 797.53 57.92 794.63C58.39 793.19 58.98 791.74 59.81 790.36C60.28 789.68 60.72 789 61.34 788.39C61.64 788.06 61.92 787.83 62.19 787.59L63.03 786.87C65.27 784.98 67.73 783.32 70.4 782.08C71.74 781.47 73.12 780.96 74.54 780.61C75.96 780.27 77.42 780.04 78.86 780.19C76.08 780.86 73.63 782.22 71.37 783.79C69.1 785.34 67.07 787.21 65.16 789.16L64.46 789.91C64.22 790.16 63.98 790.41 63.84 790.64C63.47 791.06 63.18 791.59 62.88 792.11C62.35 793.22 61.9 794.42 61.57 795.7C60.9 798.25 60.55 800.97 60.31 803.7C59.84 809.19 59.85 814.79 59.88 820.42C59.94 826.05 60.1 831.7 60.13 837.42Z" fill="#BABABA"/>
<path d="M412 768.92C412 768.92 427.33 802.7 427.33 815.7L522.83 837.2C522.83 837.2 587.83 839.2 593.83 831.2C599.83 823.2 612.83 759.2 538.83 762.2C538.83 762.2 528.49 761.75 521.16 748.47L458.83 713.2L412 768.92Z" fill="white"/>
<path d="M577.43 835.86C577.33 828.83 577.12 821.88 576.54 814.99C576.2 811.55 575.88 808.13 575.25 804.77C574.65 801.42 573.93 798.09 572.83 794.95C571.77 791.8 570.32 788.83 568.33 786.37C566.2 783.77 563.76 781.47 561.13 779.36C558.47 777.29 555.58 775.48 552.48 774.04C549.39 772.56 546.12 771.4 542.67 770.71C546.2 770.52 549.76 771.19 553.18 772.21C556.6 773.28 559.91 774.82 562.93 776.82C565.99 778.78 568.71 781.24 571.19 783.9C572.45 785.34 573.52 786.92 574.41 788.56C575.26 790.22 576.02 791.91 576.6 793.65C577.79 797.11 578.51 800.66 578.98 804.21C579.41 807.76 579.67 811.31 579.64 814.86C579.65 821.93 578.98 828.99 577.43 835.86Z" fill="#BABABA"/>
<path d="M538.56 837.42C538.58 831.7 538.74 826.05 538.82 820.42C538.85 814.8 538.86 809.19 538.39 803.7C538.15 800.97 537.8 798.24 537.13 795.7C536.8 794.43 536.35 793.22 535.82 792.11C535.52 791.6 535.23 791.06 534.86 790.64C534.72 790.42 534.47 790.16 534.24 789.91L533.54 789.16C531.62 787.21 529.6 785.34 527.33 783.79C525.08 782.22 522.62 780.86 519.84 780.19C521.28 780.05 522.74 780.28 524.16 780.61C525.58 780.96 526.97 781.47 528.3 782.08C530.97 783.32 533.43 784.98 535.67 786.87L536.51 787.59C536.79 787.83 537.07 788.05 537.36 788.39C537.98 789 538.43 789.68 538.89 790.36C539.72 791.74 540.31 793.19 540.78 794.63C541.69 797.53 542.11 800.45 542.38 803.36C542.86 809.17 542.6 814.93 541.93 820.62C541.25 826.3 540.22 831.94 538.56 837.42Z" fill="#BABABA"/>
<path d="M218.22 738.27L208.35 770.7C158.35 768.7 66.98 745.94 66.98 745.94C69.15 737.43 72.94 724.71 77.52 710.1C77.52 710.1 120.58 731.33 218.22 738.27Z" fill="#023E73"/>
<path d="M247.4 642.34L218.22 738.27C120.58 731.33 77.52 710.1 77.52 710.1C93.24 659.89 118.2 587.41 118.2 587.41C129.22 579.45 147.58 566.03 150.55 562.83C150.55 562.83 146.85 577.2 142.85 586.2C142.85 586.2 175.76 598.25 228.87 604.94C228.66 633.31 230.96 655.2 230.96 655.2C234.78 648.94 240.97 644.92 247.4 642.34Z" fill="#EDEDED"/>
<path d="M532.35 747.7C532.35 747.7 441.97 769.7 390.35 772.7L378.56 738.47C379.69 738.43 455.47 735.38 519.92 710.39L532.35 747.7Z" fill="#023E73"/>
<path d="M519.92 710.39C455.47 735.38 379.69 738.43 378.56 738.47C378.55 738.47 378.55 738.47 378.55 738.47L347.4 641.95C354.19 644.51 360.83 648.62 364.85 655.2C364.85 655.2 367.14 633.34 366.94 605.02C394.91 601.48 424.43 595.5 454.85 586.2C454.85 586.2 446.66 567.42 446.25 562.31C446.25 562.31 464.25 579.81 479.49 588.99L496.79 640.94L519.92 710.39Z" fill="#EDEDED"/>
<path d="M386.51 28.2401C380.17 10.2701 367.85 12.2001 367.85 12.2001C366.85 16.2001 355.85 33.2001 349.85 36.2001C343.85 39.2001 340.85 25.7001 340.85 25.7001C340.85 25.7001 352.35 14.2001 356.35 5.20005C360.35 -3.79995 375.35 0.200051 380.35 7.20005C383.02 10.9401 386.54 18.6601 386.51 28.2401Z" fill="#404040"/>
<path d="M402.35 136.2C402.35 136.2 407.35 141.2 410.35 140.2C410.35 140.2 407.35 143.2 401.35 143.2C401.35 143.2 400.35 154.2 391.35 162.2C391.35 162.2 391.35 154.2 390.35 152.2C390.35 152.2 385.35 156.2 384.35 160.2C384.35 160.2 389.35 170.2 395.35 171.2C395.35 171.2 392.35 173.2 389.35 173.2C389.35 173.2 393.18 179.36 393.77 182.41C389.96 184.56 384.86 190.24 378.9 198.42C378.9 198.42 344.35 224.7 325.35 224.7C325.35 224.7 342.08 234.48 358.97 229.34C356.77 233.02 354.54 236.85 352.28 240.78C352.28 240.78 331.64 243.2 316.25 262.19C316.88 261.88 338.44 251.01 345.59 252.59C329.3 281.73 312.28 314.83 298.85 341.65C285.71 315.37 269.01 282.86 252.92 253.94C269.98 253.68 279.85 262.2 279.85 262.2C269.85 243.2 245.65 241.07 245.65 241.07C243.7 237.66 241.77 234.33 239.86 231.09C255.87 234.99 270.85 225.2 270.85 225.2C251.16 224.22 219.84 198.98 218.86 198.19C218.85 198.18 218.84 198.17 218.84 198.17C212.82 189.81 207.64 183.94 203.75 181.6C203.65 179 207.85 173.2 207.85 173.2C204.85 173.2 201.85 171.2 201.85 171.2C207.85 170.2 212.85 160.2 212.85 160.2C211.85 156.2 206.85 152.2 206.85 152.2C205.85 154.2 205.85 162.2 205.85 162.2C196.85 154.2 195.85 143.2 195.85 143.2C189.85 143.2 186.85 140.2 186.85 140.2C189.85 141.2 194.85 136.2 194.85 136.2C183.85 135.2 175.85 126.2 175.85 126.2C182.85 127.2 191.85 114.2 191.85 114.2C183.85 114.2 182.85 110.2 182.85 110.2C189.74 110.2 200.51 93.7301 200.84 93.2101L194.85 96.2001C194.85 88.2001 204.85 80.2001 204.85 80.2001C200.85 80.2001 199.85 78.2001 199.85 78.2001C211.85 79.2001 221.85 56.2001 221.85 56.2001C203.85 35.2001 211.85 14.2001 216.85 7.20005C221.85 0.200051 236.85 -3.79995 240.85 5.20005C244.85 14.2001 256.35 25.7001 256.35 25.7001C256.35 25.7001 295.85 13.2001 340.85 25.7001C340.85 25.7001 343.85 39.2001 349.85 36.2001C355.85 33.2001 366.85 16.2001 367.85 12.2001C367.85 12.2001 380.17 10.2701 386.51 28.2401C386.48 36.6101 383.75 46.4101 375.35 56.2001C375.35 56.2001 385.35 79.2001 397.35 78.2001C397.35 78.2001 396.35 80.2001 392.35 80.2001C392.35 80.2001 402.35 88.2001 402.35 96.2001L396.36 93.2101C396.69 93.7301 407.46 110.2 414.35 110.2C414.35 110.2 413.35 114.2 405.35 114.2C405.35 114.2 414.35 127.2 421.35 126.2C421.35 126.2 413.35 135.2 402.35 136.2Z" fill="white"/>
<path d="M325.85 113.2C325.85 124.2 317.85 124.2 317.85 124.2L315.85 118.2C310.85 126.2 298.85 132.2 298.85 132.2C298.85 132.2 286.85 126.2 281.85 118.2L279.85 124.2C279.85 124.2 271.85 124.2 271.85 113.2C271.85 102.2 298.85 113.2 298.85 113.2C298.85 113.2 325.85 102.2 325.85 113.2Z" fill="#404040"/>
<path d="M259.85 118.2C258.84 121.35 257.93 124.49 257.27 127.66C256.93 129.24 256.63 130.83 256.43 132.41C256.23 133.99 256.06 135.57 256.05 137.13C256.04 138.69 256.13 140.23 256.35 141.72C256.6 143.2 257.02 144.62 257.65 145.88C258.28 147.14 259.08 148.28 260.12 149.19C261.15 150.1 262.37 150.81 263.7 151.37C266.58 152.5 269.57 153.27 272.63 153.62C275.7 154 278.81 153.73 281.89 153.19C284.96 152.59 287.99 151.61 290.87 150.21C293.76 148.84 296.51 147.11 298.85 144.77C297.2 147.68 294.62 149.99 291.85 151.91C289.04 153.8 285.93 155.29 282.61 156.22C280.96 156.73 279.25 157.04 277.54 157.23C276.68 157.29 275.81 157.38 274.94 157.42L272.33 157.38C268.85 157.16 265.42 156.33 262.18 155.06C260.5 154.34 258.84 153.37 257.44 152.08C256.05 150.77 254.95 149.16 254.21 147.44C252.75 143.98 252.54 140.32 252.94 136.92C253.29 133.49 254.24 130.22 255.39 127.09C256.61 124 258.04 120.98 259.85 118.2Z" fill="#BABABA"/>
<path d="M337.43 118.2C339.25 120.98 340.67 123.99 341.89 127.11C343.04 130.25 343.99 133.51 344.34 136.94C344.74 140.35 344.53 144 343.07 147.46C342.34 149.18 341.23 150.79 339.84 152.1C338.44 153.4 336.78 154.36 335.1 155.08C331.86 156.35 328.44 157.17 324.95 157.4L322.34 157.44C321.47 157.4 320.61 157.31 319.74 157.25C318.02 157.05 316.31 156.75 314.67 156.24C311.36 155.31 308.24 153.82 305.43 151.93C302.67 150.01 300.08 147.7 298.43 144.79C300.77 147.13 303.52 148.86 306.41 150.23C309.28 151.63 312.32 152.61 315.39 153.21C318.47 153.74 321.58 154.01 324.65 153.64C327.71 153.29 330.71 152.53 333.58 151.39C334.91 150.83 336.13 150.12 337.16 149.21C338.2 148.3 338.99 147.16 339.63 145.9C340.26 144.63 340.68 143.22 340.93 141.74C341.15 140.25 341.24 138.71 341.23 137.15C341.22 135.59 341.05 134.01 340.85 132.43C340.65 130.84 340.36 129.26 340.01 127.68C339.35 124.49 338.45 121.35 337.43 118.2Z" fill="#BABABA"/>
<path d="M298.64 145.07C297.81 144 297.38 142.93 297.07 141.85C296.78 140.78 296.64 139.71 296.64 138.63C296.64 137.56 296.77 136.49 297.07 135.41C297.38 134.34 297.81 133.27 298.64 132.19C299.47 133.26 299.9 134.33 300.21 135.41C300.5 136.48 300.64 137.55 300.64 138.63C300.64 139.7 300.5 140.77 300.21 141.85C299.9 142.93 299.47 144 298.64 145.07Z" fill="#BABABA"/>
<path d="M242.51 108.31L235.85 92.2001L239.18 114.06H254.43L242.51 108.31Z" fill="#404040"/>
<path d="M243.85 135.2L231.45 120.26L227.85 104.2L233.85 79.2001L220.85 104.2L225.85 122.2L243.85 135.2Z" fill="#404040"/>
<path d="M271.35 104.7C271.18 103.12 271.65 101.66 272.32 100.36C273.01 99.0701 273.95 97.9101 275.09 96.9901C276.23 96.0801 277.52 95.3301 278.93 94.9301C280.32 94.5001 281.83 94.3701 283.35 94.7101C282.36 95.9501 281.37 96.8101 280.44 97.6901C279.48 98.5201 278.58 99.3301 277.63 100.08C276.68 100.83 275.75 101.6 274.74 102.35C273.72 103.11 272.67 103.87 271.35 104.7Z" fill="#BABABA"/>
<path d="M248.85 55.2001C248.85 55.2001 266.85 52.2001 274.85 60.2001C282.85 68.2001 285.85 47.2001 271.85 46.2001C257.85 45.2001 248.85 55.2001 248.85 55.2001Z" fill="#404040"/>
<path d="M240.35 71.7001C240.35 71.7001 242.35 61.7001 262.35 61.7001C282.35 61.7001 283.35 81.7001 279.35 86.7001C275.35 91.7001 269.9 94.7001 258.63 94.7001C247.35 94.7001 237.35 84.4201 240.35 72.0601" fill="#E0B344"/>
<path d="M264.85 94.2001C269.821 94.2001 273.85 88.1559 273.85 80.7001C273.85 73.2442 269.821 67.2001 264.85 67.2001C259.879 67.2001 255.85 73.2442 255.85 80.7001C255.85 88.1559 259.879 94.2001 264.85 94.2001Z" fill="#404040"/>
<path d="M354.7 108.31L361.35 92.2001L358.03 114.06H342.77L354.7 108.31Z" fill="#404040"/>
<path d="M353.35 135.2L365.76 120.26L369.35 104.2L363.35 79.2001L376.35 104.2L371.35 122.2L353.35 135.2Z" fill="#404040"/>
<path d="M325.85 104.7C324.54 103.86 323.48 103.11 322.46 102.35C321.45 101.59 320.51 100.83 319.57 100.08C318.62 99.3301 317.73 98.5201 316.76 97.6901C315.82 96.8101 314.84 95.9501 313.85 94.7101C315.37 94.3701 316.87 94.5001 318.27 94.9301C319.68 95.3401 320.97 96.0801 322.11 96.9901C323.25 97.9101 324.19 99.0701 324.88 100.36C325.55 101.66 326.02 103.12 325.85 104.7Z" fill="#BABABA"/>
<path d="M348.35 55.2001C348.35 55.2001 330.35 52.2001 322.35 60.2001C314.35 68.2001 311.35 47.2001 325.35 46.2001C339.35 45.2001 348.35 55.2001 348.35 55.2001Z" fill="#404040"/>
<path d="M356.85 71.7001C356.85 71.7001 354.85 61.7001 334.85 61.7001C314.85 61.7001 313.85 81.7001 317.85 86.7001C321.85 91.7001 327.3 94.7001 338.57 94.7001C349.85 94.7001 359.85 84.4201 356.85 72.0601" fill="#E0B344"/>
<path d="M332.35 94.2001C337.321 94.2001 341.35 88.1559 341.35 80.7001C341.35 73.2442 337.321 67.2001 332.35 67.2001C327.379 67.2001 323.35 73.2442 323.35 80.7001C323.35 88.1559 327.379 94.2001 332.35 94.2001Z" fill="#404040"/>
<path d="M210.85 28.2401C217.19 10.2701 229.51 12.2001 229.51 12.2001C230.51 16.2001 241.51 33.2001 247.51 36.2001C253.51 39.2001 256.51 25.7001 256.51 25.7001C256.51 25.7001 245.01 14.2001 241.01 5.20005C237.01 -3.79995 222.01 0.200051 217.01 7.20005C214.34 10.9401 210.82 18.6601 210.85 28.2401Z" fill="#404040"/>
<path d="M270.85 225.2C270.85 225.2 255.87 234.99 239.86 231.09C236.09 224.71 232.44 218.7 228.94 213.2C225.39 207.61 222.01 202.56 218.86 198.19C219.84 198.98 251.16 224.22 270.85 225.2Z" fill="#404040"/>
<path d="M279.85 262.2C279.85 262.2 269.98 253.68 252.92 253.94C250.48 249.55 248.05 245.25 245.65 241.07C245.65 241.07 269.85 243.2 279.85 262.2Z" fill="#404040"/>
<path d="M378.9 198.42C375.78 202.71 372.42 207.69 368.89 213.2C365.71 218.18 362.38 223.59 358.97 229.34C342.08 234.48 325.35 224.7 325.35 224.7C344.35 224.7 378.9 198.42 378.9 198.42Z" fill="#404040"/>
<path d="M352.28 240.78C350.07 244.62 347.84 248.57 345.59 252.59C338.44 251.01 316.88 261.88 316.25 262.19C331.64 243.2 352.28 240.78 352.28 240.78Z" fill="#404040"/>
<path d="M316.6 35.2001L325.6 43.2001L316.6 39.2001H301.35V45.2001H305.6L298.23 56.91L290.85 45.2001H295.1V39.2001H279.85L270.85 43.2001L279.85 35.2001H293.85L296.85 32.2001V30.2001H272.8L261.85 38.2001L273.85 26.2001H322.6L334.6 38.2001L323.65 30.2001H299.6V32.2001L302.6 35.2001H316.6Z" fill="#404040"/>
<path d="M254.85 194.2C254.85 194.2 280.01 198.77 298.43 227.48C298.43 227.48 319.85 197.2 342.85 194.2C342.85 194.2 321.35 188.2 298.6 213.2C298.6 213.2 281.85 194.2 254.85 194.2Z" fill="#404040"/>
<path d="M286.85 239.2C286.85 239.2 294.35 236.95 298.6 244.07C298.6 244.07 301.84 237.52 309.84 238.86C309.84 238.86 298.6 248.74 298.6 259.47C298.6 259.47 299.85 250.2 286.85 239.2Z" fill="#404040"/>
<path d="M280.39 274.52C280.39 274.52 292.14 270.99 298.8 282.16C298.8 282.16 303.87 271.9 316.42 273.99C316.42 273.99 298.8 289.47 298.8 306.28C298.8 306.28 300.76 291.75 280.39 274.52Z" fill="#404040"/>
</svg>
