<svg width="291" height="399" viewBox="0 0 194 266" fill="none" xmlns="http://www.w3.org/2000/svg">
<path d="M91.5 263C40.9659 263 0 259.891 0 256.057C0 252.222 40.9659 249.114 91.5 249.114C142.034 249.114 183 252.222 183 256.057C183 259.891 142.034 263 91.5 263Z" fill="#F74464"/>
<path d="M77.8212 143.926C77.9065 143.912 77.8425 143.919 77.8212 143.926V143.926Z" fill="#F4F4F4"/>
<g filter="url(#filter0_d_522_3)">
<path d="M136.369 195.293C134.688 190.545 126.428 189.201 126.428 189.201C126.467 187.221 126.431 185.296 126.338 183.453C126.324 183.159 126.308 182.869 126.291 182.581C126.277 182.333 126.26 182.084 126.243 181.838C126.24 181.799 126.238 181.76 126.235 181.721C126.218 181.436 126.196 181.154 126.173 180.875C126.151 180.595 126.128 180.316 126.103 180.042C126.095 179.947 126.086 179.852 126.078 179.757C126.047 179.416 126.016 179.078 125.983 178.746C125.918 178.126 125.848 177.517 125.776 176.922C125.742 176.634 125.706 176.352 125.669 176.073C125.652 175.933 125.633 175.794 125.613 175.657C125.596 175.517 125.577 175.38 125.557 175.246C125.538 175.109 125.518 174.973 125.498 174.838C125.462 174.573 125.423 174.313 125.384 174.056C125.381 174.051 125.381 174.048 125.381 174.042C125.342 173.78 125.3 173.523 125.258 173.269C125.232 173.101 125.204 172.939 125.176 172.777C125.154 172.637 125.132 172.501 125.106 172.364C125.073 172.168 125.039 171.978 125.006 171.788C124.986 171.668 124.964 171.551 124.941 171.434C124.826 170.808 124.712 170.21 124.597 169.646C124.538 169.361 124.482 169.087 124.423 168.819C124.031 166.984 123.659 165.532 123.387 164.548C123.362 164.459 123.34 164.372 123.314 164.291C123.247 164.048 123.186 163.839 123.135 163.666C123.116 163.599 123.096 163.534 123.079 163.479C123.071 163.451 123.062 163.425 123.054 163.398C123.034 163.333 123.018 163.28 123.004 163.236C122.998 163.216 122.992 163.199 122.987 163.185C122.973 163.141 122.964 163.11 122.962 163.101V163.099L123.911 149.337L123.914 149.339C126.672 151.937 128.836 155.135 130.533 158.627C130.712 158.995 130.886 159.367 131.054 159.741C131.116 159.873 131.174 160.007 131.233 160.141C131.309 160.311 131.382 160.484 131.454 160.657C131.552 160.886 131.648 161.115 131.74 161.345C131.947 161.856 132.146 162.37 132.336 162.889C132.398 163.06 132.46 163.23 132.521 163.403C132.692 163.886 132.854 164.37 133.011 164.858C133.059 165.001 133.104 165.143 133.148 165.289C133.174 165.37 133.199 165.451 133.224 165.532C133.274 165.688 133.322 165.844 133.367 166.001C133.473 166.356 133.577 166.713 133.678 167.073C133.739 167.288 133.798 167.504 133.854 167.721C133.918 167.959 133.98 168.199 134.042 168.439C134.165 168.92 134.28 169.4 134.392 169.878C134.448 170.118 134.501 170.358 134.554 170.596C134.607 170.836 134.658 171.076 134.708 171.313C134.803 171.766 134.893 172.216 134.98 172.665C135.279 174.241 135.523 175.799 135.722 177.316C135.887 178.57 136.019 179.799 136.125 180.983C136.859 189.109 136.369 195.293 136.369 195.293Z" fill="#161616"/>
<path d="M111.447 189.427C111.447 189.427 104.652 190.905 102.792 193.857C102.512 194.301 102.344 194.782 102.327 195.293C102.327 195.293 101.977 192.899 101.686 189.165C101.566 187.581 101.454 185.757 101.384 183.774C101.347 182.679 101.319 181.534 101.314 180.355C101.275 173.889 101.773 166.364 103.683 160.007C104.951 155.781 106.841 152.071 109.608 149.529C109.823 149.334 110.047 149.141 110.274 148.96C110.277 148.957 110.277 148.954 110.28 148.954C110.288 148.946 110.294 148.94 110.302 148.934L110.322 149.527L110.736 163.001C110.736 163.001 109.905 172.537 110.367 181.123C110.431 182.268 110.515 183.397 110.63 184.483C110.817 186.285 111.083 187.969 111.447 189.427Z" fill="#161616"/>
<path d="M126.428 155.769C126.428 157.029 126.182 158.23 125.736 159.331C125.137 160.808 124.174 162.101 122.962 163.099V163.101C121.315 164.453 119.207 165.266 116.908 165.266C114.553 165.266 112.397 164.414 110.736 163.001C109.821 162.224 109.056 161.275 108.49 160.208H108.488C107.785 158.884 107.387 157.373 107.387 155.769C107.387 153.381 108.269 151.197 109.731 149.529C109.905 149.331 110.084 149.141 110.274 148.96C110.277 148.957 110.277 148.954 110.28 148.954C110.288 148.946 110.294 148.94 110.302 148.934C112.013 147.284 114.343 146.272 116.908 146.272C119.394 146.272 121.657 147.222 123.351 148.778C123.547 148.957 123.732 149.141 123.911 149.337L123.914 149.339C125.476 151.029 126.428 153.289 126.428 155.769Z" fill="#252526"/>
<path d="M84.1854 140.049C84.0874 141.27 83.8914 142.597 83.5861 144.038C83.4881 144.504 83.3817 144.957 83.2753 145.398C82.7237 147.647 82.0545 149.591 81.29 151.27C80.5228 152.948 79.666 154.359 78.7335 155.54C75.0514 160.222 70.1343 161.09 65.5897 160.671C61.8796 160.331 58.4186 159.127 56.0861 158.445C55.2769 156.842 46.9241 139.161 65.5169 127.167C65.7493 127.016 65.9845 126.868 66.2254 126.72C66.2254 126.72 85.5854 122.321 84.1854 140.049Z" fill="white"/>
<path d="M109.608 149.529C106.841 152.071 104.951 155.781 103.683 160.007C88.52 159.06 78.7335 155.54 78.7335 155.54C79.666 154.359 80.5228 152.948 81.29 151.27C82.0545 149.591 82.7237 147.647 83.2753 145.398C91.0289 148.574 100.58 149.563 109.608 149.529Z" fill="#252526"/>
<path d="M139.734 146.272V156.691C139.538 156.741 139.342 156.792 139.146 156.836C136.217 157.565 133.344 158.155 130.533 158.627C128.836 155.135 126.672 151.937 123.914 149.339L123.911 149.337C123.732 149.141 123.547 148.957 123.351 148.778C130.959 148.01 136.878 146.867 138.942 146.44C139.46 146.334 139.734 146.272 139.734 146.272Z" fill="#252526"/>
<path d="M67.7654 174.623C68.6055 172.947 68.6055 170.154 68.6055 170.154C66.7126 170.942 63.3048 172.973 60.6923 174.593C58.6706 175.847 57.1249 176.858 57.1249 176.858C57.4302 175.646 58.6202 173.193 60.0175 170.554C61.7788 169.799 69.3223 166.534 72.5256 164.568C72.5256 164.568 71.9656 170.154 72.2456 172.668C72.2456 172.668 85.0758 178.227 101.314 180.355C101.319 181.534 101.347 182.679 101.384 183.774C82.5557 181.467 67.7654 174.623 67.7654 174.623Z" fill="#023E73"/>
<path d="M101.314 180.355C85.0758 178.227 72.2456 172.668 72.2456 172.668C71.9656 170.154 72.5256 164.568 72.5256 164.568C69.3223 166.534 61.7788 169.799 60.0175 170.554C62.4844 165.9 65.5897 160.671 65.5897 160.671C70.1343 161.09 75.0514 160.222 78.7335 155.54C78.7335 155.54 88.52 159.06 103.683 160.007C101.773 166.364 101.275 173.889 101.314 180.355Z" fill="#EDEDED"/>
<path d="M126.338 183.453C121.071 184.355 115.774 184.634 110.63 184.483C110.515 183.397 110.431 182.268 110.367 181.123C115.541 181.305 120.873 181.028 126.103 180.042C126.128 180.316 126.151 180.595 126.173 180.875C126.196 181.154 126.215 181.436 126.235 181.721C126.238 181.76 126.24 181.799 126.243 181.838C126.26 182.084 126.277 182.333 126.291 182.581C126.308 182.869 126.324 183.159 126.338 183.453Z" fill="#023E73"/>
<path d="M126.103 180.042C120.873 181.028 115.541 181.305 110.367 181.123C109.905 172.537 110.736 163.001 110.736 163.001C112.397 164.414 114.553 165.266 116.908 165.266C119.207 165.266 121.315 164.453 122.962 163.101C123.023 163.289 125.244 170.196 126.103 180.042Z" fill="#EDEDED"/>
<path d="M147.289 175.741C145.589 176.788 143.853 177.729 142.089 178.562C140.132 179.495 138.141 180.296 136.125 180.983C136.019 179.799 135.887 178.57 135.722 177.316C138.186 176.35 140.588 175.174 142.893 173.76C142.893 173.76 138.284 167.816 139.426 160.607C140.868 169.227 147.289 175.741 147.289 175.741Z" fill="#023E73"/>
<path d="M142.893 173.76C140.588 175.174 138.186 176.35 135.722 177.316C134.926 171.246 133.398 164.52 130.533 158.627C133.344 158.155 136.217 157.565 139.146 156.836C139.118 158.127 139.222 159.389 139.426 160.607C138.284 167.816 142.893 173.76 142.893 173.76Z" fill="#EDEDED"/>
<path d="M101.686 189.165C96.9456 194.346 89.2648 217.052 85.4034 229.138C62.4424 218.848 42.4915 220.228 42.4915 220.228L52.0707 196.209L58.2702 180.668L60.6923 174.593C63.3048 172.973 66.7126 170.942 68.6055 170.154C68.6055 170.154 68.6055 172.947 67.7654 174.623C67.7654 174.623 82.5557 181.467 101.384 183.774C101.454 185.757 101.566 187.581 101.686 189.165Z" fill="#EDEDED"/>
<path d="M142.126 198.083C141.552 203.052 137.455 216.882 134.82 225.448C110.591 229.903 96.9735 218.029 96.9735 218.029C99.5273 211.452 103.204 202.603 105.564 199.645C105.564 199.645 103.587 196.765 102.792 193.857C104.652 190.905 111.447 189.427 111.447 189.427C111.083 187.969 110.817 186.285 110.63 184.483C115.774 184.634 121.071 184.355 126.338 183.453C126.431 185.296 126.467 187.221 126.428 189.201C126.428 189.201 134.688 190.545 136.369 195.293C136.369 195.293 136.859 189.109 136.125 180.983C138.141 180.296 140.132 179.495 142.089 178.562C142.397 182.098 142.87 191.634 142.126 198.083Z" fill="#EDEDED"/>
<path d="M105.564 199.645C105.559 199.097 105.69 198.6 105.842 198.125C106.001 197.65 106.203 197.198 106.441 196.765C106.676 196.332 106.95 195.919 107.261 195.53C107.575 195.142 107.922 194.771 108.367 194.458C108.331 195 108.194 195.488 108.031 195.958C107.863 196.427 107.659 196.874 107.424 197.301C107.188 197.731 106.92 198.142 106.617 198.536C106.315 198.93 105.979 199.298 105.564 199.645Z" fill="#BABABA"/>
<path d="M100.017 225.434C100.017 225.434 88.5424 246.182 97.5028 251.21C106.463 256.238 150.985 254.562 150.985 254.562C150.985 254.562 160.226 229.423 131.664 234.451C131.664 234.451 130.807 233.426 130.816 231.981C130.824 230.54 108.703 223.278 108.703 223.278L100.017 225.434Z" fill="white"/>
<path d="M130.961 240.733C132.392 240.953 133.745 241.646 134.879 242.601C136.013 243.565 136.889 244.852 137.402 246.26C137.654 246.967 137.813 247.699 137.909 248.436C137.937 248.805 137.984 249.174 137.976 249.542C137.976 249.727 137.984 249.911 137.976 250.092L137.939 250.64C137.819 252.098 137.452 253.511 136.861 254.821C136.999 253.394 137.119 251.995 137.06 250.618C137.041 249.93 136.968 249.252 136.861 248.584C136.738 247.919 136.581 247.266 136.355 246.637C135.895 245.383 135.204 244.224 134.28 243.232C133.35 242.238 132.233 241.392 130.961 240.733Z" fill="#BABABA"/>
<path d="M138.802 237.66C140.611 237.719 142.414 238.375 143.923 239.473C144.685 240.015 145.349 240.702 145.911 241.459C146.469 242.221 146.897 243.073 147.208 243.959C147.373 244.4 147.474 244.855 147.591 245.308C147.664 245.769 147.765 246.224 147.79 246.688C147.88 247.609 147.857 248.531 147.779 249.442C147.597 251.26 147.129 253.025 146.441 254.687C146.679 252.905 146.891 251.146 146.905 249.397C146.88 248.526 146.88 247.657 146.737 246.808C146.693 246.38 146.592 245.964 146.513 245.545C146.401 245.135 146.306 244.721 146.155 244.325C145.606 242.727 144.674 241.274 143.383 240.149C142.092 239.026 140.524 238.174 138.802 237.66Z" fill="#BABABA"/>
<path d="M134.82 225.448C133.529 229.649 132.588 232.582 132.588 232.582C132.588 232.582 114.248 239.146 94.0866 225.739C94.0866 225.739 95.2851 222.381 96.9735 218.029C96.9735 218.029 110.591 229.903 134.82 225.448Z" fill="#023E73"/>
<path d="M34.2311 192.17C32.2038 190.989 30.0673 189.422 27.5836 187.332C18.6232 179.791 16.3831 167.501 22.2634 163.032C28.1436 158.562 35.984 159.68 39.6242 171.97C40.6798 175.54 42.6959 177.768 45.0228 179.134C34.1583 180.009 34.2283 191.919 34.2311 192.17Z" fill="#404040"/>
<path d="M50.5811 196.123C48.0301 195.966 45.8404 195.785 43.8523 195.483C43.8523 195.483 40.607 185.835 48.8618 180.648C50.4494 181.025 52.0259 181.154 53.4232 181.157C46.3585 191.042 50.5811 196.123 50.5811 196.123Z" fill="#404040"/>
<path d="M45.0256 179.134C46.2493 179.855 47.5597 180.335 48.8618 180.648C40.607 185.835 43.8523 195.483 43.8523 195.483C40.3074 194.947 37.4037 194.025 34.2311 192.173L34.2311 192.17C34.2283 191.919 34.1583 180.009 45.0256 179.134Z" fill="white"/>
<path d="M58.2702 180.668L52.0707 196.209C51.5611 196.181 51.0655 196.15 50.5811 196.123C50.5811 196.123 46.3585 191.042 53.4232 181.157C56.2065 181.162 58.2702 180.668 58.2702 180.668Z" fill="white"/>
<path d="M84.3506 258H42.9843C42.9843 258 37.7677 247.595 43.9391 240.353L45.0312 231.928L45.6388 227.247L63.9853 223.923L79.988 235.185L79.6464 237.14L79.1535 239.942C84.5158 246.126 84.6362 255.048 84.3506 258Z" fill="white"/>
<path d="M85.4034 229.138C83.9418 233.716 83.0261 236.772 83.0261 236.772C82.0825 236.216 81.066 235.688 79.988 235.185C69.7087 230.412 54.014 228.16 45.6388 227.247C42.1275 226.864 39.9042 226.716 39.9042 226.716L42.4915 220.228C42.4915 220.228 62.4424 218.848 85.4034 229.138Z" fill="#023E73"/>
<path d="M45.6388 227.247L45.0312 231.928C38.3977 231.836 39.9042 226.716 39.9042 226.716C39.9042 226.716 42.1275 226.864 45.6388 227.247Z" fill="#042F4F"/>
<path d="M83.0261 236.772C81.6261 237.889 79.6464 237.14 79.6464 237.14L79.988 235.185C81.066 235.688 82.0825 236.216 83.0261 236.772Z" fill="#042F4F"/>
<path d="M43.9391 240.353C45.0088 239.157 46.2745 238.14 47.6017 237.221C48.9374 236.311 50.3682 235.532 51.8635 234.895C54.854 233.621 58.1218 232.928 61.3979 232.962C64.6713 232.99 67.9278 233.677 70.9184 234.934C73.9201 236.168 76.695 237.883 79.1507 239.939C76.4234 238.258 73.5841 236.797 70.6076 235.747C69.8711 235.465 69.1067 235.272 68.3563 235.037C67.9782 234.928 67.5918 234.853 67.211 234.761L66.637 234.627C66.4466 234.585 66.2506 234.56 66.0574 234.523C64.5201 234.213 62.952 234.088 61.3895 234.076C61.0003 234.082 60.6083 234.057 60.2163 234.088L59.0458 234.155L57.881 234.286C57.4946 234.336 57.1081 234.414 56.7217 234.47C55.1789 234.736 53.664 235.169 52.1827 235.699C50.7071 236.244 49.2622 236.895 47.8873 237.682C46.5097 238.459 45.1796 239.339 43.9391 240.353Z" fill="#BABABA"/>
<path d="M54.2324 258C53.7396 256.656 53.4792 255.246 53.3196 253.827C53.1712 252.405 53.16 250.967 53.2832 249.537C53.4008 248.104 53.706 246.685 54.1484 245.316C54.6048 243.95 55.2797 242.654 56.1449 241.52C55.6941 242.878 55.2713 244.19 54.9996 245.548C54.7308 246.903 54.5152 248.26 54.4004 249.637C54.2828 251.011 54.2156 252.394 54.1988 253.785C54.1764 255.179 54.1988 256.578 54.2324 258Z" fill="#BABABA"/>
<path d="M70.994 258C70.9044 256.517 70.8708 255.056 70.8176 253.595C70.77 252.137 70.7168 250.685 70.6244 249.241C70.5264 247.799 70.4031 246.361 70.1511 244.95C70.0251 244.246 69.8767 243.545 69.6387 242.872C69.4147 242.196 69.1095 241.545 68.6475 240.959C69.2831 241.361 69.7591 241.992 70.1399 242.646C70.5124 243.311 70.7952 244.02 71.0052 244.744C71.4336 246.19 71.6408 247.682 71.7388 249.165C71.8312 250.651 71.8088 252.137 71.6912 253.612C71.568 255.092 71.3692 256.562 70.994 258Z" fill="#BABABA"/>
<path d="M84.1854 140.049C83.2165 139.6 82.2561 139.239 81.2844 138.912C80.3156 138.586 79.3356 138.309 78.3499 138.061C77.8515 137.957 77.3587 137.823 76.8546 137.734L76.1014 137.58C75.8494 137.541 75.5946 137.493 75.3426 137.446L74.9618 137.373L74.5781 137.318C74.3233 137.278 74.0657 137.234 73.8081 137.186C73.2929 137.097 72.7721 137.041 72.2456 136.915C72.7637 136.79 73.2929 136.703 73.8249 136.636C74.0909 136.614 74.3569 136.597 74.6229 136.583C74.8918 136.563 75.1578 136.558 75.4238 136.572C75.6898 136.58 75.9586 136.589 76.2274 136.602C76.4962 136.616 76.7594 136.658 77.0282 136.689C77.5631 136.742 78.0867 136.868 78.6131 136.977C79.6576 137.242 80.6768 137.611 81.6317 138.108C82.5781 138.614 83.4909 139.225 84.1854 140.049Z" fill="#BABABA"/>
<path d="M81.29 151.27C80.8196 151.015 80.338 150.828 79.848 150.669C79.358 150.51 78.8707 150.37 78.3723 150.253C77.3839 150.013 76.3814 149.831 75.3678 149.691C74.8637 149.602 74.3513 149.563 73.8445 149.49C73.3349 149.429 72.8197 149.387 72.3044 149.317C71.7892 149.275 71.2712 149.214 70.7476 149.149C70.2267 149.094 69.7003 149.041 69.1711 148.937C69.6891 148.792 70.2127 148.7 70.7364 148.602C71.2628 148.527 71.7948 148.482 72.3268 148.44C72.8589 148.423 73.3937 148.415 73.9285 148.437C74.4633 148.474 74.9982 148.501 75.5302 148.591C76.5942 148.736 77.6499 149.01 78.6523 149.426C79.1535 149.635 79.638 149.887 80.0916 150.186C80.5368 150.487 80.9764 150.825 81.29 151.27Z" fill="#BABABA"/>
<path d="M130.228 87.029C126.327 111.444 110.316 135.611 110.316 135.611L100.647 129.552C102.658 127.377 104.523 124.972 106.25 122.427C106.25 122.427 106.25 122.427 106.25 122.424C108.653 118.88 110.784 115.064 112.66 111.218C120.402 95.3275 123.776 78.8896 123.776 78.8896C123.785 78.8868 123.793 78.884 123.802 78.884C123.804 78.884 123.807 78.8812 123.81 78.8812C123.928 78.8505 124.048 78.8282 124.163 78.8198C124.166 78.8198 124.166 78.8198 124.168 78.8198C127.873 78.4539 130.228 87.029 130.228 87.029Z" fill="#252526"/>
<path d="M112.66 111.218C110.784 115.064 108.653 118.88 106.25 122.424C106.147 122.167 93.0422 89.2579 76.3058 80.3532C76.3058 80.3532 77.7059 73.3703 79.666 71.415C79.666 71.415 79.932 71.4067 80.5088 71.6189C81.8109 72.105 84.7034 73.725 89.7156 79.1605C90.8777 80.4203 92.1517 81.8839 93.5462 83.5877C94.7559 85.0626 96.0579 86.7161 97.4552 88.5736C97.5336 88.6769 97.612 88.7803 97.6904 88.8864C101.821 94.403 106.774 101.665 112.66 111.218Z" fill="#161616"/>
<path d="M182.999 98.4978C167.47 106.727 152.486 96.9196 152.486 96.9196C152.486 96.9196 152.049 93.0622 154.569 88.5931C154.569 88.5931 165.297 96.4392 179.054 91.2914C180.205 90.8584 181.381 90.3361 182.571 89.7104C182.571 89.7104 182.979 93.2438 182.999 98.4978Z" fill="#023E73"/>
<path d="M56.0861 158.445C56.0861 158.445 53.384 157.59 49.9762 155.54C49.9762 155.54 49.9762 155.54 49.9734 155.537C49.8614 155.247 41.4666 133.385 64.7581 126.237L65.5169 127.167C46.9241 139.161 55.2769 156.842 56.0861 158.445Z" fill="#023E73"/>
<path d="M176.69 129.932C168.01 145.854 141.969 131.888 141.969 131.888C141.969 131.888 140.675 143.119 138.942 146.44C136.878 146.867 130.959 148.01 123.351 148.778C121.657 147.222 119.394 146.272 116.908 146.272C114.343 146.272 112.013 147.284 110.302 148.934C110.294 148.94 110.288 148.946 110.28 148.954C110.277 148.954 110.277 148.957 110.274 148.96C110.047 149.141 109.823 149.334 109.608 149.529C100.58 149.563 91.0289 148.574 83.2753 145.398C83.3817 144.957 83.4881 144.504 83.5861 144.038C83.8914 142.597 84.0874 141.27 84.1854 140.049C85.5854 122.321 66.2254 126.72 66.2254 126.72C65.9845 126.868 65.7493 127.016 65.5169 127.167L64.7581 126.237C41.4666 133.385 49.8614 155.247 49.9734 155.537C46.1148 153.219 41.3462 149.37 38.5657 143.502C33.3239 132.446 36.124 120.435 36.124 120.435C36.124 120.435 47.0445 96.4141 59.365 87.7552C71.6856 79.0963 76.3058 80.3532 76.3058 80.3532C93.0422 89.2579 106.147 122.167 106.25 122.424C106.25 122.427 106.25 122.427 106.25 122.427C104.523 124.972 102.658 127.377 100.647 129.552L110.316 135.611C110.316 135.611 126.327 111.444 130.228 87.029C130.228 87.029 145.083 91.2802 152.486 96.9196C152.486 96.9196 167.47 106.727 182.999 98.4978C183.035 107.025 182.061 120.081 176.69 129.932Z" fill="#EDEDED"/>
<path d="M50.6847 113.173C52.3647 113.439 54.0056 113.964 55.5737 114.656C57.1361 115.357 58.6342 116.24 59.9615 117.355C61.2999 118.452 62.4592 119.785 63.3664 121.276C63.4868 121.458 63.5904 121.651 63.694 121.843C63.7948 122.036 63.9069 122.226 64.0021 122.421C64.1841 122.818 64.3745 123.212 64.5201 123.625C64.8477 124.438 65.0661 125.284 65.2649 126.136L64.4837 125.807C67.0346 124.014 69.4511 121.938 71.554 119.628C72.604 118.472 73.5673 117.237 74.3849 115.922C74.5837 115.589 74.8021 115.268 74.9674 114.919C75.1354 114.575 75.3426 114.237 75.4854 113.894C75.7934 113.218 75.9978 112.478 76.1434 111.726C76.2274 111.352 76.2694 110.967 76.3254 110.587C76.3618 110.201 76.4094 109.816 76.4234 109.428C76.4794 108.651 76.4822 107.869 76.4682 107.087C76.4262 105.52 76.2806 103.947 76.0762 102.383C75.6478 99.252 75.0122 96.1376 74.2113 93.0595C74.7657 94.551 75.239 96.0733 75.6618 97.6124C76.079 99.1514 76.4486 100.704 76.7314 102.28C76.8798 103.065 77.003 103.858 77.1067 104.651C77.2019 105.447 77.2859 106.246 77.3307 107.051C77.4231 108.657 77.4147 110.288 77.1262 111.908C76.9862 112.718 76.7818 113.528 76.4486 114.307C76.107 115.064 75.7458 115.793 75.3062 116.483C74.4549 117.874 73.4609 119.167 72.3828 120.371C71.2964 121.57 70.1203 122.681 68.8995 123.731C68.2891 124.257 67.6618 124.762 67.0234 125.254C66.3766 125.74 65.7325 126.206 65.0409 126.659L64.4025 127.075L64.2569 126.329C63.9433 124.717 63.3972 123.15 62.5936 121.718C61.7956 120.279 60.7315 118.989 59.5079 117.866C58.8974 117.302 58.2394 116.785 57.5478 116.316C56.8589 115.841 56.1421 115.405 55.3973 115.014C53.9048 114.246 52.3311 113.598 50.6847 113.173Z" fill="#BABABA"/>
<path d="M58.8526 88.1267C59.3567 88.1462 59.8467 88.2971 60.3283 88.4535C60.5635 88.5429 60.8015 88.635 61.0339 88.7384L61.7172 89.0792C61.9468 89.1937 62.1512 89.3417 62.3696 89.473C62.5852 89.6099 62.8064 89.7384 63.0052 89.8976C63.4084 90.2048 63.8257 90.5037 64.1897 90.8584C65.7017 92.2215 66.987 93.8248 68.0258 95.5538C68.1574 95.7689 68.2975 95.9811 68.4207 96.199L68.7735 96.8666C69.0087 97.3135 69.2495 97.7548 69.4763 98.2017C69.6835 98.6598 69.8767 99.1235 70.0755 99.5843C70.2687 100.045 70.4844 100.501 70.6412 100.978C70.966 101.925 71.2964 102.872 71.568 103.83C71.8088 104.802 72.0496 105.768 72.2428 106.746C71.8116 105.841 71.4336 104.925 71.05 104.012C70.8708 103.551 70.6412 103.112 70.4395 102.66C70.2323 102.213 70.0363 101.76 69.8347 101.311L68.5271 98.6738C68.2834 98.2492 68.051 97.819 67.813 97.3917L67.4574 96.7493C67.3342 96.5398 67.1942 96.3387 67.0654 96.132L66.2926 94.8918C66.0097 94.4979 65.7185 94.1069 65.4413 93.7075C65.3713 93.6097 65.3041 93.5064 65.2313 93.4086L64.5425 92.5623C64.2457 92.1768 63.9041 91.836 63.5792 91.4757C62.9184 90.7663 62.1932 90.121 61.4175 89.5317L60.8211 89.1099C60.6167 88.9786 60.4039 88.8613 60.1939 88.73C59.7711 88.5038 59.3314 88.2691 58.8526 88.1267Z" fill="#BABABA"/>
<path d="M143.369 100.604C143.629 103.213 143.738 105.827 143.786 108.444C143.803 109.098 143.808 109.752 143.808 110.405L143.803 112.366C143.792 113.673 143.744 114.98 143.71 116.288C143.643 117.595 143.59 118.902 143.5 120.206C143.405 121.511 143.304 122.818 143.167 124.12C142.89 126.723 142.529 129.323 141.969 131.885L142.296 124.058L142.596 116.246L142.75 112.338L142.921 108.43C143.036 105.827 143.167 103.218 143.369 100.604Z" fill="#BABABA"/>
<path d="M152.486 96.9196C152.548 97.4643 152.45 98.0062 152.388 98.5425C152.318 99.0788 152.228 99.6095 152.15 100.143C151.976 101.204 151.811 102.263 151.654 103.319C151.512 104.377 151.352 105.43 151.248 106.492C151.131 107.551 151.033 108.609 150.974 109.671C150.896 110.729 150.862 111.791 150.854 112.855C150.84 113.385 150.851 113.916 150.854 114.447C150.876 114.978 150.879 115.508 150.907 116.042C150.999 118.17 151.246 120.287 151.554 122.427C150.792 120.402 150.294 118.274 150.036 116.114C149.756 113.955 149.728 111.771 149.854 109.601C149.935 108.517 150.042 107.433 150.196 106.361C150.364 105.288 150.546 104.218 150.795 103.165C151.027 102.107 151.313 101.065 151.612 100.028L152.083 98.4838C152.164 98.2269 152.24 97.9699 152.312 97.7129C152.388 97.4476 152.466 97.1906 152.486 96.9196Z" fill="#BABABA"/>
<path d="M100.647 74.7445C100.647 74.7445 95.8451 79.9259 89.7156 79.1605C84.7034 73.725 81.8109 72.105 80.5088 71.6189C80.5872 71.1972 81.4412 69.9849 82.2113 68.9626C82.2113 68.9626 91.3873 75.8422 100.647 74.7445Z" fill="#404040"/>
<path d="M122.077 85.7525C121.718 87.0569 121.301 88.5121 120.825 90.0847C119.699 87.5289 114.668 86.2189 114.668 86.2189C118.308 85.1017 122.077 85.7525 122.077 85.7525Z" fill="#404040"/>
<path d="M114.668 86.2189C114.668 86.2189 119.699 87.5289 120.825 90.0847C119.011 96.0482 116.328 103.696 112.66 111.218C106.774 101.665 101.821 94.403 97.6904 88.8864C97.612 88.7803 97.5336 88.6769 97.4552 88.5736C100.967 85.3447 109.627 85.9396 109.627 85.9396C103.288 81.5627 95.4643 83.1129 93.5462 83.5877C92.1517 81.8839 90.8777 80.4203 89.7156 79.1605C95.8451 79.9259 100.647 74.7445 100.647 74.7445C91.3873 75.8422 82.2113 68.9626 82.2113 68.9626C82.8609 68.0967 83.4461 67.3649 83.4461 67.3649C82.3597 68.1777 80.8812 68.5939 80.7916 68.6191C82.1889 67.7727 83.0709 63.4628 83.0709 63.4628C85.8374 65.1248 89.7184 66.175 89.7184 66.175C88.2904 66.5242 88.0523 67.6833 88.0523 67.6833C95.2823 68.2392 102.907 71.3676 106.544 75.5266C109.283 78.6606 114.542 79.5656 119.534 79.3449C120.996 79.2807 122.432 79.1187 123.776 78.8896C123.776 78.8896 123.233 81.5431 122.077 85.7525C122.077 85.7525 118.308 85.1017 114.668 86.2189Z" fill="white"/>
<path d="M115.746 34.3131C115.746 34.3131 119.067 34.9583 123.009 37.5616C126.946 40.1648 128.047 42.2737 128.047 42.2737C128.047 42.2737 129.889 38.1705 128.231 33.0646C126.574 27.9586 122.194 26.7073 121.155 29.3384C120.114 31.9696 115.746 34.3131 115.746 34.3131Z" fill="#404040"/>
<path d="M88.9176 31.8104C94.6102 28.2212 95.2123 39.4945 96.9035 38.5588C98.5948 37.623 99.3341 34.7181 99.3341 34.7181C99.3341 34.7181 97.584 34.2181 96.3099 31.397C95.1619 28.8496 91.7065 27.3385 88.9176 31.8104Z" fill="#404040"/>
<path d="M140.124 58.5803C140.124 58.5803 140.017 62.8986 135.727 63.6528C135.727 63.6528 135.638 63.8958 135.456 64.2952C134.826 65.675 133.076 68.9123 130.04 70.1832C130.035 70.186 130.029 70.1888 130.023 70.1916C130.009 70.2 129.993 70.2056 129.976 70.214C129.962 70.2196 129.953 70.2224 129.953 70.2224C129.953 70.2224 130.105 73.8032 128.206 76.3757C127.361 77.5154 126.112 78.4595 124.264 78.803C124.233 78.8086 124.202 78.8142 124.168 78.8198C124.166 78.8198 124.166 78.8198 124.163 78.8198C124.045 78.8421 123.928 78.8645 123.81 78.8812C123.807 78.8812 123.804 78.884 123.802 78.884C122.449 79.1159 121.004 79.2807 119.534 79.3449C114.542 79.5656 109.283 78.6606 106.544 75.5266C102.907 71.3676 95.2823 68.2392 88.0523 67.6833C88.0523 67.6833 88.2904 66.5242 89.7184 66.175C89.7184 66.175 85.8374 65.1248 83.0709 63.4628C81.8697 62.7478 80.8812 61.9154 80.5088 61.002C80.5088 61.002 81.9677 60.178 83.0457 58.4072L81.0688 59.3541C81.0688 59.3541 80.9232 55.91 84.3142 54.3291C84.3142 54.3291 82.5753 54.114 82.5389 53.2537C82.5389 53.2537 85.0926 52.2845 85.605 50.8237C85.605 50.8237 85.031 50.8488 84.1434 50.3097C84.1434 50.3097 88.0243 46.6953 88.5032 44.377C88.9792 42.0558 85.143 39.919 88.0383 33.4696C88.3212 32.8439 88.6152 32.2908 88.9148 31.8076C94.6074 28.2184 95.2123 39.4917 96.9008 38.5588C98.592 37.623 99.3313 34.7181 99.3313 34.7181C99.3313 34.7181 109.443 31.8467 115.743 34.3103C115.743 34.3103 116.905 34.5338 118.666 35.2572C119.285 35.5086 119.979 35.8242 120.724 36.2153C121.444 36.5924 122.211 37.0365 123.006 37.5588C123.928 38.1677 124.692 38.7487 125.322 39.2794C125 39.2738 124.664 39.2878 124.32 39.3269C120.402 39.771 121.494 45.6144 123.642 43.2793C124.608 42.2346 126.165 41.7793 127.587 41.5978C127.915 42.0251 128.044 42.2709 128.044 42.2709C128.044 42.2709 128.425 42.7904 128.845 43.5725C128.343 43.5362 127.786 43.5251 127.167 43.5502C121.556 43.7876 121.514 49.3963 122.696 50.751C122.718 50.7762 122.743 50.8041 122.771 50.832C123.709 51.8711 124.896 52.5554 126.915 52.7202C127.419 52.7621 127.982 52.7677 128.604 52.7426C129.167 52.7174 129.71 52.6029 130.225 52.4158C130.256 50.589 129.979 47.078 129.979 47.078C129.979 47.078 131.541 49.7008 132.885 50.2818C133.129 50.3879 133.358 50.427 133.577 50.3767C133.577 50.3767 133.622 51.427 132.773 51.7985C132.762 51.8013 132.754 51.8069 132.745 51.8124C133.112 51.8599 134.663 52.1839 134.747 54.2062C134.845 56.5022 137.699 55.8067 137.699 55.8067C137.699 55.8067 137.472 57.2536 136.332 57.5915C136.332 57.5915 138.144 59.5272 140.124 58.5803Z" fill="white"/>
<path d="M102.935 42.7541C102.935 42.7541 107.95 41.7011 110.288 43.8435C112.629 45.9886 113.22 40.0755 109.28 39.9609C105.34 39.8464 102.935 42.7541 102.935 42.7541Z" fill="#404040"/>
<path d="M111.867 51.2063C110.803 52.6532 109.311 53.5582 106.15 53.6923C102.985 53.8263 100.056 51.0695 100.751 47.5724L100.748 47.4718C100.748 47.4718 101.188 44.6507 106.799 44.4133C106.847 44.4105 106.894 44.4105 106.942 44.4077C108.678 44.3658 109.913 44.8881 110.759 45.673C112.581 47.3489 112.587 50.2259 111.867 51.2063Z" fill="#E0B344"/>
<path d="M108.714 51.184C107.32 51.2426 106.119 49.6002 106.029 47.5137C105.976 46.254 106.34 45.12 106.942 44.4077C108.678 44.3658 109.913 44.8881 110.759 45.673C110.941 46.1618 111.053 46.7121 111.078 47.2986C111.167 49.3852 110.109 51.1253 108.714 51.184Z" fill="#404040"/>
<path d="M123.645 43.282C124.608 42.2346 126.168 41.7821 127.59 41.6005C127.187 41.0698 126.476 40.257 125.328 39.2822C125.328 39.2822 125.328 39.2822 125.325 39.2822C125.003 39.2766 124.664 39.2906 124.32 39.3297C120.405 39.7738 121.494 45.6144 123.645 43.282Z" fill="#404040"/>
<path d="M130.225 52.4158C129.71 52.6029 129.167 52.7174 128.604 52.7426C127.982 52.7677 127.419 52.7621 126.915 52.7202C124.896 52.5554 123.709 51.8711 122.771 50.832C122.743 50.8041 122.718 50.7762 122.696 50.751C121.617 49.5164 121.559 44.7457 125.806 43.7345C126.218 43.634 126.672 43.5725 127.167 43.5502C127.786 43.5251 128.343 43.5362 128.845 43.5725C129.351 44.5083 129.925 45.8266 129.979 47.078C129.979 47.078 129.987 47.2009 130.004 47.4104C130.071 48.3293 130.25 50.9298 130.225 52.4158Z" fill="#E0B344"/>
<path d="M131.323 56.4966C131.824 57.6083 132.138 58.7982 132.362 60.0021C132.574 61.2087 132.689 62.4377 132.686 63.6695C132.686 64.8985 132.608 66.1443 132.292 67.3733C132.14 67.9878 131.93 68.5967 131.611 69.1777C131.446 69.4654 131.264 69.7475 131.026 70.0045C130.97 70.0715 130.908 70.133 130.844 70.1944C130.782 70.2559 130.715 70.3173 130.642 70.3732C130.572 70.4318 130.494 70.4849 130.415 70.538C130.323 70.591 130.264 70.6329 130.11 70.6944L130.068 70.7112L130.012 70.7167C129.654 70.7531 129.354 70.7503 129.029 70.7363C128.713 70.7195 128.397 70.6804 128.083 70.6274C127.459 70.5156 126.84 70.3341 126.263 70.0603C125.683 69.7922 125.129 69.457 124.644 69.038C124.14 68.6386 123.723 68.1526 123.331 67.6526L124.166 67.7224C123.376 68.4571 122.547 69.038 121.651 69.5659C120.758 70.0883 119.811 70.524 118.82 70.848C116.843 71.4821 114.645 71.6357 112.618 70.929C111.618 70.5631 110.717 69.9738 109.958 69.2559C109.204 68.5297 108.594 67.6778 108.138 66.756C107.261 64.9041 106.939 62.7925 107.362 60.8316C107.202 62.8232 107.681 64.8091 108.642 66.4879C109.126 67.3258 109.745 68.0772 110.47 68.6917C111.19 69.309 112.016 69.795 112.909 70.0771C113.808 70.3452 114.743 70.4346 115.695 70.3899C116.644 70.348 117.577 70.1218 118.481 69.8257C119.386 69.5241 120.259 69.1107 121.085 68.6163C121.903 68.1247 122.71 67.5409 123.39 66.9264L123.846 66.513L124.224 66.9962C124.563 67.4292 124.916 67.8537 125.344 68.1973C125.756 68.5576 126.226 68.8453 126.719 69.0827C127.212 69.3174 127.736 69.4989 128.279 69.6078C128.551 69.6637 128.822 69.7028 129.099 69.7252C129.368 69.7475 129.665 69.7531 129.897 69.7363L129.799 69.7587C129.788 69.7643 129.861 69.7307 129.9 69.7056C129.948 69.6749 129.995 69.647 130.043 69.6078C130.091 69.5743 130.138 69.5324 130.186 69.4905C130.233 69.4486 130.278 69.4067 130.323 69.3565C130.505 69.1721 130.656 68.9431 130.807 68.714C131.096 68.242 131.314 67.7057 131.477 67.1498C131.569 66.8761 131.625 66.5856 131.695 66.3007C131.751 66.013 131.804 65.7225 131.852 65.4292C131.888 65.136 131.933 64.8427 131.964 64.5466C131.989 64.2477 132.02 63.9516 132.037 63.6528C132.107 62.4601 132.096 61.2562 131.984 60.0579C131.869 58.8569 131.681 57.6586 131.323 56.4966Z" fill="#BABABA"/>
<path d="M124.068 62.4936C124.356 62.8679 124.516 63.2701 124.63 63.6835C124.742 64.0941 124.793 64.5187 124.784 64.946C124.779 65.3734 124.714 65.8063 124.563 66.2253C124.412 66.6359 124.18 67.066 123.776 67.323C123.757 66.8566 123.715 66.4795 123.692 66.0884C123.673 65.703 123.659 65.3175 123.664 64.9293C123.673 64.541 123.698 64.1472 123.754 63.7449C123.813 63.3371 123.897 62.9293 124.068 62.4936Z" fill="#BABABA"/>
<path d="M116.3 57.5189C116.432 60.5831 118.666 60.4909 118.666 60.4909L119.153 58.7954C120.646 60.9657 124.068 62.4964 124.068 62.4964C124.068 62.4964 127.349 60.6836 128.651 58.3932L129.281 60.0412C129.281 60.0412 131.516 59.9462 131.387 56.8821C131.255 53.818 123.844 57.2005 123.844 57.2005C123.844 57.2005 116.168 54.4548 116.3 57.5189Z" fill="#404040"/>
<path d="M104.335 60.8149L100.771 58.3764L98.788 52.4242L98.83 60.1836L104.335 60.8149Z" fill="#404040"/>
<path d="M104.301 66.8538L96.3155 62.016L93.255 55.7313L93.9914 48.0277L91.1437 55.6224L94.6382 63.2366L104.301 66.8538Z" fill="#404040"/>
<path d="M115.866 50.6952C115.891 51.2063 115.858 51.6644 115.81 52.1141C115.762 52.561 115.692 52.9912 115.628 53.4157C115.566 53.8403 115.488 54.2537 115.426 54.6783C115.368 55.1028 115.314 55.5246 115.272 56.0413C114.88 55.7034 114.662 55.2118 114.547 54.7229C114.441 54.2285 114.449 53.7258 114.522 53.2426C114.598 52.7593 114.754 52.2957 114.97 51.8627C115.191 51.4298 115.466 51.022 115.866 50.6952Z" fill="#BABABA"/>
<path d="M130.004 47.4104C129.802 49.0751 128.859 50.3432 127.671 50.3935C126.277 50.4522 125.076 48.8098 124.986 46.7233C124.936 45.5306 125.258 44.4496 125.806 43.7345C126.218 43.634 126.672 43.5725 127.167 43.5502C127.786 43.5251 128.343 43.5362 128.845 43.5725C129.351 44.5083 129.925 45.8266 129.979 47.078C129.979 47.078 129.987 47.2009 130.004 47.4104Z" fill="#404040"/>
<path d="M131.006 55.9994L128.643 54.4492C127.867 53.9436 127.083 53.4632 126.291 53.0023C125.902 52.7621 125.493 52.5554 125.095 52.3236C124.686 52.1197 124.289 51.8823 123.872 51.6895C123.054 51.2538 122.2 50.9047 121.329 50.4633C122.295 50.4494 123.272 50.5806 124.196 50.8739L124.546 50.9773L124.888 51.103C125.115 51.1868 125.342 51.2789 125.566 51.3711C126.002 51.5778 126.442 51.7845 126.857 52.0359C127.694 52.5247 128.478 53.0973 129.183 53.7565C129.886 54.4185 130.53 55.1503 131.006 55.9994Z" fill="#BABABA"/>
<path d="M128.847 43.5725C129.122 43.8379 129.301 44.1898 129.461 44.5362C129.617 44.8853 129.741 45.2512 129.85 45.6172C130.063 46.3546 130.191 47.1087 130.303 47.8629C130.387 48.6198 130.463 49.3796 130.485 50.1393C130.494 50.5192 130.513 50.8991 130.513 51.2789L130.502 52.4186L130.429 52.2286C130.838 52.6923 131.155 53.1839 131.432 53.709C131.709 54.2313 131.922 54.79 132.07 55.3598C132.224 55.9296 132.292 56.5246 132.275 57.1083C132.278 57.6977 132.14 58.2731 131.972 58.8206C132.04 58.2452 132.098 57.6781 132.031 57.1139L132.014 56.9044L131.981 56.6949C131.956 56.5553 131.942 56.4156 131.911 56.2787C131.844 56.005 131.776 55.7341 131.684 55.4687C131.508 54.938 131.27 54.4297 130.992 53.9436C130.712 53.466 130.382 52.994 130.026 52.5973L129.953 52.5135V52.4046C129.951 51.6532 129.959 50.9019 129.939 50.1505C129.917 49.4019 129.892 48.6506 129.833 47.9048C129.771 47.159 129.69 46.4132 129.556 45.6786C129.483 45.3127 129.41 44.944 129.295 44.5893C129.186 44.2429 129.069 43.8826 128.847 43.5725Z" fill="#BABABA"/>
<path d="M114.992 36.9303L115.642 38.6286L111.979 38.9219L111.4 40.5335L112.615 39.8045L116.14 39.6565L116.518 41.1816L114.273 41.2765L117.916 44.5725L119.783 41.0447L117.482 41.1425L117.12 39.433L120.562 39.0001L122.301 39.2152L120.811 38.0532L117.073 38.285L117 36.5644L120.733 36.2237C119.988 35.8326 119.293 35.517 118.675 35.2628H118.669L116.664 35.4276L115.477 34.6148L114.715 35.7963L110.635 35.9695L109.042 39.1984L111.263 37.2069L114.992 36.9303Z" fill="#404040"/>
<path d="M129.953 70.2251C130.158 71.5072 130.057 72.8451 129.699 74.1272C129.511 74.7669 129.245 75.3897 128.898 75.9735C128.551 76.5573 128.111 77.0908 127.607 77.5573C126.599 78.5042 125.305 79.0963 123.995 79.4371C123.334 79.6019 122.662 79.6968 121.993 79.7499C121.659 79.7751 121.318 79.789 120.99 79.7946L120.019 79.8114C118.722 79.8114 117.426 79.8253 116.124 79.7862C114.822 79.7332 113.503 79.6745 112.189 79.3924C111.534 79.2527 110.879 79.0572 110.266 78.7695C109.65 78.4846 109.081 78.1131 108.563 77.6969C107.538 76.8478 106.693 75.8562 105.895 74.8367C106.872 75.6886 107.827 76.5713 108.885 77.2584C109.935 77.9623 111.111 78.3673 112.346 78.5405C113.584 78.7053 114.861 78.7416 116.143 78.7332C117.426 78.736 118.717 78.7192 120.01 78.6969L120.979 78.6913C121.298 78.6885 121.603 78.6801 121.917 78.6634C122.539 78.6243 123.152 78.5377 123.751 78.4092C124.952 78.1578 126.086 77.6578 127.036 76.9009C127.979 76.1411 128.71 75.1076 129.181 73.9485C129.657 72.7865 129.911 71.5156 129.953 70.2251Z" fill="#BABABA"/>
<path d="M100.051 70.8871C99.04 70.6162 98.0376 70.3508 97.0351 70.0967C96.0327 69.8453 95.0331 69.5939 94.0278 69.376C93.0254 69.1498 92.0201 68.9291 91.0121 68.742C90.0068 68.5381 88.9932 68.3816 87.9823 68.2196L87.5147 68.1442L87.5119 67.7085C87.5119 67.5995 87.5175 67.5465 87.5259 67.4711C87.5343 67.4012 87.5455 67.3314 87.5623 67.2644C87.5931 67.1303 87.6379 66.9962 87.6967 66.8677C87.8143 66.6108 87.9907 66.3677 88.2176 66.189C88.4416 66.0102 88.6992 65.8845 88.9512 65.8175C89.0772 65.7784 89.2032 65.7644 89.3292 65.7393C89.4524 65.7281 89.5756 65.7225 89.696 65.7169L89.5952 66.6275C89.1332 66.4767 88.6796 66.3203 88.226 66.1583C87.7751 65.9935 87.3271 65.8091 86.8847 65.6248C86.4423 65.4348 86.0054 65.2225 85.577 64.9991C85.1542 64.7645 84.7286 64.5159 84.3814 64.1779C84.807 64.4041 85.255 64.5494 85.7086 64.6862C86.1595 64.8259 86.6187 64.946 87.0779 65.0661C87.5343 65.189 87.9963 65.2952 88.4556 65.4097C88.9148 65.5242 89.3768 65.6331 89.836 65.7309L92.2749 66.256L89.4776 66.6806C89.3992 66.7057 89.3152 66.7169 89.2452 66.7476C89.0968 66.7979 88.9792 66.8789 88.8812 66.9627C88.7832 67.0493 88.716 67.161 88.6656 67.2867C88.6404 67.3509 88.6236 67.418 88.6096 67.485C88.604 67.5185 88.5984 67.5549 88.5956 67.5884C88.5928 67.6163 88.5928 67.6666 88.5928 67.6638L88.1224 67.1526C89.1668 67.2783 90.2056 67.4375 91.2333 67.661C92.2609 67.8761 93.2774 68.1386 94.2798 68.4487C95.2795 68.7615 96.2679 69.1079 97.234 69.5129C98.2 69.9095 99.152 70.3508 100.051 70.8871Z" fill="#BABABA"/>
<path d="M109.627 85.9396C109.627 85.9396 100.967 85.3447 97.4552 88.5736C96.0579 86.7161 94.7559 85.0626 93.5462 83.5877C95.4643 83.1129 103.288 81.5627 109.627 85.9396Z" fill="#404040"/>
<path d="M109.907 89.864C109.907 89.864 111.733 89.3166 112.769 91.0484C112.769 91.0484 113.559 89.4562 115.508 89.783C115.508 89.783 112.769 92.1852 112.769 94.7912C112.769 94.7912 113.074 92.5371 109.907 89.864Z" fill="#404040"/>
<path d="M107.947 96.4755C107.947 96.4755 110.845 95.6068 112.486 98.3525C112.486 98.3525 113.738 95.8275 116.829 96.3442C116.829 96.3442 112.486 100.151 112.486 104.288C112.486 104.288 112.971 100.716 107.947 96.4755Z" fill="#404040"/>
<path d="M179.054 91.2914C165.297 96.4392 154.569 88.5931 154.569 88.5931C154.569 88.5931 144.909 82.5878 146.029 77.8394C147.146 73.1021 150.305 73.0965 150.319 73.0965C150.319 73.0965 146.309 63.0355 158.63 61.6389C170.95 60.2423 176.769 65.7421 177.08 67.323C177.337 68.633 178.897 80.2359 179.115 87.4843C179.16 88.9842 179.146 90.2942 179.054 91.2914Z" fill="white"/>
<path d="M179.054 91.2914C179.146 90.2942 179.16 88.9842 179.115 87.4843C179.157 87.4843 182.013 87.4926 182.571 89.7104C181.381 90.3361 180.205 90.8584 179.054 91.2914Z" fill="#042F4F"/>
<path d="M155.829 80.6326C155.404 80.789 154.942 80.87 154.463 80.8504C153.99 80.8253 153.505 80.7024 153.063 80.4845C152.172 80.0404 151.512 79.2555 151.066 78.4315C150.627 77.5964 150.366 76.697 150.246 75.7976C150.128 74.8981 150.123 73.9848 150.316 73.0965C150.588 73.9596 150.831 74.792 151.103 75.5992C151.372 76.4093 151.68 77.1858 152.055 77.9036C152.441 78.6131 152.9 79.2611 153.519 79.7359C153.83 79.9734 154.18 80.1633 154.567 80.3141C154.959 80.4733 155.381 80.5432 155.829 80.6326Z" fill="#BABABA"/>
<path d="M157.229 65.27C157.047 66.9348 156.818 68.5772 156.608 70.214C156.409 71.8508 156.21 73.4848 156.135 75.102C156.098 75.9093 156.093 76.7165 156.188 77.4818C156.233 77.8617 156.314 78.2332 156.443 78.5461C156.507 78.7025 156.588 78.8393 156.678 78.9427C156.77 79.0544 156.846 79.1075 157.047 79.2052C157.221 79.2974 157.395 79.3868 157.577 79.4566C157.756 79.5404 157.941 79.5991 158.126 79.6633C158.31 79.7359 158.504 79.7723 158.694 79.8281C158.887 79.8644 159.083 79.9091 159.279 79.9287C159.674 79.9901 160.077 80.0041 160.486 79.9818C160.892 79.9594 161.304 79.9035 161.707 79.789C160.251 80.6661 158.302 80.6745 156.681 79.9929C156.574 79.9482 156.487 79.9259 156.347 79.8477C156.221 79.7778 156.107 79.6913 156.006 79.5963C155.804 79.4036 155.661 79.1829 155.549 78.965C155.323 78.5237 155.216 78.0768 155.135 77.6383C154.984 76.7584 154.981 75.8981 155.015 75.049C155.099 73.3507 155.373 71.6888 155.748 70.0575C156.129 68.4319 156.597 66.8258 157.229 65.27Z" fill="#BABABA"/>
<path d="M163.636 68.9487C163.479 70.5547 163.297 72.1385 163.18 73.7138C163.129 74.5015 163.087 75.2864 163.09 76.0601C163.096 76.831 163.135 77.6047 163.297 78.3086C163.379 78.655 163.493 78.9874 163.656 79.2388C163.815 79.4957 164.053 79.7164 164.328 79.884C164.891 80.222 165.63 80.3365 166.372 80.3337C167.12 80.3197 167.887 80.194 168.62 79.9566C168.99 79.8421 169.351 79.6968 169.687 79.5069C169.858 79.4147 170.015 79.3058 170.16 79.1773C170.309 79.0516 170.432 78.9008 170.494 78.7053C170.499 78.9092 170.404 79.1131 170.289 79.2862C170.169 79.4566 170.026 79.6158 169.869 79.7555C169.558 80.0376 169.2 80.2583 168.833 80.4594C168.088 80.8393 167.282 81.1046 166.428 81.2024C166.002 81.2554 165.565 81.2638 165.12 81.208C164.678 81.1521 164.227 81.032 163.804 80.8085C163.381 80.5851 163.003 80.2583 162.726 79.8477C162.449 79.4287 162.306 78.9902 162.2 78.5628C162.006 77.7025 161.992 76.8646 162.023 76.0406C162.065 75.2166 162.158 74.4065 162.309 73.6077C162.603 72.01 163.029 70.4458 163.636 68.9487Z" fill="#BABABA"/>
</g>
<defs>
<filter id="filter0_d_522_3" x="19" y="28" width="175" height="238" filterUnits="userSpaceOnUse" color-interpolation-filters="sRGB">
<feFlood flood-opacity="0" result="BackgroundImageFix"/>
<feColorMatrix in="SourceAlpha" type="matrix" values="0 0 0 0 0 0 0 0 0 0 0 0 0 0 0 0 0 0 127 0" result="hardAlpha"/>
<feOffset dx="7" dy="4"/>
<feGaussianBlur stdDeviation="2"/>
<feComposite in2="hardAlpha" operator="out"/>
<feColorMatrix type="matrix" values="0 0 0 0 0 0 0 0 0 0 0 0 0 0 0 0 0 0 0.25 0"/>
<feBlend mode="normal" in2="BackgroundImageFix" result="effect1_dropShadow_522_3"/>
<feBlend mode="normal" in="SourceGraphic" in2="effect1_dropShadow_522_3" result="shape"/>
</filter>
</defs>
</svg>
